<svg xmlns="http://www.w3.org/2000/svg" width="32" height="32" viewBox="0 0 32 32">
  <path fill-rule="evenodd" d="M25.3103448,13.7128968 L24.3419682,14.0964123 L25.0778386,14.8333099 C25.8948635,15.6523894 25.7496755,16.1858869 25.7020785,16.3612082 C25.2747327,17.9301975 21.5806566,19.4368656 19.3525001,20.0176176 L18.690251,20.1901996 L18.8618057,20.8524486 C19.1319787,21.8930768 19.016924,22.6529169 18.5108206,23.1757992 C17.1116738,24.6204884 13.0724339,24.2027304 11.1623897,23.8373634 C10.7977076,21.9280042 10.3792648,17.8880793 11.8242964,16.489275 C12.3468362,15.9831715 13.1066763,15.8681169 14.1476469,16.1379474 L14.8102384,16.3095021 L14.982478,15.6472531 C15.5618603,13.4201238 17.0664738,9.72639017 18.6385449,9.29801706 C18.8145511,9.25076247 19.3477062,9.10488961 20.1667857,9.92225701 L20.9036833,10.6577849 L21.2871988,9.68940832 C21.309114,9.63427796 23.4770038,4.36950051 30.4412343,4.36950051 C30.5035556,4.36950051 30.5665617,4.36984294 30.6292254,4.37087021 C30.730583,11.4439917 25.5360026,13.6218118 25.3103448,13.7128968 M31.9746114,3.67026958 C32.2266359,8.13822511 30.553892,10.9714458 29.106121,12.561323 C28.1980111,13.5591482 27.2676436,14.2025639 26.6286794,14.5744369 C27.1858041,15.4315256 27.167998,16.1910232 27.0231524,16.7214389 C26.3660397,19.1338198 22.0275207,20.6555545 20.3222464,21.1671368 C20.4989375,22.3841137 20.2215736,23.3785145 19.4939214,24.1291092 C18.4050114,25.253289 16.4912006,25.5666074 14.6968959,25.5666074 C13.0625035,25.5666074 11.528784,25.3070496 10.8048985,25.1632313 L7.17828008,28.7898497 L6.20990345,27.8214731 L9.83686429,24.1948547 C9.53587311,22.6775715 8.7226148,17.5870881 10.870644,15.5061741 C11.621581,14.778522 12.6173516,14.5011581 13.8329588,14.6778492 C14.3445411,12.9725749 15.8662758,8.63371343 18.2786567,7.97660072 C18.8087299,7.83209756 19.56857,7.81394906 20.4256586,8.37141623 C20.7975317,7.73210959 21.4409474,6.80208451 22.4387726,5.89363218 C24.0286498,4.44620361 26.8584462,2.77448696 31.3294836,3.02514173 L31.940369,3.05972661 L31.9746114,3.67026958 Z M13.0706532,20.9609972 L14.0390299,21.9293739 L21.5460033,14.4224004 L20.5776267,13.4540238 L13.0706532,20.9609972 Z M0,28.9906475 L0,27.6209493 L3.99164298,27.6209493 L3.99164298,28.9906475 L0,28.9906475 Z"/>
</svg>
