<svg xmlns="http://www.w3.org/2000/svg" width="32" height="32" viewBox="0 0 32 32">
  <path fill-rule="evenodd" d="M11.9210796,30.6653668 L12.4078871,28.9149953 L19.9939423,28.9149953 L20.4807497,30.6653668 L11.9210796,30.6653668 Z M18.1664958,27.5803621 L21.0079299,27.5803621 L22.2374607,32 L10.1643687,32 L11.3938995,27.5803621 L14.2356673,27.5803621 L14.2356673,23.6712215 L15.5706342,23.6712215 L15.5706342,27.5803621 L16.8318625,27.5803621 L16.8318625,23.6712215 L18.1664958,23.6712215 L18.1664958,27.5803621 Z M27.874918,3.96953283 C30.5718781,4.68723184 32.0356371,8.01380511 31.1384299,11.3847549 C30.3573358,14.3192797 28.0407462,16.3359105 25.6747752,16.3359105 C25.4982699,16.3359105 25.3217647,16.3248998 25.1455931,16.3018773 C23.4035631,19.6928467 20.0476279,21.9947553 16.2008813,21.9947553 C12.3541348,21.9947553 8.99853321,19.6928467 7.25683687,16.302211 C7.0749931,16.3262344 6.89248201,16.3385798 6.70963726,16.3385798 C5.70599308,16.3385798 4.69367379,15.9782288 3.77778175,15.2808829 C2.58328503,14.3716641 1.69041541,12.9883167 1.2640001,11.3847549 C0.366792923,8.01380511 1.83088555,4.68723184 4.52751196,3.96986648 C5.0056443,3.84207535 5.49412006,3.80303733 5.98626606,3.84908218 L5.98626606,1.67262907 C5.98626606,0.750397523 6.73666358,0 7.65889513,0 L24.7435349,0 C25.1903033,0 25.6100455,0.174169634 25.9260199,0.489810388 C26.2419943,0.805784801 26.4161639,1.2258606 26.4158303,1.67296273 L26.4158303,3.84874852 C26.9083099,3.80270367 27.396452,3.84207535 27.874918,3.96953283 Z M29.8488405,11.0414206 C30.5565298,8.38149656 29.5171842,5.78763692 27.5319173,5.25912217 C27.1688971,5.16269492 26.7948661,5.14401005 26.4158303,5.19539343 L26.4158303,10.9973777 C26.4158303,12.4104206 26.1645856,13.7604021 25.7114776,15.0026119 C27.4721925,14.9892656 29.2289034,13.3706892 29.8488405,11.0414206 Z M16.2008813,20.6601221 C21.0976506,20.6601221 25.0811971,16.3255671 25.0811971,10.9973777 L25.0811971,1.67262907 C25.0811971,1.55084379 25.0194703,1.47043214 24.9824342,1.43372973 C24.9453981,1.39669365 24.8653201,1.33463321 24.7435349,1.33463321 L7.65889513,1.33463321 C7.47271379,1.33463321 7.32089927,1.48611408 7.32089927,1.67262907 L7.32089927,10.9973777 C7.32089927,16.3255671 11.3044457,20.6601221 16.2008813,20.6601221 Z M4.58623582,14.2188486 C5.25588803,14.7286785 5.9819285,14.9936031 6.68961776,14.9999427 C6.23751076,13.7587338 5.98626606,12.4097532 5.98626606,10.9973777 L5.98626606,5.19505977 C5.60756388,5.14334273 5.23386658,5.16302857 4.87051269,5.25945582 C2.88524579,5.78797058 1.84590018,8.38149656 2.55358944,11.0414206 C2.90459797,12.3600382 3.62630088,13.4884705 4.58623582,14.2188486 Z M18.9912324,7.65495561 C20.8914164,7.67197218 21.5317067,7.67797803 21.7489182,8.34763024 C21.968799,9.0249566 21.4599701,9.40132316 19.7726601,10.6488716 C19.5838095,10.7886744 19.3802779,10.9391543 19.1613981,11.1019795 C19.2648322,11.4333022 19.3609257,11.735263 19.4480106,12.0081955 C20.0182326,13.7986059 20.2104198,14.4021938 19.644869,14.8182657 C19.073646,15.2390088 18.5598122,14.8799925 16.8564865,13.6888324 C16.6549569,13.5480285 16.4367444,13.3955467 16.2005143,13.2313868 C15.9102316,13.4339174 15.6466415,13.6194314 15.4084095,13.7872616 C14.2766405,14.5853722 13.6940731,14.9961056 13.2406315,14.9961056 C13.0748033,14.9961056 12.9259917,14.941052 12.7738435,14.8302774 C12.2009522,14.4118699 12.3878009,13.8172908 13.0060697,11.8467049 C13.0778063,11.6178153 13.1558823,11.3699071 13.2386296,11.1026468 C12.9580229,10.8941104 12.7007724,10.7055935 12.4678789,10.5350941 C10.9427268,9.4170051 10.428893,9.04063854 10.6434353,8.37031901 C10.8603132,7.69199168 11.4959322,7.68331656 13.6026508,7.65562292 C13.8405491,7.65228634 14.097466,7.64928342 14.3737351,7.6446122 C14.4881799,7.31429048 14.5902793,7.01199606 14.6827027,6.73906357 C15.2856232,4.95933018 15.4888211,4.35941255 16.1905046,4.35841158 L16.1925065,4.35841158 C16.8991948,4.35841158 17.1003907,4.94598385 17.7660391,6.88787517 C17.8454497,7.12043501 17.9318672,7.37234703 18.0262925,7.64427854 C18.3789694,7.64961707 18.7002823,7.65228634 18.9912324,7.65495561 Z M18.9792207,9.57582646 C19.2524868,9.37396318 19.5200808,9.17610381 19.7536416,8.99893125 C19.5137413,8.99426003 19.2491502,8.99192443 18.9792207,8.98958882 C18.5614805,8.98558492 18.0806788,8.98158102 17.5358148,8.97090395 L17.0730308,8.96122786 L16.9195479,8.5248028 C16.7623949,8.07736702 16.6249277,7.67630974 16.503476,7.32062999 C16.3967054,7.00966045 16.2922703,6.70469676 16.1968441,6.43643549 C16.117767,6.66232216 16.0330178,6.91256588 15.946934,7.16714717 C15.8134707,7.56053031 15.6603215,8.01297097 15.4804797,8.5248028 L15.3273305,8.96122786 L14.8642128,8.97090395 C14.4034307,8.97991273 13.9890271,8.98525126 13.6203347,8.99025613 C13.2766666,8.99492735 12.9400054,8.99893125 12.6437168,9.00660539 C12.8332347,9.14807651 13.0431058,9.30189299 13.2569808,9.45837873 C13.5933083,9.70528588 13.9806856,9.98889543 14.4154424,10.3155469 L14.7901407,10.5964872 L14.6533408,11.0442566 C14.5165409,11.4916924 14.3910853,11.8914151 14.2796435,12.2464275 C14.1805469,12.5614009 14.083786,12.8700349 14.0013724,13.1436347 C14.1998991,13.0065011 14.417778,12.8530183 14.6396608,12.6968662 C14.9806596,12.4559649 15.3733754,12.1793622 15.8218121,11.8703946 L16.2001806,11.6101411 L16.5788828,11.8703946 C16.9675947,12.1379886 17.3139321,12.3802245 17.6212314,12.5951004 C17.8961658,12.7876213 18.1657617,12.9758046 18.4053284,13.1392971 C18.3355938,12.9137441 18.2565168,12.665836 18.1764388,12.4132567 C18.0503159,12.0175379 17.9051746,11.562428 17.7466869,11.0442566 L17.609887,10.5968209 L17.9845853,10.3155469 C18.351943,10.0399452 18.6835994,9.79437264 18.9792207,9.57582646 Z"/>
</svg>
