<svg xmlns="http://www.w3.org/2000/svg" width="32" height="32" viewBox="0 0 32 32">
  <path fill-rule="evenodd" d="M27.9996667,5.63433333 C29.7023333,5.96466667 32,6.68066667 32,8.14666667 L32,28.7456667 L31.238,28.6353333 C28.403,28.2253333 25.8916667,28.0343333 23.3336667,28.0343333 C21.278,28.0343333 20.0843333,28.1586667 17.918,28.3843333 C17.3546667,28.443 16.7236667,28.5083333 16,28.58 L16,28.8626667 L15.27,28.6516667 L14.6666667,28.7096667 L14.6666667,28.5023333 C13.2806667,28.2253333 10.63,28.0343333 7.99966667,28.0343333 C5.37933333,28.0343333 3.578,28.2283333 0.762,28.6356667 L0,28.7456667 L0,8.14666667 C0,6.14733333 4.018,5.25233333 7.99966667,5.25233333 C11.0086667,5.25233333 14.0366667,5.764 15.338,6.87633333 C16.1023333,6.24166667 17.408,5.85933333 18.6663333,5.629 L18.6663333,3 L27.9996667,3 L27.9996667,5.63433333 Z M30.6666667,27.2096667 L30.6666667,8.14666667 C30.6356667,7.967 29.9323333,7.40333333 27.9996667,6.99466667 L27.9996667,18.376 C28,18.8266667 27.7213333,19.234 27.2723333,19.438 C26.7866667,19.6586667 26.235,19.595 25.8666667,19.2766667 L23.4636667,17.2463333 L20.8343333,19.3123333 C20.6286667,19.489 20.341,19.5823333 20.037,19.5823333 C19.8236667,19.5823333 19.6023333,19.5363333 19.395,19.441 C18.9456667,19.2343333 18.6663333,18.8316667 18.6663333,18.3903333 L18.6663333,6.987 C16.6553333,7.38966667 16,7.96166667 16,8.14666667 L16,27.2403333 C16.6676667,27.174 17.252,27.113 17.7796667,27.058 C19.991,26.8276667 21.2086667,26.701 23.3336667,26.701 C25.725,26.701 28.0736667,26.8633333 30.6666667,27.2096667 Z M7.99966667,26.701 C10.1583333,26.701 12.941,26.8416667 14.6666667,27.1456667 L14.6666667,8.14666667 C14.6666667,7.68 12.3983333,6.58566667 7.99966667,6.58566667 C3.60166667,6.58566667 1.33333333,7.68 1.33333333,8.14666667 L1.33333333,27.2076667 C3.79466667,26.865 5.54366667,26.701 7.99966667,26.701 Z M4.68666667,13.6665333 L4.68666667,12.3332 L11.3456667,12.3332 L11.3456667,13.6665333 L4.68666667,13.6665333 Z M4.68666667,17.6665333 L4.68666667,16.3332 L11.3456667,16.3332 L11.3456667,17.6665333 L4.68666667,17.6665333 Z M4.68666667,21.6665333 L4.68666667,20.3332 L11.3456667,20.3332 L11.3456667,21.6665333 L4.68666667,21.6665333 Z M19.9996667,18.273 C20.0006667,18.2723333 20.002,18.2713333 20.003,18.2706667 L19.9996667,18.273 Z M19.9996667,4.33333333 L19.9996667,18.2446667 C20.0106667,18.247 20.0213333,18.2483333 20.031,18.2486667 L22.693,16.157 C23.121,15.789 23.8236667,15.7926667 24.2703333,16.1826667 L26.6663333,18.207 L26.6663333,4.33333333 L19.9996667,4.33333333 Z"/>
</svg>
