<svg xmlns="http://www.w3.org/2000/svg" width="32" height="32" viewBox="0 0 32 32">
  <path fill-rule="evenodd" d="M13.3326528,11.1037666 C13.3326528,12.3330372 12.3327039,13.3326528 11.1037666,13.3326528 L3.56248483,13.3326528 C2.33321424,13.3326528 1.33326528,12.3330372 1.33326528,11.1037666 L1.33326528,3.56248483 C1.33326528,2.33354756 2.33321424,1.3335986 3.56248483,1.3335986 L11.1037666,1.3335986 C12.3327039,1.3335986 13.3326528,2.33354756 13.3326528,3.56248483 L13.3326528,11.1037666 Z M11.1037666,0 C13.0679997,0 14.6659181,1.59825176 14.6659181,3.56248483 L14.6659181,11.1037666 C14.6659181,13.0679997 13.0679997,14.6662514 11.1037666,14.6662514 L3.56248483,14.6662514 C1.59825176,14.6662514 0,13.0679997 0,11.1037666 L0,3.56248483 C0,1.59825176 1.59825176,0 3.56248483,0 L11.1037666,0 Z M7.98152594,4.72942527 L6.64826066,4.72942527 L6.64826066,6.66665972 L4.71069289,6.66665972 L4.71069289,7.999925 L6.64826066,7.999925 L6.64826066,9.93749277 L7.98152594,9.93749277 L7.98152594,7.999925 L9.9187604,7.999925 L9.9187604,6.66665972 L7.98152594,6.66665972 L7.98152594,4.72942527 Z M20.8959001,14.6660848 C18.931667,14.6660848 17.3337486,13.0681663 17.3337486,11.1039332 L17.3337486,3.56265149 C17.3337486,1.5980851 18.931667,0.00016665816 20.8959001,0.00016665816 L28.4371819,0.00016665816 C30.4014149,0.00016665816 31.9996667,1.5980851 31.9996667,3.56265149 L31.9996667,11.1039332 C31.9996667,13.0681663 30.4017482,14.6660848 28.4371819,14.6660848 L20.8959001,14.6660848 Z M18.6670139,3.56265149 L18.6670139,11.1039332 C18.6670139,12.3328705 19.6669628,13.3328195 20.8959001,13.3328195 L28.4371819,13.3328195 C29.6664524,13.3328195 30.6664014,12.3328705 30.6664014,11.1039332 L30.6664014,3.56265149 C30.6664014,2.3333809 29.6664524,1.33343194 28.4371819,1.33343194 L20.8959001,1.33343194 C19.6669628,1.33343194 18.6670139,2.3333809 18.6670139,3.56265149 Z M22.0443748,7.99985834 L22.0443748,6.66659306 L27.2524423,6.66659306 L27.2524423,7.99985834 L22.0443748,7.99985834 Z M11.1037666,17.3340819 C13.0679997,17.3340819 14.6659181,18.9320003 14.6659181,20.8962334 L14.6659181,28.4375152 C14.6659181,30.4017482 13.0679997,32 11.1037666,32 L3.56248483,32 C1.59825176,32 0,30.4017482 0,28.4375152 L0,20.8962334 C0,18.9320003 1.59825176,17.3340819 3.56248483,17.3340819 L11.1037666,17.3340819 Z M13.3326528,28.4375152 L13.3326528,20.8962334 C13.3326528,19.6672961 12.3327039,18.6673472 11.1037666,18.6673472 L3.56248483,18.6673472 C2.33321424,18.6673472 1.33326528,19.6672961 1.33326528,20.8962334 L1.33326528,28.4375152 C1.33326528,29.6667858 2.33321424,30.6664014 3.56248483,30.6664014 L11.1037666,30.6664014 C12.3327039,30.6664014 13.3326528,29.6667858 13.3326528,28.4375152 Z M8.68479005,22.354159 L9.6274086,23.2967776 L8.25747852,24.6667076 L9.6274086,26.0366377 L8.68479005,26.9792563 L7.31485997,25.6096595 L5.94492989,26.9792563 L5.00231134,26.0366377 L6.37224142,24.6667076 L5.00231134,23.2967776 L5.94492989,22.354159 L7.31485997,23.7240891 L8.68479005,22.354159 Z M28.4371819,17.3339152 C30.4014149,17.3339152 31.9996667,18.932167 31.9996667,20.8964001 L31.9996667,28.4376818 C31.9996667,30.4019149 30.4017482,31.9998333 28.4371819,31.9998333 L20.8959001,31.9998333 C18.931667,31.9998333 17.3337486,30.4019149 17.3337486,28.4376818 L17.3337486,20.8964001 C17.3337486,18.932167 18.931667,17.3339152 20.8959001,17.3339152 L28.4371819,17.3339152 Z M28.4371819,30.6665681 C29.6664524,30.6665681 30.6664014,29.6666191 30.6664014,28.4376818 L30.6660681,20.8964001 C30.6660681,19.6671295 29.6664524,18.6671805 28.4371819,18.6671805 L20.8959001,18.6671805 C19.6669628,18.6671805 18.6670139,19.6671295 18.6670139,20.8964001 L18.6670139,28.4376818 C18.6670139,29.6666191 19.6669628,30.6665681 20.8959001,30.6665681 L28.4371819,30.6665681 Z M22.0443748,25.3336403 L22.0443748,24.000375 L27.2524423,24.000375 L27.2524423,25.3336403 L22.0443748,25.3336403 Z"/>
</svg>
