<svg xmlns="http://www.w3.org/2000/svg" width="32" height="32" viewBox="0 0 32 32">
  <path fill-rule="evenodd" d="M30.6663333,28.18 C30.6663333,29.551 29.5506667,30.6666667 28.1793333,30.6666667 L3.82033333,30.6666667 C2.449,30.6666667 1.33333333,29.551 1.33333333,28.18 L1.33333333,3.82 C1.33333333,2.449 2.449,1.33333333 3.82033333,1.33333333 L28.1796667,1.33333333 C29.551,1.33333333 30.6666667,2.449 30.6666667,3.82 L30.6663333,28.18 Z M28.1796667,0 C30.286,0 32,1.71366667 32,3.82 L31.9996667,28.18 C31.9996667,30.2863333 30.2856667,32 28.1793333,32 L3.82033333,32 C1.714,32 0,30.2863333 0,28.18 L0,3.82 C0,1.71366667 1.714,0 3.82033333,0 L28.1796667,0 Z M15.341,9.33333333 L24.6923333,9.33333333 L24.6923333,8 L15.341,8 L15.341,9.33333333 Z M15.341,17.3333333 L24.6923333,17.3333333 L24.6923333,16 L15.341,16 L15.341,17.3333333 Z M15.341,25.3333333 L24.6923333,25.3333333 L24.6923333,24 L15.341,24 L15.341,25.3333333 Z M7.99966667,9.32486667 C7.272,9.32486667 6.68,8.7332 6.68,8.00553333 C6.68,7.27786667 7.272,6.68586667 7.99966667,6.68586667 C8.72733333,6.68586667 9.319,7.27786667 9.319,8.00553333 C9.319,8.7332 8.72733333,9.32486667 7.99966667,9.32486667 Z M7.99966667,5.35253333 C6.53666667,5.35253333 5.34666667,6.54253333 5.34666667,8.00553333 C5.34666667,9.4682 6.53666667,10.6582 7.99966667,10.6582 C9.46233333,10.6582 10.6523333,9.4682 10.6523333,8.00553333 C10.6523333,6.54253333 9.46233333,5.35253333 7.99966667,5.35253333 Z M7.99966667,17.3252 C7.272,17.3252 6.68,16.7335333 6.68,16.0058667 C6.68,15.2782 7.272,14.6865333 7.99966667,14.6865333 C8.72733333,14.6865333 9.319,15.2782 9.319,16.0058667 C9.319,16.7335333 8.72733333,17.3252 7.99966667,17.3252 Z M7.99966667,13.3532 C6.53666667,13.3532 5.34666667,14.5432 5.34666667,16.0058667 C5.34666667,17.4685333 6.53666667,18.6585333 7.99966667,18.6585333 C9.46233333,18.6585333 10.6523333,17.4685333 10.6523333,16.0058667 C10.6523333,14.5432 9.46233333,13.3532 7.99966667,13.3532 Z M7.99966667,25.3258333 C7.272,25.3258333 6.68,24.7341667 6.68,24.0065 C6.68,23.2788333 7.272,22.6868333 7.99966667,22.6868333 C8.72733333,22.6868333 9.319,23.2788333 9.319,24.0065 C9.319,24.7341667 8.72733333,25.3258333 7.99966667,25.3258333 Z M7.99966667,21.3535 C6.53666667,21.3535 5.34666667,22.5435 5.34666667,24.0065 C5.34666667,25.4691667 6.53666667,26.6591667 7.99966667,26.6591667 C9.46233333,26.6591667 10.6523333,25.4691667 10.6523333,24.0065 C10.6523333,22.5435 9.46233333,21.3535 7.99966667,21.3535 Z"/>
</svg>
