<svg xmlns="http://www.w3.org/2000/svg" width="32" height="32" viewBox="0 0 32 32">
  <path fill-rule="evenodd" d="M9.13303888,19.7701333 L11.8440072,19.7701333 L11.8440072,17.0434667 L9.13303888,17.0434667 L9.13303888,19.7701333 Z M20.0992438,10.9506667 L31,13.212 L31,32 L20.0992438,32 L18.7367329,32 L1,32 L1,2.84333333 L20.0992438,0 L20.0992438,10.9506667 Z M29.6374891,30.6426667 L29.6374891,14.316 L20.0992438,12.3373333 L20.0992438,30.6426667 L24.1265475,30.6426667 L24.1265475,27.272 L25.4890584,27.272 L25.4890584,30.6426667 L29.6374891,30.6426667 Z M18.7367329,30.6426667 L18.7367329,10.668 L18.7367329,1.57533333 L2.36251087,4.01333333 L2.36251087,30.6426667 L7.77039416,30.6426667 L7.77039416,23.9146667 L13.2057151,23.9146667 L13.2057151,30.6426667 L18.7367329,30.6426667 Z M7.77052801,21.1281333 L7.77052801,15.6861333 L13.2058489,15.6861333 L13.2058489,21.1281333 L7.77052801,21.1281333 Z M7.77052801,12.9828 L7.77052801,7.54146667 L13.2058489,7.54146667 L13.2058489,12.9828 L7.77052801,12.9828 Z M9.13303888,11.6254667 L11.8440072,11.6254667 L11.8440072,8.8988 L9.13303888,8.8988 L9.13303888,11.6254667 Z M9.13290504,30.6166667 L11.8438734,30.6166667 L11.8438734,25.272 L9.13290504,25.272 L9.13290504,30.6166667 Z M24.1266814,23.1348 L24.1266814,21.6681333 L25.4891923,21.6681333 L25.4891923,23.1348 L24.1266814,23.1348 Z M24.1266814,19.0628 L24.1266814,17.5961333 L25.4891923,17.5961333 L25.4891923,19.0628 L24.1266814,19.0628 Z"/>
</svg>
