<svg xmlns="http://www.w3.org/2000/svg" width="32" height="32" viewBox="0 0 32 32">
  <path fill-rule="evenodd" d="M13.3331243,28.6270026 L13.3331243,18.0249153 L14.6667202,18.0249153 L14.6667202,28.6270026 L13.3331243,28.6270026 Z M10.6655991,28.6270026 L10.6655991,18.0249153 L11.999195,18.0249153 L11.999195,28.6270026 L10.6655991,28.6270026 Z M6.66447808,28.6270026 L6.66447808,18.0249153 L7.99807397,18.0249153 L7.99807397,28.6270026 L6.66447808,28.6270026 Z M3.99695291,28.6270026 L3.99695291,18.0249153 L5.3305488,18.0249153 L5.3305488,28.6270026 L3.99695291,28.6270026 Z M20.0017705,28.6270026 L20.0017705,18.0249153 L21.3353664,18.0249153 L21.3353664,28.6270026 L20.0017705,28.6270026 Z M17.3342454,28.6270026 L17.3342454,18.0249153 L18.6678412,18.0249153 L18.6678412,28.6270026 L17.3342454,28.6270026 Z M26.6704168,28.6270026 L26.6704168,18.0249153 L28.0040126,18.0249153 L28.0040126,28.6270026 L26.6704168,28.6270026 Z M24.0028916,28.6270026 L24.0028916,18.0249153 L25.3364875,18.0249153 L25.3364875,28.6270026 L24.0028916,28.6270026 Z M0.850000024,32 L0.850000024,30.6664041 L31.183972,30.6664041 L31.183972,32 L0.850000024,32 Z M0.850000024,15.9951824 L0.850000024,14.6615865 L31.183972,14.6615865 L31.183972,15.9951824 L0.850000024,15.9951824 Z M16.0169527,7.85654676 C13.1677251,7.85654676 10.849602,9.97162983 10.849602,12.5711416 L9.51600614,12.5711416 C9.51600614,9.44552625 12.0778438,6.86635181 15.3501547,6.55462377 L15.3501547,-2.27373675e-13 L19.7563555,-2.27373675e-13 L19.7563555,1.33359589 L16.6837506,1.33359589 L16.6837506,6.55462377 C19.9563949,6.86635181 22.5178992,9.44552625 22.5178992,12.5711416 L21.1843033,12.5711416 C21.1843033,9.97162983 18.8661803,7.85654676 16.0169527,7.85654676 Z"/>
</svg>
