<svg xmlns="http://www.w3.org/2000/svg" width="32" height="32" viewBox="0 0 32 32">
  <path fill-rule="evenodd" d="M21.4628062,30.2640916 L22.1023256,28.5082229 L23.1076287,28.8740066 L22.2700991,31.1754737 C22.1799242,31.4243243 21.9613103,31.6070824 21.7001509,31.6520361 C21.6584082,31.6589932 21.6169331,31.6624717 21.575458,31.6624717 C21.3563089,31.6624717 21.144652,31.564537 21.0028339,31.391947 L20.4470675,30.7130931 L19.585188,30.875515 C19.3229583,30.9255527 19.0553769,30.8292234 18.8838573,30.6271995 C18.7123377,30.4251756 18.6620324,30.1447504 18.75301,29.8953646 L19.6400422,27.4571634 L20.646148,27.8229471 L19.957126,29.7160851 L20.4411807,29.6248398 C20.7058186,29.574267 20.978484,29.6727369 21.1508064,29.8827882 L21.4628062,30.2640916 Z M26.9814038,27.4568423 L27.8689711,29.895311 C27.9596812,30.1454996 27.9093759,30.4256573 27.7375886,30.6276812 C27.5663366,30.8297051 27.2990228,30.9244289 27.0370607,30.8757291 L26.1749136,30.7130396 L25.6194148,31.3913583 C25.4778642,31.5644834 25.2662074,31.6624182 25.0465231,31.6624182 C25.0053156,31.6624182 24.9641081,31.6589397 24.9231681,31.6522501 C24.6614736,31.607564 24.442592,31.4250736 24.351882,31.1756878 L23.5140848,28.8739531 L24.5196555,28.5081694 L25.1589073,30.2643057 L25.4709071,29.8830023 C25.6424268,29.6726834 25.91643,29.5731431 26.1821383,29.6253215 L26.6648551,29.7160315 L25.9758331,27.8231612 L26.9814038,27.4568423 Z M31.9864057,6.11316327 C32.1218019,8.51256514 31.2197852,10.0383139 30.4392504,10.895377 C30.0183449,11.3580251 29.5867362,11.6804606 29.2527947,11.8902444 C29.4837174,12.3280075 29.4660571,12.718141 29.3889936,13.0001718 C29.0379269,14.2893787 26.9382162,15.0878414 25.9032115,15.4078687 C25.9703744,16.1747568 25.6851327,16.6641631 25.4047075,16.9539536 C25.062471,17.307161 24.5768108,17.5134662 24.0448591,17.6293289 L24.1976481,18.9691087 C24.3102998,18.9661653 24.4237543,18.9736576 24.5356033,19.0036267 C24.8382378,19.0847038 25.0911022,19.2789679 25.2476373,19.5500278 L25.4156783,19.8406211 C25.4336063,19.8721957 25.4675891,19.8919967 25.5042478,19.8919967 L25.8397948,19.8919967 C26.4865389,19.8919967 27.0126038,20.4183292 27.0126038,21.0650733 L27.0126038,21.4000852 C27.0126038,21.4367438 27.0321372,21.4709942 27.0637118,21.4889222 L27.3543051,21.6566957 C27.9143529,21.9802015 28.1067439,22.698925 27.783238,23.2589727 L27.6159997,23.5495661 C27.5978042,23.5811407 27.5978042,23.6204751 27.6159997,23.6520497 L27.7835056,23.9426431 C28.1067439,24.5026908 27.9143529,25.2214143 27.3543051,25.5446525 L27.0637118,25.7126936 C27.0321372,25.7306216 27.0126038,25.7646044 27.0126038,25.801263 L27.0126038,26.13681 C27.0126038,26.7835541 26.4865389,27.309619 25.8397948,27.309619 L25.5042478,27.309619 C25.4675891,27.309619 25.4336063,27.3294201 25.4156783,27.3609947 L25.2476373,27.651588 C25.0911022,27.9223803 24.8382378,28.1166444 24.5356033,28.1979891 C24.2324337,28.2790662 23.9164201,28.2375911 23.6456278,28.0805209 L23.3550344,27.913015 C23.3234598,27.8948194 23.284393,27.8948194 23.2525508,27.913015 L22.9619575,28.0807885 C22.78134,28.1851452 22.580654,28.2383939 22.3772922,28.2383939 C22.2753437,28.2383939 22.1731277,28.2250148 22.0719819,28.1979891 C21.7693474,28.1166444 21.5164831,27.9223803 21.3596804,27.6513204 L21.1921745,27.3607271 C21.1739789,27.3294201 21.1397285,27.309619 21.1033375,27.309619 L20.7677905,27.309619 C20.1210464,27.309619 19.5949815,26.7835541 19.5949815,26.13681 L19.5949815,25.801263 C19.5949815,25.7646044 19.575448,25.7306216 19.5436058,25.7126936 L19.2532801,25.5449201 C18.6929648,25.2214143 18.5005738,24.5024232 18.8240796,23.9423755 L18.9918531,23.6517821 C19.0097811,23.6204751 19.0097811,23.5811407 18.9915855,23.5495661 L18.8240796,23.2595079 C18.5005738,22.698925 18.6932323,21.9802015 19.2532801,21.6569633 L19.5436058,21.4889222 C19.575448,21.4709942 19.5949815,21.4367438 19.5949815,21.4000852 L19.5949815,21.0650733 C19.5949815,20.4183292 20.1210464,19.8919967 20.7677905,19.8919967 L21.1033375,19.8919967 C21.1397285,19.8919967 21.1739789,19.8721957 21.1921745,19.8406211 L21.3596804,19.550563 C21.5164831,19.2792355 21.7693474,19.0849714 22.0719819,19.0036267 C22.374884,18.9225496 22.69063,18.9640247 22.9619575,19.1208273 L23.1500671,19.2294654 L22.9812233,17.7516136 C22.9057654,17.7537543 22.8297723,17.7569652 22.7548495,17.7569652 C21.9515703,17.7569652 21.2004695,17.6408349 20.7889294,17.5632364 L18.9570675,19.3950982 C18.8524432,19.4997225 18.7157092,19.5519009 18.5787075,19.5519009 C18.4417059,19.5519009 18.3049718,19.4997225 18.2003475,19.3950982 C17.9913665,19.1863848 17.9913665,18.8473592 18.2003475,18.6383782 L20.0322094,16.8065163 C19.8604222,15.8929936 19.4965115,13.3001305 20.6414921,12.1907382 C20.9312827,11.910313 21.4220268,11.6245361 22.1875771,11.6922342 C22.2100539,11.6194521 22.2354741,11.5405156 22.263035,11.4581005 L21.6863972,6.40937582 L6.70478561,6.40937582 C6.40910823,6.40937582 6.16962294,6.16962294 6.16962294,5.87421314 C6.16962294,5.57853576 6.40910823,5.33905046 6.70478561,5.33905046 C7.93619494,5.33905046 8.93801947,4.38137685 8.93801947,3.20455412 C8.93801947,2.02799897 7.9281675,1.07032536 6.68766041,1.07032536 C5.49959926,1.07032536 4.53175756,2.01569023 4.51944882,3.18234487 L6.42195214,24.6174832 C6.42195214,24.7242482 6.41633293,24.8299428 6.40616484,24.9340319 C6.40268628,24.9690851 6.39599675,25.0028003 6.39118028,25.0373183 C6.3823501,25.1060867 6.37351992,25.1748551 6.36014085,25.242018 C6.35211341,25.2824228 6.34114257,25.3217573 6.33150965,25.3616269 C6.31732783,25.4215651 6.30314602,25.4812358 6.28575324,25.5398361 C6.27317691,25.5813112 6.25792478,25.6219835 6.24374297,25.6629235 C6.22474469,25.7177777 6.206014,25.7723643 6.18407233,25.8258805 C6.1672147,25.8670881 6.14848401,25.9072253 6.13028848,25.94763 C6.10674132,25.9987381 6.08292658,26.0493109 6.05697119,26.0990811 C6.03609985,26.1386831 6.0138906,26.1774824 5.99168135,26.2162817 C5.96385289,26.2641788 5.93548926,26.3115407 5.90578774,26.3578322 C5.88117025,26.3955612 5.85575002,26.4324874 5.83006222,26.4688785 C5.79795246,26.5138321 5.76503995,26.5579831 5.73105712,26.6010637 C5.70349624,26.6361168 5.6754002,26.6706348 5.64650142,26.7043501 C5.63124928,26.7220104 5.6181378,26.7407411 5.60261808,26.7581339 L18.8885667,26.7581339 L18.8885667,27.8284593 L3.21097607,27.8284593 C1.44039035,27.8284593 0,26.3880689 0,24.6174832 C0,22.8468975 1.44039035,21.4065071 3.21097607,21.4065071 L5.06451201,21.4065071 L3.44885588,3.20455412 C3.44885588,1.43771453 4.90182255,0 6.68766041,0 L23.5324409,0 L23.5327084,0 C25.3541346,0 26.8357325,1.43771453 26.8357325,3.20455412 C26.8357325,4.97166128 25.353867,6.40937582 23.5324409,6.40937582 L22.7639473,6.40937582 L23.1211683,9.53927474 C23.5086261,8.90698003 23.9985676,8.36887396 24.5950064,8.20645209 C24.8773047,8.12938866 25.2677059,8.11172829 25.7054689,8.34265099 C25.9152527,8.00870948 26.2374206,7.57710078 26.7000688,7.15592775 C27.5573994,6.37539299 29.0874295,5.47310871 31.4822825,5.60904003 L31.9596476,5.63579816 L31.9864057,6.11316327 Z M28.256857,11.2148691 C28.3671005,11.1699154 30.8944062,10.1011956 30.9294594,6.66598632 C27.4934474,6.70077189 26.4255303,9.22807764 26.3797739,9.34072939 L26.0763367,10.0870137 L25.5050505,9.52027646 C25.1488997,9.16439328 24.9436648,9.22112053 24.8765019,9.23904848 C24.1735658,9.43063672 23.3932986,11.2600903 23.0877207,12.4361103 L22.9531273,12.9536126 L22.4353574,12.8195544 C21.7217179,12.6343881 21.4693887,12.8789574 21.3861709,12.9594994 C20.7710014,13.5556706 20.8510083,15.3358893 21.0680167,16.5271614 C22.2603592,16.7430996 24.0421833,16.8225712 24.6362139,16.2087396 C24.7164883,16.1257894 24.9607901,15.8734602 24.7758913,15.1600883 L24.6415655,14.6431212 L25.1590678,14.5079926 C26.3704085,14.1917115 28.1634711,13.4274992 28.3563972,12.7186762 C28.3745928,12.6512457 28.4302497,12.446546 28.0749017,12.0903952 L27.500137,11.5145602 L28.256857,11.2148691 Z M24.3207355,20.0851905 C24.3033427,20.0549538 24.2773873,20.042645 24.2586566,20.037561 C24.2399259,20.0330121 24.2112947,20.0303363 24.1807905,20.0477291 L23.8901971,20.2157702 C23.5284271,20.424216 23.0788905,20.424216 22.7173881,20.2157702 L22.4267948,20.0479967 C22.3970932,20.0306039 22.3676593,20.0332797 22.3489286,20.037561 C22.3304655,20.042645 22.3042425,20.0549538 22.2865822,20.0854581 L22.1193438,20.3755162 C21.9100952,20.7375538 21.5210319,20.9623221 21.1033375,20.9623221 L20.7677905,20.9623221 C20.7113308,20.9623221 20.6653068,21.0083461 20.6653068,21.0650733 L20.6653068,21.4000852 C20.6653068,21.8180472 20.4405385,22.2071105 20.0790361,22.4160915 L19.7884428,22.583865 C19.7394754,22.6122286 19.7223502,22.6751103 19.7509814,22.7240776 L19.9184873,23.0141358 C20.1274683,23.3759058 20.1274683,23.82571 19.9187549,24.1872124 L19.7507138,24.4778057 C19.7223502,24.5267731 19.7394754,24.5893872 19.7884428,24.6180184 L20.0790361,24.7855243 C20.4405385,24.9945053 20.6653068,25.3835686 20.6653068,25.801263 L20.6653068,26.13681 C20.6653068,26.1935373 20.7113308,26.2392937 20.7677905,26.2392937 L21.1033375,26.2392937 C21.5210319,26.2392937 21.9100952,26.464062 22.1193438,26.825832 L22.2865822,27.1164253 C22.3042425,27.146662 22.3304655,27.1589708 22.3489286,27.1640548 C22.3676593,27.1686037 22.3970932,27.1712795 22.4267948,27.1538867 L22.7173881,26.9858456 C23.0788905,26.7773998 23.5284271,26.7773998 23.8901971,26.9858456 L24.1807905,27.1536191 C24.2110271,27.1712795 24.2396583,27.1686037 24.2586566,27.1640548 C24.2771197,27.1589708 24.3033427,27.146662 24.3207355,27.1161577 L24.4887766,26.8255644 C24.69749,26.464062 25.0865533,26.2392937 25.5042478,26.2392937 L25.8397948,26.2392937 C25.8962544,26.2392937 25.9422784,26.1935373 25.9422784,26.13681 L25.9422784,25.801263 C25.9422784,25.3835686 26.1667792,24.9945053 26.5285491,24.7855243 L26.8191425,24.6177508 C26.8681098,24.5893872 26.8849675,24.5265055 26.8566038,24.4775382 L26.6890979,24.1869448 C26.4801169,23.82571 26.4801169,23.3764409 26.6890979,23.014671 L26.8566038,22.7240776 C26.8849675,22.6748427 26.8681098,22.6122286 26.8191425,22.5835974 L26.5285491,22.4160915 C26.1667792,22.2071105 25.9422784,21.8180472 25.9422784,21.4000852 L25.9422784,21.0650733 C25.9422784,21.0083461 25.8962544,20.9623221 25.8397948,20.9623221 L25.5042478,20.9623221 C25.0865533,20.9623221 24.69749,20.7375538 24.488509,20.3757838 L24.3207355,20.0851905 Z M20.6819236,23.6007009 C20.6819236,22.1552265 21.8582112,20.9789389 23.3036856,20.9789389 C24.74916,20.9789389 25.9254475,22.1552265 25.9254475,23.6007009 C25.9254475,25.0464428 24.74916,26.2227304 23.3036856,26.2227304 C21.8582112,26.2227304 20.6819236,25.0464428 20.6819236,23.6007009 Z M24.8551222,23.6007009 C24.8551222,22.7452433 24.1591431,22.0492643 23.3036856,22.0492643 C22.448228,22.0492643 21.752249,22.7452433 21.752249,23.6007009 C21.752249,24.4561584 22.448228,25.1524051 23.3036856,25.1524051 C24.1591431,25.1524051 24.8551222,24.4561584 24.8551222,23.6007009 Z M9.16278779,1.07032536 C9.68804996,1.6375978 10.0083448,2.38575522 10.0083448,3.20455412 C10.0083448,4.0236206 9.68965545,4.77177802 9.16680151,5.33905046 L23.5324409,5.33905046 C24.7635826,5.33905046 25.7654071,4.38137685 25.7654071,3.20455412 C25.7654071,2.02773139 24.7635826,1.07032536 23.5324409,1.07032536 L23.5308354,1.07032536 L9.16278779,1.07032536 Z M1.07032536,24.6174832 C1.07032536,25.7977845 2.03067478,26.7581339 3.21097607,26.7581339 C3.28456094,26.7581339 3.35707548,26.7543878 3.42905486,26.7471631 C3.45447509,26.7444873 3.47909257,26.7391356 3.50424522,26.7356571 C3.55000163,26.7292351 3.59602562,26.7238835 3.6407117,26.7147857 C3.66880774,26.7088989 3.69610104,26.7003363 3.7239295,26.6933792 C3.76460186,26.6834787 3.80527422,26.674381 3.84514384,26.6620722 C3.87457779,26.6529744 3.90294141,26.6409333 3.93210778,26.6304976 C3.96849884,26.6173861 4.00542506,26.6056125 4.04101338,26.5903604 C4.07044733,26.5780517 4.09854337,26.5627995 4.12717457,26.5494205 C4.16062224,26.5333656 4.19487265,26.518381 4.22751758,26.5007207 C4.25614878,26.4854685 4.28263933,26.4675406 4.31020021,26.4509505 C4.34150723,26.4322198 4.37334941,26.4145595 4.4035861,26.3942233 C4.43034423,26.3760278 4.45549688,26.3556916 4.48118469,26.3366933 C4.51035105,26.3150192 4.54032016,26.2944154 4.5684162,26.2714035 C4.59330127,26.2507997 4.61631326,26.2277877 4.64066316,26.2061136 C4.6674213,26.1822989 4.69471459,26.1592869 4.72013482,26.1338666 C4.7434144,26.1108547 4.76428574,26.0859696 4.78649499,26.0616197 C4.81057731,26.0353967 4.83572996,26.0099765 4.85847437,25.9826832 C4.87907814,25.9577981 4.89754125,25.93104 4.91707469,25.904817 C4.93874878,25.8761858 4.96149319,25.8483574 4.98182937,25.8186558 C5.0000249,25.7918977 5.01607978,25.7632665 5.03293741,25.7357056 C5.05193568,25.7049338 5.07200428,25.6749646 5.08912949,25.6431225 C5.10518437,25.6144913 5.11802827,25.5842546 5.13247767,25.5548206 C5.14853255,25.5224433 5.16539017,25.4906011 5.17983956,25.4571534 C5.19268347,25.4269167 5.20285156,25.3958773 5.21435756,25.3651055 C5.22746904,25.3305875 5.24111569,25.2966046 5.25235411,25.2612839 C5.26225461,25.2299769 5.26947931,25.197332 5.27804191,25.1654898 C5.28740726,25.1296339 5.29811051,25.0940456 5.30587037,25.0573869 C5.31282749,25.0244744 5.31684121,24.9904916 5.32219283,24.9567763 C5.32593897,24.9329616 5.32995269,24.9091469 5.33316367,24.8850645 L3.70332573,24.8850645 C3.41728128,24.8850645 3.16013561,24.7263888 3.03249932,24.4713838 C2.90379269,24.213703 2.93162115,23.909463 3.10554902,23.6780051 C3.39988849,23.2854633 3.3295146,22.595371 3.19947007,22.4773676 C2.02452041,22.4837896 1.07032536,23.440928 1.07032536,24.6174832 Z M5.2783095,23.8147392 L5.15977096,22.4768325 L4.33428253,22.4768325 C4.42151405,22.9022868 4.38271475,23.393031 4.22965823,23.8147392 L5.2783095,23.8147392 Z M25.7200521,11.1187004 C25.9290331,10.9097193 26.2677911,10.9097193 26.4767721,11.1187004 C26.6857532,11.3276814 26.6857532,11.6664394 26.4767721,11.8754204 L22.5478753,15.8043172 C22.443251,15.9089415 22.3062494,15.9611198 22.1692477,15.9611198 C22.0325137,15.9611198 21.895512,15.9089415 21.7908877,15.8043172 C21.5819067,15.5953362 21.5819067,15.2565782 21.7908877,15.0475972 L25.7200521,11.1187004 Z M8.69807928,18.1955043 L17.3056358,18.1955043 C17.600778,18.1955043 17.8407985,18.4352572 17.8407985,18.730667 C17.8407985,19.0260768 17.600778,19.2658297 17.3056358,19.2658297 L8.69807928,19.2658297 C8.40266948,19.2658297 8.1629166,19.0260768 8.1629166,18.730667 C8.1629166,18.4352572 8.40266948,18.1955043 8.69807928,18.1955043 Z M18.9108563,15.5196909 C18.9108563,15.8151007 18.6711034,16.0548536 18.3756936,16.0548536 L8.1629166,16.0548536 C7.86750681,16.0548536 7.62775393,15.8151007 7.62775393,15.5196909 C7.62775393,15.2242811 7.86750681,14.9845282 8.1629166,14.9845282 L18.3756936,14.9845282 C18.6711034,14.9845282 18.9108563,15.2242811 18.9108563,15.5196909 Z M7.7615446,12.8438775 C7.4661348,12.8438775 7.22638192,12.6041246 7.22638192,12.3087148 C7.22638192,12.013305 7.4661348,11.7735522 7.7615446,11.7735522 L18.5094842,11.7735522 C18.804894,11.7735522 19.0446469,12.013305 19.0446469,12.3087148 C19.0446469,12.6041246 18.804894,12.8438775 18.5094842,12.8438775 L7.7615446,12.8438775 Z M13.4303891,9.63290145 L7.45957906,9.63290145 C7.16363409,9.63290145 6.92441638,9.39314857 6.92441638,9.09773877 C6.92441638,8.80232897 7.16363409,8.56257609 7.45957906,8.56257609 L13.4303891,8.56257609 C13.7257989,8.56257609 13.9655517,8.80232897 13.9655517,9.09773877 C13.9655517,9.39314857 13.7257989,9.63290145 13.4303891,9.63290145 Z"/>
</svg>
