<svg xmlns="http://www.w3.org/2000/svg" width="32" height="32" viewBox="0 0 32 32">
  <path fill-rule="evenodd" d="M22.6618333,30.0221333 C22.7465,30.2034667 22.8305,30.3834667 22.9171667,30.5591333 L22.9861667,30.6984667 L22.9861667,30.8541333 C22.9861667,31.4858 22.4248333,32.0001333 21.7348333,32.0001333 L10.2621667,32.0001333 C9.5835,32.0001333 9.01083333,31.4544667 9.01083333,30.8088 L9.01083333,30.6474667 L9.08416667,30.5041333 C9.17316667,30.3314667 9.2595,30.1548 9.3465,29.9768 C10.0661667,28.5021333 10.9618333,26.6668 13.5695,26.6668 L15.3335,26.6668 L15.3335,24.6671333 L16.6668333,24.6671333 L16.6668333,26.6668 L18.4271667,26.6668 C21.0941667,26.6668 21.9635,28.5271333 22.6618333,30.0221333 Z M10.4931667,30.6668 L21.4911667,30.6668 C21.4788333,30.6401333 21.4665,30.6134667 21.4538333,30.5868 C20.8055,29.1988 20.2455,28.0001333 18.4271667,28.0001333 L13.5695,28.0001333 C11.7948333,28.0001333 11.2155,29.1874667 10.5441667,30.5618 C10.5275,30.5968 10.5101667,30.6321333 10.4931667,30.6668 Z M29.1916667,0 C30.7403333,0 32,1.306 32,2.91133333 L32,19.964 C32,21.53 30.819,22.6666667 29.1916667,22.6666667 L2.80366667,22.6666667 C1.179,22.6666667 0,21.53 0,19.964 L0,2.91133333 C0,1.306 1.25766667,0 2.80366667,0 L29.1916667,0 Z M30.6666667,19.964 L30.6666667,2.91133333 C30.6666667,2.041 30.005,1.33333333 29.1916667,1.33333333 L2.80366667,1.33333333 C1.993,1.33333333 1.33333333,2.041 1.33333333,2.91133333 L1.33333333,19.964 C1.33333333,20.783 1.924,21.3333333 2.80366667,21.3333333 L29.1916667,21.3333333 C30.074,21.3333333 30.6666667,20.783 30.6666667,19.964 Z M9.33333333,17.3334667 L9.33333333,16.0001333 L22.6666667,16.0001333 L22.6666667,17.3334667 L9.33333333,17.3334667 Z M15.9980667,14.7119333 C13.0547333,14.7119333 10.6597333,12.3172667 10.6597333,9.37393333 C10.6597333,6.4306 13.0547333,4.0356 15.9980667,4.0356 C18.9417333,4.0356 21.3367333,6.4306 21.3367333,9.37393333 C21.3367333,12.3172667 18.9417333,14.7119333 15.9980667,14.7119333 Z M15.9980667,5.36893333 C13.7897333,5.36893333 11.9930667,7.1656 11.9930667,9.37393333 C11.9930667,11.5822667 13.7897333,13.3786 15.9980667,13.3786 C18.2064,13.3786 20.0034,11.5822667 20.0034,9.37393333 C20.0034,7.1656 18.2064,5.36893333 15.9980667,5.36893333 Z M15.2357,12.1827667 L14.7487,11.6381 L13.4263667,10.2247667 L14.4003667,9.3141 L15.2357,10.2067667 L17.5963667,7.68343333 L18.5703667,8.5941 L15.7227,11.6381 L15.2357,12.1827667 Z"/>
</svg>
