<svg xmlns="http://www.w3.org/2000/svg" width="32" height="32" viewBox="0 0 32 32">
  <path fill-rule="evenodd" d="M22.5715783,30.6526667 L20.4795595,24.5206667 L20.1923168,27.5626667 L19.878186,30.6666667 L19.1705721,30.6513333 L17.8196133,25.462 L17.2949691,28.4113333 L16.8739421,30.6666667 L16.1138638,30.6526667 L14.9065263,27.0793333 L13.6644311,30.6666667 L12.206576,30.648 L11.6281557,25.3526667 L10.694289,28.37 L9.96634514,30.6666667 L8.30978103,30.6533333 C8.41470987,29.6346667 8.92033573,26.168 9.45744025,22.5953333 L23.2201697,22.6073333 C23.754651,26.188 24.2556862,29.6546667 24.3586477,30.666 L22.5715783,30.6526667 Z M12.7135134,15.8193333 C12.8315584,15.8193333 12.9548498,15.82 13.0827318,15.8226667 C13.2250415,15.8253333 13.3594816,15.8273333 13.4847404,15.8273333 L13.6716449,15.8273333 L13.8310056,15.7266667 C14.5569821,15.2686667 14.6461716,14.236 14.6186277,13.566 L14.6809292,13.5346667 L12.9463243,5.86066667 C12.6800674,4.68333333 12.910255,3.55533333 13.5929483,2.68333333 C14.2644929,1.82533333 15.2868933,1.33333333 16.39586,1.33333333 C17.5015477,1.33333333 18.5173901,1.82133333 19.1843441,2.67133333 C19.8729396,3.55066667 20.1064063,4.68133333 19.8408051,5.858 L18.2170313,13.0626667 L18.2058826,13.126 C18.1298092,13.718 18.0517683,15.1566667 18.955468,15.7266667 L19.1148287,15.8273333 L19.3017332,15.8273333 C19.4086295,15.8273333 19.5220838,15.826 19.6407845,15.8246667 C20.9248512,15.8093333 21.7380498,15.8913333 22.1197285,16.3073333 L10.5401748,16.3373333 C10.8825051,15.9273333 11.5960212,15.8193333 12.7135134,15.8193333 L12.7135134,15.8193333 Z M10.0627485,18.6126667 L22.6174847,18.6126667 C22.7473341,19.4626667 22.8830858,20.3613333 23.0201491,21.274 L9.65877247,21.262 C9.79649158,20.354 9.93289908,19.4586667 10.0627485,18.6126667 L10.0627485,18.6126667 Z M23.6785776,16.8686667 C25.8289631,30.864 25.74502,31.0226667 25.6059893,31.2833333 C25.3692436,31.726 24.9213286,32 24.4366885,32 L22.5925641,32 C22.0246367,31.9993333 21.518355,31.634 21.3321063,31.09 L21.2107823,30.7326667 L21.2061917,30.7766667 C21.141267,31.4733333 20.5700606,32 19.878186,32 L19.1928695,32 C18.7049504,32 18.2668725,31.7313333 18.0334058,31.3173333 C17.8019065,31.7293333 17.365796,32 16.8752537,32 L16.8739421,32 L16.1341937,32 C15.5898754,32 15.1032678,31.6646667 14.8999682,31.158 C14.695357,31.6646667 14.2080936,32 13.6644311,32 L12.2288733,32 C11.7540703,32 11.3343549,31.7493333 11.0969534,31.3653333 C10.8588961,31.754 10.4365575,31.9993333 9.96700095,32 L8.24157728,32 C7.73857463,31.9993333 7.28410158,31.7173333 7.05522554,31.264 C6.92668771,31.0106667 6.84077722,30.8426667 8.99837656,16.9026667 L8.99968817,16.9033333 C9.17085335,14.4253333 11.8229299,14.468 13.1050292,14.4893333 C13.1397869,14.49 13.1745445,14.4906667 13.2086464,14.4906667 C13.2978359,14.2706667 13.3450539,13.7613333 13.2801292,13.2953333 L11.6681598,6.15933333 C11.310746,4.57866667 11.6294673,3.04933333 12.5666131,1.85266667 C13.4893311,0.675333333 14.8848847,0 16.39586,0 C17.9029006,0 19.2932077,0.670666667 20.2100235,1.84066667 C21.1392996,3.026 21.4704812,4.59866667 21.1196254,6.15533333 L19.5024096,13.328 C19.4407639,13.848 19.497819,14.2933333 19.5797946,14.492 C19.5948782,14.4913333 19.6099617,14.4913333 19.625701,14.4913333 C20.888782,14.476 23.5067566,14.45 23.677266,16.8693333 L23.6785776,16.8686667 Z M16.39586,5.42613333 C16.1768211,5.42613333 15.9977862,5.24613333 15.9977862,5.02546667 L15.9977862,5.0248 C15.9977862,4.80346667 16.1768211,4.62413333 16.3952042,4.62413333 C16.614899,4.62413333 16.7939338,4.80413333 16.7939338,5.0248 C16.7939338,5.24546667 16.614899,5.42613333 16.39586,5.42613333 Z M16.39586,3.2908 C15.4528121,3.29146667 14.6861757,4.0688 14.6861757,5.0248 L14.6861757,5.02613333 C14.6861757,5.98146667 15.4534679,6.7588 16.39586,6.75946667 C17.338908,6.7588 18.1062002,5.98013333 18.1055444,5.02413333 C18.1048886,4.06946667 17.3382522,3.29146667 16.39586,3.2908 Z"/>
</svg>
