<svg xmlns="http://www.w3.org/2000/svg" width="32" height="32" viewBox="0 0 32 32">
  <path fill-rule="evenodd" d="M1.84599808,3.33332987e-05 L15.699317,3.33332987e-05 L21.3333111,5.68069408 L21.3333111,30.2750018 C21.3333111,31.2260008 20.5553119,32 19.5989796,32 L1.84599808,32 C0.862665768,32 9.09494702e-13,31.1940008 9.09494702e-13,30.2750018 L9.09494702e-13,1.72503154 C9.09494702e-13,0.806032494 0.862665768,3.33332987e-05 1.84599808,3.33332987e-05 Z M19.5989796,30.6666681 C19.812646,30.6666681 19.9999792,30.4836682 19.9999792,30.2750018 L19.9999792,6.6216931 L14.7549846,6.6216931 L14.7549846,1.33336528 L1.84599808,1.33336528 C1.61133165,1.33336528 1.33333194,1.54569839 1.33333194,1.72503154 L1.33333194,30.2750018 C1.33333194,30.4580016 1.60633166,30.6666681 1.84599808,30.6666681 L19.5989796,30.6666681 Z M5.33336111,24.0000083 L5.33336111,22.6666764 L16.0000167,22.6666764 L16.0000167,24.0000083 L5.33336111,24.0000083 Z M5.33336111,20.0000125 L5.33336111,18.6666806 L16.0000167,18.6666806 L16.0000167,20.0000125 L5.33336111,20.0000125 Z M5.33336111,16.0000167 L5.33336111,14.6666847 L16.0000167,14.6666847 L16.0000167,16.0000167 L5.33336111,16.0000167 Z M5.33336111,12.0000208 L5.33336111,10.6666889 L9.33335694,10.6666889 L9.33335694,12.0000208 L5.33336111,12.0000208 Z M16.0883166,2.28536429 L16.0883166,5.28836116 L19.0663135,5.28836116 L16.0883166,2.28536429 Z M28.7999033,0 C30.5945681,0 31.9999,1.46466514 31.9999,3.33466319 L31.9999,23.999975 L31.8099002,23.999975 C31.5369005,24.7949742 30.8699012,26.6303056 29.2409029,31.046301 C29.0589031,31.6126337 28.5632369,31.9953 27.9869042,31.9953 L27.9845708,31.9953 C27.4052381,31.9946333 26.8909053,31.6016337 26.7052388,31.0176344 C25.1099072,26.6229723 24.4559079,24.7936408 24.1872415,23.999975 L23.9999083,23.999975 L23.9999083,3.33466319 C23.9999083,1.49566511 25.4802401,0 27.2995716,0 L28.7999033,0 Z M28.8795699,28.168304 C29.4695693,26.560639 30.0585687,24.9473073 30.3985683,23.999975 L25.5965733,23.999975 C25.9309063,24.9476407 26.5115724,26.563639 27.0909051,28.168304 L28.8795699,28.168304 Z M27.9812375,30.6113014 C28.1102374,30.2603018 28.2475706,29.8869689 28.3895704,29.5016359 L27.5729046,29.5016359 C27.7095711,29.8793022 27.842571,30.2449685 27.9669042,30.5879681 C27.9709042,30.6003015 27.9745709,30.6109681 27.9782375,30.6196348 C27.9792375,30.6169681 27.9802375,30.6139681 27.9812375,30.6113014 Z M25.3332403,3.33466319 L25.3332403,22.6666431 L30.6665681,22.6666431 L30.6665681,3.33466319 C30.6665681,2.19366438 29.8639022,1.33333194 28.7999033,1.33333194 L27.2995716,1.33333194 C26.196906,1.33333194 25.3332403,2.21233103 25.3332403,3.33466319 Z"/>
</svg>
