<svg xmlns="http://www.w3.org/2000/svg" width="32" height="32" viewBox="0 0 32 32">
  <path fill-rule="evenodd" d="M24.1796667,0 C26.286,0 28,1.71366667 28,3.82 L27.9996667,28.18 C27.9996667,30.2863333 26.2856667,32 24.1793333,32 L7.82033333,32 C5.714,32 4,30.2863333 4,28.18 L4,3.82 C4,1.71366667 5.714,0 7.82033333,0 L24.1796667,0 Z M26.6663333,28.18 L26.6666667,3.82 C26.6666667,2.449 25.551,1.33333333 24.1796667,1.33333333 L7.82033333,1.33333333 C6.449,1.33333333 5.33333333,2.449 5.33333333,3.82 L5.33333333,28.18 C5.33333333,29.551 6.449,30.6666667 7.82033333,30.6666667 L24.1793333,30.6666667 C25.5506667,30.6666667 26.6663333,29.551 26.6663333,28.18 Z M10.0476667,8 L10.0476667,6.66666667 L21.9783333,6.66666667 L21.9783333,8 L10.0476667,8 Z M10.0476667,12 L10.0476667,10.6666667 L21.9783333,10.6666667 L21.9783333,12 L10.0476667,12 Z M10.0476667,16 L10.0476667,14.6666667 L21.9783333,14.6666667 L21.9783333,16 L10.0476667,16 Z M10.0476667,20 L10.0476667,18.6666667 L19.278,18.6666667 L19.278,20 L10.0476667,20 Z M21.3512333,23.0492 C22.6162333,23.0492 23.6455667,24.0785333 23.6455667,25.3438667 C23.6455667,26.6088667 22.6162333,27.6382 21.3512333,27.6382 C20.0859,27.6382 19.0565667,26.6088667 19.0565667,25.3438667 C19.0565667,24.0785333 20.0859,23.0492 21.3512333,23.0492 Z M21.3512333,26.3048667 C21.8812333,26.3048667 22.3122333,25.8738667 22.3122333,25.3438667 C22.3122333,24.8138667 21.8812333,24.3825333 21.3512333,24.3825333 C20.8212333,24.3825333 20.3899,24.8138667 20.3899,25.3438667 C20.3899,25.8738667 20.8212333,26.3048667 21.3512333,26.3048667 Z"/>
</svg>
