<svg xmlns="http://www.w3.org/2000/svg" width="32" height="32" viewBox="0 0 32 32">
  <path fill-rule="evenodd" d="M3.96878159,8.7480228 L3.96878159,23.815555 L2.63501756,23.815555 L2.63501756,8.7480228 C2.63501756,7.85073305 3.36491992,7.12049724 4.26254311,7.12049724 L13.3281372,7.12049724 L13.3281372,8.45426127 L4.26254311,8.45426127 C4.10082422,8.45426127 3.96878159,8.58630391 3.96878159,8.7480228 Z M28.0315852,8.7480228 C28.0315852,8.58630391 27.899876,8.45426127 27.7381571,8.45426127 L18.7005721,8.45426127 L18.7005721,7.12049724 L27.7381571,7.12049724 C28.6354469,7.12049724 29.3653492,7.85073305 29.3653492,8.7480228 L29.3653492,23.815555 L28.0315852,23.815555 L28.0315852,8.7480228 Z M16.9861518,25.8550469 L32,25.8550469 L32,28.1234461 C32,29.079088 31.2220821,29.8566725 30.2661068,29.8566725 L1.73322635,29.8566725 C0.777584428,29.8566725 0,29.079088 0,28.1234461 L0,25.8550469 L15.015182,25.8550469 L15.015182,26.8393648 L16.9861518,26.8393648 L16.9861518,25.8550469 Z M30.666236,28.1234461 L30.666236,27.188811 L18.2922402,27.188811 C18.1715346,27.7509925 17.6707062,28.1731288 17.0728464,28.1731288 L14.9278204,28.1731288 C14.3302942,28.1731288 13.8294658,27.7509925 13.7090936,27.188811 L1.33376403,27.188811 L1.33376403,28.1234461 C1.33376403,28.3438506 1.51282185,28.5229084 1.73322635,28.5229084 L30.2661068,28.5229084 C30.4868447,28.5229084 30.666236,28.3438506 30.666236,28.1234461 Z M12.4454855,15.2299493 L15.3330846,18.1175484 L15.3330846,3 L16.6668487,3 L16.6668487,18.1175484 L19.5544478,15.2299493 L20.497419,16.1729204 L15.9999667,20.6703727 L11.5025144,16.1729204 L12.4454855,15.2299493 Z"/>
</svg>
