<svg xmlns="http://www.w3.org/2000/svg" width="32" height="32" viewBox="0 0 32 32">
  <path fill-rule="evenodd" d="M30.6086957,21.3043478 L22.6372174,21.3043478 L19.7986087,18.7544348 C19.4733913,18.4608696 18.9961739,18.405913 18.6111304,18.6187826 C18.226087,18.8316522 18.0191304,19.2650435 18.0946087,19.696 L18.3753043,21.3043478 L15.3026087,21.3043478 L15.3026087,7.39130435 L30.6086957,7.39130435 L30.6086957,21.3043478 Z M25.7652174,29.3634783 L24.5871304,30.1575652 L22.5558261,26.5895652 L20.9846957,28.1634783 L19.6452174,20.4869565 L25.5043478,25.7502609 L23.3492174,26.1753043 L25.7652174,29.3634783 Z M32,6 L32,22.6956522 L24.186087,22.6956522 L26.9728696,25.1989565 C27.2653913,25.4629565 27.3815652,25.8612174 27.2768696,26.2393043 C27.1725217,26.6173913 26.8685217,26.8991304 26.4841739,26.9753043 L25.8031304,27.1095652 L27.1053913,28.8285217 C27.2758261,29.0532174 27.3467826,29.3415652 27.2998261,29.6201739 C27.2535652,29.8984348 27.0928696,30.1478261 26.8584348,30.3046957 L25.0406957,31.5290435 C24.8709565,31.6445217 24.6692174,31.7046957 24.4653913,31.7046957 C24.3878261,31.7046957 24.3102609,31.696 24.2337391,31.6786087 C23.9558261,31.6142609 23.7147826,31.4347826 23.5725217,31.1867826 L22.250087,28.8650435 L21.4765217,29.6403478 C21.2027826,29.9137391 20.8041739,30.0104348 20.4344348,29.8925217 C20.0664348,29.7753043 19.797913,29.4664348 19.7332174,29.0866087 L18.618087,22.6956522 L0,22.6956522 L0,21.3043478 L13.9113043,21.3043478 L13.9113043,7.39130435 L0,7.39130435 L0,6 L32,6 Z M25.0563826,12.9711304 L22.9318609,15.594087 L20.8062957,12.9714783 L25.0563826,12.9711304 Z M22.0522087,16.7186087 C22.2598609,16.9923478 22.5868174,17.1547826 22.9318609,17.1547826 L22.9322087,17.1547826 C23.2765565,17.1547826 23.603513,16.9923478 23.811513,16.7186087 L26.5520348,13.333913 C26.7941217,13.0027826 26.8285565,12.5481739 26.6393391,12.176 C26.4529043,11.8083478 26.0776,11.5798261 25.6598609,11.5798261 L20.203513,11.5801739 C19.9186435,11.5801739 19.5749913,11.7095652 19.3770783,11.9533913 C19.031687,12.3405217 19.0028174,12.9137391 19.3329043,13.3617391 L22.0522087,16.7186087 Z"/>
</svg>
