<svg xmlns="http://www.w3.org/2000/svg" width="32" height="32" viewBox="0 0 32 32">
  <path fill-rule="evenodd" d="M24.7746667,25.6150959 C21.5546667,25.6150959 18.936,23.7701108 18.936,21.5009987 C18.936,19.2332183 21.5546667,17.3882332 24.7746667,17.3882332 C27.994,17.3882332 30.6133333,19.2332183 30.6133333,21.5009987 C30.6133333,23.7701108 27.994,25.6150959 24.7746667,25.6150959 M7.226,25.6150959 C4.00666667,25.6150959 1.38733333,23.7701108 1.38733333,21.5009987 C1.38733333,21.0775377 1.47933333,20.6680588 1.64933333,20.2832153 L1.65466667,20.2865444 L1.912,19.8058229 C2.83133333,18.3823013 4.86466667,17.3882332 7.226,17.3882332 C10.4453333,17.3882332 13.0646667,19.2332183 13.0646667,21.5009987 C13.0646667,23.7701108 10.4453333,25.6150959 7.226,25.6150959 M31.532,19.5707887 L31.5486667,19.5614672 L25.3653333,8.02548272 C25.198,7.71454512 23.6713333,5 21.452,5 L21.4266667,5 C20.07,5.01331639 18.8593333,6.03468313 17.8286667,8.03680165 L19.062,8.67066158 C19.5953333,7.63398099 20.4406667,6.39622299 21.4373333,6.38490406 L21.4513333,6.38490406 C22.6373333,6.38490406 23.7966667,8.04146238 24.1433333,8.68064887 L28.4926667,16.795654 C27.4046667,16.2962896 26.1353333,16.0026633 24.7746667,16.0026633 C21.9313333,16.0026633 19.4746667,17.2617275 18.2953333,19.0820774 C16.796,18.792446 15.2493333,18.8277344 13.7706667,19.1859452 C12.6193333,17.3090007 10.122,16.0026633 7.226,16.0026633 C5.87466667,16.0026633 4.614,16.2916288 3.532,16.7843351 L7.83666667,8.75255735 C8.158,8.15465166 9.34266667,6.45614672 10.53,6.45614672 L10.5413333,6.45614672 C11.5386667,6.46480237 12.3846667,7.70389202 12.9193333,8.7405726 L14.152,8.10737849 C13.1213333,6.10525997 11.9106667,5.08322741 10.5546667,5.07124266 L10.5286667,5.07124266 C8.31,5.07124266 6.78266667,7.78578779 6.61466667,8.0973912 L0.616666667,19.2878155 C0.576,19.3577265 0.539333333,19.4289692 0.503333333,19.499546 L0.431333333,19.6333757 L0.437333333,19.6367048 C0.159333333,20.2192967 0,20.8458326 0,21.5009987 C0,24.5331396 3.24133333,27 7.226,27 C11.21,27 14.452,24.5331396 14.452,21.5009987 C14.452,21.1507778 14.4033333,20.8085467 14.3206667,20.4763029 C15.4286667,20.2372738 16.5766667,20.2073119 17.7,20.3830882 C17.6013333,20.7439622 17.5486667,21.1181527 17.5486667,21.5009987 C17.5486667,24.5331396 20.79,27 24.7746667,27 C28.7593333,27 32,24.5331396 32,21.5009987 C32,20.8211973 31.8293333,20.1726893 31.532,19.5707887"/>
</svg>
