<svg xmlns="http://www.w3.org/2000/svg" width="32" height="32" viewBox="0 0 32 32">
  <path fill-rule="evenodd" d="M2.68855123,2.70435426 L6.39902148,2.70435426 C6.46549462,2.77717408 6.59643667,2.95354501 6.79585608,3.3373522 L3.15586739,4.0752374 L3.82560928,8.0572788 L2.33614341,8.0572788 L2.33614341,3.04206451 C2.33614341,2.8556725 2.49414237,2.70435426 2.68855123,2.70435426 L2.68855123,2.70435426 Z M23.4281692,8.0572788 L5.18045869,8.0572788 L4.68775581,5.12811841 L22.1969131,1.5783194 L23.4281692,8.0572788 Z M25.9518101,5.42541032 C26.1455509,5.42541032 26.3032158,5.58374331 26.3032158,5.77815218 L26.3032158,8.0572788 L24.7883632,8.0572788 L24.2879775,5.42541032 L25.9518101,5.42541032 Z M2.33614341,22.3363094 C2.33614341,22.5223674 2.49414237,22.6733516 2.68855123,22.6733516 L9.55866661,22.6733516 L9.55866661,24.009495 L2.68855123,24.009495 C1.75759331,24.009495 1,23.2589164 1,22.3363094 L1,3.04206451 C1,2.11912345 1.75759331,1.36821085 2.68855123,1.36821085 L6.53764636,1.36821085 C7.11385821,1.36821085 7.57182136,1.83853333 8.15137357,3.0624407 L23.2571429,0 L24.0341103,4.08926691 L25.9518101,4.08926691 C26.882434,4.08926691 27.6393592,4.84686022 27.6393592,5.77815218 L27.6393592,10.612319 L26.3032158,10.612319 L26.3032158,9.39342221 L25.0422305,9.39342221 L4.0504154,9.39342221 L2.33614341,9.39342221 L2.33614341,22.3363094 Z M21.7028073,12.0206476 C27.2110585,12.0206476 31.6921494,16.5020726 31.6921494,22.0103238 C31.6921494,27.518575 27.2110585,32 21.7028073,32 C16.1945561,32 11.7134651,27.518575 11.7134651,22.0103238 C11.7134651,16.5020726 16.1945561,12.0206476 21.7028073,12.0206476 Z M21.7028073,30.6638566 C26.4741754,30.6638566 30.356006,26.7820259 30.356006,22.0103238 C30.356006,17.2389557 26.4741754,13.356791 21.7028073,13.356791 C16.9314391,13.356791 13.0496085,17.2389557 13.0496085,22.0103238 C13.0496085,26.7820259 16.9314391,30.6638566 21.7028073,30.6638566 Z M22.370879,14.9977755 L22.370879,21.3421185 L26.6328424,21.3421185 L26.6328424,22.6782619 L21.0347356,22.6782619 L21.0347356,14.9977755 L22.370879,14.9977755 Z"/>
</svg>
