<svg xmlns="http://www.w3.org/2000/svg" width="32" height="32" viewBox="0 0 32 32">
  <path fill-rule="evenodd" d="M15.9958116,20.9882284 C13.2452961,20.9882284 11.0072757,18.750208 11.0072757,15.9996925 C11.0072757,13.249177 13.2452961,11.0111566 15.9958116,11.0111566 C18.7463271,11.0111566 20.9843475,13.249177 20.9843475,15.9996925 C20.9843475,18.750208 18.7463271,20.9882284 15.9958116,20.9882284 M31.8395671,13.7901858 C32.0481208,15.2986102 32.0481208,16.7027578 31.8395671,18.2094727 L31.7681118,18.7260705 L27.5590881,19.2768573 C27.3054047,20.1746639 26.9474445,21.0382813 26.4910197,21.8543758 L29.0791368,25.2220051 L28.7649387,25.6377449 C27.8726024,26.8182955 26.8212867,27.8699532 25.6403941,28.763657 L25.2246543,29.0785389 L21.8577088,26.4904218 C21.0412724,26.9478723 20.1769712,27.3065163 19.278139,27.5612253 L18.7273521,31.7712747 L18.2107544,31.8430719 C17.4558584,31.9473487 16.7266043,32 15.9970082,32 C15.2708311,32 14.544654,31.9476906 13.7928351,31.8444395 L13.2758954,31.7729842 L12.7251085,27.565328 C11.8249088,27.3109609 10.9588981,26.951975 10.1404103,26.4941826 L6.7724392,29.0826416 L6.35669938,28.7684435 C5.19290141,27.8884153 4.11286681,26.8087226 3.23249673,25.6459503 L2.91795673,25.2298686 L5.50573195,21.8629231 C5.04657194,21.0434097 4.6865604,20.1767152 4.43185139,19.2754898 L0.223511434,18.7247029 L0.152056154,18.208447 C-0.0506853845,16.7420753 -0.0506853845,15.2562157 0.152056154,13.7915534 L0.223853326,13.2749556 L4.43185139,12.7241688 C4.6869023,11.8229433 5.04657194,10.955907 5.50573195,10.1367354 L2.91795673,6.76978996 L3.23249673,6.35405015 C4.11423438,5.18991029 5.19461087,4.10987568 6.35669938,3.23121505 L6.7724392,2.91701695 L10.1404103,5.50513406 C10.9585562,5.04768351 11.8245669,4.68869765 12.7251085,4.43467241 L13.2758954,0.226674351 L13.7928351,0.15521907 C15.2998919,-0.0519670552 16.7036975,-0.0519670552 18.2107544,0.156586635 L18.7273521,0.228383807 L19.278139,4.43809133 C20.1769712,4.69280034 21.0412724,5.0517862 21.8577088,5.50923676 L25.2246543,2.92111965 L25.6403941,3.23600153 C26.8212867,4.12936349 27.8726024,5.18102111 28.7649387,6.36157176 L29.0791368,6.77731157 L26.4910197,10.1452827 C26.9474445,10.9613772 27.3054047,11.8253365 27.5590881,12.7228012 L31.7681118,13.2732462 L31.8395671,13.7901858 Z M30.5475599,17.5065442 C30.6545719,16.4890757 30.6545719,15.5112666 30.5475599,14.4931143 L26.4592238,13.9580544 L26.3494767,13.5009458 C26.090665,12.424672 25.6653522,11.3983143 25.0848208,10.4502498 L24.8396847,10.0492113 L27.3539533,6.77799535 C26.7187193,5.99677374 26.0048502,5.28256283 25.2236286,4.64698691 L21.9530965,7.1609136 L21.552058,6.91509376 C20.6043353,6.33387856 19.5772939,5.90719822 18.4996525,5.64736084 L18.0428858,5.53727184 L17.507484,1.44825195 C16.4913831,1.34158187 15.5135739,1.34123997 14.4954217,1.44722628 L13.9603618,5.5348786 L13.5029112,5.64462571 C12.4235604,5.90343742 11.3948095,6.32977587 10.4457193,6.91133296 L10.0446808,7.15681091 L6.77346487,4.64254232 C6.00010676,5.27298987 5.27563911,5.99711563 4.64382399,6.77149942 L7.1574088,10.0416897 L6.91124706,10.44307 C6.3286643,11.393186 5.90130018,12.4226206 5.64146279,13.5023134 L5.53171569,13.959422 L1.44474714,14.49414 C1.34183786,15.4948558 1.34183786,16.503777 1.44474714,17.5055185 L5.53171569,18.0402365 L5.64146279,18.4970033 C5.90130018,19.576696 6.32832241,20.6061307 6.91124706,21.5572723 L7.15706691,21.9583108 L4.64382399,25.228501 C5.27495532,26.002201 5.99942298,26.7263268 6.77346487,27.3571162 L10.0443389,24.8431895 L10.4453774,25.0886675 C11.3951514,25.6698827 12.4242442,26.0958792 13.5029112,26.3553747 L13.9603618,26.4651218 L14.4954217,30.5520904 C15.5128902,30.6587604 16.4906993,30.6584186 17.507484,30.5510647 L18.0428858,26.4620448 L18.4996525,26.3519558 C19.5772939,26.0917765 20.6043353,25.66578 21.552058,25.0849067 L21.9530965,24.8390868 L25.2236286,27.3526716 C26.0048502,26.7167538 26.7187193,26.0028848 27.3539533,25.2213213 L24.8396847,21.9501054 L25.0848208,21.5490669 C25.6650103,20.6016861 26.0903231,19.5753284 26.3494767,18.4983709 L26.4592238,18.0412622 L30.5475599,17.5065442 Z M15.9958116,9.64359144 C19.5005393,9.64359144 22.3519127,12.4949648 22.3519127,15.9996925 C22.3519127,19.5044202 19.5005393,22.3557936 15.9958116,22.3557936 C12.491084,22.3557936 9.63971055,19.5044202 9.63971055,15.9996925 C9.63971055,12.4949648 12.491084,9.64359144 15.9958116,9.64359144 Z"/>
</svg>
