<svg xmlns="http://www.w3.org/2000/svg" width="32" height="32" viewBox="0 0 32 32">
  <path fill-rule="evenodd" d="M4.51041203,25.5553169 L2.98981072,25.5553169 C2.93448062,25.5553169 2.88793824,25.5178877 2.87394298,25.4671142 L3.22382449,23.4537495 L3.23358862,23.3424384 C3.23358862,23.2763677 3.28729137,23.222665 3.35336202,23.222665 L4.1471862,23.222665 C4.21293138,23.222665 4.26663412,23.2763677 4.26663412,23.3424384 L4.62595429,25.4671142 C4.6122845,25.5178877 4.56541665,25.5553169 4.51041203,25.5553169 M4.40105371,21.9458416 C5.04320833,22.0623603 5.53727357,22.6098028 5.56721692,23.2779951 L5.93239557,25.4355435 C5.93239557,26.2196035 5.29447208,26.8572016 4.51041203,26.8572016 L2.98981072,26.8572016 C2.20575067,26.8572016 1.56782717,26.2196035 1.56782717,25.4355435 L1.57759131,25.3242323 L1.9333313,23.2776696 C1.96327465,22.6098028 2.45701441,22.0626857 3.09916903,21.9458416 L3.09916903,18.5114698 L4.40105371,18.5114698 L4.40105371,21.9458416 Z M32,16.4417661 L23.0706984,16.4417661 L24.6326346,23.2792644 L24.6326346,23.3528209 C24.6326346,25.9367365 20.2221748,26.8574945 16.0948748,26.8574945 C11.9675749,26.8574945 7.5571151,25.9367365 7.5571151,23.3528209 L7.5571151,23.2792644 L9.11872578,16.4417661 L0,16.4417661 L5.69509454,6 L27.3984886,6 L32,16.4417661 Z M23.3278207,23.413684 L21.7352902,16.4417661 L10.454134,16.4417661 L8.86192903,23.413684 C8.96087226,24.4773238 11.650566,25.5556098 16.0948748,25.5556098 C20.5391837,25.5556098 23.228552,24.4773238 23.3278207,23.413684 Z M4.31867696,11.2423641 L2.19302475,15.1398814 L30.0035598,15.1398814 L26.5496598,7.30188468 L6.46808857,7.30188468 L5.02885505,9.94047946 L15.6444227,9.94047946 L15.6444227,11.2423641 L4.31867696,11.2423641 Z"/>
</svg>
