<svg xmlns="http://www.w3.org/2000/svg" width="32" height="32" viewBox="0 0 32 32">
  <path fill-rule="evenodd" d="M19.9876501,28.3390992 L19.9876501,27.7018402 C17.2936613,26.639521 16.6643306,26.1249394 16.5023312,25.6037266 L16.472998,25.5075741 L16.472998,24.666074 L16.6603306,24.4731059 C16.8943296,24.2330562 17.0849955,23.8756342 17.1983283,23.467815 L17.2616614,23.2403647 L17.4543273,23.1037618 C17.4743272,23.0891731 17.4896605,23.0633114 17.4936604,23.0347973 C17.5003271,22.9870526 17.4756605,22.9572121 17.4683272,22.9479285 L17.3209945,22.7655703 L17.3209945,21.4724851 C17.3209945,20.6568467 16.9143295,20.2934566 16.001,20.2934566 C15.0990038,20.2934566 14.6790055,20.6681197 14.6790055,21.4724851 L14.6790055,22.7662334 L14.5323394,22.9479285 C14.5243395,22.9578753 14.5003396,22.9870526 14.5063396,23.0347973 C14.5110062,23.0639746 14.5256728,23.0891731 14.5456727,23.1037618 L14.7390053,23.2410278 L14.8016717,23.467815 C14.9150045,23.8756342 15.1056704,24.2323931 15.3396694,24.4731059 L15.5276686,24.666074 L15.5276686,25.5075741 L15.4976688,25.6037266 C15.3363361,26.1242763 14.7070054,26.639521 12.0130166,27.7018402 L12.0130166,28.3390992 L19.9876501,28.3390992 Z M20.6856471,26.5480103 C21.0663122,26.6958862 21.3223112,27.0712125 21.3223112,27.4816842 L21.3223112,28.6660176 C21.3223112,29.217734 20.8749797,29.6666667 20.3256486,29.6666667 L11.675018,29.6666667 C11.125687,29.6666667 10.6783555,29.217734 10.6783555,28.6660176 L10.6783555,27.4816842 C10.6783555,27.0659076 10.9276878,26.699865 11.3136862,26.5493366 C13.3623443,25.7509394 14.0003417,25.3470989 14.1930075,25.1899393 L14.1930075,25.1833081 C13.930342,24.8563896 13.7196762,24.4591804 13.5743434,24.0155527 C13.365011,23.8000385 13.2270116,23.5195384 13.1850117,23.2171554 C13.1416786,22.9094675 13.198345,22.604432 13.3443444,22.3365312 L13.3443444,21.4724851 C13.3443444,19.9260877 14.3623402,18.9658891 16.001,18.9658891 C17.6636597,18.9658891 18.6556556,19.9028785 18.6556556,21.4724851 L18.6556556,22.3358681 C18.8023217,22.6037688 18.8589881,22.9094675 18.8156549,23.2171554 C18.7729884,23.5202016 18.634989,23.8007016 18.4256566,24.0162158 C18.2796572,24.4598435 18.069658,24.8563896 17.8069925,25.1833081 L17.8069925,25.1899393 C18.0009917,25.3470989 18.6376557,25.7509394 20.6856471,26.5480103 Z M31.3626693,11.9445026 C31.7440011,12.0917154 32,12.4670417 32,12.8775133 L32,14.0618468 C32,14.6135631 31.5526685,15.0624958 31.0033375,15.0624958 L22.3527069,15.0624958 C21.8033758,15.0624958 21.3560443,14.6135631 21.3560443,14.0618468 L21.3560443,12.8775133 C21.3560443,12.4623998 21.6053766,12.0956941 21.991375,11.9451657 C24.0400332,11.1474316 24.6780305,10.742928 24.8706964,10.5857684 L24.8706964,10.5791372 C24.6080308,10.2522188 24.397365,9.8550095 24.2520323,9.4113818 C24.0426998,9.1958676 23.9047004,8.91536757 23.8627006,8.61298457 C23.8193674,8.30529659 23.8760338,8.0002611 24.0220332,7.73236037 L24.0220332,6.86831419 C24.0220332,5.32191688 25.040029,4.36171821 26.6786888,4.36171821 C28.3413486,4.36171821 29.3333444,5.29870766 29.3333444,6.86831419 L29.3333444,7.73169725 C29.4800105,8.0002611 29.5366769,8.30529659 29.4933438,8.61298457 C29.451344,8.91603069 29.3126779,9.19653072 29.1040121,9.41204492 C28.9580127,9.85567262 28.7480135,10.2522188 28.485348,10.5791372 L28.485348,10.5857684 C28.6786805,10.742928 29.3146779,11.1467685 31.3626693,11.9445026 Z M30.6653389,13.7349283 L30.6653389,13.0983325 C27.9713501,12.0353501 27.3420194,11.5207685 27.1800201,10.9995557 L27.1513535,10.9034032 L27.1513535,10.0619031 L27.3380194,9.86893504 C27.5720184,9.62888537 27.7626843,9.27146335 27.8760172,8.86364416 L27.9393503,8.63685691 L28.1326828,8.49959094 C28.1526827,8.4856654 28.1673493,8.4598037 28.1713493,8.43062639 C28.1780159,8.38354483 28.154016,8.3537044 28.1460161,8.34375759 L27.9986833,8.16206254 L27.9986833,6.86831419 C27.9986833,6.05267582 27.5920184,5.68928571 26.6786888,5.68928571 C25.7766926,5.68928571 25.3566943,6.06394887 25.3566943,6.86831419 L25.3566943,8.16139942 L25.2100283,8.34375759 C25.202695,8.3537044 25.1786951,8.38288171 25.1846951,8.43062639 C25.188695,8.4598037 25.2033617,8.48500228 25.2233616,8.49959094 L25.4166941,8.63685691 L25.4800272,8.86364416 C25.5926934,9.27146335 25.7840259,9.62822225 26.0173583,9.86893504 L26.2053575,10.0619031 L26.2053575,10.9034032 L26.1760243,10.9995557 C26.0140249,11.5201054 25.3846942,12.0353501 22.6907055,13.0983325 L22.6907055,13.7349283 L30.6653389,13.7349283 Z M10.0072916,11.9445026 C10.3886234,12.0917154 10.6446223,12.4670417 10.6446223,12.8775133 L10.6446223,14.0618468 C10.6446223,14.6135631 10.1972908,15.0624958 9.6479598,15.0624958 L0.997329178,15.0624958 C0.447998133,15.0624958 0,14.6135631 0,14.0618468 L0,12.8775133 C0,12.4623998 0.249332294,12.0956941 0.635330686,11.9451657 C2.68465548,11.1474316 3.32198616,10.742928 3.51531869,10.5857684 L3.51531869,10.5791372 C3.25198645,10.2522188 3.04198733,9.8550095 2.89598793,9.4113818 C2.68732214,9.1958676 2.54932271,8.91536757 2.50732289,8.61298457 C2.46398973,8.30529659 2.5199895,8.0002611 2.66665556,7.73236037 L2.66665556,6.86831419 C2.66665556,5.32191688 3.68465131,4.36171821 5.32331115,4.36171821 C6.98597089,4.36171821 7.97796676,5.29870766 7.97796676,6.86831419 L7.97796676,7.73169725 C8.12463281,8.0002611 8.18063258,8.30529659 8.13729943,8.61364769 C8.0952996,8.91603069 7.95730018,9.19653072 7.74796772,9.41204492 C7.60263499,9.85567262 7.3919692,10.2522188 7.12930363,10.5791372 L7.12930363,10.5857684 C7.32330282,10.742928 7.95996683,11.1474316 10.0072916,11.9445026 Z M9.30996121,13.7349283 L9.30996121,13.0983325 C6.6166391,12.0360133 5.98730839,11.5207685 5.8246424,10.9995557 L5.79530919,10.9040663 L5.79530919,10.0619031 L5.98264174,9.86893504 C6.2159741,9.62888537 6.40730664,9.27146335 6.51997283,8.86430728 L6.5833059,8.63685691 L6.77663843,8.49959094 C6.79663835,8.48500228 6.81197162,8.4598037 6.8159716,8.43062639 C6.82263824,8.38354483 6.79797168,8.3537044 6.79063837,8.34375759 L6.64330565,8.16206254 L6.64330565,6.86831419 C6.64330565,6.05267582 6.23597402,5.68928571 5.32331115,5.68928571 C4.42131491,5.68928571 4.00131666,6.06394887 4.00131666,6.86831419 L4.00131666,8.16139942 L3.85398394,8.34375759 C3.84665064,8.3537044 3.82265074,8.38288171 3.82865071,8.43062639 C3.83331736,8.4598037 3.84798397,8.48500228 3.86798388,8.49959094 L4.06131641,8.63685691 L4.12398282,8.86364416 C4.23731568,9.27146335 4.42798155,9.62822225 4.66198058,9.86893504 L4.84997979,10.0619031 L4.84997979,10.9034032 L4.81997992,10.9995557 C4.65864726,11.5201054 4.02931654,12.0353501 1.33532777,13.0983325 L1.33532777,13.7349283 L9.30996121,13.7349283 Z M16.1647326,4.3275675 C14.2467406,4.3275675 12.3580818,4.83419166 10.7034221,5.79173785 L10.0320915,4.64453916 C11.8907505,3.56829438 14.0114083,3 16.1647326,3 C18.318057,3 20.4387148,3.56829438 22.2973738,4.64453916 L21.6260432,5.79173785 C19.9713835,4.83419166 18.0827247,4.3275675 16.1647326,4.3275675 Z M22.166041,24.1632296 C24.8560298,22.3880557 26.6073558,19.5525519 26.970021,16.3834984 L28.2960154,16.5333637 C28.2953488,16.535353 28.2953488,16.5373424 28.2953488,16.5393318 C27.8886838,20.0790697 25.9406919,23.24746 22.9467044,25.2408007 C22.9307045,25.2514106 22.9147045,25.2620205 22.8987046,25.2726304 L22.1613743,24.1665452 C22.1627077,24.165219 22.164041,24.1638928 22.166041,24.1632296 Z M5.35944434,16.3831668 C5.72210949,19.5542097 7.47543552,22.3910397 10.1687576,24.1662137 L9.43142737,25.272962 C6.40810663,23.2802845 4.4407815,20.094653 4.03344986,16.5336952 L5.35944434,16.3831668 Z"/>
</svg>
