<svg xmlns="http://www.w3.org/2000/svg" width="32" height="32" viewBox="0 0 32 32">
  <path fill-rule="evenodd" d="M28.6896575,16.9228926 L12.8244456,16.9228926 C11.7307376,16.9228926 10.8412942,16.0512975 10.8412942,14.9800652 L10.8412942,5.55216308 L30.6728089,5.55216308 L30.6728089,14.9800652 C30.6728089,16.0512975 29.7833655,16.9228926 28.6896575,16.9228926 M12.8244456,1.32210098 L28.6896575,1.32210098 C29.7833655,1.32210098 30.6728089,2.19336553 30.6728089,3.2639368 L30.6728089,4.2300621 L10.8412942,4.2300621 L10.8412942,3.2639368 C10.8412942,2.19336553 11.7307376,1.32210098 12.8244456,1.32210098 M28.6896575,0 C30.5121737,0 31.9949099,1.46389631 31.9949099,3.2639368 L31.9949099,14.9800652 C31.9949099,16.7801057 30.5121737,18.2449936 28.6896575,18.2449936 L12.8244456,18.2449936 C11.0015989,18.2449936 9.51919319,16.7801057 9.51919319,14.9800652 L9.51919319,3.2639368 C9.51919319,1.46389631 11.0015989,0 12.8244456,0 L28.6896575,0 Z M26.9424349,23.2880156 C28.8442772,22.8133813 30.9864113,23.8710621 31.925103,25.7494371 C32.0054206,25.9104029 32.016989,26.0968191 31.9568334,26.266048 C31.8966778,26.4356075 31.7700866,26.573106 31.6064766,26.6471436 L24.2027111,29.9999917 C20.7530191,31.4139787 19.1830242,32 17.8427444,32 C16.9853619,32 16.2218485,31.7603692 15.1211995,31.344899 L5.81096435,28.445201 C5.6506596,28.9932118 5.5432389,29.3468739 5.52406844,29.4106652 C5.43912345,29.688637 5.18263586,29.8790195 4.89177364,29.8790195 L0.661050492,29.8790195 C0.295820095,29.8790195 0,29.5828689 0,29.217969 L0,16.5257996 C0,16.3387223 0.079326059,16.1605692 0.218146662,16.0349696 C0.35663674,15.9097005 0.542722454,15.850206 0.728147117,15.8680543 C6.48821058,16.4553977 7.7884969,17.441024 7.99044782,17.6323981 C8.1368705,17.7712187 8.21189974,17.9688728 8.1943819,18.1698321 C8.16860093,18.4656522 8.12695475,18.7941943 8.07440123,19.143229 L19.3168869,21.6985197 C21.2464933,22.1800949 22.2274923,23.1339908 22.433079,24.7519119 L26.898475,23.3005755 C26.9130181,23.2962787 26.9275613,23.2919819 26.9424349,23.2880156 Z M23.6791591,28.7859725 L30.3706427,25.7553865 C29.614401,24.7968633 28.3881523,24.3000839 27.284198,24.5654956 L22.0189308,26.2769554 C22.0123203,26.279269 22.0060403,26.279269 21.9994298,26.2812522 C21.9911667,26.2838964 21.9832341,26.2872016 21.974971,26.2895153 L20.1960841,26.7347328 C19.8298621,26.8256273 19.4507497,26.8712398 19.0719677,26.8712398 C18.7678845,26.8712398 18.4641318,26.841823 18.1669896,26.7829895 L12.4300629,25.6354059 C12.0721041,25.5636819 11.8400754,25.2153083 11.9117993,24.8573494 C11.9835233,24.4997211 12.3302443,24.2680229 12.6895252,24.3390858 L18.4251298,25.4866695 C18.9093493,25.5825218 19.3978656,25.5709534 19.8761357,25.4516338 L21.1437,25.1346601 C21.0637129,23.9275819 20.4743864,23.3501543 19.0101595,22.9842629 L7.84600829,20.4471511 C7.41335074,22.6563818 6.69941621,25.3240511 6.17652527,27.1746619 L15.5330339,30.0885725 C15.5452634,30.0925388 15.5578233,30.0968356 15.5700528,30.1011325 C17.9276893,30.991898 18.1197245,31.0649441 23.6791591,28.7859725 Z M1.32210098,28.5569185 L4.39929102,28.5569185 C4.88516313,26.9165217 6.48556638,21.3755965 6.83757576,18.4335913 C5.9818459,18.0019253 3.56537583,17.5339016 1.32210098,17.2645235 L1.32210098,28.5569185 Z M13.3531538,3.30469057 C13.6450076,3.30469057 13.8819942,3.06770397 13.8819942,2.77585017 C13.8819942,2.48399638 13.6450076,2.24700978 13.3531538,2.24700978 C13.0613,2.24700978 12.8243134,2.48399638 12.8243134,2.77585017 C12.8243134,3.06770397 13.0613,3.30469057 13.3531538,3.30469057 Z M15.4684824,3.30469057 C15.7603361,3.30469057 15.9973227,3.06770397 15.9973227,2.77585017 C15.9973227,2.48399638 15.7603361,2.24700978 15.4684824,2.24700978 C15.1766286,2.24700978 14.939642,2.48399638 14.939642,2.77585017 C14.939642,3.06770397 15.1766286,3.30469057 15.4684824,3.30469057 Z M17.5838109,3.30469057 C17.8759952,3.30469057 18.1129818,3.06770397 18.1129818,2.77585017 C18.1129818,2.48399638 17.8759952,2.24700978 17.5838109,2.24700978 C17.2919571,2.24700978 17.0549705,2.48399638 17.0549705,2.77585017 C17.0549705,3.06770397 17.2919571,3.30469057 17.5838109,3.30469057 Z"/>
</svg>
