<svg xmlns="http://www.w3.org/2000/svg" width="32" height="32" viewBox="0 0 32 32">
  <path fill-rule="evenodd" d="M30.6776996,18.6940837 L27.5967397,18.6940837 C26.9478208,16.6874929 24.9438745,11.4544891 23.8490098,9.20062809 C25.0156093,8.91963926 27.439386,8.44460285 30.6776996,8.38609105 L30.6776996,18.6940837 Z M24.329666,20.8378632 C24.0509912,21.0765385 23.5478559,21.1191827 23.2629002,20.9327383 C22.747203,20.5129079 20.5158211,18.2326009 19.1214554,16.7813762 C18.8679043,16.5179079 18.4497268,16.5096435 18.186589,16.762864 C17.9234512,17.015754 17.9151868,17.434262 18.1677462,17.6977304 C18.4999742,18.0431814 21.1822605,20.8309212 22.203407,21.7608289 C22.1316722,22.099999 21.8235762,22.3704094 21.5392816,22.5122261 C21.1495336,22.707596 20.8063966,22.6900755 20.682431,22.5743742 C20.6774723,22.5700768 20.6711914,22.5677627 20.6665634,22.5634653 C20.6586296,22.5565232 20.6526792,22.5479282 20.6440843,22.5413167 C19.8543403,21.9099183 17.4672576,19.3978781 17.0150308,18.9073047 C16.7680912,18.6385471 16.3495832,18.6210266 16.0808256,18.868958 C15.8120681,19.1162281 15.7948782,19.5344056 16.0428095,19.8031632 C16.338013,20.123821 18.4193139,22.3297487 19.5002944,23.3003171 C19.3545108,23.708908 19.0140185,24.0973337 18.6388157,24.2424562 C18.3155133,24.3674136 18.1379944,24.2530346 18.0328716,24.1561761 C18.0295658,24.1535315 18.0259295,24.1518786 18.0226237,24.1489034 C18.0189874,24.1455977 18.0166734,24.1419613 18.0130371,24.1393167 C17.1809795,23.4365141 15.7033089,21.8831417 14.8967056,21.0196795 C14.6471214,20.7525749 14.2289439,20.7386907 13.9621698,20.9876138 C13.6950651,21.2368674 13.6808504,21.6553755 13.930104,21.9221496 C14.5628248,22.5991674 15.6001694,23.6920486 16.4490863,24.5026188 C16.2795012,24.5112137 16.1092551,24.5118749 16.0001653,24.5122055 C15.5962025,24.5122055 15.2186858,24.38262 14.7757151,24.0917139 C14.161176,23.6880817 10.9030279,21.3965352 8.4918131,19.3783742 C8.1361143,19.0792037 7.52884784,18.4435078 6.99298561,17.8828524 C6.56422971,17.4339315 6.18770467,17.0405471 5.93745932,16.8131114 C6.38340513,14.9463539 7.08488549,11.859113 7.4577742,9.43798101 L11.761862,9.43798101 C10.8263344,10.4012768 9.6068429,12.2273737 9.91560005,13.5262032 C10.0488218,14.0858669 10.4455119,14.5000775 11.0326133,14.6937945 C12.6173903,15.2161031 13.8497743,14.8630489 14.7925745,13.6151279 C15.2530656,13.5093439 15.5462857,13.2928172 15.809754,13.0974473 C15.9753722,12.9751346 16.1449572,12.8498466 16.3833018,12.7298478 C17.1178397,13.423725 18.1363416,14.2776004 19.2064132,15.1747813 C21.287714,16.9202178 23.8781004,19.0927573 24.395781,20.1704321 C24.5802419,20.5542298 24.457268,20.7287735 24.329666,20.8378632 L24.329666,20.8378632 Z M1.32230039,17.6587225 L1.32230039,7.33056477 C3.33451101,7.37816758 5.51663722,7.63502443 6.31299263,8.03303685 C5.99365709,10.9414366 4.7695375,16.040888 4.37516141,17.6405409 C3.68690406,17.6461607 2.42146259,17.6554168 1.32230039,17.6587225 L1.32230039,17.6587225 Z M18.3743556,8.85154079 C21.0592866,10.0528507 23.1386039,10.9685437 23.1386039,10.9685437 C23.1640582,10.9797833 23.1901737,10.9860642 23.2159585,10.9936674 C24.1511555,13.1394304 25.4238696,16.428322 26.0913007,18.3565666 L25.1861861,18.9598661 C24.2113201,17.6484747 22.1058873,15.8808897 20.0559912,14.1615686 C18.8421194,13.1437279 17.695685,12.1824155 16.9961881,11.4829186 C16.8150329,11.3017634 16.5459448,11.2422599 16.304625,11.32854 C15.6679373,11.5582897 15.2957098,11.8333282 15.023977,12.0343178 C14.7572029,12.2316712 14.6352207,12.3215876 14.347951,12.3503476 C14.1512588,12.3698516 13.9737399,12.4762967 13.863989,12.6405926 C13.3393663,13.4240555 12.7284635,13.8604147 11.4464933,13.4382703 C11.2372393,13.3691801 11.2160825,13.2795942 11.2021983,13.2204213 C11.0660014,12.6472041 11.8107871,11.2564746 12.7648268,10.3021043 C14.9644735,8.10344934 16.0646274,7.81816304 18.3743556,8.85154079 L18.3743556,8.85154079 Z M31.3388498,7.05784031 C26.1481596,7.05784031 22.8143098,8.10245762 22.6748071,8.14708526 C22.4807595,8.2089028 22.3257198,8.35700044 22.2553073,8.54840343 C22.1852254,8.73980641 22.2067127,8.95302734 22.3144802,9.12591812 C22.3227446,9.13881055 22.3320007,9.15600045 22.3402651,9.16988461 C21.4834144,8.7903844 20.2781376,8.25452216 18.9145153,7.64428053 C16.434541,6.53520108 14.8867884,6.82577659 13.2230039,8.11568062 L7.63397072,8.11568062 C7.646202,7.99931819 7.65711098,7.88593093 7.66702823,7.77651057 C7.68388756,7.58180184 7.61380564,7.38940713 7.47562525,7.25122674 C6.31464551,6.090247 1.9659301,6 0.661150195,6 C0.296195287,6 0,6.29619529 0,6.66115019 L0,18.3208645 C0,18.6858194 0.296195287,18.9820146 0.661150195,18.9820146 C2.33088501,18.9820146 4.89912294,18.9585438 4.89912294,18.9585438 C5.19895456,18.9558992 5.45977831,18.7509427 5.53349655,18.4600366 C5.53878576,18.4402021 5.55200876,18.3883018 5.57118212,18.3109472 C5.71927976,18.4640035 5.87894753,18.6312745 6.03696243,18.796562 C6.62340265,19.4101094 7.22967738,20.044483 7.64157395,20.3912563 C10.3053481,22.6206547 13.6659745,24.9449283 14.0501028,25.1971571 C14.7029886,25.625913 15.340668,25.8345058 16.0242973,25.8345058 L16.0467764,25.8345058 C16.5290854,25.8345058 17.22726,25.8292166 17.7211392,25.4973192 C18.1505563,25.6659125 18.6341877,25.6619456 19.115505,25.4758319 C19.7849196,25.2169916 20.3574756,24.63551 20.662927,23.9575004 C21.1187901,24.030227 21.6348178,23.9432857 22.131011,23.6950238 C22.7455501,23.387589 23.1924877,22.9029659 23.405378,22.3509055 C24.0318179,22.4305741 24.7058605,22.2560304 25.1888307,21.8431421 C25.6985775,21.4074441 25.8979143,20.8024917 25.7726263,20.1582008 L26.5273293,19.6550655 C26.6390636,19.8709311 26.8565821,20.0163841 27.107158,20.0163841 L31.3388498,20.0163841 C31.7038047,20.0163841 32,19.7201888 32,19.3552339 L32,7.71899051 C32,7.35370502 31.7038047,7.05784031 31.3388498,7.05784031 L31.3388498,7.05784031 Z"/>
</svg>
