<svg xmlns="http://www.w3.org/2000/svg" width="32" height="32" viewBox="0 0 32 32">
  <path fill-rule="evenodd" d="M9.18939415,21.7784776 L11.9620489,21.7784776 L11.9620489,19.0183351 L9.18939415,19.0183351 L9.18939415,21.7784776 Z M32,13.5464085 L31.1261691,14.5788411 L29.5624716,13.2549061 L29.5624716,31.1596479 L24.1186131,31.1596479 L15.9278007,31.1596479 L2.43685206,31.1596479 L2.43685206,13.2555824 L0.873830936,14.5788411 L0,13.5464085 L16.0001691,0 L32,13.5464085 Z M28.2097921,29.8069684 L28.2097921,12.1095248 L16.0001691,1.77234827 L3.78953153,12.1102011 L3.78953153,29.8069684 L15.9278007,29.8069684 L15.9278007,17.6656557 L24.1186131,17.6656557 L24.1186131,29.8069684 L28.2097921,29.8069684 Z M7.83671468,23.1311571 L7.83671468,17.6656557 L13.3147284,17.6656557 L13.3147284,23.1311571 L7.83671468,23.1311571 Z M17.2804802,29.8069684 L22.7662718,29.8069684 L22.7662718,19.0183351 L17.2804802,19.0183351 L17.2804802,29.8069684 Z"/>
</svg>
