<svg xmlns="http://www.w3.org/2000/svg" width="32" height="32" viewBox="0 0 32 32">
  <path fill-rule="evenodd" d="M5.15969557,31.961 L5.16036661,20.7103333 L6.57425247,20.7103333 L6.57425247,31.961 L5.15969557,31.961 Z M5.86744375,7.39353333 C4.31062591,7.39353333 3.277892,5.4802 3.277892,4.21553333 C3.277892,2.79686667 4.439466,1.64286667 5.86744375,1.64286667 C7.29542149,1.64286667 8.4569955,2.79686667 8.4569955,4.21553333 C8.4569955,5.4802 7.42426159,7.39353333 5.86744375,7.39353333 Z M5.86744375,3.0482 C5.21921701,3.0482 4.6924489,3.57153333 4.6924489,4.21553333 C4.6924489,4.9942 5.35074128,5.9882 5.86744375,5.9882 C6.38414622,5.9882 7.04310964,4.9942 7.04310964,4.21553333 C7.04310964,3.57153333 6.51567049,3.0482 5.86744375,3.0482 Z M9.86947217,7.864 C10.1815068,8.12333333 11.0082307,8.81066667 10.6438548,18.5093333 C10.6358023,18.73 10.5391723,18.93 10.3734248,19.0733333 C10.1734543,19.2466667 9.93858951,19.282 9.7205008,19.2846667 L9.0091961,32 L7.59665233,31.922 L8.34218018,18.618 C8.35023269,18.4066667 8.4475338,18.2053333 8.61529435,18.0606667 C8.81056762,17.8913333 9.04006404,17.8493333 9.25211337,17.8473333 C9.46349165,11.5833333 9.13468099,9.63733333 8.97027565,9.07133333 C8.82734367,9.064 8.66830668,9.058 8.55758472,9.05266667 C8.38781105,9.046 8.23548448,9.04 8.14892003,9.03466667 C8.10396021,9.03333333 8.04625058,9.092 8.0147116,9.15266667 C7.63154652,9.892 6.80817777,10.3506667 5.86737665,10.3506667 C4.92657552,10.3506667 4.10387781,9.892 3.72004169,9.15266667 C3.68917375,9.094 3.63012204,9.03666667 3.58583326,9.03466667 C3.49993986,9.04 3.34895537,9.046 3.18052378,9.05266667 C3.06845974,9.05733333 2.90808066,9.064 2.76447764,9.07133333 C2.6000723,9.63733333 2.27193268,11.582 2.48263992,17.8473333 C2.69603133,17.8493333 2.92418567,17.8913333 3.12012999,18.0606667 C3.28721949,18.2053333 3.38519165,18.4066667 3.39391519,18.6286667 L4.13742992,31.922 L2.72555719,32 L2.01425249,19.2846667 C1.7948217,19.2793333 1.56197006,19.2473333 1.36132845,19.0733333 C1.19558103,18.9306667 1.099622,18.73 1.09089846,18.51 C0.726522556,8.80533333 1.5545886,8.12066667 1.86662321,7.86266667 L1.9827135,7.76666667 L2.12967174,7.72533333 C2.25716975,7.68933333 2.40614112,7.67866667 3.12214311,7.64933333 C3.27849594,7.64266667 3.41807271,7.63733333 3.49725569,7.632 C4.11662762,7.59333333 4.67761887,7.93066667 4.97690368,8.50866667 C5.14466422,8.83066667 5.56138141,8.94533333 5.86737665,8.94533333 C6.17337188,8.94533333 6.59008907,8.83066667 6.75784961,8.50866667 C7.05914755,7.93 7.62550714,7.59333333 8.2374976,7.632 C8.31802266,7.63733333 8.45827048,7.64266667 8.61529435,7.64933333 C9.32794113,7.67866667 9.47624145,7.68933333 9.60306842,7.72466667 L9.75136874,7.76533333 L9.86947217,7.864 Z M22.1281377,0 C25.1350777,0 27.5803554,2.396 27.5803554,5.34133333 C27.5803554,6.85666667 26.9368259,8.508 25.8571191,9.764 C25.5115323,10.218 25.0303951,11.0013333 24.7915041,11.684 L24.9263836,11.684 L24.9263836,16.5486667 L23.6487193,16.5486667 L22.9555327,17.2353333 L21.3007427,17.2353333 L20.6082272,16.5486667 L19.3298918,16.5486667 L19.3298918,11.684 L19.4802053,11.684 C19.2359459,10.9973333 18.7420589,10.2106667 18.393117,9.762 L18.3394336,9.69266667 C17.295292,8.44533333 16.67592,6.828 16.67592,5.34133333 C16.67592,2.396 19.1218688,0 22.1281377,0 Z M24.7700307,8.86466667 C25.6309778,7.86933333 26.1657985,6.51933333 26.1657985,5.34133333 C26.1657985,3.17066667 24.3546556,1.40533333 22.1281377,1.40533333 C19.9016198,1.40533333 18.0904769,3.17066667 18.0904769,5.34133333 C18.0904769,6.52133333 18.6273107,7.874 19.491613,8.87 L19.8975935,9.33866667 L19.858002,9.38266667 C20.2176806,9.91666667 20.7464619,10.8053333 20.955156,11.684 L21.4215303,11.684 L21.4215303,7.91133333 L22.8354161,7.91133333 L22.8354161,11.684 L23.2125418,11.684 L23.2125418,10.738 L23.5239054,11.0306667 C23.9325701,9.97533333 24.6351513,9.03866667 24.7438601,8.89666667 L24.7700307,8.86466667 Z M23.5124977,15.1433333 L23.5124977,13.0886667 L20.7437777,13.0886667 L20.7437777,15.1433333 L21.1933759,15.1433333 L21.8858915,15.83 L22.371055,15.83 L23.0635705,15.1433333 L23.5124977,15.1433333 Z M12.6352396,6.08493333 L12.6352396,4.68026667 L14.59938,4.68026667 L14.59938,6.08493333 L12.6352396,6.08493333 Z M13.3157435,1.4584 L14.2961361,0.4444 L15.8831508,1.95973333 L14.9027582,2.9724 L13.3157435,1.4584 Z M13.3164145,9.30606667 L14.9034292,7.79206667 L15.8824798,8.8054 L14.295465,10.3200667 L13.3164145,9.30606667 Z M29.7025262,6.0856 L29.7025262,4.68093333 L31.6666667,4.68093333 L31.6666667,6.0856 L29.7025262,6.0856 Z M30.9856931,1.4584 L29.3986783,2.9724 L28.4189568,1.95973333 L30.0059715,0.4444 L30.9856931,1.4584 Z M28.4188225,8.8054 L29.3978731,7.7914 L30.9855589,9.30606667 L30.0058373,10.3194 L28.4188225,8.8054 Z M22.9180885,4.84773333 L23.673682,4.5904 L24.1320038,5.91973333 L22.7583805,6.3884 L22.2242309,6.07306667 L21.652503,6.41106667 L20.3010241,5.9144 L20.7908849,4.5964 L21.5089,4.8604 L22.2242309,4.43773333 L22.9180885,4.84773333 Z"/>
</svg>
