<svg xmlns="http://www.w3.org/2000/svg" width="32" height="32" viewBox="0 0 32 32">
  <path fill-rule="evenodd" d="M3.96864821,6.62752556 L3.96864821,21.6950578 L2.63488418,21.6950578 L2.63488418,6.62752556 C2.63488418,5.73023581 3.36478655,5 4.26240974,5 L27.7379904,5 C28.6352801,5 29.3651825,5.73023581 29.3651825,6.62752556 L29.3651825,21.6950578 L28.0314185,21.6950578 L28.0314185,6.62752556 C28.0314185,6.46580667 27.8997093,6.33376403 27.7379904,6.33376403 L4.26240974,6.33376403 C4.10035741,6.33376403 3.96864821,6.46580667 3.96864821,6.62752556 Z M16.9854849,23.7345497 L32,23.7345497 L32,26.0029489 C32,26.9585908 31.2220821,27.7361752 30.2661068,27.7361752 L1.73322635,27.7361752 C0.777584428,27.7361752 0,26.9585908 0,26.0029489 L0,23.7345497 L15.0148485,23.7345497 L15.0148485,24.7188676 L16.9854849,24.7188676 L16.9854849,23.7345497 Z M30.666236,26.0029489 L30.666236,25.0683137 L18.2915733,25.0683137 C18.1712011,25.6304953 17.6703727,26.0526316 17.072513,26.0526316 L14.9278204,26.0526316 C14.3299607,26.0526316 13.8291323,25.6304953 13.7087601,25.0683137 L1.33376403,25.0683137 L1.33376403,26.0029489 C1.33376403,26.2233534 1.51282185,26.4024112 1.73322635,26.4024112 L30.2661068,26.4024112 C30.4865113,26.4024112 30.666236,26.2233534 30.666236,26.0029489 Z M11.3103856,16.5609332 C13.3630485,15.7563401 13.9999208,15.349542 14.1923163,15.191491 L14.1923163,15.1828215 C13.9292313,14.8527149 13.71883,14.4529192 13.5731163,14.0054413 C13.3647157,13.7887047 13.2266711,13.5066136 13.1843241,13.2025154 C13.1413102,12.8927487 13.1976617,12.585983 13.3437089,12.3165626 L13.3437089,11.4452813 C13.3437089,9.88877867 14.3613709,8.92179975 15.9999,8.92179975 C17.6631037,8.92179975 18.6557576,9.86510436 18.6557576,11.4452813 L18.6557576,12.3158958 C18.8024716,12.585983 18.8588232,12.8934156 18.8154758,13.2041826 C18.7731288,13.5079474 18.6347508,13.789705 18.4260167,14.0064417 C18.280303,14.4535861 18.0699017,14.8530484 17.8074837,15.1828215 L17.8074837,15.1918244 C17.9998791,15.3498755 18.636418,15.757007 20.6877471,16.5609332 C21.0682033,16.7096479 21.3236191,17.0864362 21.3236191,17.4989028 L21.3236191,18.6916213 C21.3236191,19.2464671 20.8764747,19.6982797 20.3269639,19.6982797 L11.672836,19.6982797 C11.1233252,19.6982797 10.6761809,19.2464671 10.6761809,18.6916213 L10.6761809,17.4989028 C10.6761809,17.0814346 10.9249278,16.7136492 11.3103856,16.5609332 Z M15.3393533,14.4699247 L15.5260803,14.6636539 L15.5260803,15.5095937 L15.4967375,15.6052913 C15.3356855,16.1301274 14.7061489,16.6489616 12.0099449,17.7189738 L12.0099449,18.3645156 L19.9898551,18.3645156 L19.9898551,17.7193073 C17.2946514,16.6502954 16.6651148,16.1311278 16.5030624,15.6062916 L16.4737196,15.5102606 L16.4737196,14.6636539 L16.6604466,14.4699247 C16.8945222,14.2271796 17.0859173,13.8670633 17.1992873,13.456264 L17.2623076,13.22719 L17.4557034,13.0898123 C17.4757099,13.0754744 17.4903813,13.049466 17.4943826,13.0197897 C17.5013848,12.9707739 17.4767102,12.9400973 17.4683742,12.9297607 L17.3219936,12.747035 L17.3219936,11.4452813 C17.3219936,10.6226823 16.9145286,10.2555638 15.9999,10.2555638 C15.0976086,10.2555638 14.6774729,10.6336859 14.6774729,11.4452813 L14.6774729,12.7473684 L14.5307589,12.9304275 C14.5094187,12.9571028 14.5010826,12.9871125 14.5054174,13.0194563 C14.5097521,13.0491325 14.5244235,13.0754744 14.5447634,13.0901458 L14.7374923,13.2275235 L14.8001792,13.4559306 C14.9135492,13.8667299 15.1049443,14.2268462 15.3393533,14.4699247 Z"/>
</svg>
