<svg xmlns="http://www.w3.org/2000/svg" width="32" height="32" viewBox="0 0 32 32">
  <path fill-rule="evenodd" d="M16.5160567,30.6280205 L16.5160567,28.2114966 L15.1630198,28.2114966 L15.1630198,30.6280205 C8.77972982,30.2853639 3.65611721,25.1265724 3.36758208,18.7294138 L5.76211919,18.7294138 L5.76211919,17.3763768 L3.38043593,17.3763768 C3.77281664,11.0793429 8.85177903,6.03183865 15.1630198,5.6929029 L15.1630198,8.10942686 L16.5160567,8.10942686 L16.5160567,5.6929029 C22.8272975,6.03183865 27.9062599,11.0793429 28.2986406,17.3763768 L25.8547177,17.3763768 L25.8547177,18.7294138 L28.3114945,18.7294138 C28.0229593,25.1265724 22.8993467,30.2853639 16.5160567,30.6280205 M13.8289254,3.36432634 C13.8289254,2.25551257 14.7307245,1.35303693 15.8395383,1.35303693 C16.9480138,1.35303693 17.8501512,2.25551257 17.8501512,3.36432634 C17.8501512,3.68601087 17.7770872,3.99281199 17.6323122,4.27627323 L18.0811822,4.50527473 C17.3512188,4.38586922 16.6029894,4.32126171 15.8395383,4.32126171 C15.0760872,4.32126171 14.3278578,4.38586922 13.5978943,4.50527473 L14.0471026,4.27593497 C13.9019894,3.99281199 13.8289254,3.68601087 13.8289254,3.36432634 M18.9322424,4.67372783 C25.078751,6.08291579 29.6790766,11.5928204 29.6790766,18.1608 C29.6790766,25.79159 23.4706666,32 15.8395383,32 C8.20840997,32 2,25.79159 2,18.1608 C2,11.5928204 6.60032557,6.08291579 12.7468341,4.67372783 C12.5722923,4.26138982 12.4758885,3.81454938 12.4758885,3.36432634 C12.4758885,1.5093127 13.9848629,0 15.8395383,0 C17.6942137,0 19.2031881,1.5093127 19.2031881,3.36432634 C19.2031881,3.81454938 19.1067842,4.26138982 18.9322424,4.67372783 Z M14.7527452,16.1168686 L21.3007674,12.6990973 L17.8829961,19.2474578 L16.3178707,17.681994 L14.7527452,16.1168686 Z M10.3780385,23.6218262 L13.7958098,17.0734657 L15.3612735,18.6385912 L16.926399,20.2040549 L10.3780385,23.6218262 Z M13.1213209,15.4420414 L7.18554787,26.8143168 L18.5578233,20.8788821 L24.4932581,9.50660663 L13.1213209,15.4420414 Z"/>
</svg>
