<svg xmlns="http://www.w3.org/2000/svg" width="32" height="32" viewBox="0 0 32 32">
  <path fill-rule="evenodd" d="M8.36260667,9.42821618 C8.36260667,4.98066802 11.980668,1.36260667 16.4278755,1.36260667 C20.875083,1.36260667 24.4931444,4.98066802 24.4931444,9.42821618 C24.4931444,10.7240551 23.7498424,13.6035837 20.2097903,19.9621877 C18.7214832,22.6352813 17.2188687,25.0484577 16.4278755,26.2918363 C15.6375637,25.0498203 14.1373337,22.6403911 12.6497079,19.9690007 C9.10658991,13.6059682 8.36260667,10.7247364 8.36260667,9.42821618 L8.36260667,9.42821618 Z M16.4278755,28.7894943 L15.8586466,27.9245797 C15.4968745,27.3747679 7,14.405137 7,9.42821618 C7,4.22953109 11.2295311,0 16.4278755,0 C21.6265606,0 25.8557511,4.22953109 25.8557511,9.42821618 C25.8557511,14.405137 17.3585359,27.3751086 16.9971045,27.9245797 L16.4278755,28.7894943 Z M14.4090034,8.4731311 C14.4090034,7.35988145 15.3147962,6.45408867 16.4277052,6.45408867 C17.5409548,6.45408867 18.446407,7.35988145 18.446407,8.4731311 C18.446407,9.58638075 17.5409548,10.4918329 16.4277052,10.4918329 C15.3147962,10.4918329 14.4090034,9.58638075 14.4090034,8.4731311 Z M19.8090136,8.4731311 C19.8090136,6.60840388 18.2920918,5.09148201 16.4277052,5.09148201 C14.5633186,5.09148201 13.0463968,6.60840388 13.0463968,8.4731311 C13.0463968,10.3375177 14.5633186,11.8544395 16.4277052,11.8544395 C18.2920918,11.8544395 19.8090136,10.3375177 19.8090136,8.4731311 Z M20.6087616,25.2738328 C23.634089,25.8665667 25.369028,27.0227385 25.369028,28.4456405 C25.369028,30.7791044 20.8707227,32 16.4272624,32 C11.9844833,32 7.48685936,30.7791044 7.48685936,28.4456405 C7.48685936,27.0152442 9.23508372,25.8566878 12.2828942,25.2666792 L12.5417894,26.6047589 C9.85200388,27.1256153 8.84946603,28.009947 8.84946603,28.4456405 C8.84946603,29.3180494 11.8720683,30.6373933 16.4272624,30.6373933 C20.9834784,30.6373933 24.0064213,29.3180494 24.0064213,28.4456405 C24.0064213,28.0133535 23.013081,27.1334503 20.3468004,26.6112313 L20.6087616,25.2738328 Z"/>
</svg>
