<svg xmlns="http://www.w3.org/2000/svg" width="32" height="32" viewBox="0 0 32 32">
  <path fill-rule="evenodd" d="M4.71046967,1.57015656 L13.8697163,1.57015656 C15.5005855,1.57015656 16.6112096,2.61483405 16.7263544,4.18708415 L1.62354188,4.18708415 C1.87372016,2.70485636 3.15810822,1.57015656 4.71046967,1.57015656 M6.01893347,30.3563601 C6.45229668,30.3563601 6.80401175,30.7080752 6.80401175,31.1414384 C6.80401175,31.5748016 6.45229668,31.9265167 6.01893347,31.9265167 L4.71046967,31.9265167 C2.15739511,31.9265167 0,29.6497897 0,26.9543542 L0,4.71046967 C0,2.11343073 2.11343073,0 4.71046967,0 L13.8697163,0 C16.4887374,0 18.3184932,1.82975578 18.3184932,4.44877691 L18.3184932,11.2527887 C18.3184932,11.6861519 17.9667781,12.0378669 17.5334149,12.0378669 C17.1000517,12.0378669 16.7483366,11.6861519 16.7483366,11.2527887 L16.7483366,5.75724071 L1.57015656,5.75724071 L1.57015656,24.0757339 L11.2527887,24.0757339 C11.6861519,24.0757339 12.0378669,24.427449 12.0378669,24.8608122 C12.0378669,25.2941754 11.6861519,25.6458904 11.2527887,25.6458904 L1.57015656,25.6458904 L1.57015656,26.9543542 C1.57015656,28.7663149 3.03772955,30.3563601 4.71046967,30.3563601 L6.01893347,30.3563601 Z M7.06570451,3.66369863 L11.2527887,3.66369863 C11.6861519,3.66369863 12.0378669,3.31198357 12.0378669,2.87862036 C12.0378669,2.44525715 11.6861519,2.09354208 11.2527887,2.09354208 L7.06570451,2.09354208 C6.6323413,2.09354208 6.28062623,2.44525715 6.28062623,2.87862036 C6.28062623,3.31198357 6.6323413,3.66369863 7.06570451,3.66369863 Z M30.0209747,17.694827 C31.2498839,19.0451616 31.926098,20.794316 31.926098,22.6209315 C31.926098,24.5469902 31.1452068,26.4332716 29.7833576,27.7961675 L27.7254058,29.8530726 C26.3384342,31.2379507 24.4982107,32 22.5428424,32 L10.4463563,32 C9.2917678,32 8.35281418,31.0610464 8.35281418,29.9064579 C8.35281418,28.3991076 9.47809304,27.1011115 10.9707885,26.8896638 L15.7639531,26.1066791 L7.02969559,17.3734683 C6.53352611,16.8772988 6.2592721,16.2167863 6.2592721,15.5133561 C6.2592721,14.8109728 6.53352611,14.1504603 7.02969559,13.6542908 C8.06181183,12.6221745 9.72931809,12.620081 10.7572473,13.6459166 L12.9272036,15.815873 C13.0549097,15.4850933 13.2527494,15.1752491 13.5175825,14.9093693 C14.0231729,14.4058724 14.6836854,14.1305716 15.3860688,14.1305716 L15.3871156,14.1305716 C15.9084075,14.1316184 16.4066705,14.2813066 16.8306128,14.5639348 C16.9583189,14.211173 17.1624392,13.8824869 17.4429739,13.6009055 C17.9485643,13.0974086 18.6090768,12.8221078 19.3114602,12.8221078 L19.312507,12.8221078 C19.8348457,12.8231546 20.3331087,12.9738896 20.7580978,13.2565178 C20.8837103,12.9027092 21.0878306,12.5740231 21.3683653,12.2924417 C21.8739557,11.7889448 22.5344682,11.513644 23.2368516,11.513644 L23.2378983,11.513644 C23.9402817,11.5146908 24.5997475,11.7889448 25.0969637,12.286161 L30.0209747,17.694827 Z M28.6727336,26.6855434 C29.7425336,25.6157434 30.3559414,24.1335156 30.3559414,22.6209315 C30.3559414,21.1868552 29.8252285,19.8124448 28.8601056,18.7520657 L23.9601704,13.3685223 C23.7853596,13.1937115 23.5194798,13.0848473 23.2378983,13.0838006 L23.2368516,13.0838006 C22.9542234,13.0838006 22.6872968,13.1937115 22.4873635,13.3957383 C22.0791228,13.8029323 22.0665616,14.44879 22.4444459,14.8654049 L22.5376085,14.9585675 C22.8422189,15.2621311 22.8443124,15.756207 22.5428424,16.0639577 C22.2486997,16.364381 21.7692786,16.3769423 21.4594344,16.0995479 C21.4583876,16.0995479 21.4583876,16.0995479 21.4583876,16.0985012 C21.4552473,16.0964076 21.4531537,16.0932673 21.4500134,16.090127 C21.4489666,16.090127 21.4489666,16.0890802 21.4479199,16.0890802 C21.4479199,16.0890802 21.4479199,16.0880334 21.4468731,16.0880334 C21.4468731,16.0880334 21.4479199,16.0859399 21.4447796,16.0859399 C21.442686,16.0827996 21.4395457,16.080706 21.4374522,16.0786125 L21.4374522,16.0775657 C21.4332651,16.0754722 21.4301248,16.0723319 21.4269844,16.0681448 L20.0599015,14.7042021 C19.8599682,14.5021753 19.5940884,14.3933111 19.312507,14.3922644 L19.3114602,14.3922644 C19.028832,14.3922644 18.7619054,14.5021753 18.5619721,14.7042021 C18.1495443,15.1145364 18.1411702,15.7677215 18.5295222,16.1843364 L19.9206809,17.5754951 C20.2273848,17.8811522 20.2273848,18.3783685 19.9206809,18.6850724 C19.613977,18.9917763 19.1167608,18.9928231 18.8100569,18.6850724 L17.4429739,17.3211297 C17.4304126,17.3075217 17.4168046,17.2939137 17.4042433,17.2813524 L16.1345101,16.0126659 C15.9345768,15.8106391 15.668697,15.7017749 15.3871156,15.7007282 L15.3860688,15.7007282 C15.1034406,15.7007282 14.836514,15.8106391 14.6365807,16.0126659 C14.22834,16.4188131 14.2157788,17.0636241 14.5915696,17.4802389 L17.3037533,20.1924227 C17.6104572,20.4991266 17.6104572,20.9952961 17.3037533,21.302 C16.9980962,21.6076571 16.5008799,21.6097507 16.1931293,21.302 L13.5175825,18.6295935 C13.4987406,18.6097049 13.478852,18.5898162 13.4600101,18.5688808 L9.64662318,14.7565407 C9.44040929,14.54928 9.16824882,14.4466965 8.89713512,14.4466965 C8.62602142,14.4466965 8.35490772,14.54928 8.14869383,14.7565407 C7.93933962,14.9648481 7.82942866,15.230728 7.82942866,15.5133561 C7.82942866,15.7970311 7.93933962,16.0629109 8.14031966,16.2628442 L17.9579852,26.0805098 C18.1662927,26.2888172 18.2395666,26.5955211 18.1495443,26.8771025 C18.059522,27.1565904 17.8198115,27.3628043 17.5288091,27.409909 L11.2073588,28.4420252 C10.4683384,28.5467023 9.92297074,29.1758117 9.92297074,29.9064579 C9.92297074,30.1953667 10.1584942,30.4298434 10.4463563,30.4298434 L22.5428424,30.4298434 C24.0784555,30.4298434 25.5250931,29.8310904 26.6147817,28.7424485 L28.6727336,26.6855434 Z M13.345284,3.40200588 C13.6341928,3.40200588 13.8686695,3.16648239 13.8686695,2.87862036 C13.8686695,2.58971155 13.6341928,2.35523484 13.345284,2.35523484 C13.0574219,2.35523484 12.8218985,2.58971155 12.8218985,2.87862036 C12.8218985,3.16648239 13.0574219,3.40200588 13.345284,3.40200588 Z"/>
</svg>
