<svg xmlns="http://www.w3.org/2000/svg" width="32" height="32" viewBox="0 0 32 32">
  <path fill-rule="evenodd" d="M17.9494214,1.36021168 C20.555927,1.36021168 22.676157,3.4807817 22.676157,6.08694728 C22.676157,8.69345292 20.555927,10.8140229 17.9494214,10.8140229 C15.3429157,10.8140229 13.2223457,8.69345292 13.2223457,6.08694728 C13.2223457,3.4807817 15.3429157,1.36021168 17.9494214,1.36021168 M17.9494214,12.1742346 C14.592759,12.1742346 11.862134,9.44360966 11.862134,6.08694728 C11.862134,2.73062495 14.592759,0 17.9494214,0 C21.3057437,0 24.0363687,2.73062495 24.0363687,6.08694728 C24.0363687,9.44360966 21.3057437,12.1742346 17.9494214,12.1742346 Z M30.8036938,14.438511 L32,15.0859718 C31.4848198,16.03846 30.1909185,16.9946888 28.8120039,16.8777106 C28.7429731,16.8722697 28.6681615,16.8630883 28.5885891,16.8494862 C27.9717331,17.4275762 27.2508209,17.9060306 26.6288641,18.2450634 C26.7863086,19.1434832 26.8223542,20.0878102 26.7237389,21.0705631 C26.5775161,22.0461749 26.2894913,22.9530961 25.863405,23.7957472 L26.4428552,29.1638226 C26.4428552,30.4087564 24.8364452,31.2344049 23.7741198,31.2344049 L22.8318332,31.2344049 C21.7072782,31.2344049 20.7894754,30.3349649 20.7605709,29.217891 L20.6531141,28.4833767 C18.8375716,29.0485447 16.0413164,29.1223362 14.1693251,28.5017396 L14.0911129,29.2039489 C14.0832917,29.7976813 13.9013634,30.2737554 13.5497487,30.6195892 C12.9886614,31.1718351 12.1422696,31.2435863 11.328523,31.2435863 C11.1829804,31.2435863 11.0384579,31.2412059 10.8966558,31.2388255 C10.7562139,31.2367852 10.6161121,31.2344049 10.4783907,31.2344049 C9.33683304,31.2344049 8.40780847,30.3057203 8.40780847,29.1638226 L8.41698989,29.0519452 L8.86721996,26.3495446 C6.83404355,26.4406788 4.86241671,25.625912 3.51070635,24.1048553 L1.69278344,23.6090582 C0.469613084,23.2720657 0.378818954,22.4831429 0.21423334,21.0505 C0.164925667,20.6220333 0.104056194,20.0891704 0.00714111134,19.4352486 L0,19.3356131 C0,19.0217443 0.120378734,18.2600257 1.22657089,17.921333 L2.36030732,17.4697427 C3.09516168,15.6763036 4.61553829,14.2997694 6.48650946,13.7029765 L4.98483577,10.8227283 L4.98483577,10.6561024 C4.98483577,9.86445916 5.44424726,9.31697395 6.18420242,9.22754004 C7.66343262,9.04629183 10.4243223,10.9254243 11.5335749,12.6443918 C11.9657822,12.3087596 12.427234,12.0108732 12.9131696,11.7544733 L13.5477084,12.9575805 C12.8992274,13.2996738 12.3010744,13.7284805 11.7695716,14.2320989 L10.9204595,15.0370041 L10.641276,13.9005473 C10.435544,13.0623168 9.00018065,11.6861227 7.56991807,10.9553489 C6.93503927,10.6305984 6.55281978,10.5653082 6.38891427,10.5734695 L8.52070603,14.6622658 L7.60766394,14.824131 C5.71288907,15.1601033 4.15068595,16.4604657 3.53076948,18.217179 L3.42807349,18.5086044 L1.64245561,19.2169346 C1.47616973,19.2655622 1.39863766,19.3152099 1.36769285,19.3396937 C1.45916708,19.9681115 1.51799624,20.4795511 1.56560365,20.8950958 C1.71590704,22.2046396 1.71590704,22.2046396 2.05221938,22.2967939 L4.27650553,22.9034483 L4.41354686,23.0687141 C5.65405991,24.5608663 7.62636685,25.2634156 9.56126797,24.9032996 L10.5164766,24.7251118 L9.76972041,29.2107499 C9.79386417,29.5807275 10.1026322,29.8741932 10.4783907,29.8741932 C10.6232532,29.8741932 10.7704962,29.8765735 10.9184192,29.8789539 C11.5509176,29.8881353 12.3401804,29.9017375 12.5959002,29.6500983 C12.6856742,29.5616845 12.7312413,29.3981191 12.7312413,29.1638226 L12.7353219,29.0886709 L13.0369489,26.3781091 L13.9455703,26.923554 C15.5040328,27.8593796 19.3537719,27.7281192 20.8884308,26.9313752 L21.7365227,26.4906666 L22.1201024,29.1638226 C22.1201024,29.5555636 22.4394121,29.8741932 22.8318332,29.8741932 L23.7741198,29.8741932 C24.3199048,29.8741932 25.0397968,29.4144416 25.0809432,29.1835457 L24.4661275,23.5284656 L24.565763,23.3424567 C24.9728064,22.5844787 25.2448487,21.7629109 25.3747489,20.9012168 C25.6848772,17.8043548 24.4596665,15.1077351 21.9208314,13.3411602 L22.6975123,12.2247665 C24.4440241,13.4397756 25.6529122,15.0325834 26.2803099,16.880091 C26.6349851,16.6706184 26.9774184,16.4397224 27.2841461,16.1921639 C26.9400125,15.8677534 26.6166222,15.3947398 26.3789252,14.708173 C25.8617047,13.2167008 26.1762537,12.4396799 26.5309289,12.0503193 C26.8995462,11.6463365 27.4511121,11.4977333 28.0428042,11.6439561 C28.9143598,11.8581894 29.6730179,12.6620745 29.9304379,13.6434673 C30.0878824,14.2433206 29.9875668,14.8265114 29.7267462,15.3719563 C30.1929588,15.1720051 30.6051029,14.805088 30.8036938,14.438511 Z M28.2390147,15.222673 C28.5562841,14.7874053 28.7116883,14.3579185 28.6147732,13.988961 C28.4668502,13.4248132 28.0516455,13.0466744 27.7177136,12.9643816 C27.6762271,12.95452 27.6384812,12.9500994 27.6085566,12.9500994 C27.5714908,12.9500994 27.5456468,12.9562203 27.5361253,12.966762 C27.4715153,13.037833 27.3681392,13.4091708 27.6639852,14.2627036 C27.8125883,14.6911703 28.0047182,15.0115002 28.2390147,15.222673 Z M17.7237623,6.66058255 C18.0362709,6.75205679 18.5606325,6.93942595 18.5606325,7.16760146 C18.5606325,7.42740189 18.2647865,7.64673602 17.914872,7.64673602 C17.6594923,7.64673602 17.1735566,7.46208729 16.8579875,7.18732453 L15.9650086,8.21326419 C16.3234243,8.52543277 16.784196,8.76755045 17.2347662,8.89881088 L17.2347662,8.96070051 L17.4891257,8.96070051 C17.6356886,8.98926495 17.7795309,9.00694771 17.914872,9.00694771 C18.0665356,9.00694771 18.2137785,8.99028511 18.3562607,8.96070051 L18.5949778,8.96070051 L18.5949778,8.89609045 C19.366898,8.63969055 19.9208442,7.96264519 19.9208442,7.16760146 C19.9208442,6.3171291 19.3101091,5.70741422 18.1182236,5.35885997 C17.2684314,5.09259854 17.2684314,4.90862991 17.2684314,4.84810049 C17.2684314,4.58830005 17.5642774,4.36896592 17.914872,4.36896592 C18.1586899,4.36896592 18.3875456,4.4774428 18.4973827,4.645769 L19.6358798,3.9010531 C19.3964826,3.53515616 19.0234445,3.26413398 18.5949778,3.12199186 L18.5949778,3.05500143 L18.3436787,3.05500143 C18.203917,3.02677704 18.0607547,3.00875424 17.914872,3.00875424 C17.7625283,3.00875424 17.6149453,3.02575688 17.4724632,3.05500143 L17.2347662,3.05500143 L17.2347662,3.11961149 C16.462506,3.37601139 15.9082197,4.05305676 15.9082197,4.84810049 C15.9082197,6.09201407 17.2181036,6.50245795 17.7237623,6.66058255 Z"/>
</svg>
