<svg xmlns="http://www.w3.org/2000/svg" width="32" height="32" viewBox="0 0 32 32">
  <path fill-rule="evenodd" d="M15.9454671,2.46841224 C10.1175157,2.46841224 4.90689244,6.37462864 3.27490604,11.9684531 L1.86425113,11.5573776 C3.67823601,5.34127684 9.46885443,1 15.9454671,1 C21.7880851,1 27.0673744,4.49180968 29.4040216,9.6938799 L30.6293448,6.54052458 L32,7.07219108 L29.8073516,12.712653 L24.3367305,10.5899845 L24.8693928,9.22084329 L28.1533654,10.4953771 C26.0980492,5.70171741 21.282756,2.46841224 15.9454671,2.46841224 Z M16.0538662,28.8649211 C21.8818177,28.8649211 27.0924409,24.9587047 28.7244273,19.3648802 L30.1350822,19.7759557 C28.3210973,25.9920565 22.5304789,30.3333333 16.0538662,30.3333333 C10.2105816,30.3333333 4.9319589,26.8415237 2.59531171,21.6394534 L1.36998858,24.7928088 L0,24.2611423 L2.19198173,18.6206804 L7.66193615,20.7433489 L7.12994058,22.11249 L3.84596795,20.8379562 C5.90128416,25.6316159 10.7165774,28.8649211 16.0538662,28.8649211 Z"/>
</svg>
