<svg xmlns="http://www.w3.org/2000/svg" width="32" height="32" viewBox="0 0 32 32">
  <path fill-rule="evenodd" d="M4.29238337,29.2920224 L7.198983,21.3495841 L8.44447917,21.8005181 L6.33462589,27.5667383 L9.36782997,26.9971374 L11.3232391,29.3727818 L13.3098021,23.9444326 L14.5549669,24.395037 L11.7723203,31.9999341 L8.84020094,28.4379507 L4.29238337,29.2920224 Z M22.924615,21.8005841 L24.1701111,21.34965 L27.0767107,29.2920884 L22.5288932,28.4380167 L19.5967738,32 L16.8141272,24.3947733 L18.059292,23.9441689 L20.0458551,29.3728477 L22.0012642,26.9968737 L25.0347997,27.5664746 L22.924615,21.8005841 Z M18.7925041,0 L20.5974461,3.10907152 L24.2069988,3.10907152 L24.2069988,6.69940306 L27.3330019,8.4942392 L25.5283913,11.6036404 L27.3333333,14.7130415 L24.2069988,16.507548 L24.2069988,20.0978796 L20.5974461,20.0978796 L18.7928355,23.2069511 L15.666501,21.4117853 L12.5404978,23.2069511 L10.7358872,20.0978796 L7.12633458,20.0978796 L7.12633458,16.507548 L4,14.7130415 L5.80494202,11.6036404 L4,8.4942392 L7.12633458,6.69940306 L7.12633458,3.10907152 L10.7358872,3.10907152 L12.5404978,0 L15.666501,1.7954954 L18.7925041,0 Z M18.3079604,1.80142874 L15.666501,3.31805704 L13.0257044,1.80142874 L11.5011482,4.4275921 L8.45203566,4.4275921 L8.45203566,7.46018943 L5.8112391,8.97714736 L7.33612677,11.6036404 L5.8112391,14.2298037 L8.45203566,15.746432 L8.45203566,18.7790293 L11.5011482,18.7790293 L13.0257044,21.4055223 L15.666501,19.888894 L18.3072975,21.4055223 L19.8321852,18.7790293 L22.8812977,18.7790293 L22.8812977,15.746432 L25.5220942,14.2298037 L23.997538,11.6036404 L25.5224257,8.97714736 L22.8812977,7.46018943 L22.8812977,4.4275921 L19.8321852,4.4275921 L18.3079604,1.80142874 Z M22.4091492,11.6034096 C22.4091492,15.3012006 19.3845622,18.3094053 15.6666335,18.3094053 C11.9487048,18.3094053 8.92411782,15.3012006 8.92411782,11.6034096 C8.92411782,7.90561865 11.9487048,4.89741395 15.6666335,4.89741395 C19.3845622,4.89741395 22.4091492,7.90561865 22.4091492,11.6034096 Z M15.6666335,16.9908847 C18.6534381,16.9908847 21.0834481,14.5740365 21.0834481,11.6034096 C21.0834481,8.63278275 18.6534381,6.21593453 15.6666335,6.21593453 C12.679829,6.21593453 10.2498189,8.63278275 10.2498189,11.6034096 C10.2498189,14.5740365 12.679829,16.9908847 15.6666335,16.9908847 Z"/>
</svg>
