<svg xmlns="http://www.w3.org/2000/svg" width="32" height="32" viewBox="0 0 32 32">
  <path fill-rule="evenodd" d="M25.8154139,25.5259289 C25.1202898,24.8630819 22.8695385,22.6439423 19.7799132,19.5736167 C19.7356568,19.2538397 19.6697715,18.2053303 19.6930643,14.7782919 L19.693397,14.7084135 L24.4990372,14.6857862 L30.5834529,20.7119698 L25.8154139,25.5259289 Z M31.6659032,19.910697 C31.8798643,20.1219961 31.9986577,20.4041719 31.9999887,20.7053147 C32.0013197,21.0064575 31.8851884,21.2902971 31.6725583,21.5035927 L26.604042,26.6213566 C26.4493112,26.7774184 26.2406742,26.8759138 26.1092361,26.9128495 C26.0117391,26.9401354 25.91158,26.9537783 25.8114209,26.9537783 C25.6497022,26.9537783 25.488649,26.9185063 25.3389095,26.8496262 C25.191832,26.7850718 25.1129692,26.7504653 18.778655,20.4550833 L18.7210884,20.3978496 C18.465533,20.1409631 18.3264416,20.0012062 18.3620464,14.7693076 L18.3633774,14.5094263 C18.3607153,13.8948288 18.8601798,13.3873782 19.4767739,13.3783938 L24.579231,13.3544355 C24.8673964,13.3444529 25.1608859,13.4679048 25.374847,13.6798694 L31.6659032,19.910697 Z M21.7901828,17.2515894 C21.5822113,17.2515894 21.4128392,17.0822174 21.4128392,16.8742458 C21.4128392,16.6662743 21.5822113,16.4969023 21.7901828,16.4969023 C21.9981544,16.4969023 22.1675264,16.6662743 22.1675264,16.8742458 C22.1675264,17.0822174 21.9981544,17.2515894 21.7901828,17.2515894 Z M21.7901828,15.1658843 C20.8481549,15.1658843 20.0818213,15.9322179 20.0818213,16.8742458 C20.0818213,17.8162738 20.8481549,18.5826073 21.7901828,18.5826073 C22.7322108,18.5826073 23.4985443,17.8162738 23.4985443,16.8742458 C23.4985443,15.9322179 22.7322108,15.1658843 21.7901828,15.1658843 Z M25.3333858,30.6689821 L25.3333858,28.7143823 L26.6644037,28.7143823 L26.6644037,32 L5.38542028,32 L5.38542028,6.72729731 L10.6559185,6.72729731 L10.6559185,5.57563405 C10.6559185,2.55322512 13.110981,0 16.0169259,0 L16.0984507,0 C18.9687909,0 21.3040618,2.50131542 21.3040618,5.57563405 L21.3040618,6.72729731 L26.6644037,6.72729731 L26.6644037,11.1293063 L25.3333858,11.1293063 L25.3333858,8.05831522 L21.3040618,8.05831522 L21.3040618,10.0132478 L19.9730439,10.0132478 L19.9730439,8.05831522 L11.9869364,8.05831522 L11.9869364,10.012915 L10.6559185,10.012915 L10.6559185,8.05831522 L6.71643819,8.05831522 L6.71643819,30.6689821 L25.3333858,30.6689821 Z M11.9869364,5.57563405 L11.9869364,6.72729731 L19.9730439,6.72729731 L19.9730439,5.57563405 C19.9730439,3.27463683 18.198797,1.33101792 16.0984507,1.33101792 L16.0169259,1.33101792 C13.8703267,1.33101792 11.9869364,3.31456737 11.9869364,5.57563405 Z"/>
</svg>
