<svg xmlns="http://www.w3.org/2000/svg" width="32" height="32" viewBox="0 0 32 32">
  <path fill-rule="evenodd" d="M21.1755004,29.2910842 L19.8006635,30.135073 L19.4209182,29.8418142 C19.2896974,29.7414104 19.1167244,29.7135756 18.959657,29.7652687 C18.8035837,29.8179559 18.6832979,29.9452004 18.6385635,30.1052501 L18.419862,30.9054986 L18.1773022,30.9353215 C18.1743199,30.9223983 18.1713376,30.909475 18.1673612,30.8965517 L17.7915924,29.727493 C17.7697222,29.6628767 17.7359229,29.6042249 17.6931767,29.5565082 L17.1374762,28.9163094 L17.0142081,28.4391426 L17.3651245,26.5195402 C17.3919651,26.3714197 17.3512071,26.221311 17.2547797,26.1069897 C17.1494053,25.9847158 17.0191786,25.9519105 16.8660875,25.9330227 L7.06826213,26.1169307 L7.02452184,25.314694 C7.16966008,25.293818 7.30286915,25.2063374 7.37842057,25.0761106 L7.63887412,24.6367195 C7.69851998,24.5333333 7.72138422,24.4120534 7.69951407,24.2987263 L7.5653109,23.5332712 L8.50672128,21.5838459 L9.84676477,20.6175831 C9.99985579,20.5062442 10.0773954,20.3143833 10.0445902,20.1284871 L9.96307418,19.6662317 C10.011785,19.6195092 10.0515489,19.5618515 10.0793836,19.4972352 L10.6291195,18.1671326 C10.7106355,17.967319 10.6559602,17.7396707 10.4929282,17.6014911 L9.81992414,17.01895 L9.85074116,16.5885057 C9.85869394,16.4900901 9.83781789,16.3916744 9.78711892,16.3051879 L9.65888034,16.0785337 C9.76524877,16.019882 9.84775887,15.9224604 9.88851687,15.8051569 C9.93523945,15.6689655 9.92231619,15.5198509 9.84974706,15.3965828 L9.60818136,14.9721031 L9.90839882,14.5844051 C9.98792662,14.4810189 10.0247082,14.3468158 10.0078086,14.216589 C9.98991482,14.0873563 9.92331028,13.9700528 9.81793594,13.8885368 L9.37953893,13.5495495 L9.39445039,13.3388009 L9.72449077,13.0515067 C9.90342833,12.8964275 9.94716862,12.6349798 9.82986511,12.4311898 L9.49883063,11.8486486 L9.56642926,10.8644921 C9.57637024,10.7322771 9.53262995,10.6000621 9.44614346,10.5026406 L9.3507101,10.3932898 L9.46204902,10.2968624 C9.56145878,10.2093818 9.62408692,10.0841255 9.6310456,9.95688102 C9.63999248,9.82367195 9.59824039,9.69543336 9.5107598,9.59502951 L9.37158614,9.43497981 L9.8358297,8.89916123 C9.92629258,8.79279279 9.96903877,8.65163094 9.95114501,8.51245728 L9.84775887,7.70922647 L10.7175942,7.26585896 C10.8527915,7.19726623 10.9522012,7.06703945 10.980036,6.91792482 C11.0098589,6.7658279 10.9681068,6.61273687 10.867703,6.49642746 L10.7712755,6.38608263 L11.3687281,5.86716372 C11.4681379,5.77968313 11.530766,5.65542094 11.5377247,5.52718235 L11.550648,5.33830382 L12.0337794,5.0639329 C12.1779235,4.9814228 12.2703746,4.83230817 12.2823038,4.66728798 L12.3906604,3.1204722 L12.5745684,3.13339546 C12.7047952,3.13836595 12.8330338,3.10059025 12.937414,3.01112147 C13.0368238,2.92463498 13.0984578,2.79937869 13.1054165,2.6721342 L13.1352395,2.25660143 L13.6173768,1.98123641 C13.762515,1.89872631 13.8549661,1.75060578 13.8659011,1.58459149 L13.8828008,1.35097856 L24.0673302,1.00503262 L24.1299583,1.15514135 C24.1707163,1.2555452 24.2422913,1.3380553 24.3367306,1.39471886 L24.5236209,1.50506368 L23.8913749,29.8169618 L23.8714929,29.8666667 L23.4887654,29.6410065 C23.3088337,29.5316558 23.0742267,29.5525318 22.9092065,29.6926996 L22.8217259,29.7692451 L22.4638508,29.7443927 L21.6864665,29.2851196 C21.5264168,29.1916744 21.3295855,29.1956508 21.1755004,29.2910842 M25.2791351,0.797266232 L24.9848822,0.623299161 L24.8526672,0.308170239 C24.7771158,0.122273998 24.5932078,0 24.391406,0 L24.3764945,0 L13.4016576,0.371792482 C13.1461745,0.38073936 12.9413904,0.579558869 12.9234967,0.834047841 L12.8936737,1.24958062 L12.4115364,1.52494564 C12.2663982,1.60745573 12.1739471,1.75557627 12.1630121,1.92059646 L12.1490947,2.1064927 L11.9731394,2.09456353 C11.8518595,2.07766387 11.7106977,2.12239826 11.602341,2.21484933 C11.5039254,2.30232992 11.4412972,2.42758621 11.4343386,2.5538366 L11.3090823,4.3322771 L10.826945,4.60664803 C10.6798185,4.69114632 10.5873674,4.84026095 10.5784206,5.00428705 L10.5605268,5.25281143 L9.74536682,5.96160298 C9.64396887,6.04808947 9.58432302,6.16936937 9.57438204,6.30158434 C9.56444107,6.43379932 9.60818136,6.563032 9.69566194,6.66343585 L9.70063243,6.66840634 L9.08528605,6.98154706 C8.89740162,7.07698043 8.79003908,7.28077043 8.81687971,7.48754272 L8.93617142,8.41801802 L8.3367306,9.11090401 C8.17668089,9.29680025 8.17767499,9.57713576 8.33871879,9.7610438 L8.43514626,9.87138863 L8.32281323,9.96881019 C8.22340348,10.0552967 8.16077533,10.180553 8.15381665,10.3077975 C8.14486977,10.4400124 8.18861007,10.5722274 8.27410245,10.669649 L8.56139664,10.9996893 L8.4967803,11.9271824 C8.48882752,12.0246039 8.51069767,12.1230196 8.56139664,12.2105002 L8.76618074,12.5693694 L8.58724318,12.7244486 C8.48485113,12.8129233 8.42520528,12.9342032 8.4182466,13.0644299 L8.36953582,13.7443927 C8.35760665,13.910407 8.42918167,14.0694626 8.56139664,14.1728487 L8.81687971,14.3706741 L8.6180602,14.6271513 C8.49479211,14.7862069 8.47988065,15.0029202 8.5812786,15.1768872 L8.70951718,15.4035415 C8.60314874,15.4621932 8.52063865,15.5596148 8.47988065,15.6769183 C8.43315806,15.8131097 8.44608133,15.9622243 8.51865045,16.0854924 L8.84968493,16.6670395 L8.81190923,17.1958993 C8.80097415,17.3539609 8.8645964,17.508046 8.98189991,17.6084498 L9.57239385,18.1184219 L9.28907605,18.8033551 C9.1886722,18.8242311 9.09622112,18.8769183 9.02265791,18.9574402 C8.92125996,19.0707673 8.87553147,19.2278347 8.9023721,19.3769494 L9.01172283,19.9942839 L7.82278217,20.851196 C7.75617763,20.8999068 7.70150227,20.9655172 7.66770295,21.0380864 L6.60203038,23.2429947 C6.5553078,23.3364399 6.53940224,23.4408201 6.55829009,23.5471886 L6.68951097,24.2897794 L6.67956999,24.305685 L6.53244355,24.2947499 C6.40420497,24.2917676 6.25011985,24.3374961 6.1487219,24.4369059 C6.04732395,24.5373097 5.99364268,24.6764834 6.00060137,24.8176452 L6.10100522,26.6507611 C6.11691078,26.9112147 6.33561224,27.117987 6.60799497,27.1199751 L16.2775818,26.9380553 L16.0161341,28.371544 C16.004205,28.4421249 16.0071873,28.5117117 16.0240869,28.5803044 L16.2030245,29.2781609 C16.2229064,29.3517241 16.259688,29.421311 16.3093929,29.4799627 L16.8760285,30.1320907 L17.1901633,31.1102827 L17.166305,31.4661696 C17.1543758,31.6162783 17.2110394,31.7614166 17.319396,31.8638086 C17.4118471,31.9512892 17.533127,32 17.6613656,32 C17.6723007,32 17.7150468,31.9980118 17.7249878,31.9960236 L18.8751587,31.8488972 C19.0759664,31.8230506 19.2389984,31.6808947 19.2906915,31.4860516 L19.4020304,31.0834421 L19.4626703,31.1311587 C19.6266964,31.2584032 19.8543448,31.2693383 20.0283118,31.1609817 L21.4419185,30.2951227 L22.0602472,30.6599565 C22.1248636,30.6987263 22.1994209,30.7215906 22.2769605,30.7275551 L22.9509586,30.7752718 C23.0692562,30.7842187 23.1925243,30.7514135 23.2899459,30.6778503 L23.8605579,31.0138552 C23.9848201,31.0884126 24.1359229,31.103324 24.2701261,31.0566014 C24.4063174,31.0108729 24.5156682,30.9084809 24.5723317,30.7752718 L24.8467026,30.1092265 C24.8695669,30.0545511 24.8824902,29.9949053 24.8834842,29.931283 L25.5236831,1.23566325 C25.5276595,1.05672569 25.4332202,0.887729108 25.2791351,0.797266232"/>
</svg>
