<svg xmlns="http://www.w3.org/2000/svg" width="32" height="32" viewBox="0 0 32 32">
  <path fill-rule="evenodd" d="M29.2022904,21.9110604 C29.0766936,21.9818332 28.9879785,22.1054363 28.9600681,22.2519658 L28.9191993,22.4732553 L28.3520204,22.7174712 C28.2732733,22.7493687 28.2034973,22.8031959 28.1486734,22.8739687 L28.0021438,23.0673478 L27.0920659,22.8978919 C26.9604884,22.8809463 26.8328981,22.9058663 26.7232501,22.9786326 L26.1490936,23.374362 C26.0833049,23.4202148 26.0314713,23.4760356 25.9955865,23.5428211 L25.7603419,23.9694513 L1.00084014,24.2226383 L1.11447528,9.57367352 L4.16169122,8.26786624 L4.12281604,9.21582252 C4.11683524,9.35238404 4.16866881,9.48695197 4.26236796,9.58364152 C4.41089108,9.73714864 4.555427,9.75708462 4.65809735,9.73415824 L27.3522306,9.22280012 L27.7320112,9.4341216 L27.8277039,9.76206862 C27.9014671,10.0282141 28.1686093,10.177734 28.4447228,10.1049676 L28.6949195,10.0331981 L28.9321577,10.2634587 L28.756721,11.2124118 C28.7387786,11.3081046 28.7507402,11.4067877 28.7896154,11.4984933 L29.1374984,12.3118816 C29.2022904,12.4643919 29.3388519,12.5750367 29.5043206,12.6069343 L30.7403519,12.8352013 L30.297773,13.1392252 C30.1891218,13.2139851 30.1163555,13.3266235 30.0904387,13.458201 L30.0276403,13.7931256 L28.8962729,14.9573874 C28.8304842,15.0261666 28.7846314,15.1128881 28.7646954,15.2125681 L28.6749835,15.6980094 C28.6510603,15.8265965 28.6799675,15.958174 28.7547274,16.0698156 L28.9620617,16.3718458 L28.4297708,17.2131446 C28.3729532,17.3048501 28.3470364,17.4085173 28.3530172,17.5111876 L28.4168124,18.5249326 C28.4267804,18.6614942 28.4925692,18.7900813 28.5972331,18.8748093 C28.6949195,18.9575436 28.8394554,18.995422 28.9819977,18.985454 L29.219236,18.9525596 L29.24914,19.4290298 C29.2640919,19.6553032 29.4305575,19.8446951 29.6548373,19.8875575 L29.9907587,19.9493591 L30.9606446,20.8923314 L29.2022904,21.9110604 Z M31.8477961,20.3640276 L30.5768768,19.1279963 C30.5071009,19.060214 30.4183857,19.0133644 30.3206994,18.995422 L30.2200226,18.9774796 L30.1811474,18.3514895 C30.1721763,18.2139312 30.1053907,18.0853441 29.9997299,17.9986225 C29.8980564,17.9148914 29.7565109,17.8750194 29.6159622,17.8899714 L29.3777271,17.9228658 L29.3587879,17.6108675 L29.9787972,16.6270265 C30.0864515,16.4585674 30.0824643,16.2432587 29.969826,16.07779 L29.6927157,15.6760798 L29.7176357,15.5435055 L30.8490031,14.3792437 C30.9177822,14.3094677 30.9646318,14.2207526 30.9815774,14.124063 L31.033411,13.8429656 L31.7231962,13.3684891 C31.8318473,13.2927323 31.9046137,13.1810908 31.9305305,13.0475196 C31.9544537,12.9189325 31.9255465,12.787355 31.8507865,12.6757134 L31.456054,12.1015569 C31.381294,11.9939026 31.2686557,11.9211362 31.1370781,11.8942227 L29.9488932,11.67393 L29.7644853,11.2443094 L29.9618516,10.1807244 C29.9907587,10.0162525 29.9369316,9.84978697 29.8173156,9.73415824 L29.1813576,9.11614257 C29.0537673,8.99154264 28.8653722,8.94369627 28.6979099,8.99552984 L28.6480699,9.00948503 L28.6341147,8.95864826 C28.5972331,8.83205473 28.5125052,8.72639399 28.3958796,8.66160202 L27.7150656,8.28580863 C27.6442928,8.24693345 27.5625553,8.22600066 27.4628753,8.22400706 L5.14054829,8.72639399 L5.19138506,7.51926984 C5.19736585,7.34582674 5.1166251,7.18534203 4.97806997,7.09064608 C4.83851805,6.99196293 4.65909415,6.97103014 4.49661584,7.0418029 L0.421699656,8.78719875 C0.240282155,8.86494911 0.121663019,9.04337621 0.11966942,9.24074251 L5.3485418e-05,24.7210381 C-0.0019401135,24.8546092 0.0518870572,24.9851899 0.146583006,25.0798859 C0.240282155,25.173585 0.364882087,25.2254186 0.498453214,25.2254186 L0.504434011,25.2254186 L26.0623721,24.9632603 C26.2398024,24.9612667 26.4052711,24.8625836 26.4919927,24.7060861 L26.8119653,24.1289392 L27.1179827,23.9176177 L28.1227566,24.1040192 C28.3131453,24.1409008 28.4965564,24.065144 28.6111883,23.9156241 L28.8633786,23.5816963 L29.5551574,23.2846501 C29.7096613,23.2198581 29.8193092,23.0842934 29.8512068,22.9168311 L29.8990532,22.6576632 L31.6603978,21.6369406 C31.7859946,21.565171 31.8747097,21.4415679 31.9026201,21.2970319 L31.9923321,20.8115906 C32.0212392,20.6471187 31.9674121,20.4796564 31.8477961,20.3640276 Z"/>
</svg>
