<svg xmlns="http://www.w3.org/2000/svg" width="32" height="32" viewBox="0 0 32 32">
  <path fill-rule="evenodd" d="M28.7800921,14.848848 L27.6299221,20.158319 L26.252104,20.7935468 C26.0940426,20.8651218 25.9836978,21.0172186 25.9628218,21.1921797 L25.8882645,21.8900356 L25.0999458,22.5232753 L24.8742858,22.2419459 C24.7241772,22.0560498 24.4627297,22.0013745 24.2579458,22.1137074 L23.2896955,22.6157263 C23.1415751,22.6922717 23.0431595,22.8364158 23.0222835,23.0054122 L22.9914665,23.3016531 L22.6455208,23.4288974 C22.5212587,23.4736318 22.421849,23.5650887 22.3641914,23.6883567 L21.5649376,25.4310084 C21.4883921,25.5990107 21.5132445,25.8037947 21.6295539,25.9479387 L21.7687274,26.1228998 L21.7567983,26.2421914 C21.7180285,26.1686282 21.6593768,26.1040119 21.5868077,26.0572894 L21.0181843,25.6914617 C20.8372587,25.5731642 20.603646,25.5860875 20.4356436,25.7202906 L19.7676106,26.2580969 C19.7089589,26.3048195 19.6602481,26.3664535 19.6264488,26.4370343 L19.2258278,27.3108454 C19.1950108,27.3794381 19.1800994,27.4559836 19.1820876,27.5335231 L19.2417334,29.3149446 L18.9425102,29.4262834 C18.7645669,29.4928879 18.642293,29.6519434 18.6224111,29.8378395 L18.5568007,30.4372798 L17.3499672,30.8836293 L17.0487558,30.3060591 C16.9930864,30.1957143 16.8976531,30.1112161 16.7803497,30.0674758 L15.8458987,29.7225242 L15.4760947,28.3934168 C15.4333486,28.2482787 15.324992,28.1250107 15.1798539,28.066359 C15.037698,28.0116837 14.8786425,28.0226187 14.7454336,28.1021465 L13.4441609,28.8715774 C13.3765623,28.9113413 13.3169165,28.9660166 13.2761585,29.0326211 L13.075351,29.3427793 L12.4838634,29.2791571 C12.3765009,29.2652397 12.2631739,29.2881039 12.1677406,29.3457616 L11.9410865,29.0614499 C11.8585765,28.9590579 11.7353085,28.8924534 11.6080641,28.8795302 L10.4280712,28.7512917 C10.2580806,28.7155042 10.0831196,28.7811146 9.96780438,28.9222763 L9.61490002,29.3447675 L8.62477961,28.3586234 C8.51542897,28.2492728 8.36929674,28.2015562 8.22813499,28.2144794 L6.82148803,28.3407297 L6.25783515,28.0832586 L5.6226073,26.3684417 C5.55600281,26.1904983 5.39794142,26.0682244 5.21105122,26.0493366 L4.81341251,26.0046022 L4.40483873,25.4966188 C4.23484817,25.2858703 3.92071359,25.2490887 3.70698278,25.4200733 L3.35606661,25.7023968 L2.8311835,25.2649942 C2.68803356,25.1427203 2.49517879,25.1148856 2.32518823,25.1834783 L2.00210678,4.66432637 L10.0006096,4.11856724 L12.6419248,5.32937713 C12.5067276,5.41586355 12.4192471,5.56398397 12.4122884,5.72900404 C12.4043356,5.92981159 12.5186568,6.1147136 12.7015706,6.20120002 L13.579358,6.60380922 C13.6996437,6.65450816 13.8318586,6.65848454 13.9531384,6.61474428 L14.4462104,6.43083638 L16.6769636,6.95969587 C16.875783,7.00542432 17.0934902,6.92390839 17.2088054,6.74695916 L17.4573296,6.3602555 L21.5858136,5.65245859 C21.6494358,5.64251762 21.7110698,5.62064749 21.7687274,5.5858541 L28.5723259,1.36293092 L29.1041677,11.5444703 L28.4202291,11.8993628 C28.2711145,11.9759083 28.172699,12.1210464 28.1548052,12.2850724 C28.1359174,12.4510866 28.2005337,12.6151125 28.3297663,12.7214809 L28.8765195,13.1797595 L28.6339599,13.7076249 C28.5892255,13.8060405 28.5772964,13.914397 28.6001606,14.0177831 L28.7800921,14.848848 Z M30.11417,11.8118823 L29.5216883,0.470232004 C29.5117473,0.295270968 29.4103495,0.137209578 29.2542763,0.0546995439 C29.0962149,-0.0248281996 28.9073365,-0.0168754253 28.7621984,0.0735873829 L21.3263543,4.6881847 L17.0755965,5.41884584 C16.9394052,5.44071597 16.8171313,5.52123781 16.7415799,5.63754714 L16.5646307,5.91191785 L14.9402765,5.52620829 L14.9879932,5.50831455 C15.2027181,5.42878681 15.3379153,5.20809732 15.3080924,4.98343145 C15.2812517,4.75478918 15.0953556,4.57187537 14.8696957,4.55000524 L14.2702553,4.48340076 C14.1887394,4.47246569 14.1141821,4.48340076 14.0396248,4.51123547 L13.5982459,4.67426734 L10.2968504,3.15926383 C10.23124,3.13142912 10.1248717,3.10061212 10.0612495,3.11850586 L1.46330631,3.70502297 C1.19987066,3.72291671 0.996080821,3.9426121 1.00005721,4.20803595 L1.34600289,26.1895042 C1.34997928,26.3803708 1.45932993,26.5493673 1.63528506,26.6328714 C1.8072638,26.7094169 2.01204774,26.6845644 2.15420358,26.5692492 L2.50511975,26.2869257 L3.03000286,26.7243283 C3.21291667,26.8813956 3.47933461,26.8813956 3.66026023,26.7332752 L3.94258372,26.5076152 L4.16724959,26.7879505 C4.24975963,26.8893484 4.37203353,26.956947 4.50027202,26.9688761 L4.79750696,27.0026754 L5.39794142,28.621065 C5.44366987,28.7453271 5.53512678,28.8427486 5.65541249,28.9004062 L6.53021767,29.3010272 C6.6127277,29.3378088 6.69722593,29.3517261 6.77874187,29.3427793 L8.08697325,29.2264699 L9.29579495,30.4313153 C9.39520463,30.5307249 9.53934866,30.5734711 9.67255763,30.5764534 C9.81073709,30.5685006 9.94096377,30.5038843 10.0284443,30.3985101 L10.5582979,29.7632822 L11.2949236,29.8447982 L11.7015092,30.3527816 C11.7840192,30.4541795 11.9062931,30.5217781 12.0395021,30.5347013 C12.1697288,30.5446423 12.2999555,30.5088548 12.3993651,30.4293271 L12.5753203,30.2881653 L13.2791408,30.3647108 C13.4640428,30.3746517 13.6439743,30.2941299 13.7443781,30.1400449 L14.0485717,29.6678489 L14.6927464,29.2861158 L14.9561821,30.2354782 C14.9999223,30.3885691 15.1142435,30.5128312 15.2623639,30.5675065 L16.2544725,30.9333341 L16.670005,31.7315939 C16.7554973,31.8966139 16.9244937,32 17.1113839,32 C17.1710297,32 17.2306756,31.9890649 17.2843568,31.969183 L19.1910344,31.2623802 C19.3679837,31.1947816 19.4902576,31.0367202 19.5101395,30.8508241 L19.5757499,30.2513837 L19.9236838,30.1221512 C20.1254854,30.0475939 20.2557121,29.853745 20.2477593,29.6390201 L20.1801607,27.6170272 L20.480378,26.9599293 L20.778607,26.7193578 L20.7895421,26.7263165 L20.757731,27.0215633 C20.7418254,27.1537781 20.7805952,27.2879812 20.8621111,27.388385 C20.9436271,27.491771 21.0619246,27.5563873 21.1981159,27.573287 L21.5033036,27.6050981 C21.6375066,27.615039 21.7617687,27.5782575 21.8631666,27.4987297 L22.5321938,26.9619175 C22.6345857,26.8784133 22.699202,26.7601158 22.7151076,26.6269068 L22.780718,26.0234901 C22.7946353,25.8932634 22.7558655,25.7640308 22.6733555,25.6606447 L22.59681,25.5652115 L23.181339,24.2897853 L23.6257002,24.1267534 C23.8026495,24.061143 23.9249234,23.9020875 23.9477876,23.7132091 L23.9835751,23.3762103 L24.3553673,23.1833555 L24.6357026,23.5332776 C24.7182126,23.6356696 24.8404865,23.7022741 24.9707132,23.7161914 C25.1009399,23.7231501 25.2311665,23.6903449 25.3335585,23.6098231 L26.6716128,22.5352044 C26.7730107,22.4517003 26.8386211,22.335391 26.8545266,22.202182 L26.9221252,21.5798774 L28.2681323,20.9575728 C28.4112822,20.8929565 28.5146683,20.7637239 28.5484675,20.610633 L29.7741889,14.9552164 C29.7900944,14.8846355 29.7900944,14.8130605 29.7741889,14.7444679 L29.6061865,13.9690724 L29.9382149,13.2493463 C30.03166,13.0465505 29.9759905,12.8029968 29.8040118,12.6618351 L29.538588,12.4381633 L29.8457639,12.2781137 C30.0177426,12.1896391 30.124111,12.0067253 30.11417,11.8118823 Z"/>
</svg>
