<svg xmlns="http://www.w3.org/2000/svg" width="32" height="32" viewBox="0 0 32 32">
  <path fill-rule="evenodd" d="M10.6485673,26.2491623 C10.7290896,26.1457755 10.7648774,26.015548 10.7499658,25.8843263 C10.7340602,25.7521105 10.6674552,25.6338122 10.5620802,25.5513016 L9.97357096,25.0920258 L9.81849081,24.4786639 C9.7866795,24.3514187 9.70715122,24.2440555 9.59978804,24.1784446 L9.53715951,21.7647613 C9.53517131,21.6484512 9.49242486,21.5361175 9.41687299,21.4486364 L8.47843926,20.3581048 C8.39294636,20.2596886 8.26868342,20.19706 8.13944996,20.187119 L7.33024969,20.1274728 L5.11936346,17.5567211 C5.06269956,17.489122 4.98714769,17.4394169 4.90066069,17.4085997 L4.03579062,17.1213037 L3.42044054,16.4095256 C3.33594174,16.3101153 3.2116788,16.2474867 3.08244534,16.2385398 L2.24143376,16.1739231 L1.39048115,15.3826167 L1.68970631,14.1638458 C1.7145589,14.0624472 1.70660607,13.9570722 1.66684193,13.8566678 L1.58731365,13.6628176 L1.58830775,13.6618235 C1.75134073,13.5216549 1.80502232,13.2949993 1.72350583,13.0971727 L1.58234313,12.7492364 L2.15494676,11.1934644 C2.20564604,11.0572723 2.19371679,10.9051744 2.12214134,10.7779292 L1.67081834,9.97866993 C1.61713675,9.8842301 1.53164385,9.80867823 1.43123939,9.76593178 L1.01868643,9.59295777 L1.04155081,9.30665595 L1.78414614,8.06303244 L3.78527653,7.01226502 C3.9463213,6.92677212 4.04771986,6.76075683 4.04970807,6.57883589 L4.09444273,3.03286862 C4.2843165,3.03783914 4.49009593,2.91954082 4.56962421,2.72767884 L4.65909353,2.51494069 L5.14222784,2.80422481 C5.26947309,2.87878258 5.42057683,2.89468823 5.55875722,2.84697126 L10.7787948,1.06056723 L10.2270674,2.8867354 C10.1723917,3.07064455 10.2270674,3.27145347 10.3692242,3.39969282 C10.511381,3.52793218 10.7181545,3.5617317 10.8911285,3.49115034 L11.759975,3.13426718 L13.9022681,3.95639079 L14.4997243,4.89283631 C14.5623528,4.98727615 14.6548044,5.0598457 14.7601794,5.09463933 L21.7288451,7.40294771 C21.8063852,7.42780029 21.8879017,7.43376491 21.9664359,7.41984747 L22.8889639,7.26178501 L24.887112,7.81947708 L24.8612653,8.17238383 C24.8503302,8.3055937 24.8930766,8.43383306 24.9795636,8.53523162 C25.0670447,8.63563607 25.1873313,8.69727049 25.319547,8.70621742 L25.9289325,8.75095208 L26.4110727,9.12871142 L26.7093038,10.0741039 L26.241081,10.8604398 C26.1436589,11.0244668 26.1466412,11.2252757 26.251022,11.3873146 C26.3534147,11.5414007 26.529371,11.6239113 26.7281917,11.6070115 L27.1646032,11.554324 L26.8743249,12.245226 C26.7868438,12.4519995 26.8494724,12.6925725 27.0274169,12.8307529 L27.5234745,13.2184533 L26.9717471,13.5276195 C26.8961952,13.5713601 26.8335667,13.6339886 26.7908202,13.705564 L25.6237427,15.6589775 C25.5849727,15.7255824 25.5631024,15.798152 25.5571378,15.8746979 L25.4994798,16.634193 C25.4845682,16.8230727 25.5770198,17.0010172 25.7410469,17.1004276 L26.2321341,17.392694 C26.4478545,17.5199393 26.7242153,17.4662577 26.875319,17.2714134 L28.4489849,15.2543773 L28.9987242,15.1609316 L29.1011168,15.5705022 L28.3784036,16.5944289 C28.3257161,16.6689866 28.2948989,16.7564677 28.2889343,16.844943 L28.1746124,18.3649272 C28.1666595,18.4643376 28.1885298,18.5627538 28.2362468,18.6472526 L28.4420262,19.0130827 L28.0771902,19.2188622 C27.9668447,19.2804966 27.8823459,19.3858716 27.8455641,19.5081463 L27.1665914,21.7538262 C27.1168862,21.9178532 27.1546621,22.0918214 27.2660017,22.2200607 L27.5006102,22.4934392 L27.1009805,23.1624708 C27.05724,23.2360345 27.0323874,23.3195392 27.0303992,23.4050321 L26.9041481,28.4948421 C26.9001716,28.6747749 26.9926233,28.8427784 27.1467093,28.9332418 L27.3703826,29.0674458 L27.3445359,29.4034528 L27.1129098,29.7921472 C27.0512754,29.895534 27.0294051,30.0168146 27.0502813,30.1301424 L27.1298096,30.596377 L12.7520903,30.9512719 L12.4538592,30.0038913 C12.3932189,29.809047 12.2222331,29.6728548 12.0164537,29.6579433 L10.8622995,29.5704622 L10.2300497,26.7859782 L10.6485673,26.2491623 Z M31.9581704,11.0214845 C31.8836126,10.853481 31.7235619,10.7401532 31.5406469,10.7272299 L31.0624831,10.6934304 C30.8686329,10.6536662 30.677765,10.7491002 30.5694077,10.930027 L29.8496768,12.1328923 C29.5991627,12.1428333 29.3913951,12.3406599 29.3735012,12.5931622 L29.3317489,13.1468779 L28.9400721,13.4828848 C28.7780332,13.6230534 28.7253457,13.849709 28.8058681,14.0475356 L28.8575615,14.175775 L28.0950841,14.3060026 C27.9718152,14.3258846 27.8604756,14.3914955 27.7829356,14.4899117 L26.5373239,16.0854479 L27.5771561,14.3288669 L28.2620935,13.9431548 C28.4072326,13.8606442 28.5006783,13.7125228 28.5126075,13.5475016 L28.5503835,13.042497 C28.5633068,12.8774758 28.4937196,12.716431 28.3615038,12.6110561 L27.9390098,12.2810137 L28.4122031,11.1477357 C28.4798021,10.9856968 28.4569378,10.7968171 28.3495746,10.6546603 C28.2432055,10.5154858 28.0662551,10.4359576 27.8942752,10.4627983 L27.6149321,10.4965979 L27.6795488,10.3912229 C27.7501301,10.2689482 27.768024,10.1218208 27.7252776,9.98861097 L27.3137187,8.68434715 C27.2838956,8.58990731 27.2252435,8.50441441 27.1457152,8.43979768 L26.4220078,7.87614098 C26.3454619,7.81550067 26.2520161,7.78070704 26.1535999,7.77275422 L25.8891684,7.75287215 L25.9090504,7.48744651 C25.9259502,7.25283807 25.7748464,7.0351294 25.5471967,6.97051267 L23.04305,6.272652 C22.9714745,6.25475814 22.898905,6.25177583 22.8323,6.26370507 L21.9217012,6.41977932 L15.2413255,4.20690488 L14.6498339,3.2813945 C14.59317,3.19291929 14.5106594,3.12532025 14.4112491,3.08655021 L11.9299667,2.13519314 C11.8106743,2.09145259 11.6814408,2.09244669 11.5661248,2.14016366 L11.4806319,2.17495728 L11.856403,0.930339671 C11.923008,0.711636896 11.8315504,0.476034361 11.6347179,0.359724249 L11.1476072,0.0684519173 C11.0253325,-0.00411763984 10.876217,-0.0200232962 10.7320719,0.0257054658 L5.45338224,1.83199157 L4.67698739,1.36873932 C4.55570676,1.29418156 4.40659123,1.27927001 4.26642264,1.32301056 C4.13023046,1.36774522 4.02087907,1.46814968 3.96322106,1.60235365 L3.79124115,2.01391251 L3.66996052,2.00595968 C3.52979193,1.97514247 3.38266461,2.02285944 3.26635449,2.13121673 C3.16694414,2.22366835 3.10829203,2.35489002 3.10630383,2.4920763 L3.05958096,6.26966969 L1.19762506,7.24786756 C1.11511447,7.29160811 1.04751543,7.35622484 1.00178667,7.43376491 L0.125981467,8.89907351 C0.08721143,8.96567844 0.0653411525,9.0392421 0.0593765314,9.11578807 L0.00171852706,9.87428906 C-0.0161753363,10.0900095 0.1070935,10.2898243 0.304920101,10.3713408 L0.889452973,10.6158903 L1.14294937,11.0672133 L0.581280881,12.5881917 C0.539528533,12.7054959 0.54151674,12.8327411 0.588239605,12.9470631 L0.667767887,13.1419073 L0.666773784,13.1429014 C0.503740806,13.28307 0.449065112,13.5107197 0.530581601,13.7085463 L0.68566175,14.0843175 L0.355619381,15.4293395 C0.31287293,15.6043018 0.368542727,15.789205 0.500758495,15.9114798 L1.6887122,17.017917 C1.7712228,17.0964512 1.88057418,17.1441681 1.99290788,17.1521209 L2.80111405,17.2127613 L3.37172947,17.8748342 C3.42839337,17.9424333 3.50394524,17.9921384 3.59043224,18.0229556 L4.45629641,18.3102516 L6.7109232,20.9307084 C6.7964161,21.0301188 6.92067904,21.0927473 7.0509066,21.1016942 L7.85911277,21.1623346 L8.5450442,21.9615938 L8.58679655,24.5880153 C8.58977886,24.8097004 8.73591207,24.9955977 8.9397033,25.0562381 L9.052037,25.4996082 C9.07788369,25.6069714 9.14051221,25.7033994 9.22799332,25.7719926 L9.55803569,26.0284713 L9.29956877,26.3605019 C9.20811125,26.4788002 9.17431173,26.630898 9.20711714,26.7760372 L9.97257686,30.1490304 C10.0212879,30.3607745 10.2061912,30.5178428 10.4209175,30.5337485 L11.606883,30.6222237 L11.9170433,31.6093685 C11.9836483,31.816142 12.1735221,31.9553165 12.3912307,31.9553165 L12.40316,31.9553165 L27.7302481,31.5765631 C27.8743931,31.5725866 28.0095912,31.5069758 28.1030369,31.3946421 C28.1935003,31.2813143 28.2312763,31.1361752 28.2064237,30.9960066 L28.0602904,30.1440599 L28.2601053,29.8120293 C28.2988753,29.7454244 28.3207456,29.6718607 28.3267102,29.5953147 L28.3843682,28.8368138 C28.3992797,28.6479341 28.3078222,28.4689954 28.1437951,28.3705792 L27.9052103,28.2284224 L28.0215204,23.5601123 L28.5384542,22.6952422 C28.6468115,22.511333 28.6279236,22.2797069 28.487755,22.1166739 L28.1974767,21.7786787 L28.738269,19.9873042 L29.3625661,19.6353915 C29.6001568,19.5021817 29.6856497,19.197986 29.5524398,18.9574129 L29.1766687,18.2903695 L29.2691203,17.056687 L30.0455152,15.9582026 C30.1290199,15.8399043 30.1568548,15.6917829 30.121067,15.5506202 L30.0007805,15.06848 L30.5853134,14.5654636 C30.657883,14.5028351 30.7105704,14.4223127 30.7364171,14.3328434 L31.3875549,12.178621 L31.8945477,11.5274832 C32.0068814,11.3843323 32.031734,11.1904821 31.9581704,11.0214845 Z"/>
</svg>
