<svg xmlns="http://www.w3.org/2000/svg" width="32" height="32" viewBox="0 0 32 32">
  <path fill-rule="evenodd" d="M8.64579701,8.79739125 L8.513582,8.65921165 C8.54439903,8.65821756 8.57621016,8.65523526 8.60603309,8.65026477 L8.63386783,8.64430019 L8.64579701,8.79739125 Z M9.1020879,13.9716704 C9.11103478,13.9706763 9.11898757,13.9686881 9.12694035,13.9657058 L9.1498046,14.1615431 C9.09115283,14.1088559 9.02057188,14.069092 8.94104406,14.0482159 L8.90028605,14.0372808 L9.1020879,13.9716704 Z M7.83262499,16.2372193 L7.8753712,16.1576915 L7.91811741,16.1696206 C8.08015535,16.2123668 8.24616968,16.173597 8.36844372,16.0692168 L8.23125822,16.2769832 L7.9191115,16.2402016 C7.89823545,16.2372193 7.87934759,16.2362252 7.85946563,16.2362252 C7.85051875,16.2362252 7.84057778,16.2362252 7.83262499,16.2372193 Z M7.8763653,14.6754916 L7.93501707,14.6198221 C7.95489902,14.6625684 7.97875737,14.7013382 8.00858031,14.7371257 C7.9678223,14.710285 7.92308789,14.6904031 7.8763653,14.6754916 Z M30.8638832,21.6391468 L30.8648773,21.641135 L23.2739463,21.8996004 C23.1476959,21.9035768 23.0284042,21.9552699 22.9369472,22.0467269 L22.5393081,22.4483424 L15.6014994,24.0687219 L15.546824,24.0339284 C15.4066562,23.9384951 15.2187718,23.9265659 15.058722,24.0001291 L14.743593,24.1522261 L14.662077,24.0120583 C14.5785728,23.86692 14.428464,23.7744689 14.2624497,23.7665161 L12.0644994,23.6303247 C11.9640955,23.6064664 11.8537507,23.6263483 11.7583173,23.6830119 L10.1011562,24.5737236 L8.5583164,24.2973644 L8.42908368,22.8996628 C8.4211309,22.8181468 8.39429026,22.7396131 8.34955586,22.6720144 L7.76204405,21.783291 C7.72327423,21.7276215 7.67655164,21.6808989 7.62386445,21.6461055 L6.92899008,21.1888205 C6.82460981,21.1182396 6.69736529,21.0953753 6.55222701,21.1152573 L6.08997153,21.2106907 L5.97565028,21.1808677 L5.76788383,20.8200102 C5.66151537,20.6390844 5.44778434,20.5406687 5.2390238,20.5824208 L4.86226072,20.6609546 L4.79863846,20.6192025 C4.69624639,20.553592 4.56999597,20.5277455 4.42684588,20.5476274 L4.326442,20.5694976 C4.32544791,20.4849993 4.30357775,20.401495 4.25983745,20.3279318 L4.02125397,19.9143871 L4.03218905,19.6360397 L4.23200271,19.5952817 C4.41193441,19.557506 4.5560786,19.4242969 4.60677759,19.2503298 C4.65847067,19.0733804 4.60975988,18.8835077 4.48052716,18.7552691 L3.97552547,18.2552379 C3.92780878,18.2085153 3.8721393,18.1737218 3.81149934,18.1488694 L4.20019158,17.9848432 C4.39702295,17.901339 4.51730878,17.7035136 4.50140322,17.4937589 C4.48748585,17.281022 4.34035937,17.1020844 4.13458112,17.047409 L3.58086864,16.8982943 L3.56396898,16.8147901 C3.5102877,16.5533424 3.25182227,16.3803694 2.97645717,16.4280861 L2.97248078,16.4290802 L2.95061063,15.8167159 C2.94464604,15.6914596 2.89195886,15.573162 2.80249005,15.4846872 L2.42970337,15.1148829 L2.32035261,13.7221518 C2.31637622,13.6644941 2.30146476,13.6068365 2.27263592,13.541226 L1.91973119,12.80957 C1.89289055,12.7529065 1.85412074,12.7012134 1.80242765,12.6534967 L1.1890693,12.1117134 L1.00416711,11.2120548 L1.05685429,10.9108432 C3.07586695,11.8532479 4.7827329,12.1902471 6.25896815,11.9417226 L6.78683409,12.290651 C6.89717895,12.3642142 7.03734674,12.3900607 7.16260307,12.3632201 C7.21727845,12.3512909 7.26698334,12.3324031 7.31370593,12.3035742 L7.56521268,12.4685945 L7.39025147,12.504382 C7.12482735,12.5610456 6.95086023,12.8244815 7.00553561,13.0918938 L7.08705163,13.4855565 L5.99553223,15.3733483 C5.89811065,15.543339 5.90904572,15.7550819 6.02436107,15.9151316 C6.13768822,16.0682227 6.32159632,16.1388036 6.52737456,16.1089807 L6.80373376,16.0523171 L6.45778772,16.6974866 C6.38124218,16.8416308 6.38024809,17.0155979 6.45579952,17.1607362 C6.53135095,17.3068685 6.67450104,17.4052842 6.83852718,17.4251662 L7.466797,17.4997235 C7.59304742,17.504694 7.72426833,17.4728829 7.82168992,17.3953432 L8.00559801,17.2521932 L8.41814861,17.300904 C8.61398588,17.3287387 8.78894709,17.240264 8.89332736,17.0812083 L9.30886025,16.4499562 L9.38441168,16.4708323 C9.63393023,16.5344545 9.88146059,16.4121805 9.97589988,16.1775734 L10.241324,15.5214689 C10.2731351,15.4449233 10.2840702,15.360425 10.2751233,15.2779149 L10.048469,13.2728196 L10.7025854,12.0530616 C10.7751545,11.9198525 10.780125,11.7617909 10.7204791,11.6216231 C10.6598392,11.4814553 10.5405474,11.3780692 10.3924269,11.3392994 L10.2641882,11.3035118 L10.048469,10.2547386 C10.0087051,10.0698365 9.87151961,9.92569227 9.68959971,9.87698148 L9.64486531,9.8640582 C9.69059381,9.78154809 9.71246396,9.68710879 9.70451118,9.58670491 L9.57925485,8.00410119 C9.56831978,7.86194521 9.49575064,7.73072429 9.38043529,7.64423778 C9.26810224,7.56272176 9.12395805,7.53190473 8.98577846,7.55675718 L8.80584675,7.5935388 L8.68357272,7.30425633 L29.7872752,7.0010565 L30.3827398,20.2553627 C30.3887044,20.3597429 30.425486,20.4571645 30.4901024,20.5386805 L30.9603106,21.1381215 L30.9752221,21.2067143 L30.9344641,21.2683483 C30.8638832,21.3776991 30.8380366,21.50892 30.8638832,21.6391468 Z M31.919615,21.5795009 C31.990196,21.4701502 32.0160425,21.3389293 31.990196,21.2087025 L31.9116622,20.8239866 C31.8967508,20.746447 31.8619574,20.6728837 31.8152348,20.6162202 L31.3688848,20.0485903 L30.7595029,6.47517876 C30.7475737,6.20876054 30.5298663,6 30.2545012,6 L8.22131724,6.3171172 C7.99963343,6.32109359 7.80479025,6.47319056 7.75011488,6.68592749 L7.63579363,7.10941316 C7.60696479,7.21379343 7.61491757,7.32811468 7.65766378,7.43249495 L7.90917053,8.02497725 L7.90121774,8.01702447 C7.72228014,7.83311637 7.42902128,7.81422851 7.23616631,7.97129597 L6.89022027,8.24268467 C6.79578097,8.3182361 6.73215871,8.42062818 6.71028856,8.53494943 L6.59397912,8.50413239 C6.39317136,8.45243931 6.1933577,8.52302025 6.07108367,8.68307 C5.94980373,8.84311975 5.93489227,9.05883897 6.03529615,9.23280609 L6.34744286,9.7726012 C6.42299429,9.89984573 6.54725652,9.98732633 6.69040661,10.0131729 L7.72824472,10.1980751 C7.77496732,10.208016 7.82268402,10.2090101 7.86344203,10.2060279 L7.76005585,10.4247294 C7.6924572,10.5728499 7.70040998,10.7438348 7.78093191,10.8830085 L7.86642432,11.0301349 C7.7849083,11.0191999 7.69941589,11.0271526 7.61690577,11.0589638 C7.54135433,11.0887867 7.47474978,11.1345152 7.42405079,11.1911788 C7.33259379,11.1494267 7.22324303,11.1374975 7.11289818,11.1553913 C7.0582228,11.1673204 7.00851791,11.1862083 6.96179531,11.2150371 L6.63771942,11.0013061 C6.53632144,10.9337075 6.41205922,10.9078609 6.26294454,10.9297311 C4.85231975,11.2249781 3.04703812,10.8223685 0.911716011,9.73283729 C0.769560024,9.65927405 0.600563395,9.65927405 0.463377897,9.729855 C0.322216007,9.80043594 0.221812128,9.93463915 0.194971487,10.0877302 L0.00808109805,11.1285506 C-0.00285397791,11.1881965 -0.00285397791,11.2508247 0.00907519586,11.3184233 L0.248652769,12.473565 C0.269528823,12.5769511 0.325198301,12.6723845 0.406714322,12.7469419 L1.06878347,13.3324655 L1.33619578,13.8891603 L1.45349932,15.3783188 C1.4624462,15.4986046 1.51513338,15.6109377 1.5986376,15.6924537 L1.9634715,16.0533112 L2.00025312,17.0533736 C2.0062177,17.199506 2.07679865,17.3347033 2.1901258,17.4241721 C2.30345295,17.5136409 2.45753811,17.5484343 2.59671181,17.5205996 L2.70009798,17.4997235 C2.70904486,17.5215937 2.72097403,17.5434638 2.7338973,17.5633458 C2.69313929,17.6041038 2.65933997,17.6518205 2.63349343,17.7045077 C2.57285346,17.7174309 2.51221349,17.7422834 2.45853221,17.7780709 C2.29052968,17.8913981 2.20801956,18.0931999 2.24877757,18.2890372 L2.36806931,18.8685962 C2.39490995,18.998823 2.47046138,19.110162 2.58080624,19.1837252 C2.6911511,19.2562944 2.8273425,19.2841291 2.95558112,19.2562944 L3.0539968,19.2354183 L3.02815026,19.8547412 C2.9655221,19.8507648 2.89394705,19.8557353 2.8263484,19.8766114 C2.63051113,19.9402336 2.49332563,20.1211595 2.48338466,20.3289259 L2.44958533,21.1401097 C2.44362074,21.2941949 2.507243,21.4403273 2.62355245,21.5387429 C2.7368796,21.6351704 2.89494115,21.6749343 3.04703812,21.6480937 L3.31743272,21.5914301 L3.63057353,21.6749343 C3.70314267,21.6948163 3.77670591,21.6948163 3.85822193,21.681893 L4.42585178,21.5635954 L4.48549765,21.6043534 C4.59683661,21.6769225 4.7360103,21.7027691 4.85828433,21.6759284 L5.08792093,21.6292058 L5.22113004,21.8598365 C5.28872869,21.9741578 5.39609125,22.0556738 5.52134758,22.0874849 L5.94880964,22.2018062 C6.01640829,22.2187058 6.08997153,22.2226822 6.17645804,22.2087649 L6.55222701,22.1302311 L6.99062414,22.4205077 L7.45089143,23.1163762 L7.6029884,24.7675726 C7.62485855,24.9892564 7.79286108,25.1711763 8.0105685,25.2099462 L10.0922093,25.5827328 C10.1081149,25.5857151 10.1677608,25.5916797 10.1846604,25.5916797 C10.2701528,25.5916797 10.352663,25.5698096 10.4192675,25.5310398 L12.1042633,24.6244225 L13.9343974,24.740732 L14.113335,25.0498964 C14.2445559,25.2745625 14.5248915,25.3550844 14.7585045,25.248716 L15.2376596,25.0170912 C15.352975,25.0946308 15.4931427,25.1174951 15.6203873,25.0846898 L22.904142,23.3847826 C22.995599,23.3629124 23.0781091,23.3171839 23.1447136,23.2505794 L23.504577,22.8857455 L31.4881766,22.6153509 C31.634309,22.6103804 31.7705004,22.5397994 31.8589751,22.4274664 C31.949438,22.312151 31.9862196,22.1640305 31.9563967,22.0198863 L31.878857,21.6421291 L31.919615,21.5795009 Z"/>
</svg>
