<svg xmlns="http://www.w3.org/2000/svg" width="32" height="32" viewBox="0 0 32 32">
  <path fill-rule="evenodd" d="M29.669421,14.1851779 C29.6177279,14.2249418 29.5739876,14.2746467 29.5431706,14.329322 L28.3293776,16.4358145 C28.3015429,16.4149385 28.2707259,16.3980388 28.2379207,16.3831274 C28.0341307,16.3006173 27.8064824,16.3562867 27.6653205,16.5193187 L27.0241277,17.2708564 C26.9595113,17.3454137 26.9187533,17.4368706 26.9078183,17.5372745 L26.8103967,18.3564108 C26.7954853,18.4757025 26.8263023,18.5940001 26.8889304,18.6894334 L26.7646682,18.7341678 C26.639412,18.7798963 26.5409963,18.8703592 26.4833387,18.990645 C26.4266751,19.1109307 26.4207105,19.246128 26.4654449,19.3713843 L26.5767838,19.6775663 L26.4057991,19.8793681 L26.2576785,19.7829406 C26.1274518,19.6964541 25.9614375,19.6775663 25.8153052,19.7292594 L25.2367405,19.9380198 C25.0607852,20.0026362 24.9335407,20.1636799 24.9126647,20.347588 L24.8062963,21.235317 L24.283401,21.6478674 C24.2068555,21.5057115 24.0637055,21.40829 23.9036558,21.3894021 L23.3578963,21.3247858 C23.2207108,21.3058979 23.0964487,21.3456618 22.9940566,21.4261837 C22.8886823,21.5076997 22.8220778,21.6259973 22.8071663,21.7592063 L22.7415559,22.3059599 C22.7266444,22.4361867 22.7644201,22.5693958 22.844942,22.6707937 L22.9821274,22.846749 L22.1073217,23.3915144 L21.4502233,23.3149689 C21.1788347,23.2901164 20.9382631,23.4879418 20.9084402,23.7493894 L20.8676822,24.0923531 L20.6599158,24.2563791 L20.1499438,24.0158076 C20.0545105,23.9710732 19.958083,23.9700791 19.876567,23.9730614 L18.7512487,24.1162114 C18.5454705,24.1440461 18.376474,24.296143 18.3307455,24.4959566 C18.3227927,24.5277677 18.3188163,24.560573 18.3178222,24.5933782 L18.1746722,24.2772552 C18.1120441,24.1370874 17.9907642,24.0346954 17.8436377,23.9979138 C17.6945231,23.9631204 17.5334793,23.9939374 17.4151817,24.0903649 L17.1080056,24.3309364 C16.9350327,24.4671278 16.8733986,24.7047171 16.9559087,24.9095012 L17.5931252,26.4592991 C17.5662846,26.5000571 17.5464026,26.5437974 17.5314911,26.5905199 L17.1815688,27.7923838 L16.5026003,27.7118619 C16.4946475,27.7108678 16.4578659,27.7088796 16.448919,27.7088796 C16.4091551,27.7088796 16.3703853,27.7138501 16.3326096,27.7227969 L16.2053651,27.4722844 L16.3167041,26.52988 C16.3286332,26.4304703 16.3107395,26.3330487 16.2669992,26.2455681 L15.3683351,24.4770688 C15.2927837,24.3289483 15.1496337,24.2295385 14.9846135,24.2096566 L14.4855766,24.1500107 L13.8125726,21.9709491 L13.8642657,21.5305639 C13.8851417,21.357591 13.8135667,21.184618 13.6753871,21.0772555 L12.4039365,20.0950872 C12.3323615,20.041406 12.2468691,20.0056185 12.1603826,19.9976657 L11.8353128,19.9588959 L11.8402833,19.9072028 C11.8641416,19.7203125 11.7776551,19.5344163 11.6205877,19.4310301 L11.3631165,19.2620336 L11.3909512,19.0204679 C11.4167977,18.807731 11.3034706,18.602947 11.1096216,18.5124841 L10.6463722,18.2957708 L10.6692365,18.10391 C10.6841479,17.9746774 10.6463722,17.8414683 10.5658503,17.7390763 L9.84512968,16.8235125 C9.76361369,16.7181382 9.644322,16.6515337 9.51210704,16.6366222 L8.97231212,16.5720059 L8.43052901,15.3651716 C8.38579463,15.2657618 8.31123732,15.1852399 8.21381577,15.1325528 L7.07955058,14.5162123 L6.93540645,14.114597 C6.87079012,13.9386417 6.70974633,13.8113973 6.52583831,13.7905212 L6.3349716,13.767657 L6.23158546,13.2636496 C6.21070942,13.1672221 6.16199864,13.0787474 6.08843543,13.0071724 L5.20667099,12.1651719 L5.06053867,11.462345 C5.03767443,11.3559766 4.98001678,11.2595491 4.89651259,11.18698 L4.34379441,10.7167719 L4.41039894,10.1600773 C4.42729859,10.0089745 4.37659962,9.85886581 4.26526071,9.74852099 C4.16585097,9.65010534 4.00977767,9.59542999 3.85469847,9.60934735 L2.92422325,9.72863904 L1.18952321,8.47707036 L2.45600336,6.72248836 L4.20462077,6.20655179 L4.37560553,6.22643374 C4.57243682,6.25526256 4.74242749,6.16877608 4.85078411,6.0057441 L5.05258589,5.69856799 L14.7052721,5.03152861 L14.7937468,5.45899051 C14.8285402,5.62599888 14.9498201,5.76616662 15.1078816,5.82283017 C15.2709135,5.88545831 15.4508452,5.85762358 15.5900188,5.74827286 L15.8604133,5.53354782 L16.4171079,6.06340176 L16.5373937,7.01276482 C16.5672166,7.24637772 16.7421778,7.4084156 17.0483598,7.4471854 L24.0756346,7.20263743 L30.7370816,13.3441715 L29.669421,14.1851779 Z M31.8405298,13.0081665 L24.5965417,6.33280216 C24.4991202,6.24432749 24.3927517,6.22345144 24.3082534,6.20853998 C24.2903597,6.20456359 24.2655073,6.2005872 24.2446312,6.2025754 L17.4658807,6.4371824 L17.3803883,5.76020203 C17.3644828,5.64687492 17.3108015,5.54249469 17.2302796,5.46594919 L16.234194,4.51559203 C16.0592328,4.35057185 15.7977852,4.3326781 15.6059244,4.46986355 L15.5930011,4.40425312 C15.5641723,4.26507947 15.4756976,4.14081729 15.3554118,4.06725408 C15.2500375,4.00462594 15.1337281,3.98573809 15.0701059,4.01059053 L4.74043929,4.7233584 C4.58734828,4.73230527 4.44419825,4.81580946 4.35771177,4.94603622 L4.18772111,5.20450156 C4.13304575,5.20450156 4.08035859,5.20847795 4.01971864,5.22239531 L2.00766541,5.81785969 C1.90427927,5.8496708 1.8148105,5.91329304 1.74920007,6.00276181 L0.0920396275,8.29912691 C-0.0660218666,8.52180474 -0.0153228968,8.83196315 0.204372639,8.99300693 L2.50372003,10.6521556 C2.60014749,10.717766 2.72341557,10.7495771 2.85463643,10.7396361 L3.34770877,10.677008 L3.32683272,10.8638983 C3.30695077,11.0279244 3.37057301,11.1909564 3.49781748,11.3013012 L4.12211068,11.8341374 L4.26327252,12.5200647 C4.28414856,12.6174862 4.33385343,12.7059609 4.40642255,12.7765418 L5.29017518,13.6195365 L5.43531341,14.3203752 C5.47905369,14.5301297 5.65202665,14.686203 5.86376941,14.7110554 L6.10434099,14.7408784 L6.20772712,15.0301607 C6.24848512,15.1444819 6.33000111,15.2399153 6.43935183,15.298567 L7.59250487,15.9268366 L8.18101056,17.236063 C8.25258557,17.3951186 8.40368838,17.5064575 8.57566724,17.5253453 L9.19001946,17.5999026 L9.65724526,18.1913906 L9.61748137,18.5343542 C9.59262893,18.7470911 9.70496194,18.9518752 9.89881094,19.0433321 L10.3620604,19.2590513 L10.3401902,19.4489239 C10.3163319,19.6348201 10.4028183,19.8217104 10.5598857,19.9241025 L10.817357,20.093099 L10.7895223,20.3356588 C10.7736167,20.4648915 10.8113924,20.5981005 10.8909202,20.6994985 C10.9724362,20.8048728 11.0917279,20.8714773 11.2239428,20.8863888 L11.9068878,20.9679048 L12.8443217,21.6926018 L12.8125106,21.960014 C12.8045578,22.0276127 12.8105224,22.0942172 12.8304043,22.1647981 L13.6316469,24.7534279 C13.6902986,24.9403182 13.8533306,25.0755154 14.0481737,25.0993738 L14.6038742,25.1649842 L15.3136597,26.5616911 L15.2013267,27.5040955 C15.1903917,27.6035052 15.2072913,27.7019209 15.2520257,27.7894015 L15.6993695,28.6701718 C15.7659741,28.8033809 15.8882481,28.8988142 16.0353745,28.9326135 C16.0542623,28.9365899 16.1248433,28.9445427 16.1437311,28.9445427 C16.25507,28.9445427 16.3644207,28.906767 16.4499131,28.8371802 L16.5950513,28.7248472 L17.4857627,28.8302215 C17.7372693,28.8600444 17.9519944,28.7069534 18.0185989,28.4763228 L18.2263653,27.7615667 C18.3814445,27.8570001 18.581258,27.865947 18.7413077,27.7695195 C18.9540446,27.6462514 19.0445075,27.3808274 18.9510623,27.152185 L18.7930008,26.7664752 C18.8397234,26.7764162 18.886446,26.7774103 18.9351567,26.7754221 C18.9828734,26.9185721 19.0932182,27.0338874 19.233386,27.0845864 C19.396418,27.1472145 19.5763496,27.1183857 19.7155232,27.009035 L20.3268932,26.5278918 C20.4740196,26.4115824 20.5416182,26.223698 20.5048366,26.0368077 L20.3318637,25.2007717 L20.5167658,25.2882523 C20.6857623,25.3657919 20.8806054,25.3419335 21.0346905,25.2266182 L21.6460605,24.7454751 C21.7494466,24.662965 21.815057,24.5456615 21.8299685,24.4134465 L21.8369272,24.3597653 L22.1560325,24.397541 C22.2713478,24.4154347 22.3886513,24.3905823 22.4830905,24.3269601 L23.977219,23.398473 C24.0984989,23.3229216 24.1820031,23.1996536 24.2058614,23.0634622 C24.2138142,23.0197219 24.2158024,22.9759816 24.211826,22.9332354 C24.2645132,22.9143476 24.3162062,22.887507 24.3609406,22.8517194 L25.5826864,21.8894331 C25.6880607,21.8079171 25.7546652,21.6896195 25.7695767,21.5564105 L25.8640159,20.7690853 L25.9196854,20.7492033 L26.2278556,20.9519992 C26.4366161,21.0871965 26.7179457,21.0474326 26.8770012,20.85756 L27.5211764,20.1020459 C27.6345035,19.9668487 27.6683028,19.7799583 27.6096511,19.6119559 L27.5698872,19.501611 L28.2597908,19.2540808 C28.4486693,19.184494 28.577902,19.0105269 28.587843,18.8087251 C28.5967898,18.6327699 28.5103034,18.4667556 28.3631769,18.3693341 L30.3563423,14.9098749 L31.8077246,13.7646747 C31.924034,13.6742118 31.9936208,13.5400087 31.9995854,13.3928822 C32.00555,13.2487381 31.9468982,13.1075763 31.8405298,13.0081665 Z"/>
</svg>
