<svg xmlns="http://www.w3.org/2000/svg" width="32" height="32" viewBox="0 0 32 32">
  <path fill-rule="evenodd" d="M28.1291002,22.3945474 L25.7920509,22.6092657 C25.6767393,22.6202004 25.567392,22.6708978 25.4819023,22.7563875 L25.2413384,23.0019218 L25.0037566,23.0039099 L23.5583846,22.117203 C23.4798534,22.0694879 23.3893934,22.0436421 23.2969452,22.0436421 L9.33031758,22.1191912 L0.998056174,21.8637162 L1.09448058,12.0224626 C1.21277443,11.9349847 1.28832345,11.7958155 1.29329378,11.6407412 L1.43146896,7.24498124 L29.767321,7.00441727 L29.6042941,7.33742938 L29.1321128,7.65751864 C28.925347,7.79768195 28.8537743,8.07204417 28.9690859,8.29471496 L29.5635374,9.45876628 C29.6301398,9.58898893 29.7494278,9.68243113 29.8895911,9.71622938 L30.4840426,9.85937488 L30.6888202,10.161571 L30.9472773,19.0564737 L30.8697402,19.0564737 C30.595378,19.0584619 30.3746953,19.2831208 30.3766834,19.557483 L30.3796656,19.949145 C30.3816538,20.0823499 30.4343393,20.2066081 30.5277815,20.2980622 L30.7027371,20.4690416 L30.6063127,20.7652732 C30.5496509,20.9461932 30.5973661,21.1400361 30.731565,21.2702588 L30.9512536,21.4859711 L30.8110903,22.688791 L30.4919951,23.1778715 C30.4572028,23.2295629 30.4333452,23.2862247 30.4214164,23.3478568 L30.3319505,23.3478568 L30.2812531,23.2981535 C30.2066981,23.2255866 30.1132559,23.1798596 30.0118612,23.1629605 L28.9979139,23.0029158 L28.5217562,22.5337167 C28.4223496,22.4382863 28.2811923,22.3925593 28.1291002,22.3945474 M31.9572484,24.6103206 L31.469162,23.4969667 L31.7057497,23.1371148 C31.7494886,23.0705123 31.7773225,22.9949633 31.7842809,22.9204084 L31.966195,21.3587306 C31.9850823,21.2056445 31.9314027,21.0545464 31.8220554,20.9481814 L31.6470998,20.777202 L31.7435242,20.4809703 C31.7952156,20.3139673 31.7584352,20.1370235 31.6480939,20.0077949 C31.7117141,19.9819492 31.7683759,19.9431806 31.815097,19.8934773 C31.9075451,19.798047 31.9592365,19.6668303 31.9552603,19.5346195 L31.6789099,9.98562127 C31.6749337,9.89217906 31.6461057,9.80171906 31.5934202,9.72318784 L31.197782,9.14066515 C31.1281973,9.03927042 31.0238204,8.9667036 30.9035384,8.93787568 L30.3448733,8.8026827 L30.054606,8.23407694 L30.2713124,8.0859611 C30.3428852,8.03924 30.3995469,7.97263757 30.4393096,7.89311229 L31.0138798,6.71912032 C31.0894288,6.56603415 31.0794881,6.3801438 30.988034,6.2340161 C30.8856452,6.07496553 30.6987608,5.98052926 30.5635678,6.00339278 L0.945370674,6.25489148 C0.676972848,6.25687962 0.460266455,6.46861568 0.452313927,6.73601944 L0.312150617,11.2222394 C0.185904233,11.3126994 0.105384885,11.4598212 0.104390819,11.6218539 L1.38861309e-05,22.3408679 C-0.00197424592,22.613242 0.209761817,22.8329306 0.482135907,22.8418772 L9.32137099,23.1132572 L23.15877,23.0387022 L24.6071242,23.9264032 C24.6707445,23.9661658 24.7274062,23.9751124 24.7979849,23.9890293 C24.8218425,23.9959878 24.8556407,24.0079166 24.8705517,23.99897 L25.4550625,23.9939997 C25.5862793,23.9930056 25.7115316,23.9413142 25.8059679,23.8458838 L26.064425,23.5824563 L27.9889368,23.4065067 L28.4163852,23.8250084 C28.4909402,23.8975753 28.5833883,23.9442964 28.6857771,23.9602014 L29.6987304,24.1202461 L29.7842201,24.2037476 C29.9303478,24.3439109 30.0675289,24.3568338 30.1569948,24.3439109 L30.2335379,24.3429168 C30.2474548,24.4025608 30.2713124,24.4592226 30.3061047,24.5119081 L30.7027371,25.0934367 C30.7961793,25.2296237 30.9492655,25.3101431 31.1132864,25.3101431 L31.1172626,25.3101431 L31.5069365,25.3071609 C31.6739396,25.3051728 31.8290139,25.2196831 31.9194739,25.0805138 C32.010928,24.9403505 32.025839,24.7634068 31.9572484,24.6103206"/>
</svg>
