<svg xmlns="http://www.w3.org/2000/svg" width="32" height="32" viewBox="0 0 32 32">
  <path fill-rule="evenodd" d="M20.6039273,21.7501963 C20.4210193,21.7501963 20.2530224,21.8505968 20.1655447,22.0136235 C20.0800551,22.174662 20.0890017,22.3694987 20.1903963,22.5225847 L20.6009451,23.1379109 C20.3285713,23.1398991 20.1068948,23.3625696 20.1068948,23.6349434 L20.1068948,24.5276137 C19.9329335,24.5405366 19.7748771,24.6439193 19.696346,24.7999875 L19.3066725,25.5783404 L18.5303078,25.9670198 C18.3633049,26.0505213 18.2559459,26.2254767 18.2559459,26.4113668 C18.2559459,26.598251 18.3633049,26.7732065 18.5303078,26.8567079 L19.0114352,27.0972716 L18.3086313,28.5018854 C18.273839,28.5694818 18.2559459,28.6470189 18.2559459,28.7265441 L18.2559459,28.9820188 L17.9378451,29.3001196 C17.9080231,29.3299415 17.8831715,29.3627457 17.8613021,29.398532 L17.8613021,28.2633098 C17.8613021,27.9889479 17.6386315,27.7662774 17.3642696,27.7662774 L15.5133207,27.7662774 C15.4347895,27.7662774 15.3572525,27.7841705 15.2916442,27.8179687 L14.8105167,28.0595265 L14.5709471,27.5793931 C14.4874456,27.4113962 14.3124902,27.3030431 14.1246119,27.3030431 L13.0440633,27.3030431 L12.71801,26.6529246 C12.6345086,26.4859217 12.4605472,26.3775686 12.273663,26.3775686 L11.4992864,26.3775686 L10.4565122,25.6827172 L10.4565122,24.5604179 C10.4565122,24.4272132 10.4048209,24.3029551 10.3113788,24.209513 L10.0370168,23.935151 L10.3670464,22.2810269 L10.422714,22.2810269 C10.5738119,22.2810269 10.7159632,22.2134305 10.8103994,22.0951368 L12.6623424,19.7819477 C12.7319269,19.6944699 12.7706955,19.5831347 12.7706955,19.4708053 L12.7706955,18.7739658 L15.8373858,16.144664 C15.946733,16.0512219 16.0103531,15.9140409 16.0103531,15.7679134 L16.0103531,14.843433 C16.0103531,14.67643 15.9278458,14.5213559 15.7886767,14.4299019 L13.0122532,12.5779589 C12.9307399,12.5242794 12.8353097,12.4944575 12.7368973,12.4944575 L12.1991081,12.4944575 L11.8313041,11.0212532 C11.7975059,10.8850663 11.70804,10.7707488 11.5877582,10.7061346 C11.4664822,10.6385382 11.3263191,10.6266094 11.1911262,10.6693542 L10.3113788,10.9626034 L10.0181296,9.7876186 L10.8849542,7.62254513 C10.958515,7.43864312 10.9147762,7.22790135 10.773619,7.08674412 L9.99427204,6.3073972 L9.99427204,5.73879205 L11.7617195,3.08662675 C11.8163931,3.00511342 11.845221,2.90868912 11.845221,2.81027669 L11.845221,2.09156773 L12.871096,1.0656927 L20.79777,3.70891141 L21.0015533,3.91269473 L20.6118798,6.64836148 L19.9200106,6.99330202 C19.8116575,7.04698153 19.7261679,7.13942957 19.6784528,7.25374704 L18.7529784,9.56892431 C18.7002929,9.70014089 18.7072514,9.84825657 18.7698775,9.97549688 L19.2341058,10.9019654 C19.3046844,11.0421286 19.4398772,11.1415351 19.5959454,11.1683748 L21.9568497,11.5620245 L21.9568497,18.3385653 L21.640737,18.6566661 C21.4896392,18.807764 21.4518647,19.037393 21.5472949,19.2292475 L21.9280218,19.9907013 L21.5433187,21.5295138 L21.3236303,21.7501963 L20.6039273,21.7501963 Z M22.9509147,18.5443368 L22.9509147,11.140541 C22.9509147,10.8969951 22.7769533,10.6912236 22.5353955,10.6494729 L20.0084824,10.2289834 L19.757978,9.72896877 L20.5323546,7.79849463 L21.2868499,7.42074995 C21.4359597,7.34718914 21.5363602,7.20603192 21.5572356,7.04598746 L22.0204699,3.80831791 C22.0433333,3.65423784 21.991642,3.49618151 21.8803067,3.38484624 L21.4170724,2.92260603 C21.3633929,2.86793246 21.2977846,2.82816986 21.2232298,2.80133011 L12.8919714,0.0249066918 C12.7110516,-0.0337431405 12.519197,0.0129779123 12.3849983,0.146182616 L10.9972836,1.53389729 C10.9028474,1.62833346 10.851156,1.75259158 10.851156,1.88579629 L10.851156,2.65917882 L9.08370855,5.31134412 C9.02903497,5.39285744 9.00020709,5.48928174 9.00020709,5.58670011 L9.00020709,6.51316865 C9.00020709,6.64637335 9.05189847,6.77063147 9.14633464,6.86407357 L9.84019197,7.55892498 L9.03499936,9.56793025 C8.99623083,9.66534862 8.98927237,9.76972544 9.01611213,9.87310819 L9.47735827,11.7230631 C9.51115648,11.85925 9.60062232,11.9735674 9.71792199,12.0371876 C9.84416823,12.1087603 9.99029578,12.119695 10.116542,12.0759561 L10.9972836,11.7817129 L11.3283072,13.1117718 C11.3839748,13.3334483 11.5817938,13.4885224 11.8104287,13.4885224 L12.5857994,13.4885224 L15.0162882,15.1088483 L15.0162882,15.5392784 L11.9495978,18.1675862 C11.8402507,18.2620223 11.7766305,18.3992033 11.7766305,18.5443368 L11.7766305,19.2958499 L10.1841384,21.286962 L9.95947977,21.286962 C9.72388638,21.286962 9.51910899,21.454959 9.47238794,21.6875702 L9.01014774,24.0007593 C8.97734359,24.1657741 9.02804091,24.3347651 9.14633464,24.4500767 L9.46244729,24.7661893 L9.46244729,25.9491266 C9.46244729,26.1161295 9.54495468,26.2712037 9.68412378,26.3626576 L11.0728325,27.2881321 C11.1543458,27.3428057 11.2507701,27.3716336 11.3481885,27.3716336 L11.967491,27.3716336 L12.2925502,28.0227461 C12.3760517,28.189749 12.550013,28.297108 12.7368973,28.297108 L13.8184399,28.297108 L14.141511,28.9462325 C14.1991668,29.0625381 14.3035436,29.153992 14.4238255,29.1957428 C14.5530539,29.2434579 14.6942111,29.230535 14.8085286,29.1708911 L15.6296263,28.7603423 L16.8672371,28.7603423 L16.8672371,31.5029675 C16.8672371,31.7047627 16.987519,31.8836944 17.1763913,31.9622255 C17.2350412,31.9870772 17.2996554,32 17.3642696,32 C17.4974743,32 17.6217324,31.9483086 17.7161686,31.8538725 L18.640649,30.9274039 C18.7350852,30.8339618 18.7867766,30.7097037 18.7867766,30.576499 L18.7867766,29.856796 L19.1038833,29.5396892 C19.1983195,29.4452531 19.2500108,29.3209949 19.2500108,29.1877902 L19.2500108,28.8428497 L20.1227999,27.0962776 C20.2450698,26.8517376 20.1456634,26.5525241 19.9001293,26.4302541 L19.8633489,26.4113668 L19.9021174,26.3924796 C19.9975477,26.3437704 20.0730966,26.2682215 20.1227999,26.1708031 L20.4478591,25.5206846 L21.0661675,25.5206846 C21.2689568,25.5206846 21.4498766,25.3994087 21.5244314,25.2135186 C21.6019685,25.0276284 21.5602178,24.8148985 21.4170724,24.6717532 L21.1009598,24.3546464 L21.1009598,24.1319759 L21.5294018,24.1319759 C21.7113157,24.1319759 21.8793126,24.0325694 21.9677844,23.8695427 C22.053274,23.7085042 22.0433333,23.5126734 21.9429328,23.3595874 L21.532384,22.7442612 C21.6636005,22.7432671 21.7868646,22.6915758 21.8803067,22.5991277 L22.343541,22.1358935 C22.4071611,22.0712792 22.4528881,21.99076 22.4737635,21.9042763 L22.9360037,20.0543214 C22.9648316,19.940004 22.9519087,19.817734 22.8992233,19.711369 L22.5960335,19.1059835 L22.8057812,18.8962358 C22.9002173,18.8017996 22.9509147,18.6775415 22.9509147,18.5443368 Z"/>
</svg>
