<svg xmlns="http://www.w3.org/2000/svg" width="32" height="32" viewBox="0 0 32 32">
  <path fill-rule="evenodd" d="M28.0068604,11.1983421 C27.8319025,11.0740823 27.5973,11.0790527 27.4263185,11.2053006 L27.0992666,11.4468617 C26.9253028,11.576092 26.8547233,11.7987656 26.9223206,12.0025517 L27.0445923,12.3773193 L26.8149601,12.7043712 C26.7722147,12.7679922 26.7443805,12.8375777 26.7344397,12.9121336 L26.6290674,13.6169354 L26.0336143,14.2740214 C25.967011,14.3485772 25.9242657,14.4390384 25.9123367,14.5324818 L25.8566683,14.8983027 L25.3695698,15.2601473 C25.3228481,15.293946 25.284079,15.3356973 25.2522685,15.3863953 L25.1250264,15.3665138 C24.9013588,15.3426559 24.6836555,15.457969 24.5941885,15.6687137 L24.3466629,16.2691372 L24.0146406,16.1011379 C23.8178131,16.0007359 23.5742638,16.0444754 23.4211757,16.2094924 L22.7253206,16.9789093 C22.6587174,17.0544593 22.615972,17.1439263 22.603049,17.2383638 L22.5056293,17.8884912 L22.3455826,18.0087747 C22.2382221,18.087307 22.1696307,18.2036142 22.1497491,18.3338385 L22.0523294,18.9839659 L21.731242,19.2225447 L20.9996002,19.1141902 L20.6377555,18.6270916 C20.5592233,18.5197312 20.4429161,18.4511397 20.3126918,18.4312582 L19.7440788,18.3467615 C19.6128605,18.3248917 19.4816421,18.3596845 19.3752757,18.4382167 L19.0472297,18.6807719 C18.9408633,18.7593041 18.8722719,18.8766054 18.8523903,19.0058356 L18.7052667,19.996932 L18.1098136,20.654018 C17.9716367,20.806112 17.9447965,21.0258034 18.0322755,21.2047375 L17.444775,21.641138 C17.3384086,21.7206643 17.2688231,21.8359774 17.2499356,21.9671958 C17.230054,22.0994083 17.2628586,22.2306267 17.3423849,22.3369931 L17.3891066,22.39962 L15.2140626,26.1274149 C15.13056,26.2695681 15.1226073,26.444526 15.1951751,26.5946318 C15.2269856,26.6582529 15.269731,26.7129272 15.321423,26.7576607 L15.2220152,26.8322166 C15.1146547,26.9107488 15.0450692,27.027056 15.0251876,27.1592685 C15.0142528,27.2348185 15.0202172,27.3103684 15.042087,27.380948 L14.6355088,27.6006394 C14.4873911,27.418723 14.232907,27.3640487 14.0152037,27.4793618 L13.0211251,28.0171583 L12.7467594,27.8243071 C12.615541,27.7318578 12.450524,27.7060117 12.3063826,27.759692 L11.6950242,27.9595018 C11.5697703,28.000259 11.464398,28.0907202 11.4077355,28.2060333 C11.3470967,28.3253227 11.3361618,28.4585292 11.3779131,28.5867654 L11.5011789,28.960539 L11.4504809,29.0321126 L10.6164489,28.9078528 C10.478272,28.8859831 10.3500358,28.9217699 10.2486398,28.999308 L9.88281889,29.2716856 L9.12234875,28.7398535 C8.93247973,28.6046588 8.66904889,28.6225522 8.49906145,28.7816048 L7.40458088,29.7995413 L7.00694943,29.5977433 L6.83397975,29.365129 C6.75544754,29.2587625 6.64013442,29.1901711 6.50891604,29.1702895 L5.95819648,29.087781 L5.85381823,28.7696759 C5.82001955,28.6623154 5.75142813,28.5738424 5.65599658,28.5122095 L5.67389,28.3859615 C5.69377157,28.2557372 5.66096697,28.1215366 5.58144068,28.0161643 C5.54764201,27.9694426 5.50589071,27.9306735 5.4551927,27.898863 L5.47408019,27.7755972 C5.50390255,27.5737993 5.408471,27.380948 5.22754869,27.2765698 C5.21363159,27.2059902 5.18380923,27.1373988 5.1390757,27.077754 C5.05954941,26.9703935 4.94324221,26.9018021 4.81301791,26.8829146 L4.16388457,26.786489 L1.06335334,22.6053943 L1.41128085,21.767386 C1.44607361,21.678913 1.45601439,21.5824874 1.43911506,21.4940144 L1.35660653,21.0218271 L2.78012712,20.5565983 C2.96104943,20.4979476 3.09027965,20.3448595 3.11711977,20.1589668 L3.1996283,19.6082473 L3.51872754,19.5028749 C3.72947221,19.4332894 3.87063137,19.2304974 3.86069059,19.0058356 L3.79209916,17.6409657 L4.20464179,16.4967812 L4.42532724,16.3327582 L4.39053449,16.5663667 C4.34977727,16.8377501 4.53765813,17.0912402 4.80804751,17.1319974 L5.08937177,17.1747428 C5.22059014,17.1946244 5.35876707,17.1618198 5.46115717,17.0832875 L6.11625498,16.5981772 C6.2226214,16.5186509 6.29121282,16.4023437 6.31109439,16.2721194 L6.39559108,15.7025123 C6.41447857,15.5702999 6.38167398,15.4400756 6.30314177,15.3337092 L6.24349705,15.2541829 L6.83298567,14.0891227 L7.24950462,13.952934 C7.43042693,13.8952774 7.55965715,13.7421893 7.58649727,13.5553025 L7.63222489,13.2491263 L7.96027083,13.09405 L8.2038201,13.4211019 C8.28533454,13.5294565 8.4036299,13.599042 8.53683644,13.6179295 C8.66507258,13.6328406 8.79728503,13.6010301 8.8966929,13.5244861 L10.2049004,12.5542653 C10.3112668,12.474739 10.3808523,12.3594259 10.3997398,12.2282075 L10.4852305,11.6536301 L11.7755446,11.1198099 C11.9186919,11.0591711 12.0270465,10.9339172 12.0658156,10.7848054 L13.0946869,6.79457378 L13.2457869,9.844407 C13.2587099,10.0909385 13.4485789,10.2788194 13.7587315,10.3156003 L19.7033216,10.1237431 L19.9349419,13.7491478 C19.9468709,13.9429932 20.0711307,14.1129806 20.2470826,14.180578 C20.4260168,14.2531457 20.6337792,14.2133826 20.7749384,14.0781879 L22.9688699,11.9826701 L23.5792342,12.0731313 C23.7104526,12.0930128 23.8446532,12.0602083 23.9500255,11.981676 L24.8655719,11.3037144 C24.9381397,11.3723058 25.030589,11.4170394 25.1299968,11.4309565 L25.9898748,11.5591926 C26.0703952,11.5701275 26.143957,11.5621749 26.2125485,11.5393111 L26.8239068,11.3395013 C26.9491607,11.298744 27.053539,11.2082829 27.1111955,11.0929698 L27.3617033,10.5999068 L27.8577486,10.6744627 C28.0207775,10.7003087 28.1887768,10.640664 28.3011076,10.5164042 L28.7017213,10.072051 L29.3965823,10.5591495 C29.4979783,10.6297291 29.6182618,10.6585574 29.7295986,10.6466284 L29.9989939,10.6207824 C30.0039643,10.6675041 30.0158933,10.7152199 30.0357748,10.7589593 C30.10039,10.9130415 30.2355847,11.020402 30.3996076,11.0522125 L30.50498,11.3723058 C30.5377846,11.4717137 30.6023997,11.5611808 30.6908727,11.6248018 L30.9294515,11.791807 L30.5914648,13.0085593 L28.0068604,11.1983421 Z M31.7883355,11.1774664 L31.3976626,10.9040948 L31.2495449,10.451789 C31.2415922,10.4299193 31.2326455,10.4070555 31.2227047,10.3871739 L31.2684323,10.3205707 C31.3787751,10.1625122 31.3867277,9.95276157 31.2903021,9.78575636 C31.1918883,9.61576892 30.999037,9.52133145 30.8121503,9.54121302 L29.8150894,9.6396268 L28.9114719,9.00540464 C28.709674,8.86822179 28.4293438,8.89605599 28.2593563,9.07996054 L27.7414414,9.65254983 L27.1529468,9.56407683 C26.9431962,9.53127223 26.7354338,9.63664457 26.63702,9.8304899 L26.3189149,10.4597417 L26.0147268,10.5581555 L25.5405513,10.4875759 L25.2105172,9.79271491 C25.1180679,9.58793471 24.9122936,9.47560383 24.6886259,9.51139066 C24.4729109,9.5422071 24.2999412,9.71517678 24.2701188,9.92989776 L24.1736932,10.578037 L23.5245599,11.0591711 L22.8823851,10.9657277 C22.729297,10.9378935 22.5712385,10.9866033 22.4579135,11.095952 L20.8594351,12.6228568 L20.6655897,9.58097616 C20.656643,9.44081108 20.5950102,9.31158086 20.4936141,9.22509602 C20.3971885,9.14159341 20.2709405,9.10282435 20.1546333,9.11375921 L14.2150135,9.30661046 L13.8750386,2.47033176 C13.8650979,2.30531471 13.7756308,2.15520884 13.6314894,2.068724 C13.4883421,1.98522139 13.3133842,1.97726876 13.1662606,2.04784835 L12.2308326,2.49021334 C12.0777445,2.56079292 11.9723722,2.70195208 11.9495084,2.86498098 C11.9236623,3.03099211 11.983307,3.19600916 12.1065728,3.30834004 L12.5936713,3.74971095 L12.3540984,4.22289238 C12.3043944,4.32130616 12.2884892,4.42866665 12.3083707,4.53304491 L12.4475417,5.32234334 L11.1651803,10.2957187 L9.84404983,10.843456 C9.68300909,10.9110534 9.56769597,11.058177 9.54383808,11.2291585 L9.44641838,11.8792859 L8.70483572,12.4290114 L8.51794894,12.1755214 C8.37877793,11.9886346 8.12230565,11.9230254 7.90559651,12.0204451 L6.96718629,12.4628101 C6.81608634,12.5353778 6.71170808,12.6755429 6.68884427,12.8385718 L6.64908113,13.1049849 L6.32799373,13.2093631 C6.20273982,13.2501204 6.09836157,13.3405815 6.04070501,13.4558946 L5.21860199,15.078231 C5.13211715,15.2482184 5.15001056,15.4480282 5.26234145,15.6001222 L5.38163088,15.761163 L5.37666049,15.7929735 C5.34385589,15.7442636 5.30210459,15.7005242 5.25140658,15.6647373 L4.72553899,15.2969283 C4.55157523,15.1746566 4.31896083,15.1766447 4.14499707,15.3038868 L3.49288149,15.7860149 C3.4133552,15.8446656 3.35271641,15.9251859 3.31891773,16.0186293 L2.82187842,17.4023868 C2.80199685,17.4620315 2.79205606,17.5236644 2.79404422,17.5932499 L2.84772447,18.6767956 L2.59821073,18.7593041 C2.4182825,18.8179547 2.28905228,18.9710429 2.26221216,19.1579296 L2.17970363,19.7086492 L0.638881763,20.2106589 C0.404279207,20.287203 0.261131886,20.5267759 0.303877266,20.7693311 L0.436089723,21.5238368 L0.0364701164,22.4851108 C-0.0281449942,22.6451574 -0.00627526449,22.8310502 0.0971089125,22.9702212 L3.4879111,27.5439769 C3.56743739,27.6513374 3.68275051,27.7199288 3.81396889,27.7398104 L4.22154113,27.8004492 C4.23844046,27.8551235 4.26428651,27.9078097 4.29907926,27.9545314 C4.33486609,28.0012531 4.37562331,28.0400221 4.42532724,28.0728267 L4.40743383,28.1980806 C4.38755226,28.3273109 4.41936277,28.4585292 4.50087722,28.5698661 C4.53467589,28.6145996 4.57642719,28.6533687 4.62513705,28.6841851 L4.60624955,28.8074508 C4.56648641,29.0718758 4.74442648,29.3203954 5.00487508,29.3691053 L5.11024742,29.6891986 C5.16790398,29.8691268 5.32198616,29.998357 5.50787887,30.0251972 L6.15900037,30.1236109 L6.27729572,30.2806754 C6.32103518,30.3423082 6.38167398,30.3940003 6.45225356,30.4307812 L7.26242764,30.8423298 C7.33201314,30.8781166 7.40955128,30.89601 7.48808349,30.89601 C7.61532555,30.89601 7.73560906,30.8492883 7.82607022,30.7637976 L8.88178172,29.7836361 L9.6034828,30.2906162 C9.77645248,30.4138819 10.010061,30.4118937 10.1850188,30.2836576 L10.6731114,29.921813 L11.6105275,30.060984 C11.8013906,30.0818596 11.9753544,30.010286 12.0886794,29.8542156 L12.4574825,29.3263599 C12.5459555,29.2001119 12.5708075,29.0350948 12.5220976,28.8869771 L12.5201095,28.8790245 L12.7060022,29.0102429 C12.8630666,29.1146211 13.0618823,29.1285382 13.2249112,29.037083 L14.1106353,28.5579371 C14.2617352,28.7418417 14.524172,28.7945278 14.7319344,28.6792147 L15.9944143,27.9952886 C16.1216563,27.9276913 16.2131116,27.8074077 16.243928,27.6662486 C16.2677859,27.5559059 16.2538688,27.4405927 16.2051589,27.3401908 L16.4666016,27.1463455 C16.572968,27.0678132 16.6415595,26.9515061 16.661441,26.8192936 L16.7031923,26.5359812 C16.7359969,26.3162898 16.6196897,26.1085274 16.4298207,26.0160781 L18.4130076,22.6163292 C18.4984983,22.4701996 18.5024746,22.2942477 18.4299069,22.1481181 L19.0174074,21.7117176 C19.1237738,21.6321913 19.1933593,21.5168782 19.2122468,21.3856598 C19.2321284,21.2544415 19.2003178,21.1242172 19.1217856,21.0178507 L19.544269,20.5506338 C19.6108723,20.4760779 19.6536177,20.3856167 19.6655466,20.2911793 L19.8047176,19.3607217 L19.9617821,19.3845796 L20.3236267,19.8726722 C20.403153,19.9790386 20.5194602,20.04763 20.6496845,20.0675116 L21.7849223,20.2365049 C21.9161406,20.2553924 22.0493472,20.2255701 22.1557136,20.1450497 L22.8098173,19.6599393 C22.9171778,19.5814071 22.9857692,19.4641059 23.0056508,19.3348756 L23.1030705,18.6837541 L23.2641113,18.5644647 C23.3704777,18.4859325 23.4390691,18.3696253 23.4589507,18.239401 L23.564323,17.5336052 L23.9042979,17.1588375 L24.3725089,17.3954282 C24.4927924,17.4610374 24.6399161,17.4689901 24.7741167,17.4212743 C24.9023528,17.3735585 25.0067311,17.2731566 25.0614054,17.1449204 L25.3655935,16.4073141 L25.5544684,16.4361424 C25.6846927,16.4540358 25.8129289,16.4202371 25.9222775,16.3417049 C26.0276498,16.2621786 26.0952472,16.1468655 26.1151288,16.0166412 L26.1270577,15.9361208 L26.6151503,15.5742762 C26.7215167,15.495744 26.7901081,15.3794368 26.8099897,15.2492125 L26.8726167,14.8277231 L27.4690638,14.1706372 C27.534673,14.0960813 27.5774184,14.004626 27.5903414,13.9101886 L27.698696,13.1735763 L28.00189,12.7431403 C28.0585525,12.663614 28.0883748,12.5671884 28.090363,12.4697686 L30.5954411,14.2263056 C30.7266595,14.3187549 30.8956529,14.3406246 31.0477469,14.2859503 C31.1978528,14.2332641 31.31416,14.1090043 31.3598876,13.952934 L31.9821808,11.7182452 C32.0378492,11.5164472 31.9603111,11.3007322 31.7883355,11.1774664 Z"/>
</svg>
