<svg xmlns="http://www.w3.org/2000/svg" width="32" height="32" viewBox="0 0 32 32">
  <path fill-rule="evenodd" d="M0.998106477,23.9460113 L1.14324155,8.20481995 L27.5767129,7.99705809 L30.1543517,21.2182671 C30.1682687,21.294811 30.2020673,21.3693667 30.250777,21.4319934 L30.7905602,22.1288406 L30.9476242,23.4887364 L16.2024969,23.9112187 L0.998106477,23.9460113 Z M31.7617723,21.8783335 C31.7518316,21.7868785 31.7160448,21.7003939 31.6603766,21.6288205 L31.1086645,20.9160681 L28.4743634,7.40260073 C28.4306241,7.16998697 28.2248504,7 27.98329,7 L0.64620362,7.21372631 C0.375814984,7.21571446 0.154136066,7.43739338 0.152147914,7.70678794 L5.43062604e-05,24.4380789 C-0.00193384547,24.570291 0.0507521755,24.6995208 0.144195307,24.793958 C0.235650287,24.8874012 0.36488015,24.9410813 0.49709224,24.9410813 L0.499080392,24.9410813 L16.2203902,24.9052945 L31.5162356,24.4669071 C31.6564003,24.4639248 31.7886124,24.4012981 31.8800674,24.2939379 C31.9705283,24.1875717 32.0132735,24.0484011 31.9963742,23.9132068 L31.7617723,21.8783335 Z"/>
</svg>
