<svg xmlns="http://www.w3.org/2000/svg" width="32" height="32" viewBox="0 0 32 32">
  <path fill-rule="evenodd" d="M30.0140393,15.2293303 C29.9825642,15.0477701 30.0563556,14.8607628 30.2095947,14.7478037 L30.2364347,14.7299104 L30.2553221,14.6006806 C30.2821622,14.4157826 30.4143742,14.2587187 30.5933077,14.2020564 L31.309042,13.9684487 C31.4790289,13.919739 31.6559743,13.9545316 31.78421,14.064874 C31.9144339,14.1742223 31.9790487,14.3432151 31.9532028,14.5151901 L31.8965405,14.8998972 L31.9760665,15.1464279 C32.0247762,15.2985214 31.9979362,15.4625439 31.9064812,15.5877974 L31.5436438,16.1057106 L31.4094436,16.9874554 C31.3875739,17.1445193 31.2881664,17.2817017 31.1470077,17.3562574 C31.018772,17.4218663 30.8676725,17.430813 30.7384427,17.3771329 L30.4292792,18.3228097 C30.4502001,18.4832103 30.3966495,18.6406837 30.2887038,18.7528051 L30.2821622,18.7728147 C30.2479744,18.8808725 30.1785435,18.9716836 30.0869941,19.0328144 C30.1236719,19.1193248 30.1368538,19.2159608 30.1219924,19.3139113 L30.1178267,19.3451539 L30.1782291,19.3878522 C30.3136138,19.48158 30.3969274,19.6388346 30.3990103,19.8065033 C30.3990103,19.8387873 30.3969274,19.8689885 30.3917203,19.8991897 L31.0967621,20.0064561 C31.2685965,20.0324916 31.4143954,20.1418407 31.4904191,20.2970124 L31.7611885,20.8750009 C31.8049282,20.9728944 31.8205495,21.0759951 31.8038868,21.1759715 L31.6716263,22.0455577 C31.6518393,22.1830252 31.5799813,22.30383 31.4664665,22.3871437 C31.4570937,22.3933922 31.4487623,22.4006822 31.4383481,22.4069307 C31.3873185,22.6339604 31.1873657,22.8026705 30.9467976,22.8110019 L8.36879763,23.5056295 L8.3521349,23.5056295 C8.20425317,23.5056295 8.0647028,23.4441857 7.96576784,23.3337951 L0.524817218,23.3941975 C0.268627736,23.3941975 0.0530536592,23.2140317 0.0082725708,22.967215 C-0.0365085176,22.7141498 0.104083272,22.4694159 0.343610023,22.3840194 L2.22754,21.6966818 L2.38687736,21.3832142 C2.45665254,21.2457466 2.58266444,21.1478531 2.7315876,21.1124448 L3.31374175,20.9749773 C3.33457016,20.8385512 3.40955245,20.7135807 3.51994304,20.6323499 L3.74697274,20.4657226 L3.79383667,20.1564206 C3.82195503,19.9710478 3.94692551,19.8148347 4.12084276,19.7481837 L5.34971914,19.2732959 L6.7337672,17.9569402 C6.85144773,17.847591 7.01078509,17.7996857 7.16595677,17.8194727 L7.3440397,17.847591 C7.48150723,17.867378 7.60647771,17.9423603 7.6866671,18.0537923 C7.76164939,18.1548101 7.79601627,18.2776978 7.78560206,18.4016268 C7.87203998,18.5026446 7.91786249,18.6369879 7.90744828,18.7754968 C7.95014653,18.8265264 7.98347199,18.8858874 8.00534182,18.9514969 L8.02617024,19.0202307 L8.23237153,19.0514733 C8.36983905,19.0712603 8.49480953,19.147284 8.57499892,19.2576746 L8.64893979,19.3597338 L8.71350787,19.3920179 L9.27587503,18.8713075 C9.46124791,18.7005145 9.73097586,18.6859347 9.93092862,18.8296507 L10.2662661,19.0660532 L10.3662425,18.9921123 C10.476633,18.9087987 10.6265976,18.8765146 10.7557338,18.8963016 L10.9702664,18.9296271 C10.9431895,18.8119466 10.9598522,18.6901003 11.0150475,18.582834 C11.0785742,18.458905 11.1868819,18.3672599 11.3191424,18.3245617 L11.6930124,18.2027155 C11.8377699,18.1475202 12.0148114,18.1745971 12.1533203,18.2724907 L12.2126813,18.3141475 L12.7063147,18.0485852 C12.8677349,17.9621473 13.056232,17.9694372 13.2093209,18.0548337 C13.2166108,17.9486088 13.2561848,17.8455082 13.3238771,17.7621945 C13.2645162,17.6143128 13.2749304,17.4445612 13.358244,17.3018866 L14.6308601,15.1315659 C14.5871204,15.0378381 14.5714991,14.9326546 14.586079,14.829554 C14.6069074,14.6920864 14.6818897,14.5671159 14.7922803,14.4869266 L15.0349313,14.3078022 C15.0224342,14.166169 15.0682567,14.0224529 15.1713574,13.9110209 L15.4910735,13.5569379 L15.5733458,13.0153992 C15.5941742,12.8789731 15.6660322,12.7581683 15.7795471,12.6748546 L15.9794998,12.5269729 C16.0909318,12.4436592 16.2377721,12.4061681 16.3731568,12.4322036 L16.7147428,12.4842746 C16.8522103,12.505103 16.9771808,12.5800853 17.0573702,12.6904759 L17.2239975,12.9175056 L17.4958083,12.958121 L17.5499622,12.918547 L17.5968261,12.6082037 C17.6166131,12.472819 17.6915954,12.3488899 17.801986,12.2666177 L17.8301043,12.2468307 L17.8759268,11.9375288 C17.8905067,11.836511 17.9352878,11.7407003 18.0061044,11.6636351 L18.4351697,11.1949958 C18.5903414,11.0210786 18.8434066,10.9752561 19.0506493,11.0793982 L19.1152174,10.9263093 C19.2006139,10.7159423 19.4088981,10.5930547 19.6338449,10.6065932 C19.6442591,10.5993032 19.6525905,10.5909719 19.6640461,10.5836819 L19.8900344,10.418096 L19.9108628,10.2827113 C19.9233599,10.1837764 19.9681409,10.0890071 20.0379161,10.011942 L20.3607565,9.65473469 L20.4169933,9.28815462 C20.4294903,9.20796523 20.4607329,9.12985868 20.5075969,9.0652906 L20.5825791,8.95698285 L20.5409223,8.82888811 C20.4742714,8.61435545 20.5492537,8.38316006 20.728378,8.24985822 L20.9283308,8.10093506 C21.1084966,7.96971606 21.352189,7.96555038 21.5365205,8.09364512 L22.8955744,9.05071071 L23.0101307,8.70079336 C23.0996929,8.42585831 23.3892078,8.27797658 23.6589358,8.36545591 L24.8492796,8.72370462 C24.9982027,8.76952713 25.1179661,8.87575204 25.1773271,9.01842667 C25.2387709,9.1611013 25.2335638,9.3225215 25.1617058,9.46103045 L25.0679779,9.64327906 L25.5157888,9.70992998 C25.7115759,9.73804834 25.8719547,9.87343303 25.9333985,10.064013 L25.9563097,10.1327468 L26.1604282,10.1650308 C26.333304,10.1910663 26.4791029,10.3004155 26.5540852,10.4555872 L26.825896,11.0335756 C26.8696357,11.1304278 26.885257,11.2345698 26.8685942,11.3345462 L26.7894463,11.8552565 C26.7654936,12.0166767 26.6655172,12.1593514 26.5207597,12.2364165 L25.9750553,12.5311386 L25.8584162,13.2976242 L26.2520732,13.0070678 C26.4228662,12.8831387 26.6498959,12.8727245 26.8311031,12.9810323 C27.0123103,13.0882986 27.1091624,13.2944999 27.075837,13.5059083 L27.05605,13.6392101 L27.2872454,13.9516363 L27.6465355,14.1016009 L27.8381569,14.0391157 C27.9756244,13.9974588 28.1193405,14.0120387 28.2380624,14.0734826 L28.7316958,14.3255064 C28.8556249,14.3879916 28.9472699,14.4962993 28.9910096,14.6285598 L29.0420392,14.7858143 L30.0011876,15.223211 C30.0055083,15.2251999 30.0097924,15.22724 30.0140393,15.2293303 Z M27.9891629,15.1159446 L28.1068434,15.2742406 L28.0683108,15.1555186 L27.9891629,15.1159446 Z M3.205434,22.0705518 L3.07213215,22.3319484 L8.37400474,22.2892501 L8.37817042,22.2892501 C8.52292789,22.2892501 8.659354,22.3486111 8.75724754,22.4517118 L30.487531,21.7831197 C30.5198151,21.6800191 30.5854246,21.5894155 30.6739453,21.5227645 C30.6822767,21.516516 30.6916495,21.5102675 30.7010223,21.504019 L30.7510105,21.1759715 L30.665614,20.9937228 L30.4115073,20.9551903 C30.3927618,21.0926578 30.3209037,21.2186697 30.2042646,21.3040662 C30.0386787,21.4227882 29.831436,21.4384095 29.6564774,21.3488473 L29.4481932,21.2426224 L29.3055186,21.3478059 C29.135767,21.4748592 28.9076959,21.4863148 28.7264887,21.3728 C28.5473643,21.2676165 28.4515536,21.0624566 28.4817548,20.8520896 L28.5067489,20.6750481 L27.9933286,20.3740775 C27.8079557,20.2668112 27.7090207,20.0595685 27.7413048,19.8471187 L27.7423462,19.8398287 L27.2101802,19.7585979 C27.0747955,19.7377695 26.9529493,19.6659115 26.8706771,19.5534381 L26.726961,19.3618167 L25.7407357,19.3534853 C25.5876468,19.3514025 25.4439308,19.2837101 25.3470787,19.1691538 C25.2502265,19.0566804 25.2075283,18.904633 25.2304395,18.7557098 L25.283552,18.4068339 C25.3220846,18.149603 25.5387001,17.9631887 25.7980138,17.9631887 L27.2341329,17.9996384 C27.2424643,17.9996384 27.2497542,18.0006799 27.2580856,18.0006799 C27.2612098,17.9975556 27.2643341,17.9954728 27.2684998,17.9923485 C27.1966418,17.887165 27.1653991,17.7549046 27.1851861,17.6236856 L27.2382986,17.2748097 C27.2684998,17.0738155 27.4132573,16.9082296 27.6069615,16.8519929 C27.7288077,16.8145017 27.8610681,16.8269988 27.9756244,16.8801112 L26.9685706,16.0855073 C26.9092097,16.0365605 26.8633871,15.9824066 26.8321445,15.91888 L26.5093041,15.3231873 L25.8511263,15.084702 C25.6688776,15.0201339 25.5397415,14.8597551 25.5116231,14.6681337 C25.4960018,14.5535775 25.5178716,14.4369384 25.5741084,14.3380034 L25.184617,14.2796838 C25.0471495,14.2588554 24.9263447,14.185956 24.8430311,14.074524 C24.7607588,13.9620505 24.7263919,13.824583 24.7472204,13.6871155 L24.9846643,12.118736 C25.0086169,11.9562743 25.1085933,11.8146411 25.2523094,11.7365346 L25.7990552,11.4418125 L25.8146765,11.3335048 L25.7303215,11.1522976 L25.4824633,11.1148065 C25.2898005,11.0856467 25.1242146,10.9471377 25.0658951,10.7586406 L25.0429838,10.6919897 L24.6639067,10.6347115 C24.5264392,10.6138831 24.4014687,10.5389008 24.3212793,10.4285102 L24.0265573,10.0275633 C23.9213738,9.88593008 23.8963797,9.70472288 23.9546992,9.54226126 L23.8422258,9.50789438 L23.6662257,10.044226 C23.6162375,10.1993977 23.4933499,10.3243682 23.3381782,10.3774806 C23.1746752,10.4285102 23.005965,10.4024747 22.8716218,10.3077054 L21.5573489,9.38188248 L21.4282127,9.56517251 L21.3667689,9.96611947 C21.3532304,10.0650544 21.3084493,10.1598237 21.2397156,10.2368888 L20.9158337,10.5940961 L20.886674,10.7867589 C20.866887,10.9211022 20.7919047,11.0450313 20.6815141,11.1273035 L20.4513601,11.2970551 C20.4232418,11.4189013 20.3513838,11.5261676 20.2524488,11.6001085 C20.1576795,11.6698837 20.052496,11.7063334 19.9191942,11.7000849 L19.7952651,11.9968898 C19.7400698,12.131233 19.6307207,12.2384993 19.4922117,12.2874461 C19.3630755,12.3374343 19.2110281,12.3301444 19.0798091,12.2614106 L18.9371345,12.1895526 L18.8829806,12.2489136 L18.8277853,12.6154936 C18.8069569,12.7508783 18.733016,12.8748074 18.621584,12.9570796 L18.5934657,12.977908 L18.5476432,13.28721 C18.5268148,13.4246775 18.4518325,13.549648 18.3414419,13.6298373 L17.9404949,13.9245594 C17.8311458,14.0068316 17.6801398,14.0411985 17.5478793,14.0193287 L16.856376,13.9141452 C16.7230742,13.8953996 16.601228,13.8225002 16.5210386,13.7173167 L16.4970859,13.8683227 C16.4835474,13.9693405 16.4387663,14.0651512 16.3669083,14.1422163 L16.2023638,14.3234235 C16.2242337,14.396323 16.2283994,14.468181 16.2179852,14.540039 C16.1971567,14.6775065 16.1221744,14.802477 16.0107424,14.8826664 L15.7680914,15.0628322 C15.7774642,15.1669742 15.7535115,15.2763234 15.6993577,15.3710927 L14.5673334,17.2987623 C14.6516885,17.4081115 14.6923039,17.5487033 14.670434,17.6934608 L14.64544,17.867378 C14.6246115,18.005887 14.5527535,18.1266918 14.4413215,18.2100054 L14.395499,18.2433309 C14.3996647,18.2964433 14.3965404,18.3495558 14.3850848,18.4016268 C14.3528007,18.55055 14.2559486,18.6765619 14.1216054,18.7484199 L13.3467884,19.1649882 C13.1864096,19.2545503 12.9937468,19.2472604 12.8396165,19.1576982 L12.4220068,19.3826451 C12.3116163,19.4430475 12.1856044,19.461793 12.0627167,19.4326333 C12.0523025,19.4555445 12.0398055,19.4763729 12.0252256,19.4972014 L11.7981959,19.8179589 C11.6867639,19.9772963 11.4836868,20.0616513 11.291024,20.0314501 L10.8109291,19.9585507 L10.582858,20.1262194 C10.4006093,20.2595213 10.1558755,20.2616041 9.97570971,20.132468 L9.67369772,19.9210596 L9.15298739,20.4032373 C8.99052577,20.5521605 8.75204044,20.5844445 8.56041903,20.4823853 L8.06678564,20.2314029 C7.99701046,20.1959946 7.93556664,20.144965 7.88557845,20.0783141 L7.86370861,20.0481129 L7.55440668,20.0022904 C7.35966101,19.974172 7.19824081,19.8387873 7.13783841,19.6482073 L7.09826443,19.5492724 C7.02744782,19.5128227 6.966004,19.4607516 6.91705723,19.3951421 C6.89102172,19.3597338 6.86915188,19.3212013 6.85248915,19.2816273 L5.99227569,20.0991425 C5.94228749,20.1460064 5.88500936,20.1834976 5.81939986,20.2074502 L4.7779792,20.61048 L4.74361231,20.8354269 C4.72382532,20.971853 4.64780161,21.0968235 4.53741102,21.1770129 L4.31038132,21.3436402 L4.29059433,21.4790249 C4.25726887,21.6904333 4.10313861,21.8591434 3.8958959,21.9080902 L3.205434,22.0705518 Z"/>
</svg>
