<svg xmlns="http://www.w3.org/2000/svg" width="32" height="32" viewBox="0 0 32 32">
  <path fill-rule="evenodd" d="M22.8284048,19.5413836 C22.7657771,19.6238931 22.730984,19.722308 22.7270076,19.821717 L22.0023161,18.7520763 L22.1434768,18.019432 C22.167335,17.8902003 22.1404946,17.7579864 22.0659378,17.6466483 L21.6782428,17.0750466 L21.9386943,15.7181139 C21.9605643,15.6018054 21.9416766,15.4854969 21.8870017,15.387082 C21.9844225,15.3065607 22.0490383,15.1922404 22.0639497,15.0620146 C22.0888019,14.8631966 21.990387,14.6703432 21.8144331,14.5699401 L21.6404674,14.4715252 L22.089796,14.1673337 C22.2090868,14.0858183 22.2876199,13.9575807 22.3035253,13.8154259 C22.3214189,13.673271 22.2746967,13.529128 22.17827,13.4227604 L21.9545998,13.1762261 C22.0629556,13.1036575 22.1414887,12.9893372 22.1663409,12.855135 L22.2478563,12.4356291 L22.7846648,12.0717922 C22.8701566,12.1682189 23.0043587,12.2308466 23.184289,12.2527166 C23.2021826,12.2517225 23.2200762,12.2497343 23.2379698,12.2477461 C23.2091412,12.2954624 23.1892594,12.3491433 23.1793185,12.4048123 L22.9387488,13.651401 C22.9069379,13.8223845 22.963601,13.993368 23.0898504,14.1086824 C23.2160998,14.2269791 23.4000065,14.2737013 23.5620431,14.2220086 L23.5948481,14.2140559 L23.4775455,14.4655607 L23.3910597,14.5232179 L22.963601,14.4407084 C22.8333752,14.4228148 22.7041435,14.447667 22.5977759,14.5182474 C22.4894201,14.5918101 22.4138693,14.7081186 22.388023,14.8373503 L22.2687322,15.4606446 C22.2359272,15.6296399 22.2925903,15.8006234 22.4198338,15.9189201 C22.5490655,16.0382109 22.7299899,16.0779745 22.8900384,16.0322463 L23.7320325,15.7956529 L23.4874864,16.1157499 C23.3831069,16.2539284 23.3572606,16.4328646 23.4188942,16.592913 C23.4487169,16.6694579 23.4964332,16.7380502 23.5560786,16.7897428 L23.3473197,17.0024781 C23.2558634,17.0979107 23.2051648,17.2221719 23.2061589,17.3543859 C23.207153,17.4865998 23.261828,17.6148374 23.3542783,17.7033114 L23.7638434,18.107906 L23.460646,18.0999533 C23.2896625,18.1069119 23.1693776,18.1655632 23.0719568,18.2908186 C22.974536,18.4150798 22.9427251,18.5800987 22.985471,18.7312004 L23.1097322,19.1745645 L22.8284048,19.5413836 Z M3.4028942,10.3579812 C3.25079844,10.3271644 3.09870269,10.3718985 2.98438235,10.4732957 L1.06777704,12.1523135 L1.00415529,9.18296697 L5.07892976,9.15314427 C5.06700068,9.18097879 5.05904796,9.21080149 5.05208933,9.24360646 L4.91192265,9.97525662 L4.13752663,10.499142 L3.4028942,10.3579812 Z M6.33943574,9.95239255 L5.999457,9.14618565 L7.76098428,9.13226839 C7.72122069,9.16805562 7.68642754,9.21080149 7.65958712,9.25951189 L7.2679157,9.95438073 L6.89712017,10.0597543 L6.33943574,9.95239255 Z M23.6843162,11.682109 C23.6992275,11.6791267 23.715133,11.6751503 23.7300443,11.6701799 L23.8046011,11.6502981 L23.6624462,11.7944411 L23.6843162,11.682109 Z M24.8712595,11.163194 L24.7450101,11.1701527 C24.7807973,11.0727319 24.7847737,10.9683524 24.7569392,10.8659612 L24.6485834,10.4792602 L24.8921354,10.2565841 L24.899094,10.3132472 C24.9080408,10.3738867 24.9269285,10.432538 24.9567512,10.4862188 C24.8364664,10.5836396 24.7698623,10.7327531 24.7758269,10.8908134 C24.7798032,10.9912165 24.8145964,11.085655 24.8712595,11.163194 Z M25.6893955,8.99906034 L25.9110775,8.99806625 L25.9309593,9.28933459 C25.905113,9.30026958 25.8802607,9.31418684 25.8564026,9.33108637 L25.7798577,9.38277904 L25.7530172,9.18495515 C25.7440704,9.11835113 25.7222005,9.05472938 25.6893955,8.99906034 Z M24.7927264,20.076204 C24.7460042,20.0195409 24.6873529,19.9748068 24.6197548,19.942996 L23.9954663,19.6527217 L24.0501413,19.5821413 C24.1445798,19.4588742 24.1753966,19.2958434 24.1336448,19.1457359 L24.1237039,19.1089545 L25.3623399,19.1407654 C25.5353116,19.1636295 25.6764723,19.092055 25.7848281,18.9499002 C25.8812548,18.8256389 25.9140598,18.66062 25.8713139,18.5105124 L25.6794546,17.8265786 C25.6436674,17.698341 25.5581756,17.5919734 25.440873,17.5273575 C25.3255586,17.4627417 25.1923505,17.4478303 25.0670952,17.4826235 L24.6615065,17.5959497 L24.4060254,17.344445 L24.8613186,16.8831873 C24.9885621,16.7519674 25.0342902,16.5620962 24.9806094,16.3881305 C24.9408458,16.2628752 24.8563482,16.1604839 24.7460042,16.0998444 C24.81062,15.9855241 24.8285136,15.8473456 24.7927264,15.719108 L24.6008671,15.0361683 C24.5720384,14.9317888 24.5123931,14.8423207 24.4288895,14.778699 L24.8722536,13.8223845 C24.9378635,13.6822178 24.9348813,13.5241575 24.8643009,13.385979 C24.7947146,13.2497887 24.6674711,13.1543561 24.5163694,13.1255275 L24.2002488,13.0638939 C24.1545207,13.0559412 24.1097867,13.0549471 24.0660467,13.0579294 L24.1266862,12.7398206 L24.6893411,12.169213 L25.805704,12.1075794 C25.894178,12.1036031 25.9806638,12.0727863 26.0552206,12.0240759 L26.1168541,11.9823241 L26.62384,19.3505184 C26.4429156,19.2849085 26.2411154,19.3296425 26.1049251,19.4698092 L25.4885893,20.0960858 L25.1386697,20.0284877 C25.1008943,20.0195409 25.0631189,20.0155645 25.0243494,20.0155645 C24.9438281,20.0155645 24.8643009,20.0354463 24.7927264,20.076204 Z M29.9938047,20.9172041 C29.9132834,21.0215835 29.8784903,21.1518093 29.8953898,21.2860114 L29.9709407,21.8516486 L29.7015423,21.9271994 C29.5196238,21.9798862 29.3854217,22.1280055 29.3496345,22.3129063 L29.2392905,22.884508 L27.265028,23.08432 L27.2868979,23.0455505 C27.3515138,22.9312302 27.3684133,22.7930517 27.3326261,22.6687904 L27.1407667,21.9858507 C27.1049795,21.8536367 27.0174996,21.746275 26.9021852,21.6826533 C26.9757478,21.5544157 26.9896651,21.4003317 26.9359842,21.2601651 C26.8972147,21.1577738 26.8246461,21.071288 26.7351781,21.0146249 L26.9170965,20.0692454 C26.9916532,20.1080149 27.0721745,20.1259085 27.1686012,20.1239203 L30.737384,19.9280846 L30.9869005,20.5195681 L30.9630424,20.6418412 L30.3228485,20.7263388 C30.1906345,20.7442324 30.0733319,20.8118305 29.9938047,20.9172041 Z M20.6185429,20.7999015 L19.9793431,20.8853932 L19.4425346,19.7819534 C19.3570429,19.6050054 19.1791008,19.4996319 18.9971823,19.4996319 C18.9484719,19.4996319 18.8997615,19.5075846 18.8520452,19.5224959 C18.7973703,19.5393955 18.7476658,19.5632536 18.7039258,19.5960586 L18.5796646,19.3157252 C18.5210133,19.1765527 18.4047048,19.0711791 18.2695085,19.0334037 C18.1273537,18.9866815 17.9712816,19.0095456 17.8420499,19.0960314 L17.766499,19.1477241 L17.5130061,18.9518883 L17.7197768,18.7421354 C17.7893631,18.671555 17.8360853,18.583081 17.853979,18.4856602 L17.9513998,17.9806625 L18.3132485,17.5084698 C18.3589766,17.4478303 18.3907875,17.3752618 18.4047048,17.300705 L18.5021256,16.7937192 L18.8629802,16.3225206 C18.9912178,16.1535253 18.9981764,15.9199142 18.8788856,15.7419721 L18.1243714,14.6285914 C18.0349033,14.4953834 17.8857898,14.413868 17.6909482,14.4118798 C17.6303087,14.4188384 17.4434198,14.4407084 17.3181645,14.6047332 L17.0736184,14.9238361 L16.7425865,14.8602143 L16.6342307,14.4735134 C16.582538,14.2906008 16.4354127,14.1554046 16.2495179,14.1206115 L15.2057235,13.9198053 L14.990006,13.5997084 L15.3299847,12.9943076 C15.4035474,12.86607 15.4144824,12.7129802 15.3627897,12.5738076 C15.3101029,12.4376173 15.1997589,12.3302556 15.0595923,12.2805511 L13.3467754,11.6900617 L13.3845508,11.4892555 C13.420338,11.3043548 13.3487636,11.1164718 13.198656,11.0021515 L12.767221,10.6721136 L12.6210898,10.1492223 C12.612143,10.1164174 12.5992198,10.0846065 12.5843084,10.0557779 L12.656877,9.96034527 C12.7731855,9.80725542 12.790085,9.59849655 12.701611,9.42751309 C12.6171134,9.26547643 12.4491122,9.16606744 12.2343888,9.16308517 L11.1120613,9.22471875 L10.9599656,9.10841023 L24.7917323,9.00502488 L23.7529084,9.95040437 C23.7121507,9.98817978 23.6773575,10.0309256 23.6515112,10.0766538 C23.5709899,10.0319197 23.4765514,10.0110439 23.3831069,10.0120379 C23.151484,10.0219788 22.9586306,10.1879919 22.9148906,10.4156384 L22.8830797,10.5826455 C22.8681684,10.5856278 22.8522629,10.5896042 22.8373516,10.5945746 L22.1554059,10.7854399 C22.0023161,10.8281857 21.8780548,10.9435002 21.8223858,11.0946018 C21.7736754,11.2278099 21.7856045,11.3759293 21.8532026,11.5021787 L21.5201825,11.7278371 C21.4545725,11.7715771 21.4008917,11.8292343 21.3631163,11.8978265 C21.3392581,11.8998146 21.3154,11.9047851 21.2915418,11.9127378 L20.6095961,12.1055913 C20.442589,12.1513194 20.3143514,12.2785629 20.2666351,12.44557 C20.2189188,12.611583 20.2596765,12.7875369 20.375985,12.9167686 L21.0569366,13.6673065 L20.4167427,14.0997356 C20.2735938,14.1981505 20.1920784,14.359193 20.199037,14.5341529 C20.2069897,14.7051363 20.3044105,14.8622025 20.4525299,14.944712 L20.4565063,14.9467002 C20.4296659,14.9944165 20.4097841,15.0461092 20.3998432,15.1007841 C20.3640559,15.2866789 20.4356304,15.4735678 20.585738,15.5878881 L20.9048408,15.8334283 L20.663277,17.089958 C20.652342,17.145627 20.6513479,17.201296 20.6593006,17.255971 C20.5708266,17.2032842 20.4624708,17.178432 20.3570973,17.1913551 C20.1374034,17.2142192 19.9624436,17.3752618 19.9206918,17.5929675 L19.6801221,18.8385621 C19.6622285,18.9349888 19.6731635,19.036386 19.7109389,19.12486 L20.154303,20.1785953 C20.1811434,20.2442052 20.2228952,20.3038506 20.2805524,20.3575314 L20.7795855,20.8048719 C20.7378337,20.7969192 20.6622829,20.7969192 20.6185429,20.7999015 Z M31.9611086,20.2730338 L31.5177445,19.2202926 C31.4392114,19.0304214 31.2215057,18.8952252 31.0316346,18.9141129 L27.6040126,19.1039841 L26.8703743,8.46125771 C26.8524807,8.20279434 26.634775,8 26.3703471,8 L0.491204903,8.19285344 C0.356008678,8.19484162 0.230753352,8.24951656 0.141285261,8.34296101 C0.0478408114,8.43739955 -0.00285777306,8.56762533 0.000124496612,8.69983928 L0.0955571263,13.2398478 C0.0995334858,13.4327013 0.216836093,13.6076611 0.390801824,13.6832119 C0.566755735,13.7637332 0.774520523,13.7319223 0.920651737,13.6026906 L3.45657505,11.3799056 L4.15144389,11.5131137 C4.28266375,11.53896 4.42084225,11.5091373 4.52522169,11.4375628 L5.60082695,10.7079009 C5.67339551,10.7953808 5.77479268,10.8570143 5.88911302,10.8778902 L6.82156934,11.0578205 C6.89811426,11.0727319 6.97664736,11.0687555 7.05319228,11.0478796 L7.73513795,10.8570143 C7.86238145,10.8212271 7.97173134,10.7347413 8.034359,10.620421 L8.35047959,10.0587602 L8.93599854,10.1720864 C9.09902928,10.2038973 9.26603638,10.1502164 9.38135081,10.0339079 L9.87640757,9.53089843 L10.6508036,10.123376 C10.7402717,10.1939564 10.8575743,10.2198027 10.9828296,10.2287495 L11.3327493,10.2088677 C11.3317552,10.2724895 11.3416961,10.3371053 11.3655542,10.399733 C11.4261937,10.5587874 11.5683486,10.6790723 11.7383379,10.7118772 L11.8546465,11.0995723 C11.8844692,11.2029576 11.9470968,11.2964021 12.0315945,11.3600238 L12.3506973,11.6045699 L12.2880697,11.9266551 C12.2423415,12.1682189 12.3825082,12.4107769 12.6151252,12.48931 L14.1728641,13.0261185 L13.973052,13.3820027 C13.8806017,13.5470216 13.8885544,13.7468337 13.994922,13.904894 L14.4979315,14.6474791 C14.5724882,14.756829 14.6887967,14.8333739 14.8150462,14.8552439 L15.7604256,15.0381564 L15.8687814,15.4238633 C15.9204741,15.6077699 16.0675994,15.7429662 16.2534942,15.7777593 L17.1899269,15.9586837 C17.3778099,15.9934768 17.5627106,15.9199142 17.677031,15.7727889 L17.68896,15.7568834 L17.854973,16.0034177 L17.6402496,16.2837511 C17.5945215,16.3443906 17.5627106,16.415965 17.5477993,16.4915159 L17.4503785,16.9975076 L17.0895238,17.4697003 C17.0437957,17.5313339 17.0119848,17.6029084 16.9970735,17.6774651 L16.9056172,18.1526401 L16.2087602,18.8584439 C16.1391739,18.9300184 16.0934458,19.0184924 16.0745581,19.1149191 L15.8946278,20.0493636 C15.8697755,20.1795894 15.8976101,20.3118033 15.9731609,20.4221473 C16.0477176,20.5314972 16.1600498,20.6060539 16.2892815,20.6299121 L16.9085995,20.750197 C17.0398193,20.7770374 17.1770037,20.7492029 17.2843655,20.6746461 C17.3947094,20.6000894 17.4692662,20.4877572 17.4951125,20.3555433 L17.5249352,20.2014593 C17.6372674,20.2591165 17.765505,20.2710456 17.887778,20.2352584 L18.1054837,20.7531792 C18.1382887,20.8327064 18.1919695,20.9022927 18.2605617,20.9559736 L18.8252048,21.3884027 C18.9256079,21.4659417 19.0468868,21.5086875 19.1681658,21.4888057 L19.2427225,21.6409015 C19.3341788,21.8327608 19.5379672,21.934158 19.7556729,21.9182526 L20.5091931,21.8168554 L21.150381,22.4490966 C21.2776245,22.575346 21.4575548,22.619086 21.6335087,22.5743519 L21.8939603,22.5007893 L22.167335,23.150924 C22.2359272,23.3119666 22.3870289,23.427281 22.565965,23.4511392 C22.7359544,23.4759914 22.9129024,23.3974583 23.0202641,23.2602739 L23.4516991,22.696625 C23.5809308,22.5276297 23.5878895,22.2950126 23.4685987,22.1150824 L22.7389367,21.0404712 C22.8264166,20.9679026 22.8880502,20.8655114 22.9099202,20.751191 L22.9695655,20.4390468 C22.9805005,20.3833778 22.9814946,20.3267147 22.9735419,20.2720397 C22.9864651,20.2799924 23.0003823,20.2869511 23.0142996,20.2939097 L24.0272772,20.7631201 L24.3950904,21.6389133 C24.4775999,21.8397195 24.6784061,21.9550339 24.9050586,21.9431048 C25.1247524,21.9202408 25.2997123,21.7582041 25.341464,21.5414925 L25.4269558,21.0951461 L25.5631461,21.1209925 C25.6098683,21.1319275 25.6575846,21.1349097 25.7013246,21.1279511 L25.6715019,21.2830291 C25.6496319,21.3943672 25.6675255,21.5076935 25.71723,21.602132 L25.6436674,21.6985587 C25.5392879,21.8377313 25.5134416,22.0156734 25.5750752,22.1757219 C25.6367087,22.3377585 25.7798577,22.4570493 25.9458707,22.486872 L26.2669617,22.5485056 L26.3206426,22.7383767 L25.9299652,23.4332456 C25.838509,23.5952822 25.8454676,23.7931061 25.9468648,23.9491782 C26.038321,24.0893449 26.1943932,24.1738425 26.3633884,24.1738425 L29.709495,23.835852 C29.9291889,23.8119938 30.1041487,23.6519454 30.1459005,23.4342397 L30.2671794,22.8019985 L30.6558686,22.6936427 C30.8954443,22.6260446 31.0455518,22.3964098 31.013741,22.1488814 L30.9471369,21.646866 L31.4491523,21.5822502 C31.6608935,21.5524275 31.8308828,21.3913849 31.8716405,21.181632 L31.9909313,20.5593317 C32.009819,20.4638991 31.998884,20.3615078 31.9611086,20.2730338 Z"/>
</svg>
