<svg xmlns="http://www.w3.org/2000/svg" width="32" height="32" viewBox="0 0 32 32">
  <path fill-rule="evenodd" d="M31.7446291,23.9149717 L31.9822143,24.7828039 C32.0388769,24.9905667 31.9573623,25.2082703 31.7774338,25.3275599 L31.3062397,25.6426834 C31.2257192,25.6973578 31.1292934,25.7271802 31.0298853,25.7271802 C31.0139801,25.7271802 30.9473767,25.7202217 30.9314714,25.7172394 L30.1451538,25.5611688 C30.0179115,25.5353227 29.9016041,25.4587785 29.8290363,25.3504238 L29.5119246,24.8772415 C29.4005876,24.7092419 29.4005876,24.4935265 29.5119246,24.3255269 C29.6242557,24.1545451 29.8290363,24.0710423 30.0258642,24.1147819 L30.5109754,24.2102136 L30.8728206,23.7429958 C30.989128,23.5928897 31.1760152,23.5242981 31.35992,23.559091 C31.5468071,23.5958719 31.693931,23.7320609 31.7446291,23.9149717 Z M26.9663831,20.8627474 C27.0329865,20.7951499 27.1174833,20.7484282 27.2099328,20.7285465 L27.8212922,20.5903694 L26.272515,20.2822045 C26.1929885,20.2662992 26.1194266,20.2325004 26.0587877,20.1837905 L26.2198287,20.7693038 C26.2407044,20.8468421 26.2426926,20.9253745 26.2277814,20.9989364 L26.0896042,21.6928045 L26.1293674,21.7007571 L26.9663831,20.8627474 Z M23.3171141,20.7335169 L23.5069834,20.7702979 L24.1093961,20.3667013 L24.2257035,19.7801939 C24.2515496,19.6499694 24.3270997,19.5376383 24.4374426,19.4630823 C24.5507678,19.3895203 24.6859627,19.3626801 24.8122109,19.3895203 L25.5995226,19.5455909 C25.679049,19.5624903 25.7516169,19.596289 25.8132499,19.644999 L25.6522088,19.0594856 C25.6313331,18.9819474 25.629345,18.903415 25.6442562,18.8298531 L25.7217945,18.4371913 L25.6303391,18.4620433 C25.4981264,18.4958421 25.3669078,18.4789427 25.2535826,18.4153216 L24.1471712,17.7850746 C24.0328519,17.7194653 23.9493492,17.6130987 23.9145564,17.4848623 C23.8797636,17.356626 23.8966629,17.2224251 23.9632663,17.1071118 L24.4384367,16.2700961 L23.5725927,14.9718272 L22.6083348,15.3704534 C22.4164773,15.4440154 22.2077204,15.402264 22.066561,15.2620987 L21.0406701,14.23919 C20.9223745,14.1208944 20.8716764,13.9528948 20.904481,13.7888716 L21.0615457,13.0015599 C21.0863978,12.8733236 21.163936,12.7570162 21.2732849,12.6844483 L21.5734971,12.4836441 L21.6112722,12.2917866 C21.6480532,12.1068876 21.7842422,11.9597637 21.9661589,11.9090656 L22.1838625,11.8494208 C22.1520519,11.764924 22.1440993,11.6724745 22.1629868,11.5820132 L22.3190574,10.7917193 C22.363791,10.5670571 22.5546544,10.4030339 22.7822988,10.392099 L23.4672202,10.3583003 L22.7683817,9.66343809 C22.6500862,9.54315437 22.5993881,9.37515479 22.6331868,9.21311969 L22.6918375,8.91191334 L22.3916253,8.85226852 C22.2236257,8.81946387 22.0824663,8.69918014 22.0218274,8.53813913 C21.9621825,8.37610403 21.9890227,8.19716956 22.0963834,8.05998647 L22.1013538,8.05402199 L21.6738992,8.17132347 L21.2245749,8.75087232 C21.1072734,8.9039607 20.91641,8.97255224 20.7295229,8.93278903 L20.6420438,8.91489558 L19.7274899,10.0938749 C19.6360345,10.2131645 19.4958692,10.2837442 19.344769,10.2857324 L2.84800544,10.6187493 L1.13719315,17.4331702 L6.24676618,17.3556319 C6.39587823,17.3735253 6.55592517,17.4122945 6.66626809,17.5743296 L6.82134463,17.8059503 L15.2839507,17.1081059 C15.4370391,17.0981651 15.5931097,17.1578099 15.6945059,17.2711351 C15.7312869,17.3108983 15.7601152,17.356626 15.7809909,17.40633 L18.5544751,16.9500471 C18.6886759,16.9281773 18.8288413,16.960982 18.9352079,17.0434907 C19.0395863,17.1210289 19.1121542,17.2433008 19.1290535,17.3775017 L19.2443669,18.2841029 L19.6827563,18.371582 C19.8099986,18.396434 19.9253119,18.4729782 19.9978798,18.581333 C20.0724358,18.6916759 20.099276,18.8228945 20.0724358,18.9551072 L19.9074184,19.7881465 L20.2692637,19.9939212 L20.6529787,19.3199347 C20.7633216,19.1310594 20.9681022,19.0356277 21.1818295,19.0793672 L21.5764794,19.1569055 C21.7037217,19.1827516 21.819035,19.2592958 21.8925969,19.3676505 C21.9651648,19.4760053 21.992005,19.6112002 21.967153,19.7404307 L21.8100883,20.5307246 C21.7931889,20.610251 21.7613783,20.6808307 21.7136625,20.7404755 L21.2762671,21.303125 L21.3309415,22.4065542 L21.8418988,21.8946028 C21.9403128,21.798177 22.07849,21.7464848 22.2256138,21.7504612 C22.3468916,21.761396 22.450276,21.8081178 22.5298024,21.8816798 L22.5964058,21.7971829 L22.7286185,21.1231964 C22.7544646,20.9919778 22.8329969,20.8736823 22.9433399,20.8021085 C23.0536828,20.7285465 23.1839073,20.7046886 23.3171141,20.7335169 Z M26.5031416,22.6918553 L27.5161095,23.7008468 C27.6542867,23.8400181 27.6980262,24.0477809 27.6284406,24.2306916 C27.558855,24.4145965 27.385885,24.5388566 27.1900511,24.5487974 L25.6691082,24.6233534 L24.838057,25.1800384 C24.7555484,25.2357069 24.6611107,25.2635411 24.5626968,25.2635411 C24.4642828,25.2635411 24.3698452,25.2357069 24.2883306,25.1810325 C24.1193369,25.0687014 24.0368283,24.8678972 24.0755974,24.6710692 L24.231668,23.8817694 C24.268449,23.6958764 24.404638,23.5497466 24.5865547,23.4980544 L25.2943399,23.3042088 L25.7456524,22.7246599 C25.765534,22.6978197 25.7883978,22.6729677 25.8142439,22.651098 L25.4086591,22.5705774 C25.2784346,22.5457254 25.1661035,22.4701753 25.0915475,22.3588383 C25.0179856,22.2494895 24.9921395,22.1162827 25.0179856,21.9860582 L25.2297247,20.9184159 L25.1034765,20.4611389 L25.0438317,20.7623453 C25.0189796,20.8915757 24.9434295,21.0049009 24.8330866,21.0784628 L23.8867221,21.711692 C23.8032194,21.7673605 23.6988409,21.7802836 23.6083796,21.7961888 L23.5477407,22.1053478 C23.5308414,22.1848743 23.4990308,22.255454 23.4513149,22.3150988 L22.9005944,23.0238781 C22.79721,23.1630493 22.6431276,23.2356172 22.4681695,23.2137474 C22.3429153,23.2097711 22.2077204,23.1401855 22.1172591,23.0258663 L21.5208109,23.6243026 C21.4194147,23.727687 21.2822316,23.7803732 21.1251669,23.7684443 C20.9730726,23.7535331 20.8398658,23.6740066 20.7563631,23.5507407 L20.7126235,23.4851314 C20.6947301,23.5010367 20.6758426,23.5169419 20.6549669,23.529865 L20.1827787,23.8459825 C20.0406252,23.9404202 19.8547322,23.9553314 19.7006497,23.8847517 C19.542591,23.8121838 19.4352303,23.666054 19.4133605,23.4940781 L19.2543077,22.2335842 C19.2393964,22.0983893 19.2751833,21.9681648 19.3566979,21.8647804 L19.9064244,21.1560011 C19.9491698,21.0983444 20.0038442,21.0536108 20.0654772,21.0208062 L19.1042015,20.474062 C18.9173144,20.3667013 18.8208886,20.1539681 18.8636341,19.9442171 L19.0008172,19.2503491 L18.6996108,19.1897102 C18.4898599,19.1479588 18.330807,18.976977 18.3029728,18.7652378 L18.2085351,18.0137131 L15.3276902,18.4878894 C15.1646611,18.5157237 15.0046141,18.4620433 14.8902949,18.3437478 C14.8356205,18.2870852 14.7958573,18.2194877 14.7719993,18.1469199 L6.61159367,18.8209063 C6.42967697,18.8378057 6.25770107,18.7493326 6.15829303,18.6032027 L5.99128753,18.3536886 L0.534780449,18.4371913 C0.364792708,18.4719841 0.202757609,18.3676057 0.108319975,18.2503042 C0.00990601998,18.1250501 -0.0228986318,17.9679854 0.0158705021,17.8178793 L1.97619697,10.008384 C2.02987731,9.79167446 2.22372298,9.637592 2.44739106,9.6326216 L19.0882962,9.29662244 L20.0446015,8.06296871 C20.1609089,7.91584482 20.3497842,7.8462592 20.5297128,7.88005793 L20.6271326,7.89894546 L20.989972,7.43073361 C21.0565753,7.3452427 21.1460426,7.28559787 21.2484329,7.25676954 L22.1182532,7.01819026 C22.1918151,6.99830865 22.2673652,6.99333825 22.3478857,7.01023762 L23.1361915,7.16730231 C23.303197,7.19911288 23.4443564,7.32039069 23.5049953,7.48043762 C23.5646401,7.6434668 23.5377999,7.82240127 23.4304392,7.95958436 L23.3737767,8.03414038 C23.5040012,8.05998647 23.6163323,8.13553658 23.6898942,8.2458795 C23.7634562,8.3572165 23.7902963,8.48843511 23.7634562,8.61865963 L23.6600718,9.1465163 L24.2942951,9.77875141 L24.8817966,9.61671631 C25.0895594,9.56005373 25.308257,9.64156832 25.4275467,9.82050279 C25.5468363,9.99943725 25.5378896,10.2330461 25.406671,10.4020398 L24.8549564,11.1118132 C24.7654892,11.2271265 24.6312883,11.2967121 24.4871467,11.3026766 L23.2187001,11.3653037 L23.1789369,11.5710783 L23.3807352,11.8732787 C23.4692084,12.0054914 23.48909,12.1744851 23.4324274,12.3245912 C23.3767589,12.4727092 23.2524989,12.5870284 23.0994105,12.6287798 L22.5268202,12.7858445 L22.5089267,12.878294 C22.4830807,13.0075244 22.4055424,13.1238318 22.2961935,13.1963997 L21.9969754,13.3972039 L21.9323601,13.7232623 L22.5347728,14.3246809 L23.5686164,13.8982204 C23.7932786,13.8087532 24.0427927,13.8872855 24.1730173,14.0801371 L25.4364934,15.971872 C25.5408718,16.1299308 25.5478304,16.329741 25.4543868,16.4947583 L25.0716659,17.1667566 L25.5667179,17.4490754 L26.2347399,17.2651706 C26.4037336,17.221431 26.5767036,17.2641765 26.7039459,17.3804839 C26.8311881,17.4987795 26.8868566,17.6707554 26.854052,17.8407431 L26.6423129,18.9093795 L26.767567,19.3666565 L28.6314677,19.7374484 L29.4058563,19.2185385 C29.4714656,19.175793 29.5430394,19.1489529 29.6195835,19.1390121 L30.5172381,19.0256869 L30.5470605,18.8596755 L29.4655011,16.6140479 C29.3839865,16.4430661 29.4048622,16.243256 29.5211696,16.0931498 C29.6384711,15.9430437 29.8253582,15.872464 30.0112512,15.9112331 L30.404907,15.9897655 C30.5669421,16.0215761 30.7031311,16.131919 30.7667523,16.2860014 L31.876146,18.9660421 C31.9129269,19.0594856 31.9218736,19.1588937 31.9029861,19.2543254 L31.6683832,20.437281 C31.6286199,20.6301326 31.480502,20.7822269 31.2896385,20.8249723 L27.5687958,21.6669584 L26.6452951,22.5914531 C26.6035437,22.6341986 26.5558279,22.6679973 26.5031416,22.6918553 Z"/>
</svg>
