<svg xmlns="http://www.w3.org/2000/svg" width="32" height="32" viewBox="0 0 32 32">
  <path fill-rule="evenodd" d="M22.5717233,19.5398461 L21.499166,20.734669 L21.0120917,20.8966957 L20.3649788,20.3171768 C20.1840656,20.152168 19.9136897,20.1432217 19.720848,20.2982902 C19.5290004,20.4503767 19.4783049,20.7177705 19.5995765,20.9314867 L19.8103106,21.3002715 L19.51409,21.7436085 C19.481287,21.7008652 19.4415259,21.6640861 19.3977886,21.6332712 L18.7138966,21.1760179 C18.5946131,21.0994776 18.4504789,21.075621 18.3232432,21.1084239 C18.1890493,21.1412269 18.0737419,21.2287014 18.007142,21.3469909 L17.6731482,21.9404262 L17.5687752,21.9125934 L17.2387575,20.7287048 C17.1920382,20.5617079 17.0588383,20.4295021 16.8948235,20.3837767 C16.7248445,20.3360634 16.5419432,20.3807947 16.4157015,20.5030602 L15.3232636,21.5477847 C15.2417532,21.626313 15.1890697,21.7306861 15.1741592,21.8430114 L14.9564669,23.5646696 L14.5469269,24.2903108 L14.3849002,24.3827555 L14.0379841,23.9831559 C13.9276468,23.8589022 13.7715843,23.7982665 13.6214859,23.816159 C13.4634353,23.8290814 13.3202951,23.9175499 13.2387847,24.0527379 L12.8540955,24.6859344 L12.7556866,24.3340481 C12.6960449,24.1203319 12.4992271,23.9712275 12.2775586,23.9712275 C12.0539021,23.9712275 11.8570844,24.1213259 11.7984367,24.3360362 L11.7288546,24.5885195 L11.3630519,24.0845468 C11.2129536,23.8758007 10.9316433,23.816159 10.7099749,23.9463768 C10.4883064,24.0746065 10.4008318,24.3469705 10.5071929,24.5805673 L10.7666345,25.1501459 L10.4942706,25.0745997 C10.3481483,25.0378207 10.1950678,25.0676415 10.0747903,25.153128 L8.73285112,26.1292645 C8.57678857,26.2425839 8.50024833,26.4384076 8.53802143,26.6282671 L8.65233477,27.2008278 L8.40382751,27.2147442 C8.14239788,27.2306487 7.94160401,27.4384008 7.93563984,27.6998304 L7.91874135,28.4374 L7.0201391,28.7932623 C6.83425567,28.8668205 6.71099607,29.0437577 6.70602593,29.2435575 L6.68515132,30.2008075 L6.43366197,30.69981 L6.28455762,30.5646221 L6.40881125,30.1113448 C6.4585127,29.9284435 6.40185305,29.7365959 6.26169495,29.6093602 L5.55593434,28.9761637 L5.00424823,15.8341059 L5.07084817,15.7774462 L5.31637334,16.2068668 C5.41677028,16.3818159 5.60662982,16.4742606 5.80941174,16.453386 C6.00921158,16.4275412 6.17322637,16.2863891 6.22690394,16.0915594 L6.36905009,15.5716822 C6.42471571,15.5895747 6.48435746,15.600509 6.54598726,15.5935508 C6.67918715,15.5865926 6.80145272,15.528939 6.89091533,15.4295361 L7.27759262,14.9991215 C7.4207328,14.8390828 7.44558353,14.60648 7.34021645,14.4205966 L7.16526734,14.1134416 L8.37201858,12.9096725 C8.43464241,12.8500307 8.47937372,12.7724965 8.50422445,12.68701 L8.67817953,12.0508314 L9.37300582,11.2754887 C9.48930722,11.147259 9.52906838,10.9703218 9.48036095,10.8033249 C9.43165353,10.6373221 9.30342379,10.5110804 9.13443885,10.463367 L9.1155523,10.4583969 L9.20402088,10.1373255 L9.34219092,10.0578032 C9.48135498,9.97927488 9.57479371,9.83712873 9.59069818,9.67907811 C9.6085907,9.5210275 9.54795493,9.36297688 9.42966547,9.25661577 L9.28056112,9.12242185 L9.65829215,8.36894785 L10.2895006,7.82123785 C10.3819453,7.7407215 10.441587,7.63038428 10.4564975,7.50811871 L10.6702137,5.82025741 L14.2546824,1.01313302 L14.8292312,1.05388821 L14.8153148,1.64831757 C14.8113386,1.81829654 14.8938431,1.97734118 15.0359892,2.073762 L15.7188872,2.53002132 C15.8252483,2.59960335 15.9514899,2.62644214 16.090654,2.60258544 L18.3649924,2.15229029 C18.4504789,2.13340374 18.5300013,2.09463661 18.5926251,2.03996501 L19.1522634,1.55289078 L19.7466928,1.56780122 L20.1512626,2.27753795 C20.1840656,2.33519163 20.2278028,2.38588711 20.2834685,2.42763633 L21.2069214,3.1284268 L21.5468794,12.3897953 C21.5518495,12.5239892 21.6104972,12.6492369 21.7118882,12.7426756 L22.1452848,13.1313409 C22.2009505,13.1810424 22.2685444,13.2178215 22.3440906,13.2386961 L23.4802658,13.5508212 L23.5031285,13.5707018 L23.2874242,13.8937612 C23.2218183,13.990182 23.1929914,14.1074774 23.2059138,14.2257669 L23.3629704,15.6124374 C23.3768868,15.734703 23.4345405,15.8460342 23.5249971,15.9245625 L24.3868203,16.6999052 C24.5001396,16.8012961 24.6591843,16.8480155 24.8162408,16.8181946 L25.0836347,16.764517 L25.5359179,17.3500001 L25.3271718,18.1114264 C25.2854225,18.2655009 25.3212076,18.4305097 25.4196165,18.5527753 C25.4941686,18.646214 25.5985417,18.7068498 25.7227953,18.7297124 L23.4275823,19.4901446 L23.0717199,19.3927298 C22.8878245,19.3440224 22.6969709,19.399688 22.5717233,19.5398461 M27.047836,17.9354832 C26.9623495,17.7953251 26.8132452,17.7118267 26.5975409,17.6989043 L26.4693111,17.7068566 L26.5607618,17.3718688 C26.601517,17.2227644 26.568714,17.0607377 26.4742813,16.9364841 L25.679058,15.9116401 C25.5637507,15.7635298 25.3768732,15.6939478 25.1899958,15.7297328 L24.8659423,15.7943447 L24.3301606,15.3132347 L24.2148533,14.2943549 L24.5687276,13.7655315 C24.7049096,13.5607615 24.6701186,13.2834274 24.4872172,13.1204066 L24.0587907,12.7337293 C24.001137,12.6830338 23.9345371,12.6442667 23.8560088,12.6223981 L22.7198336,12.311267 L22.5329562,12.1432761 L22.1929982,2.85606284 C22.18604,2.70497043 22.1144699,2.5668004 21.9951865,2.47833181 L20.9643783,1.69801902 L20.4713399,0.830231679 C20.3858535,0.679139266 20.2248207,0.583712479 20.0508657,0.579736363 L18.9395412,0.557867725 C18.8590249,0.570790102 18.7476936,0.588682624 18.6453086,0.677151208 L18.0399449,1.20299257 L16.0986062,1.58668777 L15.815308,1.39782226 L15.8341945,0.60359306 C15.8401587,0.33719328 15.6363827,0.114530777 15.371971,0.0966382542 L14.0817213,0.00717564141 C13.9077663,-0.0246332876 13.7328171,0.0509129188 13.6214859,0.202005331 L9.79646219,5.32920707 C9.74477268,5.39779508 9.71097569,5.48029949 9.7010354,5.56578598 L9.49527139,7.19499956 L8.93165693,7.68406185 C8.88195548,7.72779912 8.84219432,7.7784946 8.8143615,7.83515426 L8.22092617,9.01606075 C8.1225173,9.21188447 8.16625458,9.45243949 8.32629325,9.60054982 C8.31535893,9.62440652 8.30641267,9.65025127 8.29945447,9.675102 L8.02510245,10.6750952 C7.99031144,10.8033249 8.00720993,10.9375189 8.07281585,11.0518322 C8.09369046,11.0886113 8.11854118,11.1224083 8.14836205,11.1522291 L7.8590996,11.4762826 C7.80840412,11.5329423 7.77063102,11.6015303 7.75075044,11.6740944 L7.57977745,12.2973506 L6.19410098,13.6780569 C6.05294886,13.818215 6.01119964,14.0299432 6.08376376,14.2128445 C6.03803842,14.2138386 5.99330711,14.2198027 5.94956984,14.2327251 C5.78654908,14.2814325 5.65533724,14.4136384 5.61060594,14.5786472 L5.5817791,14.6820262 C5.50722692,14.5945517 5.40484193,14.535904 5.29848082,14.5170174 C5.1503705,14.4842144 4.996296,14.5259637 4.87701251,14.6303367 L4.1712519,15.2426586 C4.05693856,15.3420615 3.99530876,15.4861957 4.00027891,15.6382822 L4.57085157,29.227653 C4.57582172,29.3608529 4.63446943,29.4851066 4.73586039,29.5775513 L5.36905688,30.1451418 L5.24480325,30.5984191 C5.1951018,30.7813204 5.25176146,30.973168 5.39191955,31.1004037 L6.25573078,31.8747523 C6.34718145,31.9552687 6.46447687,32 6.58574842,32 C6.60165288,32 6.66328268,31.9940358 6.67918715,31.9910537 C6.82928553,31.9632209 6.96049736,31.863818 7.03107342,31.726642 L7.62351472,30.5447415 C7.65631768,30.4801296 7.67421021,30.4095536 7.67619826,30.3340073 L7.69210273,29.5964378 L8.59070497,29.2415694 C8.77758243,29.1680113 8.90084203,28.9910741 8.90481815,28.7912743 L8.91873455,28.1829285 L9.27757903,28.164042 C9.42171324,28.1560897 9.55491313,28.0855137 9.64338172,27.9702063 C9.7318503,27.856887 9.76664132,27.7107647 9.73781447,27.5696126 L9.57479371,26.7465566 L10.1841335,26.3042137 L10.1821454,26.3111719 C10.1205157,26.5348284 10.2199186,26.7674312 10.4246885,26.8807505 C10.5946675,26.9722012 10.7994375,26.9553027 10.9515239,26.8469535 L10.9793567,26.8956609 C11.0588791,27.0328369 11.2000312,27.1262757 11.3531116,27.1421801 C11.5131503,27.1650428 11.6702069,27.102419 11.7805441,26.9801534 L12.1682155,26.5487448 C12.2477378,26.4592822 12.2914751,26.3469569 12.2954512,26.2316495 C12.3739795,26.3310524 12.4912749,26.3986464 12.6294449,26.417533 C12.8312328,26.4284673 13.010158,26.3449688 13.1095609,26.1819481 L13.7348052,25.152134 L13.9027961,25.3449756 C14.0598527,25.5229068 14.3222764,25.5656501 14.5230702,25.4473606 L15.1602428,25.08454 C15.2387711,25.0398087 15.303383,24.9751968 15.3461263,24.8986566 L15.8699796,23.9692395 C15.9027825,23.9115858 15.9226631,23.849956 15.9306153,23.7853441 L16.1383674,22.1422141 L16.5041701,21.7943039 L16.6870714,22.4503631 C16.7327968,22.61736 16.8659967,22.7495658 17.0339876,22.7962852 L17.7834854,23.0020492 C18.00913,23.062685 18.2367627,22.9662642 18.3480939,22.7674584 L18.6095236,22.3032468 L18.7466996,22.3946975 L19.0508725,22.9304791 C19.137353,23.0815715 19.2924215,23.1750103 19.4594184,23.1809744 C19.6254212,23.1769983 19.7983823,23.1044342 19.8967912,22.959306 L20.6224324,21.8758143 C20.74768,21.9573247 20.9057306,21.9781993 21.0508589,21.9314799 L21.9365387,21.6372474 C22.0190431,21.6104086 22.0935953,21.5617011 22.150255,21.4980833 L23.1055169,20.4324842 L23.3102869,20.4891438 C23.4086957,20.5149886 23.5130688,20.5110125 23.5975613,20.4811916 L26.2575829,19.5994878 C26.3748784,19.5607207 26.4732872,19.4792103 26.533923,19.3718552 L27.0587703,18.44045 C27.1472389,18.2804113 27.1432628,18.0865757 27.047836,17.9354832"/>
</svg>
