<svg xmlns="http://www.w3.org/2000/svg" width="32" height="32" viewBox="0 0 32 32">
  <path fill-rule="evenodd" d="M22.2592177,10.1610748 L22.4600168,9.96325792 L24.0206826,9.84595947 L24.3477265,10.1779737 C24.4202925,10.2525278 24.5137337,10.3012365 24.6161213,10.3181354 L25.4431748,10.4632674 L25.4938715,10.5139642 C25.5863186,10.6083994 25.7105754,10.6620783 25.8447728,10.6640664 L25.8706182,10.6640664 C25.883541,10.7018405 25.9014339,10.7376265 25.9242972,10.7704303 L26.248359,11.2654695 C26.338818,11.4046372 26.4919024,11.4891318 26.6598976,11.4911199 L26.8726253,11.492114 L26.9789892,12.528913 C26.9968822,12.6988963 27.0982757,12.8460164 27.248378,12.9205705 L27.3915219,12.9951246 L27.4879452,13.2923469 C27.5287014,13.4185919 27.6171723,13.5219735 27.7364588,13.5816168 L27.7891437,13.6094504 L27.7881497,13.7923564 C27.7861615,13.9255597 27.8358643,14.0508106 27.9312935,14.148228 L28.0774196,14.2963421 L27.9501806,15.0279663 C27.922347,15.1870151 27.9730438,15.349046 28.085372,15.4633623 L28.4283208,15.8122754 L28.4263327,16.0985632 C28.4243446,16.2456833 28.4889582,16.385845 28.6012864,16.4812742 C28.5992982,16.4922088 28.5973101,16.5031434 28.595322,16.513084 C28.5684826,16.6701446 28.6181853,16.8321755 28.7295194,16.9445037 L28.9104373,17.1303919 L28.8985087,18.896827 C28.8985087,19.0290363 28.9482114,19.1532931 29.0396645,19.2467342 L29.2215765,19.4316284 L29.2185943,19.8819352 C29.2166062,20.0688174 29.32297,20.2447651 29.4899712,20.3292597 L29.6490199,20.4107722 L29.9005158,21.0529315 C29.9353077,21.1483608 29.9989272,21.2288792 30.086404,21.2885225 L30.4939664,21.5648697 L30.6818427,21.8511574 L8.02435523,22.0062299 L8.05715904,17.7486939 C8.05914715,17.4733408 7.83747296,17.2496785 7.56410793,17.2476903 L1.01627,17.1959995 L1.37313561,9.00399519 L19.9599693,9.4662306 L21.1488587,10.2227062 C21.2283831,10.273403 21.3208301,10.3012365 21.4132772,10.3012365 L21.954043,10.3012365 C22.0494722,10.2823495 22.1578242,10.2624684 22.2592177,10.1610748 M31.8578094,22.0171645 L31.6758974,21.8312763 L31.6768914,21.7060254 C31.6768914,21.607614 31.6480638,21.5111907 31.5953789,21.4326604 L31.2742993,20.9425915 C31.2385133,20.8849363 31.1917928,20.8362276 31.1341376,20.7974595 L30.7713076,20.551928 L30.5068891,19.8759708 C30.4631507,19.7596664 30.377662,19.6652312 30.268316,19.6105582 L30.214637,19.5837188 L30.2176192,19.2318234 C30.2176192,19.0996141 30.1669224,18.9753573 30.0754694,18.8819162 L29.8945514,18.697022 L29.9064801,16.9305869 C29.9064801,16.8431101 29.8846109,16.7586155 29.8428606,16.6840614 C29.8806347,16.6204419 29.9034979,16.5478759 29.9084682,16.4723277 C29.922385,16.295386 29.8398784,16.1234145 29.6927584,16.023015 L29.4223755,15.841103 L29.4243636,15.6154526 C29.4263517,15.4832434 29.3756549,15.3579925 29.2812197,15.2615692 L28.9730628,14.9464538 L29.1003018,14.2148296 C29.1271413,14.0567749 29.0764445,13.894744 28.9641163,13.7804278 L28.7831984,13.5965276 L28.7851865,13.311234 C28.7871746,13.1213695 28.6837929,12.9493981 28.5148036,12.8639094 L28.3706657,12.7903493 L28.2752364,12.4921329 C28.2344802,12.365888 28.1460093,12.2625063 28.0277168,12.202863 L27.94024,12.1581306 L27.8159832,10.947372 C27.7881497,10.6948821 27.5774101,10.5040236 27.3249202,10.5020355 L26.9332627,10.4990534 L26.8378334,10.3529273 L26.8388275,10.1769797 C26.8408156,10.0457645 26.7901188,9.91753141 26.6976717,9.82309622 C26.6052246,9.72866103 26.4809678,9.67597613 26.3457764,9.67398802 L26.0584946,9.67199991 L26.0415956,9.65311287 C25.9680356,9.57855877 25.8745945,9.52885604 25.7712128,9.51195711 L24.9441593,9.36682513 L24.5674126,8.9841141 C24.4590607,8.87377403 24.3079643,8.81611886 24.1767491,8.83798806 L22.2055388,8.98610221 C22.0872463,8.99405464 21.9749181,9.04475143 21.8914175,9.12825202 L21.7075174,9.30916997 L21.5633795,9.30817591 L20.3764782,8.55368844 C20.299936,8.50497976 20.2114652,8.47814028 20.1220002,8.47615217 L0.868155854,8 C0.603737319,8.03777408 0.410890718,8.23260879 0.400950172,8.47416406 L0.000346150651,17.6681755 C-0.00462412257,17.8013788 0.044084555,17.932594 0.136531637,18.0300114 C0.227984664,18.1274287 0.357211768,18.1840898 0.493397254,18.1860779 L7.05912817,18.2377688 L7.02632437,22.5012691 C7.02433626,22.6364606 7.0760271,22.7627055 7.17145635,22.8581348 C7.26589154,22.9525699 7.39014837,23.0042608 7.52335169,23.0042608 L7.52732791,23.0042608 L31.5079021,22.8611169 C31.7077071,22.8591288 31.886637,22.7388482 31.961191,22.5559421 C32.0387273,22.371048 31.9979711,22.1583203 31.8578094,22.0171645"/>
</svg>
