<svg xmlns="http://www.w3.org/2000/svg" width="32" height="32" viewBox="0 0 32 32">
  <path fill-rule="evenodd" d="M27.0651168,19.0234053 L26.5432263,20.3465221 C26.4746349,20.5214797 26.5104217,20.7232773 26.6356754,20.8614541 L27.4060853,21.7203368 L27.4816351,21.9956961 L26.7619232,22.6418463 C26.6645037,22.7303192 26.6068472,22.8525907 26.5998887,22.9828148 L26.565096,23.6150479 L25.3980493,24.3059315 C25.2409851,24.3993748 25.148536,24.5713502 25.1545004,24.7522722 L24.4347885,24.0643708 C24.3423394,23.9749038 24.2200679,23.9271881 24.0918319,23.9271881 L24.0908378,23.9271881 L4.78884094,23.9758979 C4.77890016,23.8725139 4.73615484,23.7750943 4.66458129,23.6945741 L4.37729298,23.3744812 L4.51248748,20.8873001 C4.51944602,20.7620463 4.47769477,20.6367926 4.3981686,20.5413612 C4.47968293,20.4628291 4.53236902,20.3574569 4.5462861,20.243138 C4.56616764,20.0681805 4.49161185,19.894217 4.34945882,19.7878507 L3.91305893,19.4607993 L3.9359227,19.0552158 C3.94387532,18.9230035 3.89914185,18.7957617 3.8096749,18.6953599 L3.34345269,18.1744634 L3.58501345,17.0909193 C3.62080023,16.932861 3.57706083,16.7678442 3.4697005,16.649549 L3.18340627,16.3304502 L3.20726412,15.8622398 C3.21819897,15.6733652 3.12276756,15.4964194 2.95775074,15.4019821 L2.70028475,15.2568468 L2.56509025,14.7687549 C2.53129163,14.6435012 2.44580099,14.5331586 2.33247619,14.4675495 L2.13067852,14.3532307 L2.03027672,12.5907318 C2.01635964,12.3372421 1.81456197,12.1354444 1.56206636,12.1225214 L1.43979487,12.116557 L1.05608107,11.0687996 L1.38114431,10.635382 C1.42786594,10.5727551 1.45868233,10.5011815 1.47160534,10.4256317 L1.79368635,8.64325126 C1.82052643,8.4931456 1.77678704,8.33608141 1.67439708,8.22275661 L1.45470602,7.97821362 L1.60282353,7.60245244 C1.67240893,7.42749485 1.63562807,7.22569718 1.51037435,7.08752045 L1.42786594,6.99507127 L25.8086032,7.02290543 L25.896082,7.34200421 C25.9259043,7.44837047 25.9895253,7.54280781 26.0779981,7.60941098 L26.3294997,7.79729157 L26.1416191,8.04779902 C26.0521521,8.16708828 26.0213357,8.3191821 26.0571225,8.46630552 L26.79771,11.4336259 C26.8513902,11.6463585 27.0343004,11.7974582 27.2529974,11.8093871 L28.2639739,11.8630673 L28.5433096,12.6901395 C28.5701497,12.7696657 28.6178654,12.8432274 28.6834745,12.902872 L29.5801321,13.7021101 L29.5562742,14.1375159 C29.5453394,14.3522366 29.6715872,14.5490639 29.8704026,14.6266019 L30.9022548,15.0341735 L30.9907276,16.2867108 L30.4598904,16.7628738 C30.3614768,16.8513467 30.3038203,16.9726241 30.2968618,17.1038423 L30.2650513,17.6764307 L27.3563814,18.7400933 C27.222181,18.7888031 27.1158147,18.8921871 27.0651168,19.0234053 Z M31.87148,14.6524479 C31.858557,14.4615851 31.7352915,14.2945801 31.5583457,14.2249947 L30.5682448,13.8343224 L30.5851441,13.5191999 C30.5940908,13.3681002 30.5334521,13.2219708 30.4201273,13.1205749 L29.4439435,12.2487692 L29.0980047,11.2258638 C29.0323956,11.0330128 28.8584321,10.8998065 28.6536521,10.8878776 L27.672498,10.8361856 L27.0790339,8.45437659 L27.4229846,7.99411885 C27.5025108,7.88874667 27.5363094,7.75752848 27.5174219,7.62332806 C27.4985344,7.49409802 27.4299431,7.37878507 27.3225828,7.29826482 L26.809639,6.9155451 L26.6674859,6.39365457 C26.6088354,6.1789339 26.411014,6.02882824 26.1893348,6.02882824 L0.740958598,6 C0.475539987,6 0.257837082,6.20676806 0.244914078,6.47019851 L0.220062148,6.91753325 C0.212109531,7.04974552 0.256843005,7.17798148 0.346309952,7.27838327 L0.566001012,7.52292626 L0.41788351,7.89868744 C0.349292184,8.07265095 0.385078963,8.27444862 0.510332689,8.41262535 L0.772769069,8.70587812 L0.515303075,10.1343671 L0.0997788078,10.6890621 C-0.0016170661,10.8242566 -0.0274630732,10.9992142 0.0301934041,11.1582666 L0.618687103,12.7666835 C0.68727843,12.9525759 0.860247862,13.0798178 1.0590633,13.0917467 L1.15350063,14.6802821 C1.16344141,14.8492752 1.25688466,15.0003749 1.40400809,15.0848715 L1.66147408,15.2310008 L1.7956745,15.7190927 C1.8304672,15.8443465 1.91496377,15.953695 2.02928264,16.0202981 L2.19926984,16.1157295 L2.1793883,16.4805559 C2.17143568,16.6127681 2.21815731,16.7449804 2.3056361,16.8414059 L2.55912579,17.1237238 L2.31657095,18.208262 C2.28277233,18.3643321 2.32551765,18.529349 2.43287798,18.6486382 L2.93190474,19.2063155 L2.90705281,19.6715437 C2.89711203,19.8385486 2.97166782,19.997601 3.10487417,20.0980028 L3.16054249,20.1387599 C3.13469648,20.1824993 3.11680309,20.2312091 3.10586824,20.280913 C3.07206962,20.4369831 3.11481494,20.6010058 3.2211812,20.7183069 L3.50846951,21.0374057 L3.37327501,23.5245869 C3.36631647,23.6567991 3.41104994,23.7850351 3.49952281,23.8854369 L3.78681112,24.2055297 L3.77388812,24.4470905 C3.76692958,24.5842732 3.81563936,24.7184736 3.90908262,24.8158931 C4.00252587,24.9153009 4.13473814,24.9719633 4.27092672,24.9719633 L23.8930165,24.9212653 L25.2469496,26.2155538 C25.3403929,26.3040267 25.4626644,26.3527365 25.5909003,26.3527365 C25.7141659,26.3527365 25.8324611,26.3070089 25.9229221,26.2245005 L26.1585184,26.0127621 C26.2897366,25.895461 26.3483871,25.7214975 26.3155826,25.547534 L26.20524,24.9828981 L27.299719,24.3367479 C27.4428661,24.2522514 27.5343212,24.1021457 27.5432679,23.9351407 L27.5810429,23.243263 L28.3753105,22.5305097 C28.5154754,22.4042619 28.5721378,22.212405 28.522434,22.0285007 L28.3345534,21.3435815 C28.3136777,21.2710139 28.2768969,21.2024225 28.2252049,21.143772 L27.5800488,20.4260482 L27.9080943,19.5959938 L30.9141837,18.4965444 C31.1020643,18.426959 31.2293062,18.2559777 31.240241,18.0561682 L31.2780159,17.3642905 L31.8356932,16.8642697 C31.9500121,16.7608856 32.0096568,16.6127681 31.9987219,16.4596802 L31.87148,14.6524479 Z"/>
</svg>
