<svg xmlns="http://www.w3.org/2000/svg" width="32" height="32" viewBox="0 0 32 32">
  <path fill-rule="evenodd" d="M30.8111475,24.2039685 C30.8330167,24.2039685 30.85588,24.2049626 30.8767551,24.2079447 L30.8757611,24.2019804 L30.3558705,24.0210625 L30.5536874,24.2755405 C30.6083604,24.2427367 30.6699918,24.2198734 30.7365934,24.2099329 C30.7495161,24.2079447 30.7992189,24.2039685 30.8111475,24.2039685 Z M13.3396418,14.2047721 L13.3227429,14.0477115 C13.2809926,14.0675926 13.2372542,14.0805153 13.1915277,14.0874737 C13.2481888,14.1172953 13.2978915,14.1570575 13.3396418,14.2047721 Z M19.0455159,19.4841967 C19.1310046,19.4285297 19.2314041,19.4076545 19.3318037,19.4016902 C19.3238512,19.3857853 19.3168928,19.3688864 19.3109285,19.3519874 L18.8954136,19.3678923 C18.8367644,19.3668983 18.7830855,19.3589458 18.7343768,19.3450291 L18.68368,19.3907556 C18.6797038,19.4991075 18.6389475,19.6034833 18.5683696,19.688972 L18.5146907,19.7515974 C18.5355658,19.7655142 18.5554469,19.780425 18.5733399,19.797324 L19.0455159,19.4841967 Z M22.1429904,19.0050624 C22.3288786,19.1024797 22.4332544,19.3032788 22.4074089,19.5100421 L22.4879274,19.5517924 L23.5485838,19.6661087 L23.2175635,9.31601103 C23.2135873,9.31302886 23.2096111,9.3100467 23.2056349,9.30706454 L22.7990665,8.97902648 L21.7553091,8.96113349 C21.6847312,8.96013944 21.6151473,8.94324051 21.5495397,8.91242481 L20.3318227,8.33189686 L20.0495112,8.39551636 C19.9491116,8.41639151 19.8447359,8.40744502 19.7512947,8.36967094 L19.6508952,8.40148069 C19.5246503,8.43925477 19.3914469,8.42732611 19.2741485,8.36867688 L19.0315991,8.24143788 C18.9043601,8.17483621 18.8158893,8.05853181 18.7801033,7.92532848 C18.7174778,7.88457224 18.6647929,7.82989923 18.6260248,7.76727378 L18.1488785,7.69172562 C18.1289974,7.6877494 18.1091164,7.68277913 18.0892353,7.67780885 C18.0037466,7.71955915 17.9083173,7.73347592 17.812888,7.72353537 C17.6389285,7.70067211 17.4947905,7.59430826 17.4232186,7.43824167 L17.3436942,7.26527615 L17.2283839,7.33585403 C17.1259962,7.39649137 17.0086978,7.41836057 16.8953755,7.40344975 L16.5365218,7.34579458 L15.7343196,7.73446997 C15.6428666,7.77721433 15.5444552,7.7931192 15.4520081,7.78019649 L14.4718701,8.72554253 C14.3496014,8.84482909 14.1716656,8.89353777 14.0036704,8.84979937 L13.5175776,8.72554253 C13.5096252,8.74741173 13.4986906,8.76928093 13.487756,8.78916203 L14.1030758,9.87665789 C14.1587429,9.97506931 14.178624,10.0854094 14.1627191,10.1937613 L14.2084456,10.2255711 L14.5156086,10.2752738 C14.6478178,10.297143 14.7621341,10.3677209 14.8396704,10.4740848 L14.9112423,10.5734902 C14.9887786,10.6808482 15.0205883,10.8120634 14.9997132,10.9422845 C14.9987191,10.9472548 14.9987191,10.951231 14.9977251,10.9552073 L15.0742673,10.9770765 C15.3138345,11.0486484 15.4649308,11.2862275 15.4261627,11.532753 L15.3854064,11.7882251 C15.341668,12.0526437 15.0901722,12.2375378 14.8217774,12.2007578 L14.7631282,12.1918113 C14.7442411,12.2067221 14.7253541,12.2206389 14.705473,12.2335616 C14.6110378,12.2912168 14.504674,12.3150741 14.397316,12.3061276 C14.2501959,12.4293904 14.0464147,12.459212 13.870467,12.3776996 L12.9807881,11.9741133 C12.851561,11.9164582 12.7531495,11.805124 12.7113992,11.6699326 L12.706429,11.6550218 C12.5712375,11.7365343 12.4022482,11.749457 12.2551281,11.6868315 L12.1179486,11.6281823 L12.0543291,11.6540277 L12.1030378,11.6937899 C12.2382292,11.8021419 12.3058249,11.9701371 12.2839557,12.1431026 C12.2650687,12.295193 12.1785859,12.4264082 12.0493588,12.5049386 C12.0483647,12.5407245 12.0424004,12.5765105 12.0324599,12.6103084 L12.1865384,12.6679635 L12.324712,12.6460943 C12.4002601,12.6282013 12.489725,12.6371478 12.5781959,12.6699516 L12.9887405,12.8230361 C13.0434135,12.8429172 13.0931163,12.8727388 13.1368547,12.9095188 C13.1656822,12.8975902 13.1945098,12.8896377 13.2253255,12.8826794 L13.9440271,12.7375474 C14.1716656,12.6898327 14.397316,12.8071312 14.4947334,13.0178708 L14.6239605,13.2991883 C14.7074611,13.4830884 14.6726692,13.6968102 14.5344956,13.8449243 L14.3317084,14.0636164 L14.3356846,14.493048 C14.3366787,14.5964297 14.3038749,14.7008054 14.2422435,14.7862941 L14.0175871,15.0984273 C13.9251401,15.2276544 13.7750378,15.3041966 13.6169831,15.3051907 L13.0951044,15.3081729 C13.034467,15.3260658 12.9738297,15.3121491 12.9201507,15.2892858 L12.6905241,15.4105605 C12.5931067,15.4612573 12.4807785,15.4791503 12.3764028,15.4612573 L12.2094016,15.4344178 C12.1109902,15.4185129 12.0215253,15.3747745 11.9509474,15.3081729 L11.9350425,15.4085724 C11.9002506,15.620306 11.7352375,15.7863132 11.5225098,15.820111 L11.4012351,15.8399921 L11.2322458,15.9930766 C11.2153469,16.0934761 11.1696204,16.1839351 11.1020247,16.254513 C11.0980484,16.2734 11.0930782,16.292287 11.0871138,16.3111741 C11.0741911,16.3489482 11.0572922,16.3847341 11.036417,16.4175379 C11.0801555,16.4602823 11.1169355,16.5109791 11.1417868,16.5676402 L11.199442,16.6938851 L11.7710235,16.9921016 C11.9598939,17.090513 12.0652637,17.2992645 12.0314658,17.5100041 L12.0284837,17.5298852 C12.035442,17.5308792 12.0414064,17.5318733 12.0483647,17.5328673 C12.2839557,17.5746176 12.451951,17.7654761 12.4638796,17.9970909 L12.5274991,19.2257425 C12.5314753,19.2983085 12.5195467,19.3698804 12.4927072,19.435488 L12.5056299,19.4295237 C12.6447976,19.3668983 12.8108047,19.3708745 12.9459962,19.4424464 C13.0831757,19.5160065 13.178605,19.6492098 13.2034563,19.8013002 L13.2283077,19.835098 C13.2561412,19.8500089 13.2829807,19.8669078 13.3078321,19.8867889 L13.5106192,19.7406628 C13.6746383,19.6223703 13.8913422,19.6144179 14.0623196,19.7207817 C14.1994992,19.8032883 14.2849879,19.9464322 14.2969165,20.1024988 L14.3913517,20.0766533 L14.5146145,19.9891765 C14.7174017,19.8420564 15.0017013,19.86989 15.1726787,20.0577663 C15.3446502,20.2466367 15.3456442,20.5319304 15.1766549,20.7217948 L14.7690925,21.1810481 C14.7979201,21.2605725 14.8068666,21.3460612 14.7939439,21.4315499 C14.7641222,21.614456 14.6388713,21.7615761 14.4708761,21.8222134 L14.4569593,21.9037259 L14.6657108,21.7526296 C14.7203838,21.7128674 14.7810212,21.6860279 14.8456347,21.6711171 L15.1150235,21.6104798 L15.2283458,21.4524251 C15.3178107,21.3271742 15.4569784,21.2526201 15.6110569,21.2456617 L15.7194088,21.2416855 L15.7561888,21.14228 C15.7750759,21.0915832 15.8009213,21.0458567 15.8337251,21.0041064 C15.8227905,20.9901896 15.813844,20.9752788 15.8039035,20.9593739 C15.7015158,20.7844203 15.7164267,20.5587699 15.8426716,20.3997211 L16.3894017,19.7058709 C16.4748904,19.5945368 16.6061056,19.5269411 16.7472614,19.5170005 C16.7184338,19.4086486 16.7273803,19.2923442 16.7721128,19.1879684 C16.831756,19.0557591 16.9440842,18.9563537 17.0802697,18.9146034 L17.2979677,18.8460136 L17.7482745,18.272444 C17.8506621,18.1412288 18.0146812,18.0736331 18.1836705,18.0835736 L18.3138916,17.9901325 C18.4182674,17.9155784 18.5474945,17.8837686 18.6757275,17.9006676 L19.0226526,17.9553406 C19.1349808,17.9742276 19.2363744,18.0298947 19.3119226,18.1133953 L19.664812,18.5010766 L19.7135207,18.4324868 C19.8367835,18.2625035 20.0415587,18.1839732 20.2383816,18.2406343 C20.3715849,18.27145 20.4839131,18.3589268 20.5505147,18.4782134 L20.5793423,18.4762252 C20.6628429,18.4871598 20.7751711,18.5000826 20.8546955,18.5477972 L21.6469571,19.0229553 C21.6489452,19.0239494 21.6499393,19.0249434 21.6509333,19.0249434 C21.7990475,18.9334904 21.9849357,18.9245439 22.1429904,19.0050624 Z M31.9881083,24.6165012 C32.0149478,24.7367819 31.9960607,24.8630268 31.9344294,24.9703847 L31.5715994,25.6075738 C31.492075,25.7477355 31.3370025,25.8411766 31.1560845,25.8580756 C31.0407742,25.8550934 30.9403746,25.8242777 30.8588622,25.7696047 C30.8519038,25.7725869 30.8449454,25.774575 30.837987,25.775569 C30.8041891,25.7845155 30.7693972,25.7904799 30.7336113,25.7914739 C30.7266529,25.8014145 30.7187004,25.8103609 30.710748,25.8193074 C30.5805268,25.9723919 30.3737635,26.029053 30.1819109,25.9674216 C30.0874757,26.0906844 29.9413496,26.1642444 29.7862771,26.1642444 C29.7763366,26.1642444 29.7554614,26.1632504 29.7465149,26.1622563 C29.5924364,26.1552979 29.4413401,26.0628508 29.3558514,25.9167248 L28.7425197,24.8610387 C28.711704,24.8063657 28.6908288,24.7467224 28.6808883,24.685091 C28.6232331,24.6701802 28.5695541,24.6453288 28.5218395,24.612525 C28.3339632,24.6691861 28.1212355,24.6075547 27.9930024,24.448506 L26.5416825,22.650261 C26.4551998,22.541909 26.4184197,22.4027414 26.4373068,22.2675499 L24.5028763,21.0180232 C24.4690784,20.996154 24.4382627,20.9703085 24.4114233,20.9414809 C24.3040653,20.9524155 24.1996896,20.9295523 24.1062485,20.8738852 L23.8050499,20.6929673 L22.2881224,20.5299423 C22.2245029,20.5229839 22.1648596,20.5050909 22.1111806,20.4762633 L21.6559036,20.2396783 C21.6111711,20.2436545 21.5634565,20.2426605 21.518724,20.2327199 L20.8487312,20.125362 C20.6499202,20.0945463 20.4908715,19.94345 20.4441509,19.7506034 C20.4371925,19.7675023 20.4302341,19.7844013 20.4212876,19.8003061 L20.1707858,20.2814286 C20.0534874,20.506085 19.7880748,20.6084726 19.5534779,20.5160255 L19.3834945,20.4534001 L18.3288024,21.1542087 C18.2542483,21.2039114 18.1657775,21.2317449 18.0743244,21.2367152 L17.7611972,21.2476498 C17.7611972,21.2486438 17.7611972,21.250632 17.7621913,21.251626 C17.8864481,21.3092812 17.9828714,21.4176332 18.0256158,21.5528246 L18.0832709,21.7357307 C18.1299915,21.8828508 18.1041461,22.0458757 18.0156752,22.1711266 C17.9450973,22.2725202 17.8377394,22.342104 17.7194469,22.3699376 C17.7741199,22.540915 17.7333637,22.7268032 17.6110949,22.8600065 L17.4003553,23.0876451 C17.3645694,23.1264132 17.321825,23.159217 17.2751044,23.1850624 C17.1975682,23.2566344 17.0991568,23.3013668 16.993787,23.3132955 C16.9788761,23.3272123 16.9639653,23.340135 16.9470664,23.3520636 L16.6518321,23.5657854 C16.5872186,23.6135 16.5126645,23.6433217 16.4351282,23.6552503 C16.4261817,23.7715547 16.376479,23.8838829 16.2919843,23.9683776 C16.1786621,24.0816998 16.0196133,24.1323966 15.8615586,24.1085393 L15.4370973,24.0409435 C15.2492209,24.0091338 15.0931543,23.8729483 15.0394754,23.6910363 C14.9857964,23.5091243 15.0414635,23.3093193 15.1826193,23.1810862 L15.1985241,23.1671695 C15.1945479,23.1492765 15.1915658,23.1313835 15.1885836,23.1134905 L15.1329165,22.6413145 L14.9659153,22.7615951 L14.8814207,22.9604061 C14.8088547,23.1293954 14.6508,23.2447057 14.4668999,23.2606106 L14.25119,23.2794976 L14.0672899,23.412701 C14.0056585,23.4574334 13.9330925,23.4872551 13.8575443,23.5001778 L13.4798035,23.5618092 L13.0742292,23.9723538 C13.0026573,24.0439257 12.9121983,24.0926344 12.8127928,24.1105274 L11.9857393,24.2655999 C11.9698344,24.3192789 11.9459771,24.3689816 11.9141674,24.4137141 L11.8018392,24.5697807 C11.6129688,24.830223 11.180555,24.8272408 10.9946667,24.5707747 L10.8962553,24.4345892 C10.8395942,24.4316071 10.7849212,24.4186843 10.7352185,24.3978092 L10.6855157,24.4345892 C10.5781578,24.5131195 10.4459485,24.5449293 10.3137393,24.522066 L10.2640365,24.5141136 L10.2352089,24.5349887 C10.1258629,24.6145131 9.99365364,24.6453288 9.86343248,24.6234596 L9.81273569,24.6155072 L9.58609121,24.7805203 C9.4459295,24.8819138 9.26004126,24.9017949 9.10099251,24.8351933 L8.92206266,24.7586511 L8.74810308,24.7974192 C8.71331117,24.8650149 8.66261438,24.9236641 8.59998893,24.9693907 L8.4031661,25.1115405 C8.23020058,25.2377854 7.99659772,25.2387795 7.82164409,25.1125345 L7.69042887,25.0180993 C7.60792232,25.1015999 7.49758225,25.1552789 7.37829568,25.1662135 L7.21626477,25.1801303 L7.13674039,25.265619 C7.04528735,25.3640304 6.92301862,25.4206915 6.78981529,25.4256618 L6.35243122,25.4425607 C6.21425761,25.4385845 6.02737532,25.3670125 5.93294013,25.2387795 L5.83850493,25.2427557 L5.76395082,25.2964347 C5.69933727,25.3421612 5.62776533,25.3719828 5.55321122,25.3839115 L5.01741573,25.4723823 C4.8533967,25.503198 4.68639551,25.4405726 4.57506138,25.3232741 C4.46969158,25.3342087 4.36034556,25.3083633 4.26889253,25.2536903 C4.168493,25.3173098 4.04821238,25.3451433 3.92395554,25.3222801 L3.67146565,25.2825179 C3.49850012,25.2536903 3.3563503,25.1413621 3.29074269,24.9823134 C3.22513508,24.8252527 3.24700428,24.6403585 3.34640975,24.5011909 L3.45774388,24.3451243 C3.60784614,24.140349 3.91103283,24.0836879 4.12177243,24.211921 C4.21918979,24.1522777 4.3354942,24.1274263 4.45378671,24.140349 L4.71721121,24.1820993 C4.83450966,24.2009864 4.9368973,24.2596356 5.0114514,24.3441302 L5.06513036,24.2874691 C5.14664285,24.1989982 5.25797697,24.1433312 5.37428138,24.1304085 C5.44485926,24.0657949 5.53432418,24.0220565 5.63174155,24.0061516 L5.89814821,23.9634073 C6.021411,23.9385559 6.14765594,23.9703657 6.25004358,24.0379614 C6.3375204,23.8182753 6.56217676,23.6930244 6.79577962,23.7327866 L7.12978201,23.7874596 C7.1715323,23.7934239 7.21228855,23.8063466 7.25105668,23.8232456 C7.36537297,23.7596261 7.50155847,23.7457093 7.62482125,23.7824893 C7.73913755,23.7278163 7.87333493,23.7178758 7.99659772,23.758632 C8.02045503,23.7675785 8.04431234,23.776525 8.06618155,23.7884537 C8.08407453,23.7616142 8.10594374,23.7367628 8.128807,23.7138995 L8.43795801,23.4156831 C8.5940246,23.2665749 8.8246453,23.2337711 9.01351569,23.3321825 L9.03836706,23.3451052 L9.0990044,23.3172717 C9.2262434,23.2606106 9.37038134,23.2586225 9.49960845,23.3123014 L9.62784151,23.3679685 L11.0215062,22.7536427 C11.1507333,22.6949935 11.2958653,22.6979756 11.4231043,22.7536427 C11.4678368,22.7118924 11.5205217,22.6790886 11.5781769,22.6562253 L12.6905241,22.2257996 C12.7203457,22.2158591 12.7501674,22.2069126 12.778995,22.2009483 L12.8366501,22.0906082 C12.8823767,22.0051195 12.9499724,21.9345416 13.0324789,21.887821 L13.4947144,21.6263846 L13.5444171,21.3192217 C13.5454111,21.3162396 13.5454111,21.3122634 13.5464052,21.3082871 L13.48875,21.3261801 C13.2621056,21.3927818 13.0275086,21.3003347 12.9131923,21.1055 L12.6428095,20.6502229 L12.5274991,20.5905796 C12.5026478,20.5776569 12.4787904,20.561752 12.4569212,20.5458472 L12.0752042,20.7208008 C11.9320603,20.7834262 11.7730116,20.7804441 11.6378201,20.7078781 L11.3972589,20.5826272 C11.2779723,20.5200017 11.1865193,20.4096617 11.1497393,20.2784464 C11.1119652,20.1452431 11.1318463,20.0030933 11.2014301,19.8867889 L11.3565027,19.6283347 L11.3396037,19.435488 C11.325687,19.2694809 11.3932827,19.1114262 11.5205217,19.0070505 L11.5185336,18.9662942 L11.2441745,19.052777 C11.0791614,19.1064559 10.8912851,19.0656997 10.7580817,18.943431 L10.5314372,18.7336854 C10.4857107,18.6909411 10.4489307,18.6412383 10.4220912,18.5865653 L9.963832,17.6422133 C9.8674087,17.4414143 9.91512332,17.2107936 10.0682077,17.0656616 C10.0393802,17.0119826 10.0204931,16.9533334 10.0135347,16.890708 L9.93898064,16.2704178 C9.92804603,16.1799588 9.9419628,16.0894999 9.97874282,16.0079874 C9.97079039,15.9264749 9.98172499,15.8439684 10.0145288,15.7664321 C10.0751661,15.619312 10.1984289,15.5129481 10.3505193,15.4751741 C10.3733825,15.438394 10.4012161,15.4045962 10.4330258,15.3757686 L10.8415823,15.0059802 C10.8892969,14.9612478 10.9459581,14.9274499 11.0085835,14.9055807 C11.0334349,14.7614428 11.1189236,14.6361919 11.2451685,14.5626318 L11.8207262,14.2216711 C12.0424004,14.0884677 12.324712,14.1461229 12.4777964,14.3568625 L12.4857488,14.3687912 L12.5225288,14.3002014 C12.5960889,14.1600397 12.7322744,14.0636164 12.8853588,14.038765 L12.8823767,14.0377709 L12.6428095,13.91252 C12.5414159,13.8588411 12.4628856,13.7743464 12.417159,13.6709647 L12.3545336,13.6471074 L12.21636,13.6699707 C12.1348475,13.6838875 12.0483647,13.674941 11.9658582,13.6461134 L11.5533255,13.4930289 C11.4817536,13.4661895 11.4201222,13.4254332 11.3674373,13.3717543 L11.0702149,13.0626033 C10.9211067,12.9085248 10.8883029,12.67691 10.9877084,12.4880396 L11.036417,12.3945985 L11.0195181,12.2902227 C11.0085835,12.2266032 11.0105716,12.1619897 11.0244884,12.1013523 L10.9409878,12.0337566 C10.8634515,11.9701371 10.8067904,11.8876306 10.7779628,11.7941894 L10.6626525,11.4283773 C10.6159319,11.2792691 10.6427714,11.114256 10.7352185,10.987017 C10.8286596,10.859778 10.9777678,10.7842298 11.1348285,10.7832358 L11.562272,10.7802536 L11.9390187,10.6291573 C12.016555,10.5973476 12.1010496,10.5884011 12.1815681,10.5973476 C12.2014492,10.587407 12.2223243,10.5794546 12.2431995,10.5724962 L12.4261055,10.514841 C12.4986715,10.4919778 12.5722316,10.4880015 12.6487738,10.496948 L12.7601079,10.514841 L12.9042459,10.4492334 C12.9519605,10.4283583 13.0006692,10.4134474 13.051366,10.4084772 C13.0424195,10.315036 13.0593184,10.2196068 13.1050449,10.13213 L13.1050449,10.1311359 L12.4251115,8.93131185 C12.3008546,8.71162576 12.3604979,8.43229638 12.5662673,8.28418223 L12.6418154,8.22950922 L12.7412209,7.96111445 C12.8296918,7.72254132 13.0791995,7.58933798 13.3297013,7.65196343 L13.9808071,7.81797057 L15.0166121,6.81795152 C15.1607501,6.67679575 15.3734778,6.64100978 15.5543957,6.71655794 L16.2442697,6.38255556 C16.3377108,6.33583499 16.4400985,6.32191822 16.5434802,6.33981121 L16.866548,6.39150205 L17.3854445,6.07340454 C17.5653684,5.96107636 17.7999653,5.97896934 17.9649784,6.118137 L18.2443078,6.35273392 C18.3874517,6.36764474 18.5156847,6.44021073 18.5991853,6.55651513 L18.7413352,6.75234391 C18.7492876,6.76228446 18.756246,6.77222501 18.7622103,6.78315961 L19.3238512,6.87262453 C19.5236562,6.90542834 19.6817109,7.05254844 19.7284315,7.24937127 C19.7353899,7.27621075 19.7393661,7.30404428 19.7413542,7.33187781 C19.8626289,7.30205617 19.9848976,7.31597294 20.0892733,7.36766378 L20.28212,7.32392538 C20.3855017,7.29907401 20.4998179,7.31100266 20.6022056,7.35871729 L21.8805599,7.96906689 L22.9869428,7.98795393 C23.0972829,7.98994204 23.2046408,8.02871017 23.2911236,8.098294 L23.6340725,8.37464121 C23.7792045,8.35774228 23.8945148,8.38855798 23.98895,8.45714775 C24.115195,8.54561862 24.1927312,8.69174467 24.1977015,8.84582315 L24.5287217,19.197909 C24.5655017,19.1790219 24.6042699,19.1651052 24.6440321,19.1561587 L25.0943388,19.0547651 C25.2523935,19.0130148 25.4203888,19.0617235 25.5436516,19.1760398 C25.6639322,19.289362 25.7205933,19.453381 25.695742,19.616406 L25.6738727,19.7486153 L26.3259726,20.2476307 L26.3269667,20.2416664 C26.3548002,20.0756593 26.4611641,19.9364916 26.6112663,19.8679018 L27.1739013,19.6104417 C27.3886171,19.5170005 27.6331546,19.5766438 27.7743104,19.7585558 L30.201792,22.9156736 L31.4632474,23.3530577 C31.6242843,23.4087247 31.7475471,23.5468984 31.7843271,23.7129055 L31.9881083,24.6165012 Z M2.2844611,24.0782206 C2.51209963,24.1975072 2.6115051,24.466896 2.51508179,24.7044751 C2.43853958,24.8933455 2.25861568,25.0156142 2.05483446,25.0156142 C2.00910794,25.0156142 1.96338143,25.0096499 1.91864896,24.9967272 L0.586615642,24.6090458 C0.508085319,24.5861826 0.441483653,24.5474144 0.384822535,24.4937355 L0.160166169,24.284984 C-0.0118052975,24.1259352 -0.0495793767,23.8744394 0.0677190799,23.6716522 C0.182035372,23.4708532 0.426572833,23.3744299 0.648247035,23.4469959 L1.04388081,23.5702586 L1.15223278,23.5195619 C1.2416977,23.4807937 1.33712695,23.467871 1.43156215,23.4797997 L1.77649914,23.5354667 C1.93455384,23.5613121 2.07073933,23.6617117 2.14131722,23.8038615 C2.17809724,23.8744394 2.19599023,23.9539638 2.19499617,24.0315 L2.2844611,24.0782206 Z"/>
</svg>
