<svg xmlns="http://www.w3.org/2000/svg" width="32" height="32" viewBox="0 0 32 32">
  <path fill-rule="evenodd" d="M21.5773068,25.3683753 L21.2303668,25.7689966 L20.9500313,25.7342032 C20.824775,25.7153153 20.6895777,25.7491146 20.5832093,25.8286424 C20.4738586,25.9111525 20.4032776,26.0334265 20.3873721,26.1646474 L20.2869682,26.9639018 L20.101072,27.0295123 L19.6755982,26.9768251 C19.4320443,26.9360671 19.1855081,27.098105 19.12288,27.3456353 L18.6268253,29.2980429 L18.1914106,29.5157502 L17.0173814,28.7333955 L16.8652845,28.3019571 C16.8016622,28.1240137 16.6455889,27.9987574 16.4557163,27.974899 C16.2747905,27.9530289 16.085912,28.0385213 15.9825258,28.1926064 L14.5559959,30.3328984 L13.701072,29.6628767 C13.5857567,29.5724138 13.436642,29.5386145 13.2984625,29.5674433 L12.4365799,29.7394222 C12.3192764,29.7622864 12.2148962,29.8269028 12.142327,29.9203479 L11.5349334,30.695744 L11.4434765,30.5784405 C11.4027185,30.5257533 11.3500313,30.4800249 11.2913795,30.4472196 L9.98314716,29.7245107 C9.90759575,29.6817645 9.82409155,29.6598944 9.74058736,29.6598944 C9.66404185,29.6598944 9.58749634,29.6777881 9.51691541,29.7135756 L9.12424688,29.9094129 L9.10535903,29.8547375 C9.02881352,29.6380242 8.81309435,29.5018329 8.58345782,29.5256912 C8.35382128,29.5505436 8.17289553,29.727493 8.1430726,29.9581236 L8.13511982,30.0207518 C8.04465695,29.9978875 7.94524719,30.0008698 7.84981383,30.0336751 L7.45813939,30.1728487 L6.8477635,29.880584 C6.69964297,29.8129854 6.53661097,29.8179559 6.39644321,29.8945014 C6.37954356,29.9044424 6.3626439,29.9143833 6.34574424,29.9263125 L6.41334287,29.3885057 L6.87162184,29.0326188 C6.97600208,28.9511028 7.04360072,28.8328052 7.05950628,28.7015843 C7.07640594,28.5693694 7.04061842,28.4391426 6.95910243,28.3347623 L6.69666067,27.9967692 L6.75034194,27.9152532 L7.18078618,27.7631563 C7.26230218,27.7343274 7.3348713,27.6846226 7.39054076,27.6200062 L8.70175542,26.1030134 C8.76736586,26.028456 8.80812386,25.936005 8.81905893,25.8395775 L8.90455132,25.1606089 L9.46025185,24.5164337 C9.54077375,24.4229885 9.58351995,24.3046909 9.58153175,24.1824169 L9.54773244,22.2150979 C9.54574424,22.1266232 9.5198977,22.0401367 9.47317512,21.9645853 L8.86478742,20.9714818 L8.87075201,20.9694936 C9.10237673,20.8869835 9.24155039,20.6444237 9.19283961,20.402858 L9.08050659,19.8411929 L9.45826366,19.5479341 C9.57755536,19.4554831 9.64813629,19.3163094 9.65111858,19.1642125 L9.94437736,2.04485865 C10.0099878,2.08959304 10.0845451,2.11742777 10.1630788,2.12736875 L10.9871857,2.2297608 C11.0706899,2.24069587 11.1581705,2.23075489 11.2376983,2.19794967 L13.8084345,1.16408823 L25.2813143,1.00006213 L25.2137157,20.9814228 L25.094424,21.074868 C24.9244333,21.2060888 24.8588228,21.4307549 24.9303979,21.6325567 L25.0984003,22.1077353 L25.043725,22.5441441 C25.0208607,22.7290463 25.1063531,22.9159366 25.2614323,23.0193228 L25.52288,23.1932898 L25.5198977,23.2231128 L25.1888632,23.1813607 C25.1013826,23.1714197 25.0089316,23.1823548 24.9224451,23.2201305 L23.68877,23.7648959 L23.3965053,23.5700528 C23.2931192,23.5024542 23.1827744,23.4756135 23.0624886,23.4915191 L21.9242469,23.6296987 C21.660811,23.6615098 21.4689502,23.8941286 21.4878381,24.1585586 L21.5773068,25.3683753 Z M26.3300872,22.5361914 L26.0676455,22.3622243 L26.0994566,22.1156881 C26.1084035,22.0401367 26.1004507,21.9625971 26.0746041,21.8890339 L25.9871236,21.6395154 L26.0149583,21.6176452 C26.1362382,21.5242001 26.205825,21.3820441 26.2068191,21.227959 L26.2774,0.49804287 C26.2774,0.362845604 26.2247129,0.237589313 26.1292795,0.143150047 C26.0189347,0.032805219 25.8946725,0.00894687791 25.7733926,0 L13.701072,0.170984778 C13.6374497,0.171978875 13.5768098,0.184902144 13.5231285,0.207766387 L10.9861916,1.22771047 L10.4354615,1.15911774 L9.79128633,0.602423113 C9.64714219,0.47816092 9.4403699,0.447343896 9.26342054,0.524883504 C9.08746527,0.60341721 8.97214996,0.778378378 8.96916766,0.970239205 L8.66099742,18.9087294 L8.22856499,19.2457285 C8.07845626,19.3620379 8.00886943,19.5499223 8.04565104,19.7348245 L8.13412573,20.1752097 L7.95319997,20.2388319 C7.81203812,20.2895309 7.7006992,20.3998757 7.65000022,20.5420317 C7.60029534,20.6841876 7.617195,20.8392669 7.69572871,20.9675054 L8.55661718,22.369183 L8.58445191,24.0094439 L8.05459792,24.6237962 C7.98898748,24.6993476 7.94822948,24.7908046 7.93630031,24.8882262 L7.85180202,25.5671948 L6.72449541,26.8694626 L6.26323414,27.0324946 C6.16183619,27.0692762 6.07435561,27.1368748 6.01470976,27.2263436 L5.67075201,27.7432743 C5.5524544,27.9212178 5.56040718,28.1548307 5.69162805,28.3238273 L5.86957152,28.5524697 L5.64192318,28.7294191 C5.53654884,28.8109351 5.4689502,28.9282386 5.45304464,29.0614477 L5.33971752,29.9601118 L5.19259109,30.0754272 C5.04248236,30.1917366 4.97289553,30.379621 5.00967714,30.5665113 L5.18265011,31.4273998 C5.22440221,31.6381485 5.39538699,31.7972041 5.60812386,31.8230506 L6.42924843,31.9264368 C6.55848111,31.9473128 6.69367838,31.9105312 6.80203501,31.827027 C6.90542116,31.7465051 6.97401389,31.6252252 6.99091355,31.4949984 L7.04360072,31.0754893 L7.21557959,31.1589935 C7.3328831,31.2136688 7.46609217,31.2206275 7.59333666,31.1778813 L7.71163427,31.1361292 L7.75338636,31.2544268 C7.80706763,31.4045356 7.93033573,31.5218391 8.08044446,31.5645853 C8.23452958,31.6103138 8.40153796,31.5804908 8.52679426,31.4810811 L8.83695269,31.2405095 C8.88963986,31.1997515 8.93338015,31.1490525 8.96519127,31.0874185 C8.99899059,31.0794657 9.03278991,31.0665424 9.06559513,31.0506368 L9.72766409,30.7186083 L10.7197734,31.2673501 L11.1412708,31.8081392 C11.2357101,31.9304132 11.3788601,32 11.5329452,32 C11.6870304,32 11.8301804,31.9304132 11.9246197,31.8101274 L12.8113547,30.6778503 L13.2686395,30.5863933 L14.3651291,31.4462877 C14.4734858,31.530786 14.6126594,31.5675676 14.750839,31.5456974 C14.8870304,31.5228332 15.0093044,31.4452936 15.0858499,31.3309724 L16.3274777,29.4680336 C16.3274777,29.4680336 16.3274777,29.4680336 16.3284718,29.4680336 L17.8802581,30.5028891 C18.0263904,30.6003107 18.2172571,30.6122398 18.3783009,30.5337061 L19.2749769,30.0853681 C19.4052037,30.0197577 19.499643,29.9024542 19.5344364,29.7632805 L19.9778039,28.015657 L20.0951074,28.0305685 C20.1686706,28.0415036 20.244222,28.0325567 20.3217616,28.0057161 L20.9082792,27.7989438 C21.0872167,27.7353215 21.212473,27.5792482 21.2363314,27.3923579 L21.3128769,26.7809879 L21.3635759,26.7879466 C21.5285961,26.8147872 21.6975926,26.7491768 21.8079375,26.6209382 L22.4630478,25.8624418 C22.5495342,25.763032 22.5932745,25.630817 22.5833336,25.5005902 L22.5147408,24.5591799 L22.9998604,24.5005281 L23.3656883,24.744082 C23.5098325,24.8375272 23.6867818,24.8534327 23.8408669,24.7838459 L25.1978101,24.1853992 L25.8867197,24.2708916 C26.0199288,24.2937558 26.1491615,24.2529978 26.2545358,24.1714818 C26.3599101,24.0899658 26.4275088,23.9726623 26.4444084,23.8394532 L26.5477946,23.01137 C26.5706588,22.8264678 26.4851664,22.6395775 26.3300872,22.5361914 Z"/>
</svg>
