<svg xmlns="http://www.w3.org/2000/svg" width="32" height="32" viewBox="0 0 32 32">
  <path fill-rule="evenodd" d="M26.0896402,22.3735432 L24.7029072,23.1817253 L23.1819742,22.7025817 L23.1173594,22.4610217 L24.1233621,21.3933864 L24.6959487,21.4261909 L25.2715174,22.0773092 C25.3440848,22.1578292 25.4424981,22.2144914 25.5518462,22.235367 L26.1463024,22.3467033 C26.1264209,22.3536618 26.1075335,22.3626084 26.0896402,22.3735432 M29.7746719,29.1650557 L29.3790305,28.7187165 C29.3193861,28.6511195 29.2428424,28.6024099 29.156358,28.5745758 L28.3789922,28.3290396 L28.3133834,28.1759522 C28.3501641,28.1988159 28.389927,28.2167092 28.4286959,28.2286381 L30.2587859,28.805201 L30.840319,29.6292882 L30.7419057,29.7167667 L30.3591873,29.2843445 C30.2647503,29.1789727 30.1295563,29.1173401 29.9874037,29.1173401 C29.9128482,29.1173401 29.8402808,29.1342394 29.7746719,29.1650557 M23.703863,26.3945719 C23.5776156,26.5367245 23.5438171,26.7434918 23.6183726,26.9194429 L23.8410452,27.4403376 C23.8738496,27.5178753 23.9285237,27.5874605 23.9981088,27.6401464 L24.5130391,28.0288293 L24.4474302,29.1302631 L24.4275487,29.156109 L24.4355013,29.0268794 C24.4474302,28.8389995 24.3529932,28.6620543 24.1879769,28.5656292 L23.205832,27.9990071 C23.0795846,27.9294219 22.9314676,27.9135167 22.802238,27.9592441 L21.508948,28.388684 C21.3578487,28.4393818 21.2395539,28.5596647 21.1918384,28.7107639 L21.011911,29.2823564 L19.1152182,28.9125609 C19.1122359,28.8181239 19.0814197,28.724681 19.0247574,28.6431669 L18.2463976,27.539745 L18.4432243,27.0476784 C18.5138035,26.8717274 18.480005,26.6749007 18.3537576,26.5337422 L18.117168,26.2663364 C18.0167666,26.1520179 17.8676555,26.0983379 17.7255029,26.0983379 C17.5744037,26.1043023 17.4362275,26.1768697 17.348749,26.2961586 L17.0097698,26.7444859 L16.5316203,26.5943808 L16.1687833,25.9710965 C16.0922396,25.8408728 15.9649982,25.7533943 15.814893,25.7305306 C15.8069404,25.7285424 15.7979938,25.7275484 15.7900412,25.7275484 L15.7443138,25.5565677 C15.6816871,25.3239544 15.4540442,25.1758374 15.1965791,25.1927366 L14.5176267,25.2871737 L14.5275674,25.1330922 C14.5434726,24.8617101 14.3347171,24.6251205 14.0613468,24.6072272 L13.3008803,24.5614998 C13.21539,24.5595116 13.1458048,24.5724346 13.0782078,24.6022568 L11.5175118,25.2682863 C11.371383,25.3309129 11.2630289,25.4591484 11.2262482,25.6172062 C11.1924497,25.7712876 11.2342008,25.9353098 11.3405667,26.0555927 L11.6725874,26.4303586 L11.2332067,26.7196341 L8.96671838,26.5824519 L5.35723629,24.8805975 C5.26677557,24.8378523 5.16339189,24.8249293 5.06895488,24.8388464 L2.60464584,25.2136122 L3.02315092,22.4580395 C3.03706796,22.3665847 3.02513907,22.2741359 2.98935241,22.1876514 L2.64142657,21.3764872 L2.79948431,21.104111 C2.83825319,21.037508 2.86111689,20.9609643 2.86608726,20.8824325 L2.90585021,20.2283319 L3.72496705,18.5950686 C3.75478927,18.5354242 3.7726826,18.4698153 3.77665889,18.4022183 L3.85519072,17.093023 L3.96851514,16.9926216 C4.06692845,16.9051431 4.12756695,16.7798898 4.13551955,16.648672 C4.14247806,16.5184484 4.09774474,16.3882247 4.01126032,16.2898114 L3.90986478,16.176487 L3.9436633,15.6227878 C3.95062181,15.4925642 3.90588849,15.3623405 3.81940407,15.2639272 L3.24383532,14.614797 L3.27663975,14.0620919 C3.28459234,13.9318682 3.23985902,13.8016446 3.15238052,13.7022372 L2.81439542,13.322501 L2.81737764,13.2747854 C2.82533023,13.1425736 2.78159098,13.0143381 2.69311841,12.9139366 L2.35513331,12.5332064 L2.40284885,11.7270125 C2.40980737,11.6087177 2.37402071,11.492411 2.30244739,11.39698 L0.998222522,9.67723223 L1.1701973,2.99407383 L17.5058126,3.00202643 L17.7036333,3.15213157 L17.4541208,3.48315816 C17.3318497,3.64320405 17.3189267,3.85991215 17.4203223,4.03387507 L17.5962733,4.33507944 L17.5942852,4.33507944 C17.4630675,4.39074757 17.3616719,4.50108977 17.3169386,4.63628381 C17.2722053,4.77147785 17.2881105,4.91860078 17.3596838,5.04286001 L17.7433963,5.70193096 L17.7066155,6.30931007 C17.6966748,6.46438559 17.7622837,6.61747296 17.8805785,6.71787442 L18.5724539,7.30636613 L18.238445,8.13840593 C18.1241266,8.15629926 18.0217369,8.21296147 17.9441992,8.30043997 C17.8437977,8.4167466 17.8020466,8.5688399 17.8298807,8.71993912 L17.9650747,9.43865451 L16.6240691,10.4257698 C16.5564721,10.4754735 16.5027921,10.5410824 16.4689936,10.6146439 L15.3069213,13.079947 C15.2611939,13.1753781 15.2482709,13.2807499 15.2681524,13.3831395 L15.4252161,14.2281022 L15.3874413,14.2937111 L15.1588043,14.2797941 C15.019634,14.2887407 14.8953747,14.3404326 14.8069022,14.426917 C14.7074948,14.5273185 14.6548089,14.6664888 14.6637555,14.8086414 L14.7949733,16.8445046 C14.8118725,17.119863 15.0633732,17.2997904 15.3049332,17.3097311 L26.127415,17.0015682 L25.8411217,18.6626656 C25.8291928,18.7332449 25.8321751,18.80283 25.8500684,18.8734093 L26.0578298,19.6477928 C26.0777113,19.7223483 26.113498,19.7889513 26.1661839,19.8485957 L26.7934445,20.5543881 L27.0012059,21.4927938 L25.9017602,21.2880146 L25.3023337,20.6130385 C25.2158493,20.5146252 25.090596,20.4529926 24.9593782,20.4460341 L23.9384644,20.3853956 L23.9305118,20.3853956 C23.784383,20.3853956 23.6521711,20.4420578 23.5587282,20.5424592 L22.2038056,21.9808841 C22.0874989,22.1051433 22.0417715,22.2840766 22.0855108,22.4500869 L22.2932722,23.2234764 C22.3380055,23.3884926 22.4612707,23.5177222 22.6233047,23.56842 L24.6114524,24.1946865 C24.7446583,24.2394198 24.8917812,24.2215265 25.0140523,24.1509473 L25.8132877,23.6847266 C25.8192521,23.7095785 25.8272047,23.7324422 25.8371454,23.757294 L26.059818,24.2771946 C26.1333794,24.4511576 26.2974016,24.5654761 26.4872697,24.578399 L26.78748,24.5943042 L27.0668148,24.9114137 C26.9952415,24.9312952 26.9276444,24.9670819 26.868,25.0177796 C26.7268415,25.1450211 26.6691852,25.3358833 26.7178949,25.5177988 L26.81432,25.8746713 L26.6900608,25.9273572 C26.531009,25.9959483 26.4176846,26.1440653 26.3928327,26.3160401 C26.3689749,26.4890089 26.4385601,26.6629718 26.5727601,26.7713259 L27.7447731,27.7196723 C27.7169391,27.7226546 27.689105,27.7276249 27.6612709,27.7355775 L27.2338192,27.8489019 L26.7338,27.0914177 C26.6691852,26.9930044 26.5707719,26.920437 26.4564534,26.8876325 L24.2138229,26.2464549 C24.0279311,26.1897927 23.8320985,26.2484431 23.703863,26.3945719 M31.9089484,29.4185445 L30.9735249,28.0944382 C30.9118924,28.0069597 30.8204376,27.9413508 30.718048,27.9075523 L28.8173788,27.3081258 L27.7895064,26.4780741 C27.8571035,26.3945719 27.8978605,26.2911882 27.9028309,26.1838283 C28.0897167,26.1957571 28.2746145,26.1072846 28.3710396,25.9363039 L28.7835803,25.2215648 L29.2607357,25.2503929 C29.4853964,25.2404522 29.6086616,25.1291159 29.6722823,25.0396493 C29.7706956,24.8994849 29.7905771,24.7145871 29.7229801,24.5565294 L29.0549624,22.9948394 C28.9853773,22.8337994 28.833284,22.720475 28.6553448,22.6976113 C28.48337,22.6876706 28.3064248,22.7552676 28.2020471,22.8914557 L27.4664325,23.8636599 L27.3938651,23.7821459 C27.3849184,23.7712111 27.3749777,23.7612703 27.3650369,23.7523237 C27.4187169,23.7125607 27.4634502,23.6608689 27.4982428,23.6012244 L27.7805598,23.1121401 C27.8680383,22.962035 27.8710205,22.7811135 27.7885124,22.6290202 C27.783542,22.6190795 27.7785716,22.6101328 27.7726072,22.6011862 C27.8590916,22.5793165 27.9406057,22.5325951 28.0062145,22.4659921 C28.1215271,22.3457092 28.1702367,22.1767166 28.1344501,22.0136885 L27.7358265,20.2144149 C27.7179331,20.1319067 27.6781702,20.0553631 27.622502,19.9917423 L26.9872889,19.2760092 L26.8391719,18.721316 L27.2099614,16.5711343 C27.2358073,16.4250054 27.1940562,16.2749003 27.0946488,16.1595877 C26.9823185,16.0323463 26.8401659,15.97469 26.705966,15.9896011 L15.7552486,16.3027343 L15.6916279,15.3046842 C15.8576382,15.2977257 16.0087374,15.2052768 16.0952219,15.0561657 L16.3775388,14.5660873 C16.4381773,14.4636977 16.4590529,14.3424207 16.4361892,14.2261141 L16.2741551,13.3582876 L17.3149504,11.1524378 L18.8050671,10.0539862 C18.9571604,9.94264994 19.0337041,9.74979962 18.9989115,9.56291374 L18.897516,9.01915535 C18.9561664,8.96945166 19.0028878,8.90384278 19.03271,8.82829317 L19.6281603,7.34314686 C19.7086802,7.14532617 19.652018,6.91768326 19.4889899,6.779507 L18.7136123,6.12143012 L18.7444286,5.61147024 C18.7503931,5.51405101 18.7275294,5.41663177 18.6778257,5.33114142 L18.5018746,5.02993705 L18.5038628,5.02894298 C18.6350805,4.97327484 18.736476,4.86392672 18.7812094,4.7277386 C18.8259427,4.59254456 18.8100375,4.44542163 18.7384642,4.3211624 L18.4462065,3.81816104 L18.7961205,3.35492264 C18.8766404,3.25054488 18.910439,3.11932714 18.8925456,2.98810939 C18.8746523,2.85589757 18.8060612,2.73859686 18.6996953,2.65907095 L17.9740214,2.10934812 C17.887537,2.04274517 17.7831592,2.00795259 17.672817,2.00795259 L0.685089264,2 C0.417683403,2 0.195010864,2.21770217 0.188052347,2.48311988 L0.000172392107,9.82435515 C-0.0028098294,9.93569142 0.0329768287,10.0470277 0.101567923,10.1384825 L1.39982835,11.8512717 L1.35012466,12.6793352 C1.34217207,12.8095589 1.38690539,12.9397826 1.47438389,13.0381959 L1.81236899,13.4189261 L1.80938677,13.4666417 C1.80143418,13.5988535 1.84517343,13.727089 1.933646,13.8264964 L2.27262518,14.2082208 L2.23882667,14.7609258 C2.23186815,14.8911495 2.27660147,15.0213732 2.3630859,15.1197865 L2.93865465,15.7679226 L2.90585021,16.3226158 C2.89988577,16.4110884 2.91976725,16.499561 2.9595302,16.5790869 C2.91082058,16.6516543 2.88099837,16.7381387 2.87503392,16.8276053 L2.79053765,18.2411783 L1.97142081,19.8734476 C1.94159859,19.9340861 1.92370526,19.9987009 1.91972897,20.067292 L1.88096009,20.7054874 L1.65729347,21.0951643 C1.57876164,21.2313524 1.5688209,21.3923924 1.63045348,21.5395153 L2.01913635,22.4500869 L1.66922236,24.7523619 L1.21095432,24.8766212 C1.07078991,24.9134019 0.954483274,25.0078389 0.890862548,25.1400507 C0.82922997,25.2682863 0.825253675,25.4183914 0.881915884,25.5515973 L1.10458842,26.072492 C1.19405507,26.2822416 1.40380465,26.4005364 1.63542385,26.3677319 L5.06895488,25.8448491 L8.6356918,27.526822 C8.69334808,27.5526679 8.75299251,27.567579 8.81164287,27.5715553 L11.35846,27.7236486 C11.4638319,27.7216605 11.5612511,27.6938264 11.6417711,27.6421346 L12.6984716,26.9452888 C12.8177604,26.8657629 12.8982804,26.7385215 12.9181619,26.5933867 C12.9360552,26.4512341 12.892316,26.3080875 12.7958908,26.1997334 L12.5414079,25.9124461 L13.3605247,25.561538 L13.5046654,25.5704847 L13.4897543,25.8329202 C13.4808077,25.9820313 13.538464,26.1251779 13.6478121,26.2275675 C13.7482135,26.3210104 13.8923542,26.3647497 14.0533942,26.355803 L14.8973629,26.2394964 L14.9908058,26.5864282 C15.0355391,26.7524385 15.1647687,26.8856444 15.329785,26.9353481 C15.4122931,26.9582118 15.4977835,26.961194 15.5822798,26.9393244 L15.7691656,27.2604102 C15.8317923,27.3667761 15.9311997,27.4472961 16.0494945,27.4840768 L17.0445624,27.7972101 C17.1081831,27.8180856 17.1718038,27.823056 17.2354245,27.8190797 C17.2473534,27.8449256 17.2612705,27.8687834 17.2781697,27.8936353 L17.4580971,28.1481182 C17.4173401,28.1620352 17.3775771,28.1829107 17.3417904,28.2077626 C17.214549,28.2952411 17.1360172,28.4344114 17.1270705,28.5874988 L17.0972483,29.0924883 C17.0813431,29.3410068 17.2543119,29.5626852 17.49786,29.6094067 L21.2604295,30.3440273 C21.5109361,30.3887606 21.7495138,30.2476021 21.8260575,30.0050481 L22.0636412,29.2525342 L22.9036335,28.9731994 L23.4245282,29.2734097 L23.4125994,29.4732186 C23.4046468,29.6024482 23.4503742,29.7326718 23.5368586,29.8320792 L24.0110318,30.366891 C24.108451,30.4772331 24.2545799,30.5368776 24.4026969,30.5348894 C24.551808,30.528925 24.6889902,30.4573517 24.7794509,30.3390569 L25.3321559,29.6094067 C25.3908063,29.5298808 25.4246048,29.4364378 25.4305692,29.3400127 L25.522024,27.823056 C25.5250063,27.7634116 25.5180477,27.7037672 25.5001544,27.648099 L26.006138,27.7922397 L26.6015882,28.6948588 C26.7178949,28.8718039 26.9365911,28.9592824 27.1443525,28.900632 L27.501225,28.806195 L27.554905,28.9324424 C27.6135554,29.0646542 27.7258857,29.1660498 27.8620738,29.2087949 L28.725924,29.4811712 L29.3482142,30.1819932 C29.4963312,30.3480036 29.7349089,30.3897547 29.9307415,30.300288 L30.3273769,30.7476212 C30.421814,30.8529931 30.557008,30.9146256 30.6991606,30.9146256 C30.8214316,30.9146256 30.9377383,30.8698923 31.028199,30.7903664 L31.8324047,30.0776155 C32.0222728,29.909617 32.0550773,29.6263059 31.9089484,29.4185445"/>
</svg>
