<svg xmlns="http://www.w3.org/2000/svg" width="32" height="32" viewBox="0 0 32 32">
  <path fill-rule="evenodd" d="M28.5761069,20.0072072 L28.5850538,19.9992544 L28.780891,20.1006524 C28.7421212,20.1424045 28.7122983,20.1901212 28.6904281,20.2408201 L28.3345412,20.1155638 C28.3345412,20.1145697 28.3335471,20.1145697 28.3335471,20.1145697 C28.4220218,20.1016465 28.505526,20.065859 28.5761069,20.0072072 Z M14.6130128,1.03485555 L13.7700181,2.25759553 C13.6964548,2.36495806 13.6666319,2.50015533 13.6904903,2.62938801 C13.7153427,2.75862069 13.7879118,2.87194781 13.8982566,2.94849332 L15.940133,4.35514135 C16.0445132,4.42572227 16.1687754,4.4565393 16.2950258,4.43665735 L16.6469364,4.38397018 L16.6389836,4.46946257 C16.6240721,4.63547686 16.6906767,4.79652066 16.8199093,4.901895 L17.3606984,5.34426841 L17.4929134,5.91786269 C17.5157776,6.01826654 17.5674707,6.10773532 17.642028,6.17533395 L18.4174241,6.88213731 L18.5526214,7.47362535 C18.600338,7.68139174 18.7752992,7.83647095 18.9890302,7.857347 L19.1639913,7.87424666 L19.2465014,8.09095993 C19.2912358,8.20528114 19.3757341,8.29872631 19.4821026,8.35141348 L20.4861411,8.8713265 L21.0179833,9.98769804 C21.0915465,10.1437714 21.2446375,10.252128 21.4176105,10.2690276 L21.9335471,10.3197266 L22.3212452,10.7899348 L22.2944045,11.0643057 C22.2735285,11.2770426 22.3918261,11.4788444 22.5876633,11.5663249 L22.9564735,11.7293569 L22.9435502,11.852625 C22.9266506,12.0405095 23.0151252,12.219447 23.1751749,12.3218391 L23.3710122,12.4451072 L23.3541125,12.6180801 C23.3411892,12.7483069 23.3819472,12.881516 23.4654514,12.9829139 C23.5479615,13.0823237 23.6702355,13.1479341 23.8014564,13.1608574 L24.3839976,13.2165269 L25.1752992,13.8030444 L25.1564114,14.0008698 C25.1494527,14.0694626 25.1574055,14.1380553 25.1792756,14.206648 L25.9298192,16.4572849 C25.9924474,16.642187 26.1584617,16.7753961 26.3542989,16.795278 L26.8086015,16.8380242 L27.4319006,18.0021125 L27.354361,18.8132961 C27.3454141,18.9097235 27.3652961,19.0071451 27.4110246,19.0936316 L27.8205928,19.8580926 C27.8782504,19.9674433 27.975672,20.0499534 28.0929755,20.0917055 C27.9538018,20.1125815 27.8245692,20.1931034 27.7450414,20.3183597 L27.4587413,20.7746505 C27.3831899,20.8979186 27.3633079,21.0460391 27.40506,21.1862069 C27.4090364,21.197142 27.4130128,21.2090711 27.4169892,21.2210003 L27.3722548,21.2170239 C27.1436123,21.1931656 26.9328637,21.3383038 26.8602945,21.5520348 C26.7867313,21.7707363 26.8722237,22.0113079 27.0670668,22.1335819 L27.1028543,22.155452 L27.0809842,22.1902454 C26.9994682,22.3194781 26.9835626,22.4745573 27.0302852,22.6127369 L26.8781883,22.6365952 C26.702233,22.6634358 26.5531184,22.7827276 26.4894962,22.9487418 C26.4248798,23.1157502 26.4566909,23.3046288 26.5700181,23.4438024 L26.9189463,23.8682821 C26.9080112,23.8851817 26.8990644,23.9030755 26.8911116,23.9219633 L26.4994371,23.8026716 C26.3562871,23.7609195 26.202202,23.7847779 26.0809221,23.867288 C25.957654,23.9507922 25.8781262,24.0840012 25.8632147,24.2311277 L25.8164921,24.7112768 C25.8005866,24.8902144 25.8811085,25.0592109 26.0182939,25.161603 C26.0143175,25.1785026 26.0123293,25.1963964 26.0103411,25.2132961 L25.9178901,26.1745884 C25.9109314,26.2491457 25.9218665,26.3266853 25.9487071,26.3992544 L26.0530873,26.669649 L25.8990022,26.9151911 C25.8065511,27.0633116 25.7976043,27.2432432 25.8741498,27.3983225 C25.9049668,27.4629388 25.9497012,27.5186083 26.0023884,27.5623486 L25.8055571,27.8754893 C25.7399466,27.9808636 25.7170824,28.107114 25.7389525,28.2283939 L24.1185735,27.9212178 C23.970453,27.8894066 23.8203443,27.9311587 23.7080112,28.0265921 L23.1831277,28.4600186 C23.0817298,28.5425287 23.0161193,28.6648027 23.0031961,28.7950295 L22.910745,29.7543336 C22.8938453,29.9422181 22.98232,30.1211556 23.1423697,30.2225536 L23.287508,30.3140106 L23.1125468,30.9671326 L23.0777534,30.9641504 L22.8640224,30.5655172 L22.8958335,30.2354769 C22.9087568,30.0972973 22.8630283,29.9611059 22.7725654,29.859708 C22.6811085,29.7553277 22.5488935,29.6936937 22.4107139,29.6917055 L7.03600129,29.3924821 L5.84308423,26.5543336 L6.28346945,24.3285492 C6.30931598,24.2003107 6.28346945,24.0700839 6.21288852,23.9607331 L5.46433307,22.8145387 L5.54386087,21.9944082 L5.91366516,21.6902144 C6.01406901,21.604722 6.07669716,21.4864244 6.08962043,21.3561976 L6.18505379,20.3621 L6.81531163,19.8441752 C6.9485207,19.7328363 7.01413114,19.5648338 6.9912669,19.3928549 C6.96740856,19.2218701 6.85905193,19.0767319 6.70099042,19.006151 L6.22879408,18.7963964 L2.12118302,1.54582168 L14.6130128,1.03485555 Z M29.902233,19.5618515 L28.7550445,18.9683753 C28.6606052,18.9166822 28.5542368,18.9017707 28.444886,18.9186704 L28.3583995,18.7556384 L28.4359392,17.946443 C28.444886,17.8480273 28.4250041,17.7506058 28.3792756,17.6651134 L27.5591451,16.1332091 C27.4796173,15.9860826 27.333485,15.8886611 27.1684648,15.8737496 L26.7708258,15.8359739 L26.1554794,13.9929171 L26.1932551,13.6171482 C26.2091607,13.442187 26.1346033,13.2761727 25.9924474,13.1698043 L24.8621585,12.3337683 C24.7905835,12.2820752 24.7070793,12.24927 24.6156223,12.2403231 L24.3919503,12.2184529 C24.4028854,12.0365331 24.3154048,11.8645542 24.1593315,11.7651445 L23.9634943,11.6418764 L23.980394,11.4679093 C24.0002759,11.2551724 23.8829724,11.0533706 23.6871352,10.96589 L23.318325,10.802858 L23.3302542,10.6795899 C23.3431774,10.5483691 23.3034135,10.4201305 23.2189152,10.3157502 L22.5697695,9.52743088 C22.4852712,9.42603293 22.3669736,9.36241069 22.2347587,9.34849332 L21.7943735,9.30574713 L21.311242,8.29375582 C21.2655136,8.19434607 21.1859858,8.11283007 21.0905524,8.06511339 L20.1063958,7.55613545 L19.9811395,7.22907735 C19.9125468,7.05511028 19.7534912,6.93383038 19.5656068,6.91394843 L19.4423387,6.90201926 L19.3518758,6.51034483 C19.3290115,6.40994098 19.2773185,6.3204722 19.2017671,6.25287356 L18.4273651,5.54607021 L18.2921678,4.95657036 C18.2683095,4.85020193 18.2076695,4.75178627 18.1221771,4.68219944 L17.6549513,4.29947189 L17.6986916,3.8461634 C17.7126089,3.69406648 17.6579336,3.54594595 17.5446064,3.43659522 C17.4342616,3.33320907 17.285147,3.28449829 17.1300678,3.30736253 L16.3417484,3.42466605 L14.870484,2.41068655 L15.9958025,0.778378378 C16.103165,0.622305064 16.113106,0.422491457 16.021649,0.257471264 C15.9351625,0.0994097546 15.7641777,0 15.5663523,0 L1.47800191,0.576576577 C1.32789318,0.582541162 1.19070772,0.654116185 1.10223304,0.772413793 C1.01077606,0.891705499 0.978964942,1.04380242 1.01375836,1.18794657 L5.31919483,19.2666045 C5.35200005,19.40379 5.44146883,19.5210935 5.56274873,19.587698 L5.39275805,19.7278658 C5.290366,19.8133582 5.22773785,19.9316558 5.21481458,20.0628767 L5.11938122,21.0569742 L4.74957693,21.360174 C4.64917308,21.4456664 4.58654494,21.563964 4.57362167,21.6931966 L4.45830635,22.8930724 C4.44836538,23.0044113 4.47520601,23.1167443 4.53684006,23.2131718 L5.26948995,24.3355079 L4.83805161,26.5095993 C4.81816966,26.6080149 4.82811064,26.7084188 4.86688044,26.7988816 L6.24469964,30.0754272 C6.31925696,30.257347 6.49620632,30.3776328 6.69303764,30.3816092 L21.8579957,30.6758621 C21.8589898,30.7553899 21.8788717,30.8329295 21.9166475,30.9035104 L22.3272097,31.6689655 C22.4067375,31.816092 22.5518758,31.9135135 22.7159019,31.928425 L23.430658,31.9980118 C23.4396049,31.9990059 23.4743983,32 23.4833452,32 C23.7080112,32 23.9058366,31.8488972 23.9644884,31.6311898 L24.3422455,30.216589 C24.398909,30.0058403 24.3124225,29.7841566 24.1265263,29.6668531 L23.9306891,29.543585 L23.9734353,29.0962411 L24.1613197,28.9411619 L26.5501361,29.3924821 C26.7410028,29.4272756 26.9278932,29.3477477 27.0392321,29.197639 C27.150571,29.044548 27.1654825,28.8367816 27.0760137,28.6687791 L26.8026369,28.157813 L27.221152,27.4897794 C27.313603,27.342653 27.3225499,27.1617272 27.2460044,27.0076421 C27.2102169,26.9330848 27.1575297,26.8704567 27.0929134,26.8237341 C27.1118012,26.7322771 27.1048425,26.6338614 27.0700491,26.5443927 L27.0551377,26.5046288 C27.1684648,26.4708295 27.2708568,26.3972662 27.3364673,26.2908978 L27.9090675,25.3783162 C27.9915776,25.2470954 28.0074831,25.0860516 27.9528078,24.9399192 C27.9498255,24.9319664 27.9468432,24.9240137 27.9428668,24.9160609 C28.0343237,24.7838459 28.0561939,24.6098788 27.9975421,24.4567878 L27.9329258,24.2877912 L28.4458801,23.8662939 C28.6238236,23.7171792 28.6765108,23.469649 28.5751128,23.2628767 C28.5373371,23.1873253 28.4846499,23.1256912 28.4220218,23.0789686 C28.4518447,22.9328363 28.4150631,22.7797453 28.3186356,22.6634358 L28.1138516,22.4149115 L28.189403,22.2936316 L28.2450724,22.2995961 C28.4349451,22.3115253 28.6128885,22.2240447 28.7122983,22.0679714 L28.9976043,21.6116806 C29.0363741,21.5500466 29.0602324,21.4814539 29.0701734,21.4108729 C29.1765418,21.4208139 29.279928,21.3919851 29.3684027,21.3343274 C29.4976353,21.2538055 29.5831277,21.1136378 29.5970451,20.9615409 L29.6238857,20.688164 L29.9897136,20.3859584 C30.1189463,20.2785958 30.1855508,20.1155638 30.1686512,19.9495495 C30.1507574,19.7825412 30.0503536,19.6374029 29.902233,19.5618515 Z"/>
</svg>
