<svg xmlns="http://www.w3.org/2000/svg" width="32" height="32" viewBox="0 0 32 32">
  <path fill-rule="evenodd" d="M19.9006703,25.755486 L19.558723,27.1739708 L18.49809,28.4324163 C18.3678717,28.5874854 18.3440149,28.8021965 18.437454,28.9831105 C18.5398394,29.1749588 18.7525624,29.2872845 18.9205539,29.2485172 L20.9742257,29.0735675 L21.2475847,30.2574605 L21.1780024,30.544736 L10.5925472,30.9850925 L9.99712153,3.91360338 L11.1770385,2.02494107 L12.8032761,1.03090827 L14.9981005,1.56072775 L14.104465,2.99014691 L12.3032776,4.09153525 C12.1919459,4.15912948 12.1094412,4.27145518 12.0786262,4.39968541 L11.708846,5.93347802 C11.678031,6.06071421 11.6998997,6.19689671 11.7674939,6.31021645 L12.2416476,7.08456799 L11.7356849,9.18495929 C11.7008937,9.33008808 11.7317088,9.479193 11.8201777,9.5974829 L15.3539643,14.3529358 L14.6690757,17.1928875 C14.6253382,17.3757895 14.6869683,17.5666438 14.832097,17.6899039 L17.2913342,19.7644503 L16.9941184,20.998045 C16.952369,21.1710067 17.0070408,21.3539088 17.1372591,21.4751808 L21.0845633,25.1998216 L20.2744266,25.3876938 C20.0925186,25.4284492 19.9454017,25.5715899 19.9006703,25.755486 M20.498084,27.5208882 L20.7952998,26.2872935 L22.2127906,25.9602567 C22.3917165,25.9185074 22.5328691,25.7823249 22.5805827,25.6073751 C22.6292903,25.4294432 22.5766066,25.240577 22.4424121,25.1143348 L18.0279125,20.9513255 L18.3300985,19.6978501 C18.3738359,19.5149481 18.3122059,19.3240938 18.1670771,19.2008337 L15.7078399,17.1262873 L16.3748359,14.357906 C16.4086331,14.2137712 16.3788121,14.0636722 16.2903432,13.9453823 L12.7565566,9.19092349 L13.2565551,7.11737108 C13.2873701,6.99013488 13.2664954,6.85295835 13.1979071,6.74063265 L12.7227595,5.9662811 L12.9971125,4.83208968 L14.7197713,3.77940895 C14.7853775,3.74064167 14.8420374,3.68497583 14.8857748,3.6173816 L16.2068444,1.50207982 C16.2903432,1.36689136 16.3052537,1.19790578 16.2446176,1.0497949 C16.1849757,0.902678042 16.0557514,0.792340402 15.9016763,0.755561188 L12.8390613,0.0160007887 C12.707849,-0.0187903591 12.5736545,0.00407239516 12.4613288,0.0756427564 L10.5617322,1.23567903 C10.49712,1.27444631 10.4394661,1.33011214 10.3967227,1.39770637 L9.0746591,3.51400219 C9.02396343,3.59650692 8.99811857,3.69094003 9.00010664,3.78736121 L9.61044278,31.514912 C9.61342487,31.6481124 9.67107878,31.7763426 9.76849399,31.8667996 C9.86093904,31.9522864 9.98121701,32 10.1074592,32 L10.1273398,32 L21.5945022,31.5238583 C21.8141834,31.513918 22.0040437,31.3578548 22.0567274,31.1431437 L22.2416175,30.3737623 C22.2595101,30.2982159 22.2595101,30.2216753 22.2426115,30.1471229 L21.8459924,28.4294342 C21.7883385,28.1789379 21.5547408,28.0149225 21.3201491,28.0467316 L20.0318826,28.1560752 L20.3937105,27.725659 C20.4434122,27.6680051 20.4791974,27.5974288 20.498084,27.5208882"/>
</svg>
