<svg xmlns="http://www.w3.org/2000/svg" width="32" height="32" viewBox="0 0 32 32">
  <path fill-rule="evenodd" d="M15.405105,9.20877851 L28.0157008,8.99704456 L28.8139279,9.48810828 C28.9352027,9.56266249 29.0763587,9.5805555 29.204592,9.54675759 C29.2026038,9.5487457 29.2006157,9.55172787 29.1996217,9.55471004 L28.6320156,10.4762001 C28.5017943,10.687934 28.549509,10.9652757 28.7413618,11.1213425 L29.4749752,11.7217524 L29.4729871,11.8549559 C29.471993,11.9533674 29.4998266,12.0478028 29.5535056,12.1322975 L29.9193183,12.6939392 C30.0097774,12.8331071 30.1638561,12.9166078 30.3298635,12.9185959 L30.7702303,12.9235662 L30.994887,23.4486323 L1.01316064,23.4635431 L1.52609359,9.06066415 L15.405105,9.20877851 Z M31.7583221,12.6084504 C31.7543459,12.42455 31.650964,12.2595367 31.4889329,12.1750419 L31.119144,11.9861713 C31.0515482,11.9523734 30.9789821,11.9334863 30.8984636,11.9314982 L30.6072051,11.928516 L30.4690313,11.715788 L30.4720135,11.4951076 C30.4740016,11.3420229 30.4064058,11.1998729 30.2891072,11.1044435 L29.7065903,10.6282906 L29.9700152,10.1978643 L30.2125649,10.0805657 C30.4342394,9.97420172 30.5445796,9.71674119 30.4700254,9.48114989 L30.2901012,8.9214963 C30.2493449,8.79525117 30.161868,8.69087528 30.0445694,8.63123191 L29.6747805,8.44236125 C29.5346186,8.36979516 29.3725874,8.36681299 29.2314315,8.43739097 L29.1031982,8.49902245 L28.4143173,8.07555455 C28.3298226,8.02386363 28.2244526,7.99404195 28.1439341,8.00100034 L15.3991407,8.2147224 L1.04596449,8.0606437 C0.777569341,8.0606437 0.558876997,8.2713836 0.548936435,8.53977875 L0.00021746199,23.9426782 C-0.00375876245,24.0768758 0.0469380992,24.2100793 0.140379374,24.3055087 C0.232826592,24.4019321 0.363047943,24.4575993 0.497245518,24.4575993 L31.5028497,24.4426884 C31.6350591,24.4426884 31.7652805,24.3890094 31.8577277,24.29358 C31.951169,24.1981506 32.0028599,24.0679293 31.9998777,23.9357198 L31.7583221,12.6084504 Z"/>
</svg>
