<svg xmlns="http://www.w3.org/2000/svg" width="32" height="32" viewBox="0 0 32 32">
  <path fill-rule="evenodd" d="M26.128691,25.5644178 L25.3076133,25.8417552 C25.3175537,25.8258506 25.3265001,25.8089519 25.3344524,25.7910591 C25.3593034,25.7900651 25.3851485,25.787083 25.4109936,25.7821128 C25.4915109,25.7652141 25.5650699,25.7274405 25.6257064,25.6757504 C25.7499615,25.6936431 25.8762047,25.66581 25.981573,25.5912569 L26.0809771,25.5226681 L26.4795874,25.496823 C26.4666649,25.5167039 26.4547364,25.5375787 26.444796,25.5584536 L26.3781953,25.5465251 C26.2966839,25.5326085 26.2111964,25.5375787 26.128691,25.5644178 Z M27.1634875,25.2483128 L27.2400287,25.1956287 L27.418956,25.202587 L27.1813803,25.3218719 L27.0680596,25.300003 C27.100863,25.2860864 27.1326723,25.2691877 27.1634875,25.2483128 Z M19.3682194,21.8208601 L19.506391,21.0663831 C19.5352182,20.9023663 19.48154,20.7353675 19.3622551,20.6210528 L18.8890917,20.163794 C18.7817353,20.0574316 18.6306411,20.0067355 18.482529,20.0246283 C18.4377971,19.9311884 18.3652322,19.8546473 18.2727864,19.8039512 L17.7688077,19.5256198 C17.679344,19.4769118 17.582922,19.4540488 17.5153272,19.4629952 L1.01424948,19.871546 L1.03512433,19.3268116 L4.16337082,16.7194425 C4.2528345,16.6458835 4.31347099,16.5425033 4.33533989,16.4262005 L4.40094658,16.0653637 C4.42480356,15.9361383 4.39597638,15.804925 4.32142332,15.6945864 L4.22997156,15.562379 L4.26078683,15.5226174 C4.30750675,15.4599928 4.34031009,15.3864338 4.35323262,15.3118807 L4.41983336,14.9510439 C4.46854136,14.6816588 4.28861997,14.4222142 4.0192349,14.3725121 L3.78762339,14.3307624 L3.7975638,14.2780782 C3.79955188,14.2681378 3.80054592,14.2591915 3.80153996,14.2502451 L8.04311218,13.9420924 L8.17830174,14.1359304 C8.25384884,14.2442809 8.36617545,14.3168458 8.4963948,14.3416969 L8.86617799,14.4092916 C8.94271913,14.4202261 9.01329603,14.4142618 9.08387293,14.3953751 L10.1514728,14.0852343 L11.1246388,14.2641617 C11.2071441,14.2760902 11.2995899,14.2681378 11.3830894,14.2383166 L12.3811064,13.8635632 C12.445719,13.8407003 12.5063555,13.8019327 12.5540695,13.7552128 L13.5023844,12.835725 L13.6186872,12.8565999 C13.6892641,12.8685283 13.7648112,12.8645522 13.8393643,12.8446714 L14.2330044,12.7303567 C14.4139199,12.6776725 14.5481154,12.5295604 14.5839008,12.3416867 L14.6137221,12.1846283 L14.6574599,12.153813 C14.7866852,12.0643493 14.8681965,11.9152432 14.8711786,11.7561967 C14.8751548,11.5961561 14.8015958,11.4430738 14.6723705,11.3466518 L14.5908591,11.2860153 L14.6017936,11.2273669 C14.6226684,11.108082 14.6007995,10.9878031 14.538175,10.8834288 L15.0769451,10.2720937 C15.2280393,10.1011187 15.2429499,9.85062039 15.1147186,9.66075859 L14.9656125,9.44604577 C14.8900654,9.33769532 14.7777388,9.26513034 14.6465254,9.24027932 L14.5660081,9.2253687 L15.9228738,8.2879882 C16.0312243,8.21343514 16.1077654,8.09613832 16.1306284,7.96790705 L16.1962351,7.60309407 L19.0143408,5.22534841 L24.0421993,5.01958195 L24.0223185,5.13091453 C23.9984615,5.26013983 24.0282828,5.39532939 24.1028358,5.50069772 L24.132657,5.54542955 L24.0044258,6.24622834 C23.9924973,6.31282907 23.9944854,6.38241193 24.01039,6.45000671 L24.3801732,7.97585938 L24.2708287,8.1199953 C24.2260969,8.18261987 24.1942876,8.25419081 24.1823591,8.32576175 L24.0173483,9.22735679 C23.9934913,9.35658209 24.0223185,9.48779548 24.0978656,9.59912806 C24.1356392,9.65280626 24.1823591,9.69853214 24.2360373,9.73332357 L24.2748049,9.99475631 C24.2857393,10.0673213 24.3135725,10.1388922 24.3583043,10.205493 L24.3891196,10.2492308 C24.3732149,10.3714978 24.4010481,10.4947588 24.4736131,10.5991331 L24.5034343,10.6428709 L24.3423997,11.5235911 C24.3076082,11.7214052 24.3940898,11.9202134 24.5600946,12.0275698 C24.7121829,12.128962 24.9040327,12.1349262 25.0591031,12.0534149 L25.1157634,15.48882 C25.1177515,15.5882241 25.1485668,15.6826579 25.2042331,15.7621812 L25.226102,15.7939905 L24.4368335,19.1518604 C24.4040302,19.2840679 24.4298753,19.4252217 24.5034343,19.5355602 C24.5272913,19.5733337 24.5581065,19.6081252 24.5909099,19.6379464 L24.4825594,22.9838878 C24.4785833,23.0922383 24.5113866,23.1995947 24.5710291,23.2840882 L24.6127788,23.3447246 L24.2231148,23.6826985 L23.937825,22.9222573 C23.8752005,22.7582406 23.7340467,22.6409437 23.5620776,22.6091344 L23.3751979,22.574343 C23.3612814,22.5723549 23.304621,22.5683788 23.2916985,22.5683788 C23.0521347,22.5683788 22.8473623,22.7393538 22.8026304,22.9759355 L22.7032263,23.5166937 C22.6883157,23.6041693 22.6962681,23.6916449 22.7250952,23.7731562 L20.8324415,22.7323955 L20.6038121,22.4013799 C20.528265,22.2930294 20.4159384,22.2194704 20.284725,22.1956134 L19.4656354,22.0455133 L19.3682194,21.8208601 Z M31.9507882,23.7960192 C31.8474079,23.5783242 31.5939275,23.4640095 31.3643041,23.5325984 L30.6903444,23.7284244 L30.4408402,23.6826985 C30.3474003,23.6667939 30.2470022,23.6777283 30.1585326,23.7155019 L30.0462059,23.7642099 C30.0452119,23.7622218 30.0432238,23.7592397 30.0412357,23.7572516 L29.8961058,23.5465149 C29.8185706,23.4302122 29.6923274,23.353671 29.5571379,23.3347842 C29.4179721,23.3139094 29.2768183,23.3546651 29.1674739,23.4451228 L28.2151827,24.2393614 L27.0819762,24.1966176 C27.004441,24.2025819 26.9050369,24.2184865 26.808615,24.2840932 L26.7648772,24.3139145 C26.5710392,24.2940336 26.4020523,24.3715688 26.298672,24.5127226 L25.8811749,24.5385677 C25.8255086,24.5425438 25.7718304,24.5554664 25.7211343,24.5773353 L25.6714323,24.5395617 C25.5352487,24.4361815 25.3513511,24.4113305 25.1903165,24.472961 C25.1485668,24.4888656 25.1097992,24.5107345 25.0750078,24.5355856 L24.9885262,24.3347893 L25.6018494,23.8029775 C25.7936993,23.6349846 25.8274967,23.3516829 25.6833607,23.1459165 L25.4825645,22.8546625 L25.5968792,19.3138891 C25.5998613,19.1955982 25.5620878,19.0842657 25.494493,18.994802 L26.2439998,15.8079071 C26.2768031,15.6707294 26.24897,15.5246054 26.1694467,15.4112848 L26.1078162,15.3208271 L26.0491678,11.7343278 C26.0471797,11.6379058 26.0173585,11.54546 25.9616922,11.4609665 L25.666462,11.033529 C25.61676,10.961958 25.5521474,10.9062917 25.4726241,10.8685182 L25.51835,10.6190139 C25.5422069,10.4897886 25.5133798,10.3575812 25.4378327,10.2472427 L25.4080114,10.2025108 C25.4239161,10.0812379 25.3950889,9.9579768 25.323518,9.85360251 L25.2430007,9.73630569 L25.179382,9.27705883 C25.1654655,9.18262495 25.1247098,9.0961434 25.0640733,9.0255665 L25.1396204,8.61999784 L25.3145716,8.38639824 C25.4050293,8.26711334 25.4358446,8.1150251 25.4010531,7.97088918 L25.0024428,6.31879332 L25.1475727,5.52057853 C25.1714297,5.39035918 25.1406145,5.25516963 25.0670554,5.1498013 L25.0372342,5.10606351 L25.1326621,4.58717419 C25.1595012,4.43806807 25.1177515,4.28697386 25.0183474,4.17265917 C24.9477705,4.09015378 24.8463784,3.9907497 24.6217251,4.0006901 L18.8036042,4.2392599 C18.6922716,4.24423011 18.5859092,4.28597982 18.5043979,4.35655672 L15.4198892,6.95796157 C15.3324136,7.03251463 15.2727711,7.13490084 15.2509022,7.24822149 L15.1892717,7.58619538 L13.2270351,8.94206707 C13.1186847,9.01662013 13.0431376,9.13391695 13.0192806,9.26314226 C12.9964176,9.39236756 13.0262389,9.52755712 13.1007919,9.63391948 L13.2469159,9.84465614 C13.321469,9.95499467 13.4347896,10.0285537 13.5669971,10.0534047 L13.8930425,10.1130472 L13.8015907,10.2164274 C13.6405561,10.2233857 13.4904559,10.3058911 13.4009923,10.4420747 C13.2916478,10.6120557 13.2946299,10.8287566 13.4089446,10.9937673 L13.5858838,11.2512239 L13.5570567,11.4102704 C13.5312116,11.5593766 13.5719673,11.7084827 13.6683892,11.8218034 L13.663419,11.8546067 L13.4208731,11.8098749 C13.2588444,11.789994 13.1067562,11.8357199 12.9954236,11.9440704 L11.9367701,12.9689265 L11.1614183,13.2601804 L10.2150914,13.0862233 C10.1385503,13.0723067 10.059027,13.0772769 9.98845009,13.0981518 L8.92085023,13.4082925 L8.70116721,13.1438777 C8.59778697,12.9917894 8.44072851,12.9142542 8.25484288,12.9291648 L3.15541342,13.2999421 C3.0063073,13.3118706 2.87111775,13.3894057 2.78563024,13.5126668 C2.70014272,13.6359279 2.6752917,13.7890102 2.71604738,13.9341401 L2.79755873,14.2154537 L2.72002354,14.6409031 C2.69616656,14.7701285 2.72499374,14.9023359 2.80054085,15.0136685 C2.87608795,15.1220189 2.98841456,15.1945839 3.11962795,15.2194349 L3.22996649,15.2393157 L3.22201416,15.2502502 C3.09278885,15.4202312 3.08682461,15.6538307 3.20809759,15.8327581 L3.37907261,16.0792802 L0.229951262,18.7045421 C0.122594853,18.7940057 0.056988158,18.9252191 0.051023913,19.067367 L0.000327830679,20.3606141 C-0.00464237347,20.4977917 0.0470477497,20.6329813 0.145457792,20.7303973 C0.211064487,20.796004 0.314444733,20.8755272 0.509276735,20.8775153 L17.4039947,20.4600182 L17.6147313,20.5753269 L17.6713917,20.7711529 C17.7469388,21.0325857 18.0203,21.1846739 18.2867029,21.1101209 L18.4039997,21.0763235 L18.4795469,21.1498825 L18.36225,21.7900448 C18.3453513,21.8864667 18.3562858,21.9858708 18.3950534,22.0763285 L18.6574802,22.6836875 C18.7230869,22.8367698 18.8602645,22.9451202 19.0242812,22.9759355 L19.9030133,23.1359761 L20.0819407,23.3954207 C20.1256785,23.4570513 20.1833328,23.5087414 20.2509276,23.5465149 L23.2867283,25.2174976 L23.2678415,25.5475191 C23.2658534,25.5892688 23.2698296,25.6310186 23.2767879,25.6707802 C23.2728117,25.6787325 23.2678415,25.6866848 23.2638654,25.6946372 L23.0620751,26.0604442 C22.9477604,26.0485157 22.8354338,26.0813191 22.743982,26.1459317 L22.5312573,26.2930497 C22.4676387,26.3367875 22.4129664,26.39643 22.3771809,26.4630307 L22.0978555,26.9699916 C21.9994454,27.1469308 22.0183322,27.3636317 22.1445754,27.5206902 C22.2390093,27.6399751 22.3801631,27.7075698 22.5322513,27.7075698 C22.5779772,27.7075698 22.6237031,27.7016056 22.670423,27.687689 L23.0650572,27.5743684 C23.1674434,27.5445472 23.2569071,27.4829166 23.3245019,27.394447 L23.3881205,27.3099535 C23.4080013,27.3159178 23.4288761,27.320888 23.448757,27.3248641 C23.5789763,27.3477271 23.7111837,27.3188999 23.815558,27.2433528 L24.1604902,27.005777 L24.2032339,27.0385804 C24.3334533,27.1350023 24.5034343,27.1628355 24.6594987,27.1101513 L26.3245171,26.5475242 L26.7469844,26.6250594 C26.8762097,26.6479223 27.004441,26.615119 27.1098093,26.543548 C27.1853564,26.4908639 27.2459929,26.4192929 27.2827724,26.3357935 C27.3523553,26.3328114 27.4199501,26.3149186 27.4766104,26.2841034 L28.1953019,25.9262487 L29.0183677,25.9133262 C29.1724441,25.910344 29.3135979,25.837779 29.4070377,25.714518 L29.5919293,25.4679959 C29.6794049,25.4779363 29.7678745,25.4650137 29.8454097,25.4302223 L30.4517746,25.1697836 C30.5312979,25.1349922 30.6018748,25.0803199 30.6535649,25.0117311 L30.7151954,24.9292257 L30.778814,24.9421483 C30.9080393,24.9620291 31.0382587,24.9332019 31.1446211,24.8606369 L31.7827953,24.4192828 C31.9865736,24.2811111 32.0571505,24.0186843 31.9507882,23.7960192 Z"/>
</svg>
