<svg xmlns="http://www.w3.org/2000/svg" width="32" height="32" viewBox="0 0 32 32">
  <path fill-rule="evenodd" d="M18.0930155,17.9856482 C18.0443062,18.0442981 18.0095139,18.1148768 17.9906266,18.19142 L17.7152701,19.4111398 L17.3096909,19.6646268 C17.1735038,19.7501165 17.08702,19.8972384 17.0770793,20.0572831 L16.9070939,23.0046908 C16.9011295,23.1060856 16.9269753,23.2074804 16.982643,23.2969464 L17.1983555,23.6389053 L16.4249716,25.1717561 C16.371292,25.2761331 16.356381,25.3974092 16.3832208,25.5157031 L16.6148383,26.4550961 L16.3653276,27.5595042 L15.9557721,27.8169675 C15.8434426,27.8885403 15.7668995,27.9978876 15.7380715,28.1251281 L15.4159939,29.5436613 C15.3812016,29.6937653 15.4209643,29.8548041 15.5223591,29.9770743 L16.3504166,30.9512597 L9.38996182,30.6142711 L9.24283995,30.3806654 L9.49235068,20.6398062 C9.49433882,20.5403995 9.46749902,20.4449691 9.41580755,20.3624616 L8.68318042,19.2013917 C8.53804668,18.9737504 8.22988602,18.9041658 7.99926255,19.0463173 L7.85114662,19.1387655 L8.23088009,17.4717157 C8.25970802,17.3434811 8.23585042,17.207294 8.16725982,17.0969526 L7.91079062,16.6893852 L7.97242275,16.418005 C8.00224475,16.2897704 7.97938122,16.1565655 7.90780842,16.0422478 L7.60461809,15.5621136 L7.46544875,14.1525271 C7.44357929,13.9437731 7.29546335,13.7717996 7.09167969,13.719114 L7.49228855,11.9546457 L8.10662175,11.2051194 C8.20105809,11.0888136 8.23783855,10.9387096 8.20901062,10.7935758 L7.30341589,6.21092852 L7.81635429,3.94843279 C7.84418815,3.81920413 7.82231869,3.68699326 7.75173995,3.57267559 L7.49527075,3.16709639 L7.79647295,1.84399366 L25.1628176,1.01195986 L25.556468,2.0398248 L24.363588,3.49414433 C24.2443,3.64027213 24.2184543,3.83809139 24.2940033,4.01205306 L25.109138,5.83119505 L24.8904433,5.96937032 C24.7791079,6.04094312 24.7015707,6.15128452 24.6727427,6.27852505 L24.4918226,7.07775465 L22.2571607,9.20008698 L21.5672785,9.04302445 C21.3803939,9.00723805 21.1935094,9.06986425 21.0762095,9.21499798 L20.3912976,10.0520021 C20.3306595,10.1235749 20.2918909,10.2120468 20.2799621,10.3064832 L19.7093679,14.9100059 L19.3246641,15.1515641 C19.2133286,15.224131 19.1367855,15.3334783 19.1079575,15.4607188 L18.7053605,17.2391041 L18.0930155,17.9856482 Z M26.5873151,1.95433506 L25.9630412,0.320089466 C25.8884862,0.1252524 25.7185008,0.00894659998 25.4759486,0 L7.37001835,0.868814265 C7.14834149,0.880743065 6.95946882,1.03879966 6.90877142,1.2555062 L6.47933462,3.14820913 C6.45150076,3.27743779 6.47436429,3.40964866 6.54494302,3.52396633 L6.80141222,3.92954553 L6.30934922,6.09263459 C6.29443822,6.16023112 6.29344416,6.23180392 6.30736109,6.30039452 L7.18711009,10.7567954 L6.65031409,11.4128794 C6.60160482,11.4705352 6.56681249,11.542108 6.54891929,11.6186512 L6.01212329,13.9845298 C5.98329536,14.1127644 6.00615889,14.2449753 6.07773169,14.3612811 C6.15029856,14.4736106 6.26063996,14.5501538 6.38887456,14.5789817 L6.51114476,14.6068156 L6.62645649,15.775838 C6.63440902,15.8523811 6.65826662,15.925942 6.70101149,15.9935386 L6.95748069,16.3991178 L6.89485449,16.671492 C6.86602655,16.8007207 6.88889009,16.9329316 6.95946882,17.0452611 L7.21593802,17.4528284 L6.61651582,20.0880992 C6.57178282,20.2849244 6.64932002,20.4867199 6.81532915,20.6050138 C6.97935015,20.7193315 7.20202109,20.72629 7.36604209,20.6199248 L8.10761582,20.1537076 L8.49430775,20.7660526 L8.24479702,30.5069119 C8.24280889,30.6063185 8.26964868,30.702743 8.32034608,30.7822683 L8.68616262,31.3628033 C8.77264642,31.5009785 8.92076235,31.5874623 9.08378928,31.5944208 L17.459795,32 L17.4717238,32 C17.6605965,32 17.8315759,31.8936349 17.9170657,31.7216613 C18.0055376,31.5457115 17.9796919,31.3329813 17.8504632,31.179895 L16.4408767,29.5217918 L16.6625535,28.5466124 L17.072109,28.2891491 C17.1834445,28.2175763 17.2599876,28.108229 17.2888155,27.9809885 L17.6118872,26.5554969 C17.6258041,26.4819359 17.6258041,26.408375 17.608905,26.3318319 L17.3931925,25.4580473 L18.2113094,23.8377186 C18.2908347,23.6816502 18.2818881,23.4947656 18.190434,23.3476438 L17.9081191,22.9023019 L18.0552409,20.3704141 L18.4170812,20.1437669 C18.5284167,20.0741822 18.6109242,19.9598646 18.6397521,19.83163 L18.9349899,18.5264204 L19.547335,17.7798764 C19.5960443,17.7212264 19.6308366,17.6506477 19.6487298,17.5741046 L20.0314455,15.8822031 L20.4400069,15.6257339 C20.5662533,15.5442204 20.6487609,15.4130036 20.6666541,15.2678699 L21.2491771,10.571899 L21.6507801,10.0828182 L22.3008997,10.22994 C22.4599503,10.2637383 22.6309298,10.2190053 22.7492237,10.1046876 L25.2850878,7.69507005 C25.3556665,7.62946165 25.4043758,7.54397192 25.4292274,7.44456525 L25.5972247,6.69901525 L26.004792,6.44354012 C26.2115579,6.31232332 26.2920773,6.04392532 26.1926706,5.81926625 L25.3268386,3.88580659 L26.5077898,2.44540399 C26.6211134,2.30722873 26.6509354,2.11835606 26.5873151,1.95433506 Z"/>
</svg>
