<svg xmlns="http://www.w3.org/2000/svg" width="32" height="32" viewBox="0 0 32 32">
  <path fill-rule="evenodd" d="M16.1410442,1.14917676 L25.5471952,1.02093818 L25.7967137,25.8057782 C25.7738494,25.7948431 25.7509852,25.7858962 25.7271268,25.7789376 C25.5800004,25.7351973 25.4199507,25.763032 25.300659,25.8495185 L25.2479718,25.8863001 L24.9934829,25.7670084 C24.8354213,25.691457 24.6465428,25.7093507 24.4974282,25.8097546 L23.9188634,26.2153464 C23.8005658,26.2988506 23.7240203,26.4310655 23.7101029,26.5752097 L23.6484689,27.2253495 C23.6405161,27.3187947 23.6584098,27.4132339 23.7001619,27.4947499 L23.833371,27.7561976 L23.7876425,27.893383 C23.7538432,27.9977633 23.7548373,28.1120845 23.7916189,28.2174588 L24.0202614,28.8497049 L23.9576332,29.20758 C23.9447099,29.2811432 23.9486863,29.3547064 23.9675742,29.4242933 L24.2429392,30.4671016 L6.00224334,13.2702081 L6.42572889,1.00205033 L16.1410442,1.14917676 Z M26.5353281,0.510966139 C26.53334,0.377757067 26.4796587,0.253494874 26.3862135,0.163031998 C26.3046975,0.0825100963 26.2142346,0.0596458527 26.1118426,0.0337993166 C26.0869902,0.0238583411 26.0512026,0.0129232681 26.0323148,0.0208760485 L16.139056,0.155079217 L5.94557978,0 C5.67717344,0 5.45847198,0.21074868 5.448531,0.479155017 L5.00019301,13.4630631 C4.99621662,13.605219 5.05387428,13.7424045 5.15527223,13.839826 L24.2777326,31.8648027 C24.3701837,31.9522833 24.4904695,32 24.617714,32 C24.6962477,32 24.7727932,31.9821062 24.8503328,31.9433364 C25.036229,31.8439267 25.1406093,31.6381485 25.1087982,31.429388 L25.0620756,31.1102827 L25.0988572,31.082448 C25.269842,30.9631563 25.3473816,30.7474371 25.2927062,30.5476235 L24.9557071,29.2751786 L25.0223117,28.8924511 C25.0372231,28.8069587 25.0292704,28.718484 25.0004415,28.6359739 L24.7857165,28.0405095 L24.8413859,27.8675365 C24.883138,27.7412861 24.8712089,27.6031066 24.8125571,27.4877912 L24.6525074,27.1726623 L24.6783539,26.8972973 L24.8324391,26.7899348 L25.0889162,26.9102206 C25.1664558,26.9460081 25.2459836,26.9629077 25.3374406,26.9509786 L25.3762104,27.0464119 C25.4656792,27.2621311 25.6823925,27.3883815 25.9090467,27.3476235 L26.3772666,27.2770426 C26.6208205,27.240261 26.8027404,27.0275241 26.8007522,26.7799938 L26.5353281,0.510966139 Z"/>
</svg>
