<svg xmlns="http://www.w3.org/2000/svg" width="32" height="32" viewBox="0 0 32 32">
  <path fill-rule="evenodd" d="M28.4544568,21.8091783 L27.9832488,22.0368295 L27.5249642,21.9165422 C27.4474236,21.8986482 27.3698831,21.8976541 27.2983072,21.9135598 L25.2385118,22.3648857 C25.0705073,22.4016677 24.9313319,22.5249373 24.8746676,22.6869772 L24.8627383,22.7247534 L24.1787908,22.5458136 L23.9610808,22.3241272 C23.8338347,22.1929047 23.637001,22.1441933 23.4540848,22.1988693 L23.1976045,22.2823746 L22.6051151,21.9175363 C22.4907925,21.8479486 22.3486348,21.8290605 22.2283475,21.8598779 C22.0981191,21.8906953 21.9847906,21.9751946 21.9171912,22.0905114 L21.7760276,22.3300918 C21.7233398,22.2674629 21.6557403,22.2167633 21.5791939,22.18694 C21.4469773,22.1332581 21.3018373,22.1382286 21.1765794,22.2018517 L20.7998118,22.3837737 L20.5701725,22.2276985 C20.5015789,22.1789871 20.4220501,22.1491639 20.3355626,22.141211 L20.2908276,22.0020356 C20.2401281,21.8469545 20.1168584,21.7266672 19.9657538,21.6819323 C19.8116668,21.6272562 19.6386917,21.6640383 19.5034927,21.770408 L19.0332788,22.1531403 L18.9994791,22.0835526 C18.943809,21.9652536 18.8394274,21.8718072 18.7151637,21.8300546 L18.5799648,21.7833315 L18.5809589,21.6660265 C18.5829471,21.3936405 18.3632489,21.1679775 18.0898687,21.1649952 L17.1176294,21.1550541 C17.0152361,21.1640011 16.9555895,21.1769245 16.8641314,21.2345829 L16.7279384,21.3230587 L16.5460163,21.1351719 C16.4177761,21.0019612 16.2249188,20.9552381 16.0380262,21.0079259 L15.6821349,21.1222485 L14.478268,20.8886327 L14.4792621,20.8319685 C14.4812504,20.700746 14.432539,20.5754881 14.3380986,20.4770713 L13.7137976,19.8388528 C13.6034515,19.7235361 13.4394234,19.6688601 13.2843422,19.6937128 C13.1272729,19.7165773 12.9890916,19.8149942 12.9145334,19.958146 L12.8638338,20.0565629 L12.5725597,20.1112389 L11.8220068,19.3427921 C11.7355193,19.2543163 11.6172202,19.2006344 11.4939506,19.1936756 L11.5844146,11.1533161 C11.588391,10.8839123 11.3716751,10.6572553 11.1012773,10.6493024 L1.00012825,10.3858634 L1.01404579,8.99808617 L29.9446273,9.17106127 L30.9606074,22.9504163 L30.775703,22.9176107 L29.9376685,22.2018517 C29.8869689,22.1600991 29.833287,22.1292817 29.778611,22.1123818 L28.8312244,21.7853197 C28.709943,21.7465494 28.5727558,21.7525141 28.4544568,21.8091783 Z M30.901955,8.63921256 C30.8820728,8.38273225 30.6673451,8.18092797 30.4108647,8.17893975 L0.522955579,8 C0.253551841,8 0.0298771504,8.22069236 0.0259007115,8.49208432 L5.38584066e-05,10.8620419 C-0.00392258053,11.1324398 0.212793342,11.3581027 0.483191189,11.3660556 L10.5843402,11.6304888 L10.4948703,19.6768129 C10.4928821,19.8100236 10.5425876,19.9362756 10.6360339,20.0317101 C10.7284861,20.1261505 10.8527498,20.1788384 10.9859605,20.1808266 L11.2543702,20.184803 L12.0476697,20.9959966 C12.1619924,21.1133015 12.3369557,21.1649952 12.4950191,21.1381543 L13.2883187,20.9880437 C13.3300713,20.9800908 13.3708298,20.9661733 13.408606,20.9482793 L13.4831642,21.0248257 L13.4801819,21.2932354 C13.4791877,21.534804 13.6481864,21.7415789 13.8827963,21.7863138 L15.6254707,22.123317 C15.7020171,22.1342522 15.7845282,22.1312699 15.8650511,22.1084054 L16.0489614,22.0487588 L16.3024594,22.3092155 C16.4674816,22.4792083 16.724956,22.5070434 16.9297426,22.3788032 L17.2816575,22.150158 L17.5818786,22.1531403 C17.5898315,22.3579269 17.7220481,22.5378608 17.9158995,22.6054602 L18.1952443,22.7008948 L18.4139485,23.1532147 C18.4805538,23.2894077 18.6048175,23.3878246 18.7509517,23.4196361 C18.899074,23.4564182 19.0541551,23.4176479 19.1754365,23.3212192 L19.6068802,22.9693044 C19.6973441,23.0677212 19.8255843,23.1273678 19.9657538,23.1283619 L20.1317701,23.1303502 L20.4767262,23.3649601 C20.6258426,23.4693416 20.8167117,23.4862414 20.9757693,23.4037303 L21.1248857,23.3301662 L21.2382142,23.6234286 C21.3078019,23.7983919 21.4738182,23.9216615 21.6408287,23.935579 C21.8307036,23.9634141 22.024555,23.8709619 22.1309248,23.6940104 L22.5176335,23.0309392 L22.8725306,23.2496433 C22.9967943,23.3242016 23.1469049,23.3440838 23.2850862,23.2983547 L23.4670083,23.2397022 L23.5634369,23.3391132 C23.6270599,23.4037303 23.7055946,23.4494594 23.7940704,23.4743121 L25.0635485,23.8063448 C25.3259935,23.8649973 25.566568,23.7278101 25.6510673,23.4862414 L25.7236373,23.2754902 L27.3957299,22.9096578 L27.9176375,23.0478391 C28.0319602,23.0726918 28.1492651,23.0617566 28.2536466,23.011057 L28.7039783,22.7923528 L29.3670495,23.0209981 L30.2339132,23.762604 C30.3005186,23.8192682 30.3820356,23.8580385 30.4685231,23.8729501 L31.4119333,24.0399606 C31.4268449,24.0429429 31.4874856,24.0489076 31.5033913,24.0489076 C31.626661,24.0489076 31.74496,24.0031785 31.8384063,23.9196733 C31.9527289,23.8162859 32.0103873,23.6681635 31.998458,23.5150706 L30.901955,8.63921256 Z"/>
</svg>
