<svg xmlns="http://www.w3.org/2000/svg" width="32" height="32" viewBox="0 0 32 32">
  <path fill-rule="evenodd" d="M17.5836041,8.58053302 L17.2147942,8.40557201 C17.0935144,8.3499026 16.9603055,8.34294392 16.8360434,8.38668418 L16.0536894,8.66503123 C15.9841026,8.68888955 15.9214745,8.72865342 15.8667992,8.78332873 L15.5725466,9.07857543 C15.5437178,8.94636058 15.463196,8.83104537 15.3468867,8.75947041 C15.2186482,8.68093678 15.0615809,8.66304304 14.918431,8.71473606 L14.1350829,8.99308312 C14.0933308,9.00799457 14.053567,9.0278765 14.0167854,9.05471711 L13.8656827,8.75449993 C13.7831727,8.59047398 13.6161644,8.48509974 13.4243038,8.48112336 C13.2324432,8.48311155 13.0773641,8.57456844 12.9869013,8.73859438 L11.4162286,11.5966222 C11.4142404,11.594634 11.4132463,11.5916517 11.4112581,11.5896635 C11.316819,11.4554605 11.1637281,11.3749386 11.0046726,11.3749386 L10.9957257,11.3749386 C11.0175959,11.2934227 11.01859,11.2059422 10.9957257,11.1234322 L10.7392488,10.1492175 C10.7124082,10.0527901 10.6577329,9.96729781 10.5831756,9.90367563 L10.0712159,9.46428492 C9.99665863,9.40066273 9.90520175,9.36089887 9.80976847,9.34896971 L9.74813448,9.34101694 L9.75608725,9.27938295 C9.78491605,9.04278795 9.64176614,8.81812211 9.41411801,8.74555306 L2.01406273,6.37264441 L1.68899314,5.80799753 L2.62443806,5.47497516 C2.70495989,5.44714045 2.77752894,5.39743562 2.83618064,5.33083115 L3.1443506,4.97295636 L4.65736566,4.82583006 C4.74981665,4.8158891 4.83829125,4.78109572 4.91384259,4.72244401 L5.58088142,4.20054329 L5.91788018,4.24130125 C6.07693564,4.26913595 6.25289074,4.20750196 6.36920005,4.07429302 L7.13366035,3.18457654 L7.54422226,3.10206652 C7.65257879,3.07920229 7.75000026,3.02154469 7.82256932,2.93903467 L8.19634965,2.50461444 L8.67351603,2.26404306 L7.56012781,3.23229317 C7.44978308,3.32772645 7.38715499,3.46789407 7.38914319,3.61700857 L7.4149897,4.93518069 C7.41896609,5.09423615 7.49849382,5.24335065 7.62971457,5.33381344 C7.76292352,5.42527033 7.93191994,5.44813455 8.07904624,5.39246514 L9.8892962,4.74928462 L10.6298982,4.96798588 L11.4589748,6.41042008 C11.5106678,6.49988878 11.5862191,6.56947554 11.6766819,6.6112276 L12.2095177,6.86472224 C12.3417326,6.92735033 12.4918412,6.92735033 12.624056,6.86969273 L13.261272,6.58637519 L13.5107902,6.90448611 C13.6817748,7.11821688 13.9929271,7.15599255 14.2066578,6.98898432 L14.3806248,6.85378718 L14.6341194,6.97407287 C14.7931749,7.05161241 14.9850355,7.03769506 15.1281854,6.9362972 L16.6829525,5.87957249 L17.6263502,5.68970003 L18.7814905,6.00184637 C18.8868648,6.03067517 18.9892567,6.02669879 19.0807136,5.99091131 L20.2855587,5.56245566 L20.2239247,6.05850988 C20.1950959,6.29411078 20.3372517,6.51778252 20.5619176,6.59134567 L21.4645573,6.88957466 C21.5480614,6.91740936 21.6355419,6.92237985 21.7180519,6.90448611 L21.996399,6.8488167 C22.0769208,6.93430901 22.1822951,6.98799022 22.2986044,7.00190758 L22.6604555,7.04564783 C22.747936,7.05857108 22.8374047,7.04763602 22.9209089,7.01184854 L23.7012747,6.68479075 L23.4378391,7.48006805 C23.3692464,7.68286377 23.4398273,7.90554141 23.611806,8.03477397 L23.6167765,8.03875036 L22.3850908,7.88764767 C22.1693718,7.85583658 21.9635938,7.97115179 21.8691546,8.16599473 L21.7071169,8.50498167 C21.6613884,8.44831817 21.6027367,8.40358382 21.5381205,8.37276682 L20.4754312,7.86776574 C20.4078326,7.83496055 20.3432163,7.82700778 20.2507653,7.81806091 L18.9325932,7.84490152 C18.7914315,7.84788381 18.6572284,7.91051189 18.5657715,8.01787433 L18.2287728,8.4105425 L17.5836041,8.58053302 Z M27.2193827,29.5012965 C27.1388608,29.5798301 27.0871678,29.6852044 27.0732505,29.7975373 L27.0553567,29.938699 L22.7240777,30.1762881 C22.7022076,30.1116718 22.6684083,30.052026 22.6216858,30.0013271 C22.5292348,29.8959529 22.3940377,29.835313 22.2518818,29.835313 L22.2439291,29.835313 L15.4284026,29.9496341 L16.7038286,27.3818825 C16.7406101,27.3093134 16.759498,27.2287916 16.7575098,27.1482698 L16.6809643,23.313045 L16.8817719,22.8895598 C16.9513586,22.7464099 16.9463881,22.5754253 16.8698427,22.4362518 C16.7942914,22.2960842 16.6531296,22.2006509 16.4950683,22.181763 L16.4036114,22.1698339 L15.7465135,20.6916122 L16.0566717,20.2243868 C16.0994178,20.1607646 16.1262584,20.0872015 16.1361994,20.0096619 L16.203798,19.4559501 C16.2177153,19.3495818 16.1958452,19.239237 16.142164,19.146786 L15.8469173,18.6348263 L16.7386219,17.5333672 C16.7972736,17.4627864 16.8340552,17.3753059 16.8459844,17.2808667 L17.0040457,15.9865529 C17.0159749,15.8911196 16.9990753,15.7946922 16.955335,15.7042294 L16.9066243,15.6058139 L17.1601189,15.5163452 C17.3927375,15.4338352 17.5299229,15.1902815 17.4812121,14.9497101 L17.4394601,14.7439321 L17.5667044,14.6803099 L17.778447,14.7061564 C17.8877976,14.7210679 17.9991365,14.7011859 18.0935756,14.6484988 C18.0945697,14.650487 18.0955638,14.6534693 18.0965579,14.6564516 L18.2347374,15.0461375 C18.2705248,15.1495235 18.3411057,15.2379981 18.4305744,15.2966498 L18.77652,15.5262861 C18.8868648,15.5998493 19.0160973,15.6247017 19.1503004,15.5998493 C19.280527,15.5730087 19.3928599,15.4974573 19.465429,15.3871126 L19.9237075,14.6952214 C19.9744065,14.6206641 20.0052235,14.5302013 20.0082057,14.4337739 L20.061887,12.7328746 L21.4784747,12.3004426 C21.5381205,12.2815548 21.5908076,12.25372 21.6355419,12.2179326 L21.8443022,12.0558948 C21.986458,11.944556 22.0570389,11.7656186 22.0301983,11.5916517 C22.0043518,11.4147025 21.8850602,11.2635998 21.7170578,11.1989835 L21.183228,10.9941996 L21.1931689,10.9166601 L22.0083282,10.390783 L23.6684695,11.0299871 L23.7310976,11.3401453 C23.7698674,11.5290236 23.910035,11.6751558 24.0979193,11.7238665 L26.585149,12.3491533 L26.5483674,12.6533469 C26.5304737,12.7964968 26.5752081,12.9336821 26.6636827,13.0370682 L26.4787807,13.4237718 C26.3823533,13.6245793 26.4330522,13.868133 26.6030428,14.0142652 L27.0136047,14.3671695 L27.2164004,14.938775 L27.1627192,16.6694973 L26.51258,17.1754924 C26.410188,17.2570084 26.3435835,17.3782882 26.327678,17.5065266 L26.2690263,17.9826989 L25.308729,18.4658299 C25.1785023,18.5304461 25.0840631,18.6477495 25.0492697,18.7889113 L24.6824481,20.2432746 C24.6486488,20.3735013 24.6685307,20.5077043 24.7371234,20.6230195 C24.8057161,20.7353525 24.9130785,20.8158743 25.0433052,20.8486795 L26.5016449,21.2155011 C26.7253166,21.2731587 26.9688703,21.1588376 27.0692741,20.9451068 L27.1686837,20.7373407 L27.1726601,20.7373407 C27.3834086,20.7741222 27.5822279,20.6667598 27.6836258,20.4758932 L28.2611959,19.3704578 L28.2771015,19.3714519 C28.3844639,19.3893456 28.4977909,19.3674755 28.5972006,19.310812 L29.260263,18.930073 L29.5157459,18.96089 L30.9840266,23.7733117 L30.6500101,24.907576 C30.5207776,24.8220837 30.3587398,24.7992195 30.2076371,24.8548889 L29.8159631,24.9940624 C29.6926951,25.0368086 29.589309,25.1302536 29.5326455,25.2495452 C29.4789643,25.3628722 29.4700174,25.4901166 29.5058049,25.60742 L29.2990328,25.7118002 C29.1121426,25.8062393 29.002792,26.008041 29.0286385,26.2177953 L29.0664142,26.522983 L28.9391698,26.5478354 C28.8099373,26.574676 28.6956162,26.6522156 28.6240412,26.7605721 L28.1647686,27.4544515 C28.1220224,27.5180737 28.0941877,27.5916369 28.0842467,27.6691764 L27.9470614,28.7905174 L27.2193827,29.5012965 Z M31.9781232,23.6271795 L30.3716631,18.3614497 C30.3140055,18.1725714 30.1509736,18.0363801 29.9561307,18.0135159 L29.2234815,17.9240472 C29.1181072,17.9081417 29.0077625,17.9300118 28.9083528,17.9846871 L28.2452904,18.3664202 L28.045477,18.3415678 C27.8446694,18.312739 27.6388914,18.4171191 27.5394818,18.6040093 L26.9619116,19.7104388 L26.9380533,19.7074565 C26.7223344,19.6726632 26.5135741,19.7929489 26.4250995,19.9877918 L26.3465658,20.1518177 L25.7670075,20.0056855 L25.9578741,19.2511662 L26.9529648,18.7501415 C27.1030734,18.6755842 27.2044712,18.5314402 27.2233591,18.3664202 L27.2889694,17.8315962 L27.9599847,17.3077073 C28.076294,17.2162504 28.1448866,17.078071 28.148863,16.9329329 L28.2124852,14.8761469 C28.2144734,14.8135189 28.2055265,14.7518849 28.1836564,14.6952214 L27.9053093,13.9088909 C27.8953684,13.8820503 27.8834392,13.8562038 27.870516,13.8313514 C27.943085,13.806499 28.0106836,13.7647469 28.0673471,13.7070893 C28.2164616,13.5559866 28.2522491,13.3263503 28.1578099,13.1354838 L27.8546104,12.5340553 C27.7979469,12.4237106 27.7045018,12.3402065 27.5921689,12.2964662 L27.6249741,12.0350188 C27.6557911,11.7864946 27.4957415,11.5528819 27.2521879,11.4912479 L24.6436783,10.8351442 L24.589003,10.5667381 C24.5561978,10.3987357 24.4398885,10.2615504 24.2798389,10.1999164 L22.3542738,9.45931443 L22.6127389,8.91653768 L26.5016449,9.39370406 C26.6278952,9.41259189 26.7680628,9.37779851 26.8784075,9.2923062 C26.9807995,9.21079028 27.0483981,9.09050459 27.0633095,8.96127203 L27.1080438,8.59146808 C27.1239494,8.46124142 27.089156,8.33200886 27.006646,8.22663462 L26.6825705,7.81209633 C26.5921077,7.69379883 26.4529342,7.62421206 26.3117725,7.62023568 C26.1795576,7.61128881 26.0165258,7.67590509 25.9141338,7.79320849 L25.64871,8.10038435 L25.3057467,8.05763819 L24.4935697,7.45322744 L24.6804599,6.89156285 C24.7033241,6.82098199 24.7112769,6.74443655 24.7013359,6.67385569 L24.6059026,5.91138358 C24.5870148,5.7572986 24.4945638,5.61911917 24.3643372,5.54456192 C24.2301341,5.46602829 24.0661082,5.45409913 23.9209701,5.51473903 L22.6574733,6.04459253 L22.5878865,5.9938936 C22.4725713,5.8467673 22.2836929,5.77718053 22.0977969,5.81296801 L21.6504534,5.9044249 L21.2597734,5.77519234 L21.369124,4.88646996 C21.3900001,4.71647944 21.3204133,4.54450072 21.1842221,4.43515009 C21.0460426,4.32778765 20.8621348,4.29796476 20.7090439,4.35661646 L18.8938234,5.00178517 L17.7764588,4.70057389 C17.6969311,4.67572147 17.6114388,4.67373328 17.5428461,4.69162702 L16.3857176,4.92623382 C16.3201073,4.94015118 16.2584733,4.96599769 16.2067803,5.00178517 L14.805104,5.95512383 L14.5317274,5.82489717 C14.3607428,5.74139306 14.1559589,5.76425728 14.0118149,5.88056658 L13.9879566,5.89945442 L13.8060369,5.66782991 C13.6648752,5.48889251 13.4213215,5.42924672 13.2135553,5.51970951 L12.4292131,5.86863742 L12.243317,5.78016282 L11.3923703,4.29895885 C11.327754,4.18762003 11.2253621,4.1070982 11.1030882,4.07031663 L10.0125642,3.74822932 C9.91315452,3.72138871 9.80877437,3.72337691 9.70837061,3.75817029 L8.39616307,4.2253957 L8.3872162,3.82974525 L10.1040211,2.33760621 C10.1676433,2.2809427 10.2153599,2.21135594 10.2441887,2.1348105 L10.8694755,2.00856023 C11.1189937,1.9578613 11.2889842,1.72822498 11.26612,1.47473034 C11.2422617,1.2202416 11.0315132,1.02639276 10.7760304,1.02341047 L9.14670602,1.01148131 C9.0065384,0.97668793 8.91011102,1.02937505 8.86040619,1.05820385 L7.66152566,1.66162051 C7.60187986,1.69044931 7.55018684,1.73120727 7.50644659,1.7809121 L7.1793888,2.16065701 L6.76882689,2.24416113 C6.66146446,2.26603125 6.56304889,2.32468295 6.49147393,2.40719297 L5.78864762,3.2253345 L5.50632418,3.19054112 C5.37510342,3.16867099 5.24090038,3.20545256 5.13055565,3.29094487 L4.41480608,3.85062127 L2.8491039,4.00271806 C2.72086543,4.01464722 2.60455613,4.07528711 2.52105201,4.17270858 L2.16814771,4.58227639 L0.331057146,5.23539787 C0.134226014,5.30498464 0.00101706636,5.49088071 2.29697325e-05,5.6986469 C-0.00196522352,5.905419 0.125279145,6.09429736 0.31813389,6.16786051 L0.870851614,6.38059719 L1.24662014,7.03570686 C1.30924823,7.1430693 1.40865789,7.22359112 1.52695539,7.2613668 L8.71924447,9.56667687 L8.70135073,9.71380317 C8.68544519,9.84502393 8.72222676,9.97525058 8.80374268,10.0806248 C8.88525861,10.185005 9.00256201,10.2516094 9.13477686,10.267515 L9.53937419,10.3172198 L9.81772124,10.5567971 L9.9777708,11.1612079 L9.64176614,11.6691912 C9.5353978,11.8292408 9.52943322,12.0300483 9.62586059,12.1950683 C9.72129387,12.3590943 9.89227849,12.4594981 10.093086,12.4406102 L10.1865311,12.4326574 L10.0483517,12.7229337 C9.95192429,12.9237412 10.0026232,13.1663008 10.1726137,13.3134271 L10.6805971,13.7508296 C10.7949182,13.8502392 10.9440327,13.8909972 11.0941413,13.8641566 C11.2422617,13.8363219 11.368512,13.7458591 11.4400869,13.6146383 L13.220514,10.3758715 C13.2692247,10.463352 13.3447761,10.5359211 13.4392152,10.5806554 C13.63207,10.6731064 13.8646886,10.6333425 14.0147972,10.4782635 L14.0605256,10.4305468 C14.0595315,10.5418857 14.0963131,10.6492481 14.1658999,10.7377227 L14.3289317,10.946483 C14.4164122,11.0578218 14.5486271,11.1264145 14.6748774,11.1333732 C14.8289623,11.1542492 14.9631654,11.0995739 15.0715219,10.9892291 L16.4900978,9.56468868 L16.976211,9.39171586 L17.3221567,9.5567359 C17.428525,9.60644074 17.5507989,9.6163817 17.6611436,9.588547 L18.6293937,9.33207007 C18.7258211,9.30721765 18.8133016,9.25353643 18.8818943,9.1759969 L19.1761469,8.83402766 L20.1533439,8.81414573 L21.0042906,9.21973715 L21.3343306,9.64222821 L20.4595256,10.2078692 C20.3342694,10.2873969 20.2527535,10.4186177 20.2348598,10.565744 L20.1672612,11.1204499 C20.1513557,11.2526647 20.1871431,11.3818973 20.267665,11.4852834 L20.3591219,11.6025868 L19.4306356,11.8859043 C19.228834,11.9475383 19.0876723,12.1314462 19.0797195,12.346171 L19.0767372,12.4336515 C19.0379674,12.4028345 18.9932331,12.3779821 18.9445224,12.3600884 C18.7268152,12.2755902 18.4802792,12.3571061 18.3550231,12.5499608 L17.603486,13.683231 L17.5488107,13.6762723 C17.4523833,13.6603668 17.3480032,13.6772664 17.2545581,13.7249831 L16.6551178,14.0261943 C16.4543103,14.1265981 16.3459538,14.3492757 16.3906881,14.567977 L16.4215051,14.7240502 L16.0427543,14.8582532 C15.9095454,14.9059698 15.803177,15.0083618 15.7475076,15.1425648 C15.6958146,15.2737856 15.7017792,15.4229001 15.7654014,15.5501445 L15.9990141,16.0153817 L15.8767402,17.0194193 L14.8617675,18.2729751 C14.7315409,18.4320306 14.7136471,18.6576905 14.8160391,18.8346397 L15.1977722,19.4986963 L15.1629788,19.7720728 L14.7683224,20.3675367 C14.6728892,20.5106866 14.6579777,20.689624 14.7275645,20.8456972 L15.6113164,22.8319022 C15.6391511,22.8955244 15.679909,22.9521879 15.7316021,22.9969223 C15.6987969,23.066509 15.6828913,23.1420604 15.6848795,23.2166176 L15.761425,27.0458778 L14.3945421,29.7955491 L13.9422281,30.0231972 C13.7334678,30.1265833 13.6270995,30.3582078 13.6817748,30.58685 C13.7304856,30.7826871 13.9034584,30.9268311 14.1718645,30.9646067 L21.728987,30.8383565 C21.7488689,30.9139078 21.7886328,30.9834946 21.8433081,31.0421463 C21.9367532,31.14255 22.0689681,31.1992135 22.2061534,31.1992135 C22.2111239,31.1992135 22.2290176,31.1992135 22.2339881,31.1982194 L27.5245703,30.9089373 C27.7661358,30.8960141 27.9619728,30.7131003 27.9917957,30.4725289 L28.0385183,30.0907958 L28.7652029,29.3810108 C28.8457247,29.3024772 28.8984119,29.1971029 28.9123292,29.08477 L29.0574673,27.9067655 L29.3387967,27.4822863 L29.7145652,27.4057408 C29.9660716,27.3550419 30.1400386,27.1144705 30.1092216,26.8579936 L30.0575285,26.4424612 L30.3448225,26.2983172 C30.3835922,26.2784352 30.4183856,26.2545769 30.4501967,26.2267422 L30.4690845,26.2506005 C30.5843997,26.3977268 30.7712899,26.4663195 30.9542037,26.4335143 C31.1371175,26.3987209 31.2832497,26.2665061 31.3389191,26.0855805 L31.9801114,23.9114912 C32.006952,23.8200343 32.006952,23.7216187 31.9781232,23.6271795 Z"/>
</svg>
