<svg xmlns="http://www.w3.org/2000/svg" width="32" height="32" viewBox="0 0 32 32">
  <path fill-rule="evenodd" d="M24.4404949,18.4414956 C24.2952766,18.5240512 24.2027745,18.6722535 24.1908388,18.839354 L24.1679619,19.1745496 L23.1653589,20.0488433 C23.0648997,20.1363721 23.0052209,20.2577189 22.9952745,20.3900068 C22.9863227,20.5222947 23.0300871,20.650604 23.1166213,20.7500686 L23.2031555,20.8495332 L22.3596958,21.2802148 C22.173697,21.3747062 22.0662753,21.5786086 22.0931307,21.7864896 L22.2423276,22.9392841 L21.5003218,23.7986581 C21.3401838,23.9846569 21.3411785,24.265147 21.5023111,24.4511458 L21.6803527,24.6550481 L21.4764503,24.8320951 C21.3759911,24.9196239 21.3153177,25.0409707 21.3063658,25.1732586 C21.297414,25.3055465 21.3401838,25.4338558 21.4277126,25.5343151 L21.7977209,25.9580342 L21.7181492,27.1068501 C21.7111867,27.2053201 21.7340636,27.3027954 21.7828012,27.3873403 L22.0662753,27.8836685 L21.7957316,28.1193996 C21.6952724,28.2059338 21.6355936,28.3272806 21.6246525,28.4615578 L21.6017757,28.8057052 L4.10197686,28.6356208 L4.34566509,25.0976655 C4.35461691,24.9663723 4.31184714,24.838063 4.2243183,24.7366091 L3.97167826,24.4471672 C3.88414943,24.3477026 3.76379728,24.2880238 3.63051474,24.2780774 L2.26983924,24.1845807 C2.13257811,24.1716503 2.01322061,24.2213826 1.91475068,24.3059275 L1.89585241,24.3228364 L1.39852949,24.0304106 L1.00464974,3.01254946 L27.7616173,2.99464583 L28.2350687,3.53672781 L28.223133,3.7078069 L26.5561066,5.63841446 C26.4864813,5.71997542 26.4457009,5.82043465 26.4377437,5.92885104 L26.3999472,6.47093302 C26.3900007,6.61416202 26.4437116,6.75440708 26.5461601,6.85785025 C26.6545765,6.96427735 26.7968108,7.013015 26.9330773,7.00107925 L30.1915371,6.7613696 L30.1557298,7.27261756 C30.1527459,7.32036056 30.1567245,7.36810356 30.1666709,7.41385727 L29.2675111,7.87338365 C29.0844963,7.96688036 28.9790638,8.15984165 28.9989567,8.36374404 L29.1023999,9.42503115 L29.099416,9.42503115 C28.8935243,9.42503115 28.717472,9.54936188 28.6438682,9.75425892 L27.9714876,11.613252 C27.9297125,11.7306202 27.9326964,11.8579349 27.981434,11.9733138 L28.1385881,12.3512792 L28.1316256,12.3512792 C27.9436375,12.3353649 27.7636066,12.4288616 27.6661313,12.5949674 L27.0494509,13.6423295 C27.0106597,13.7079761 26.9877828,13.7815799 26.981815,13.8591623 L26.9450131,14.4062175 L26.3263434,14.7593168 C26.1811251,14.8418724 26.0876284,14.9910692 26.0766873,15.1581697 L26.0548051,15.4744671 L25.7484541,15.4535795 C25.6201448,15.4406491 25.4838783,15.4824243 25.3784459,15.5739317 C25.2789813,15.6594712 25.2163186,15.7847966 25.2073668,15.9150952 L25.0591646,18.0883964 L24.4404949,18.4414956 Z M31.8048526,6.42617396 L31.0300235,5.82839181 C30.9295643,5.75180408 30.81518,5.71798613 30.6898546,5.72693794 L27.5975007,5.95471183 L29.0854909,4.2309906 C29.1551161,4.14942965 29.1968912,4.04996506 29.2048484,3.94055402 L29.2416503,3.39847204 C29.2506021,3.26817344 29.2068377,3.13688019 29.1203035,3.0394049 L28.363378,2.17107908 C28.2698813,2.06266269 28.1326202,2 27.9883966,2 L0.497380364,2.01790363 C0.363103176,2.01790363 0.237777801,2.07061985 0.14030251,2.16809515 C0.0478004472,2.26358115 -0.00193184443,2.38990117 5.7447238e-05,2.525173 L0.408856885,24.326815 C0.411840822,24.4978941 0.505337531,24.6590267 0.65353976,24.7455609 L1.70090182,25.3622413 C1.8849113,25.4706577 2.11666378,25.4487755 2.2797857,25.3085305 L2.41406289,25.1911623 L3.33808886,25.2558142 L3.07351307,29.0941525 C3.06456126,29.230419 3.11230426,29.3656908 3.20480632,29.46615 C3.29830303,29.5666093 3.42959628,29.6242987 3.56486811,29.6252934 L22.0632913,29.8053243 L22.0652806,29.8053243 C22.3258778,29.8053243 22.5437053,29.6024165 22.5616089,29.3418193 L22.603384,28.7350854 L23.0271031,28.3660718 C23.2051447,28.2099124 23.2499038,27.9483205 23.131541,27.7444181 L22.7207522,27.0242945 L22.8033078,25.8197784 C22.8122596,25.6894798 22.7684952,25.5581866 22.681961,25.4597166 L22.5039194,25.2558142 L22.7078218,25.0777726 C22.8082811,24.9902438 22.8689545,24.868897 22.8779063,24.7366091 C22.8868581,24.6043212 22.8440883,24.4760119 22.7565595,24.3765473 L22.5357481,24.121918 L23.1404928,23.4206927 C23.2320002,23.3142656 23.27477,23.1730259 23.257861,23.0317861 L23.1245784,22.0063063 L24.2236621,21.445326 C24.3599286,21.3747062 24.4564092,21.2483862 24.4852539,21.0972 C24.5140987,20.9470085 24.4713289,20.7898544 24.3718643,20.6764648 L24.1928281,20.4725624 L24.9756143,19.7902354 C25.0760736,19.7037012 25.1357523,19.5823544 25.1456988,19.4490719 L25.1655917,19.1725603 L25.7842614,18.8184664 C25.928485,18.7359108 26.0219817,18.5877086 26.0339175,18.4206081 L26.1662054,16.4790594 L26.4685777,16.499947 C26.6058388,16.5168559 26.7341482,16.4750808 26.8425646,16.3805895 C26.9430238,16.2940553 27.0027025,16.1727085 27.012649,16.0384313 L27.0504455,15.4923707 L27.6691152,15.1382768 C27.8143335,15.0557212 27.9068356,14.907519 27.9187713,14.7404185 L27.9665143,14.045161 L28.3673566,13.3638286 L28.8656742,13.3976466 C29.0367533,13.4235074 29.2108163,13.3339893 29.3112755,13.1917549 C29.4127294,13.0515099 29.4326223,12.871479 29.365981,12.711341 L28.9730959,11.7694114 L29.4515206,10.4445431 L29.6156371,10.4554842 C29.7598608,10.46742 29.9030898,10.4137091 30.0105115,10.3062874 C30.1119654,10.2018495 30.1626923,10.0586205 30.1487673,9.91240761 L30.0214526,8.60444833 L31.1314774,8.03849486 C31.2677439,7.967875 31.3632299,7.84155498 31.3930692,7.69036881 C31.41893,7.55708627 31.3871014,7.41584656 31.3075297,7.30544088 L31.4646837,7.31638198 C31.691463,7.34522671 31.8864136,7.20995488 31.9669799,6.99710067 C32.0455569,6.79021433 31.9809049,6.56144579 31.8048526,6.42617396 Z"/>
</svg>
