<svg xmlns="http://www.w3.org/2000/svg" width="32" height="32" viewBox="0 0 32 32">
  <path fill-rule="evenodd" d="M18.011152,7.10535169 L27.1440409,6.84916828 L28.0940128,30.6572799 L3.99682263,30.9961996 L4.0526447,0.998816273 L17.4439599,1.04566694 L17.4987851,6.61292131 C17.5007788,6.74749237 17.5546072,6.87309202 17.6522958,6.96579652 C17.7350321,7.04554233 17.8915332,7.12827861 18.011152,7.10535169 Z M28.1219239,6.31686499 C28.1109588,6.06865616 27.9265466,5.88225033 27.609557,5.83839013 L18.4896268,6.09457355 L18.4348016,0.545261977 C18.4328079,0.2731294 18.2095197,0.0518347766 17.9383839,0.050837954 L3.55423338,0 C3.42165597,0 3.29705314,0.050837954 3.20235499,0.145536104 C3.10765684,0.239237431 3.05582207,0.364837082 3.05582207,0.497414491 L3,31.5005919 C3,31.6341661 3.05482524,31.763753 3.14852657,31.8554607 C3.24123108,31.9471684 3.36882437,32 3.49841131,32 L3.50638589,32 L28.6203352,31.6471248 C28.7529126,31.6451311 28.8785122,31.5903059 28.975204,31.4906236 C29.0669117,31.392935 29.1167529,31.2603576 29.1107719,31.1297738 L28.1219239,6.31686499 Z"/>
</svg>
