<svg xmlns="http://www.w3.org/2000/svg" width="32" height="32" viewBox="0 0 32 32">
  <path fill-rule="evenodd" d="M2.07750979,7.38176678 L2.76540748,7.26645445 L3.12923776,6.41652306 L2.9622337,6.249519 L2.42941121,6.38272462 C2.25743679,6.42348156 2.08148608,6.37477205 1.95822118,6.25250121 L1.82998591,6.12327188 L1.25143612,6.47020294 L1.04566326,6.77935927 L1.05759212,6.81216364 L1.30312786,6.81216364 C1.43533941,6.81216364 1.56059245,6.86385537 1.6540352,6.9582922 L2.07750979,7.38176678 Z M3.4662281,5.34789587 L4.06962969,5.95129746 C4.2137701,6.09543787 4.25552111,6.31015738 4.17599537,6.49803695 L3.57159971,7.90862484 C3.5049969,8.06469411 3.36383871,8.17404201 3.19683464,8.20287009 L1.98804333,8.4036726 C1.97412632,8.40665481 1.92044645,8.4106311 1.90652944,8.4106311 C1.77431789,8.4106311 1.64906484,8.35893937 1.5556221,8.26549662 L1.09735499,7.80623544 L0.698732201,7.80623544 C0.485006763,7.80623544 0.296133121,7.67004761 0.227542166,7.46725696 L0.0257455901,6.8628613 C-0.0229639283,6.71673275 -0.00208842042,6.55867533 0.0843958265,6.429446 L0.486000835,5.82604441 C0.525763707,5.7664001 0.580437656,5.71470837 0.64306418,5.67693364 L1.65005892,5.07154391 C1.84787921,4.95324937 2.09739123,4.98406559 2.25843086,5.1460993 L2.46221558,5.34988402 L2.99404399,5.2166784 C3.16900063,5.17592145 3.34395727,5.22463097 3.4662281,5.34789587 Z M25.125164,25.1338016 L25.6639509,25.1338016 C25.7971565,25.1338016 25.9224095,25.1854934 26.0158523,25.2789361 L26.1013425,25.3654204 L26.1997556,25.0711751 C26.2345481,24.9667976 26.3041331,24.875343 26.3955877,24.8147046 L28.2077806,23.6069073 C28.2594724,23.5721148 28.3151404,23.5482571 28.3747847,23.5353342 L30.0826,23.1555987 L30.7078712,22.6863969 L30.8172191,22.4686951 L30.3122306,22.2668986 C30.1641139,22.2082483 30.0527779,22.0800131 30.0140091,21.9259319 L29.9066493,21.497487 L29.6909357,21.497487 C29.4165719,21.497487 29.1938998,21.2748149 29.1938998,21.0004511 L29.1938998,20.4010258 L28.6113738,19.8184997 L26.7971927,19.1594301 C26.621242,19.310529 26.3687478,19.3254401 26.1798741,19.1902463 L25.1470335,18.451651 L25.5048994,19.1673827 C25.5903896,19.337369 25.5695141,19.54513 25.4522136,19.6952348 L24.2155883,21.2847556 L25.1221817,23.6407058 C25.152998,23.7232137 25.1629387,23.8126802 25.1480276,23.9001585 L24.9790354,24.9141118 L25.125164,25.1338016 Z M31.9683543,22.0313035 C32.0170638,22.162521 32.0091112,22.3076555 31.9474787,22.4309204 L31.5448797,23.2361186 C31.5090931,23.3057036 31.4593895,23.366342 31.3987511,23.4120693 L30.5925589,24.0154709 C30.5358968,24.0572219 30.4712821,24.087044 30.4036852,24.1019551 L28.6809588,24.4856668 L27.0884558,25.5483296 L26.9413331,25.9896975 C26.8995821,26.1149505 26.8111097,26.2163458 26.6928152,26.2759901 L26.289222,26.4787808 C26.219637,26.5125792 26.1420994,26.5304725 26.06655,26.5304725 C25.9343384,26.5304725 25.8090854,26.4787808 25.7156426,26.385338 L25.458178,26.1278734 L24.8587527,26.1278734 C24.6917487,26.1278734 24.5376675,26.0453655 24.4452188,25.9061954 L24.0426198,25.3027938 C23.9730347,25.1974222 23.9452007,25.0711751 23.9660762,24.9459221 L24.1450092,23.8713304 L23.1867239,21.3801865 C23.1250915,21.2181528 23.1529255,21.0332554 23.2592912,20.8960735 L24.4760351,19.3314045 L24.0118035,18.4039355 C23.9004675,18.1792753 23.9730347,17.9059056 24.1807957,17.7677296 L24.7841973,17.3651305 C24.9551777,17.2518063 25.181826,17.2557826 25.3488301,17.3730831 L26.4333625,18.1494531 C26.5566274,18.0808622 26.7057381,18.0689333 26.8399378,18.1166488 L29.0557239,18.922841 C29.1223267,18.9466987 29.1849532,18.9864616 29.2366449,19.0381533 L30.0428372,19.8433515 C30.1362799,19.9367943 30.1879717,20.0620473 30.1879717,20.1952529 L30.1879717,20.5034152 L30.2953314,20.5034152 C30.5239679,20.5034152 30.7217882,20.6584904 30.7774562,20.8801684 L30.9166263,21.4388367 L31.688026,21.746999 C31.8162613,21.7986907 31.9186507,21.9020742 31.9683543,22.0313035 Z M11.3357975,10.4959949 C11.4988253,10.4085166 11.6936634,10.4184573 11.8467504,10.5198527 L12.0803573,10.6759219 L12.0803573,10.1023425 L11.6946575,9.6192236 L11.0763448,10.1142714 C10.9699791,10.1957852 10.8407498,10.2305778 10.7174849,10.220637 L11.1270425,10.7107144 C11.1717757,10.6202539 11.2433489,10.5447044 11.3357975,10.4959949 Z M13.8547755,10.1719275 L14.2573746,11.3807188 C14.3110544,11.5437466 14.2782501,11.7196973 14.1708903,11.8529029 C14.0734713,11.9702034 13.9352953,12.0358122 13.7911549,12.0358122 C13.7663031,12.0358122 13.7404572,12.033824 13.7156054,12.0298477 L12.1131617,11.8290452 C12.0366182,11.8200986 11.9630568,11.7922646 11.8994362,11.7495195 L11.8725963,11.7316262 C11.8477445,11.7505135 11.8209046,11.7664187 11.7930706,11.7803357 L11.3904715,11.9821323 C11.1856927,12.0855157 10.9302162,12.0288536 10.7870699,11.8558852 L9.78007516,10.6480879 C9.73335378,10.5924199 9.69856127,10.5238289 9.67967391,10.4512617 L9.47787733,9.64506946 C9.43612632,9.47607726 9.48682398,9.29515619 9.60909481,9.17288536 C9.73136564,9.0516086 9.91129264,9.00190501 10.0773026,9.04166788 L10.6469058,9.18382015 L11.4610506,8.53170905 C11.6787523,8.36271684 11.9918849,8.3994975 12.1608771,8.61024072 L12.9660753,9.61624138 C13.0356603,9.70570784 13.0744291,9.81505574 13.0744291,9.92738586 L13.0744291,9.92837993 L13.1599193,9.88464077 C13.2911368,9.82102017 13.4412416,9.81505574 13.5734532,9.87072376 C13.7066588,9.92539771 13.8090482,10.0357397 13.8547755,10.1719275 Z M19.1632183,13.567478 L19.2318093,13.3964976 C19.1652065,13.4273139 19.0936333,13.4442131 19.020072,13.4442131 L18.6313899,13.4442131 L19.1324021,13.8179841 C19.1204732,13.734482 19.1304139,13.6479978 19.1632183,13.567478 Z M21.6583385,14.398522 C21.5847772,14.4343086 21.5141981,14.4601545 21.4267198,14.4492197 L21.5857713,14.6082712 C21.6802081,14.702708 21.7318999,14.827961 21.7318999,14.9601726 L21.7318999,15.2802637 C21.7666924,15.2723111 21.802479,15.2683348 21.8392596,15.2683348 L22.2368883,15.2683348 L22.4943529,15.0118643 C22.6464459,14.8587773 22.8770706,14.8219966 23.0689264,14.9184216 L23.1504403,14.9591785 L23.3065096,14.8031092 L22.2140247,14.1201819 L21.6583385,14.398522 Z M20.7974724,14.0605376 L20.2308514,13.5744365 L20.1891004,13.67782 L20.4763872,14.0605376 L20.7974724,14.0605376 Z M23.5997608,15.9154756 C23.4496559,16.0655804 23.2200253,16.1033552 23.0291636,16.0109065 L22.9436734,15.9681614 L22.7945626,16.1172722 C22.7011199,16.2107149 22.5758668,16.2624066 22.4426612,16.2624066 L21.9565601,16.2624066 L21.6583385,16.4115174 C21.4754293,16.5039661 21.2438106,16.4661914 21.0996702,16.3329857 C21.096688,16.3419324 21.0937058,16.349885 21.0897295,16.3588316 C21.0350555,16.4920372 20.9247136,16.5944266 20.7885257,16.6401539 L20.1841301,16.8419505 C20.1314443,16.8588497 20.0787584,16.8668023 20.0270667,16.8668023 C19.9505232,16.8668023 19.8729856,16.848909 19.8043946,16.8141165 L19.4017956,16.613314 C19.2318093,16.5278238 19.1274317,16.3568435 19.1274317,16.1679698 L19.1274317,15.9671673 C19.1274317,15.7385308 19.2825069,15.5397164 19.5041849,15.4840484 L20.3093831,15.2832459 C20.4654524,15.2444771 20.6205276,15.2832459 20.7378281,15.3756946 L20.7378281,15.1659454 L20.626492,15.0546094 L20.2278692,15.0546094 C20.072794,15.0546094 19.9236832,14.980054 19.8302405,14.855795 L19.5121375,14.4313264 C19.4952383,14.5357039 19.4475229,14.6321289 19.3719734,14.7076783 L18.7675777,15.3110799 C18.6363603,15.4422974 18.4405281,15.4900129 18.2615952,15.4333508 L17.6552114,15.2305601 C17.4514267,15.1629632 17.3152388,14.9730955 17.3152388,14.7593701 L17.3152388,14.4621426 L17.1870036,14.398522 C17.0438572,14.3259548 16.9444501,14.1897669 16.9186042,14.0327036 C16.8927583,13.8766343 16.9444501,13.7146006 17.0577742,13.6022705 L17.2595708,13.401468 C17.3530136,13.3070312 17.4782666,13.2553394 17.6104782,13.2553394 L17.7814585,13.2553394 L17.4892014,13.0605014 L16.0617143,13.2384402 C15.8658821,13.2712446 15.6521567,13.1599085 15.5567258,12.9690468 L15.3539352,12.5654536 C15.2326584,12.3199179 15.3320656,12.0207023 15.5766073,11.8984314 L15.7038484,11.8348108 L15.7038484,11.7393799 C15.7038484,11.5733699 15.7863564,11.4192888 15.9235383,11.3268401 C16.0607202,11.2353855 16.2336887,11.2184863 16.3857817,11.2771366 L17.30331,11.643949 L17.6134604,11.643949 C17.6671403,11.5733699 17.7387134,11.5167079 17.8232095,11.4809213 C18.0120832,11.4053718 18.2238205,11.4481169 18.3649787,11.588281 L18.6224433,11.8457456 L19.8252701,11.8457456 C20.0399896,11.8457456 20.2288633,11.9819335 20.2974542,12.1847241 C20.3143535,12.238404 20.3233001,12.2920839 20.322306,12.3467578 C20.3322468,12.3527222 20.3411934,12.3606748 20.3501401,12.3686274 L21.5092278,13.3617051 L22.0191866,13.1062287 C22.1722737,13.027697 22.3601532,13.0366436 22.5072759,13.1310805 L24.115684,14.1360871 C24.2618126,14.2265476 24.3492909,14.384605 24.3492909,14.5575735 L24.3492909,14.9601726 C24.3492909,15.0923841 24.2975992,15.2176372 24.2041564,15.3110799 L23.5997608,15.9154756 Z"/>
</svg>
