<svg xmlns="http://www.w3.org/2000/svg" width="32" height="32" viewBox="0 0 32 32">
  <path fill-rule="evenodd" d="M20.6838676,14.053327 C20.5526523,14.0374221 20.4015559,14.0871249 20.295192,14.1895126 C20.1957865,14.2849419 20.1401194,14.4181453 20.1421075,14.5533368 L20.1759054,17.3883823 L18.8239903,18.1418761 C18.7434718,18.1866086 18.6778642,18.2522163 18.6331317,18.3307466 L17.9889839,19.4749042 C17.9512098,19.5415059 17.9293406,19.6170541 17.9263584,19.6916082 L17.8955427,20.2781008 C17.8865962,20.4928167 18.0128412,20.6876516 18.2126463,20.7651879 L18.6291555,20.9272189 L18.7852222,21.1886554 L18.4005228,22.315914 C18.3597665,22.4322185 18.3647368,22.5594575 18.4154336,22.6767561 L18.4492315,22.7552864 C18.3369032,22.8984304 18.3100638,23.0932652 18.385612,23.2622546 L18.4959521,23.5137506 L18.2762659,24.5157582 C18.2374977,24.691706 18.297141,24.8746122 18.4313385,24.9948928 L19.3697266,25.824929 C19.4552154,25.8994831 19.5635674,25.9442156 19.6729135,25.9481918 L20.2474774,25.9780135 L20.6659746,26.4402491 C20.726612,26.5068508 20.8031543,26.5555595 20.8896371,26.582399 L21.5288146,26.7762398 L23.2892864,28.723594 C23.3797454,28.8229995 23.5020142,28.8806547 23.6322354,28.885625 L24.2058053,28.9154466 L24.6889161,29.4492543 L24.7485594,30.9095214 L4.4559161,31.0039567 L4.72729318,21.9471195 C4.72928129,21.8516902 4.70542396,21.7592431 4.65770931,21.6807127 L4.29686727,21.074339 C4.23225368,20.9689692 4.1318541,20.8894448 4.01256747,20.8536588 L3.46186088,20.6866575 L3.20340652,20.0981768 L3.43303328,19.9609972 C3.50659337,19.9162647 3.56723073,19.8536392 3.60997511,19.7790851 L4.25412289,18.6398978 C4.30084349,18.5593793 4.3227127,18.4659381 4.31873648,18.3695148 L4.22032502,16.4052617 C4.21634879,16.3148026 4.18553308,16.2283198 4.13682438,16.1557538 L3.6566957,15.4440103 L2.06223113,2.93382526 L9.51565719,2.94575392 C9.78007588,2.94575392 9.99876803,2.73899044 10.0126848,2.47457175 L10.07034,1.30158658 L10.574326,2.60777515 L10.5395341,3.28472676 C10.5335697,3.41494799 10.5792963,3.541193 10.6677672,3.64059853 L11.2234441,4.25691276 C11.3139031,4.35532423 11.4361719,4.41297943 11.5663931,4.41894377 L12.5316207,4.46765247 L12.5783413,4.51834929 C12.6519014,4.60085587 12.752301,4.65652296 12.8616471,4.67541001 L14.103222,4.89509622 L14.1857286,5.19033062 C14.2473601,5.41001682 14.4859333,5.56011916 14.7086017,5.55017861 L16.0843741,5.4239336 C16.2454111,5.40802871 16.3895491,5.31558158 16.4720556,5.17343168 L16.5535682,5.02829962 L17.9025011,4.94678709 L18.1559852,5.08993104 C18.1957474,5.11180026 18.2365037,5.12770514 18.278254,5.13863975 C18.2931648,5.23307499 18.3339211,5.32452807 18.4015168,5.39908222 L18.5854171,5.60385759 C18.6728939,5.701275 18.7981449,5.76091832 18.9293602,5.7678767 L19.3240001,5.78775781 L19.4045186,6.19631451 C19.4273818,6.31758924 19.4949776,6.42594126 19.5943831,6.49950135 L20.1609946,6.91998671 C20.2912158,7.01740412 20.4611993,7.04424361 20.6122957,6.99255274 C20.7663742,6.94185592 20.8856608,6.81958713 20.9323814,6.66550857 L21.0546502,6.26589837 L21.0884481,6.26689243 L21.159026,6.5183884 C21.2166812,6.72415783 21.3995874,6.86928989 21.6123152,6.8802245 L22.2296235,6.91203427 L22.2992074,7.16253618 C22.3578566,7.36929967 22.5397687,7.51443173 22.7524965,7.52536634 L22.8369912,7.52934256 L22.8876881,7.64564702 C22.940373,7.76791581 23.0427607,7.86632728 23.1729819,7.91503599 C23.300221,7.96175658 23.4374006,7.9547982 23.5576813,7.89714299 L25.7754185,6.84344446 L26.0835756,7.29872175 C26.1869573,7.4508122 26.3668813,7.53530689 26.5448172,7.51443173 L28.8500313,7.27884064 L29.2307544,7.69833195 L21.1858655,13.2034098 C21.1142935,13.2531125 21.0556443,13.3217023 21.0158821,13.405203 L20.7176655,14.0553151 L20.6838676,14.053327 Z M21.482094,14.7750111 L21.8628171,13.944975 L31.0667744,7.64763513 C31.2427222,7.52636039 31.3212526,7.30667419 31.2645914,7.10388692 C31.2069362,6.89712344 31.0250241,6.75199138 30.8113022,6.74105677 L30.0647668,6.70527078 C29.9554207,6.68240751 29.8659557,6.71620539 29.8063124,6.74205082 L29.7337464,6.77386059 L29.4186309,6.42494721 C29.3092848,6.30367247 29.1522241,6.24104699 28.9991396,6.26391026 L26.7396521,6.49552513 L26.359923,5.93288987 C26.2217493,5.73010261 25.9553425,5.65654252 25.7346622,5.76191237 L23.5875029,6.78181303 C23.5020142,6.64562747 23.3558881,6.55914466 23.192863,6.55218628 L23.0914694,6.29969625 C23.0328201,6.09392682 22.850908,5.94879476 22.6381802,5.93786015 L22.0208719,5.90605038 L21.950294,5.65554846 C21.8926388,5.44878498 21.7097326,5.30365291 21.4970048,5.29271831 L20.7097131,5.2529561 C20.5337653,5.24202149 20.3697462,5.3394389 20.2753109,5.47960069 L20.222626,5.21418794 C20.1778935,4.98953146 19.988029,4.82551235 19.7603903,4.81457774 L19.6719194,4.80960747 L19.6768897,4.7201425 C19.6908065,4.44677731 19.4790727,4.21416839 19.2057075,4.20025162 L18.5416786,4.16645374 L18.260361,4.0074049 C18.1689079,3.95670809 18.0724846,3.93483887 17.989978,3.94577348 L16.22553,4.05213739 C16.0575346,4.06207794 15.9064382,4.15551913 15.8209495,4.30363336 L15.7344667,4.45771192 L15.0316696,4.52232551 L14.9769966,4.32450852 C14.9243117,4.14259641 14.7712272,4.00342868 14.5853388,3.97062486 L13.202608,3.72608728 L13.130042,3.64755691 C13.040577,3.54815139 12.9183082,3.49049619 12.788087,3.48552591 L11.8228594,3.43582315 L11.5435298,3.12667198 L11.5723574,2.54614372 C11.5743456,2.47655986 11.5624169,2.40995816 11.5395536,2.34932079 L10.8476912,0.555051112 C10.7940122,0.412901215 10.6747256,0.30156703 10.5276054,0.256834545 L9.76118883,0.0242256224 C9.61605677,-0.0244830836 9.45303171,0.00136235226 9.32778075,0.0918213776 C9.20153574,0.179298237 9.12399943,0.319460024 9.11604699,0.473538583 L9.04248691,1.95070465 L1.4966137,1.93877598 C1.35545786,1.93877598 1.2192723,2.00040741 1.12384299,2.10677132 C1.0304018,2.21313522 0.986663373,2.35528512 1.00356231,2.49842907 L2.68649781,15.6865597 C2.6954443,15.7650901 2.72526596,15.8406383 2.76801033,15.9012757 L3.23521629,16.5961203 L3.31871693,18.2750795 L2.81075471,19.1756936 L2.31770332,19.4679458 C2.10398144,19.5961789 2.01749864,19.8655679 2.11789822,20.0951946 L2.64474749,21.2950193 C2.70140863,21.4272286 2.81473093,21.5286223 2.95489272,21.5703726 L3.5413853,21.7493025 L3.72926174,22.0654121 L3.445956,31.4890556 C3.44197978,31.6232531 3.4946647,31.7554624 3.58711184,31.8489036 C3.68055303,31.945327 3.80978021,32 3.94298361,32 L3.94497172,32 L25.2674563,31.9015885 C25.4016537,31.9005945 25.5308809,31.8449274 25.6253161,31.74751 C25.7167692,31.6500926 25.767466,31.5168892 25.7615017,31.3846798 L25.6750189,29.2265859 C25.6700486,29.1102815 25.6243221,28.9999413 25.5477798,28.9164407 L24.8052206,28.0953511 C24.7147616,27.9959456 24.5924928,27.9382904 24.4622715,27.9333201 L23.8887017,27.9034984 L22.1729624,26.0078351 C22.112325,25.9412334 22.0357827,25.8915307 21.9492999,25.8646912 L21.3101224,25.6708504 L20.8449046,25.1559298 C20.7544455,25.0585124 20.6331708,25.0008572 20.5029496,24.9958869 L19.8975699,24.9650712 L19.3090893,24.4441862 L19.501936,23.5704117 C19.5247992,23.468024 19.5128706,23.3586779 19.4711203,23.2632486 L19.4363283,23.1837242 C19.5476625,23.0415743 19.5754961,22.8477336 19.5009419,22.6777501 L19.4025304,22.4550817 L19.7981644,21.2940252 C19.8468731,21.1568456 19.8329564,21.0047552 19.7564141,20.876522 L19.3955721,20.2721365 C19.3389109,20.1777012 19.2524281,20.1031471 19.1490464,20.0633849 L18.9074909,19.9689496 L18.9134553,19.8596036 L19.431358,18.9410965 L20.9184647,18.1130485 C21.0775135,18.0255717 21.175925,17.8565823 21.1739369,17.6736761 L21.1421271,15.0543406 C21.285271,15.0215368 21.4135042,14.9201431 21.482094,14.7750111 Z"/>
</svg>
