<svg xmlns="http://www.w3.org/2000/svg" width="32" height="32" viewBox="0 0 32 32">
  <path fill-rule="evenodd" d="M21.8586008,9.88991155 C21.6707217,9.99329476 21.5693266,10.2040374 21.6080953,10.4147801 L22.220442,13.7488884 L19.9211598,16.24102 C19.8058477,16.3682609 19.7631028,16.541229 19.8078359,16.7112148 C19.8535631,16.8742422 19.9837861,17.0054593 20.1488016,17.0541687 L22.5007695,17.7361002 L20.5782396,19.8176812 C20.4718741,19.9339873 20.4281351,20.0890621 20.454975,20.2441369 L21.0921734,23.7064802 L19.4519591,29.3677046 L15.245058,28.1479816 C15.1416748,28.1171655 15.0323272,28.1201477 14.9269558,28.1609045 L8.04203213,30.765366 L9.85919074,2.02682372 L22.7741385,1.03374853 L22.9570473,5.65915279 C22.966988,5.87188361 23.111128,6.05578642 23.3169004,6.11543058 L24.402424,6.43055053 L23.6936526,8.87993719 L21.8586008,9.88991155 Z M25.4521611,5.85100816 C25.3885407,5.73370798 25.2821753,5.6492121 25.1549344,5.61243153 L23.9362055,5.25953695 L23.7463383,0.477069744 C23.7413679,0.342870395 23.6797356,0.215629529 23.5813228,0.128151435 C23.4739633,0.0307326474 23.3318114,-0.0120123308 23.2105349,0.00289870812 L9.35221542,1.06953502 C9.10767438,1.08842234 8.91084867,1.28823026 8.89593763,1.53376537 L7.00124162,31.4701611 C6.98931279,31.6391529 7.06386798,31.8011861 7.20204361,31.9035753 C7.28753357,31.9671957 7.38892863,32 7.49628811,32 C7.55891448,32 7.62054677,31.9880712 7.67223837,31.9671957 L15.1257697,29.1490094 L19.6497789,30.4591926 C19.7740375,30.4959732 19.9112191,30.4840444 20.0334896,30.4164477 C20.1478076,30.3528272 20.2323035,30.2474559 20.269084,30.1212091 L22.0802782,23.8695075 C22.1011537,23.7969405 22.1051299,23.718409 22.091213,23.6428597 L21.4778722,20.3097455 L23.7781485,17.8176139 C23.8934605,17.690373 23.9362055,17.5164109 23.8904783,17.3464251 C23.8447511,17.1833977 23.7145281,17.0521806 23.5495126,17.0034712 L21.1975447,16.3225337 L23.1210687,14.2409527 C23.2264401,14.1256407 23.2711732,13.9695718 23.2443333,13.814497 L22.650874,10.5877482 L24.3517265,9.65133493 C24.4680326,9.58672043 24.5525284,9.48234316 24.5903031,9.35410822 L25.4949061,6.2277604 C25.5316867,6.09952547 25.5167756,5.96632019 25.4521611,5.85100816 Z"/>
</svg>
