<svg xmlns="http://www.w3.org/2000/svg" width="32" height="32" viewBox="0 0 32 32">
  <path fill-rule="evenodd" d="M30.3329916,27.013192 L30.3717611,27.0589201 L30.2226479,27.2676786 L30.0407297,27.2517732 C29.8796875,27.2279151 29.7295802,27.2885545 29.6142659,27.4157977 L29.3060986,27.7637286 L29.1172219,27.6991128 C29.1042987,27.6772429 29.0893874,27.655373 29.0714938,27.6354912 L28.780226,27.2925308 C28.7175985,27.2179742 28.6340951,27.1642934 28.5406508,27.1374531 L27.9441979,26.9654758 L27.2880998,25.9206892 L27.3000289,25.7695878 C27.3179224,25.5628175 27.2026082,25.364994 27.0127374,25.2785083 L25.5116644,24.5856289 L24.8038736,22.6421867 C24.7909505,22.6083877 24.7760392,22.577571 24.7581456,22.5487424 L24.921176,22.3767652 C24.999709,22.2942559 25.0474252,22.1868943 25.0553779,22.0745624 L25.0822183,21.7584424 C25.0981237,21.5705597 25.0076617,21.392618 24.8466194,21.2932091 C24.6825949,21.1938003 24.4817891,21.1947944 24.322735,21.2961914 L23.9370288,21.5377548 L23.9091944,21.2991737 C24.0463785,21.235552 24.1477755,21.1132792 24.1845568,20.9671482 C24.2233262,20.8130646 24.1845568,20.648046 24.0821657,20.524779 L23.9350406,20.3518077 C23.8346377,20.2345053 23.6994418,20.1778423 23.5264704,20.1778423 L22.4111036,20.2444462 L21.4359032,18.6926747 L22.1983687,17.4361473 C22.279884,17.3019454 22.2938012,17.1359327 22.23515,16.9937781 L21.9707226,16.3346977 C21.9051128,16.1706732 21.7559995,16.0533708 21.5820341,16.0275245 C21.5194066,16.0175836 21.4577731,16.0195718 21.3971337,16.0344831 L20.8394503,15.694505 C20.7887518,15.6656764 20.734077,15.6457947 20.677414,15.6358538 C20.6724435,15.6288952 20.666479,15.6229306 20.6615085,15.615972 L20.5829756,15.5235218 L20.8195686,15.05133 C20.847403,14.9936729 20.8652966,14.9330335 20.869273,14.870406 L21.0014867,13.2888118 C21.0084453,13.212267 20.9965162,13.13274 20.9676877,13.0621597 L20.8792138,12.8404781 L20.9219596,12.3235523 C20.9348828,12.1585336 20.8662907,11.9984854 20.7350711,11.892118 L20.4080161,11.632661 L20.2022398,10.9626456 C20.1425946,10.7687985 19.9726055,10.6316143 19.7688174,10.6137207 L18.9675824,10.5461227 L18.71409,10.3453169 L18.4864438,9.93177629 C18.432763,9.83534975 18.3472715,9.75880497 18.2468686,9.71605918 L17.8919791,9.56296961 L17.7657299,9.41485048 L17.6832206,8.90587738 C17.6543921,8.72296517 17.5271488,8.57285787 17.3521893,8.51520076 L16.885962,8.35515257 L16.265651,7.47240234 C16.1801594,7.3511236 16.0469516,7.27457881 15.8998266,7.26264976 L15.5419548,7.2338212 L15.0319877,6.92167754 C14.9653838,6.8829081 14.8908271,6.86004408 14.8182587,6.85407955 L14.0418759,6.78946382 C13.952408,6.77355841 13.8609519,6.791452 13.7754603,6.83220961 L12.6143654,7.37398762 C12.4473586,7.45152649 12.3370148,7.61356285 12.328068,7.79548098 C12.3260799,7.81933909 12.3270739,7.84419129 12.3290621,7.86705532 L11.7733669,8.269661 C11.7365856,8.24282062 11.6968221,8.22095068 11.6540763,8.20504527 C11.526833,8.15434678 11.3807021,8.16329357 11.2504765,8.2279093 L10.2017136,8.76769913 C10.18382,8.65437309 10.1281511,8.54800566 10.0396772,8.47146088 L9.69870502,8.16726992 C9.74443307,8.1106069 9.77823207,8.04499709 9.79612565,7.97342274 C9.833901,7.81933909 9.79612565,7.65432047 9.69274049,7.53204763 L9.40246677,7.18908724 C9.35176828,7.12745378 9.28615846,7.07973755 9.21359003,7.0499149 C9.26727079,6.93062433 9.27124714,6.79244609 9.22054865,6.66520281 L9.08833493,6.33615965 C9.02968373,6.18605235 8.90045228,6.07471448 8.75332724,6.03892731 C8.5982495,5.99618152 8.43024861,6.03395687 8.3059876,6.14131838 L8.23640143,6.19996958 C8.20856696,6.18307008 8.17874432,6.16915285 8.14792759,6.15821788 C8.01471979,6.11050165 7.86660066,6.12243071 7.73935738,6.19102279 L7.23833698,6.46837337 C7.20752025,6.48527286 7.17968578,6.50515463 7.15483358,6.52702457 L7.04846616,6.47930834 C7.09121194,6.32224242 7.05443068,6.15424153 6.94806326,6.02898643 L6.51265267,5.5140488 C6.42219066,5.40668728 6.28997694,5.34505382 6.10308838,5.33710111 L4.97976883,5.4046991 C4.83860832,5.4136459 4.70838278,5.48223798 4.62189711,5.59158767 L4.40916226,5.85899736 L3.86241381,5.87390869 C3.83259117,5.84905648 3.79879217,5.82718655 3.763005,5.81028705 C3.77393997,5.71584868 3.75704047,5.61942213 3.71230651,5.53194238 C3.63476763,5.37785873 3.48565442,5.27745583 3.311689,5.26155042 L3.00252761,5.23570413 C2.88522521,5.21781054 2.76494055,5.25160954 2.668514,5.32020162 L2.6267623,5.28640262 C2.4597555,5.15816526 2.22813298,5.14325394 2.0511853,5.25856815 C1.97762278,5.30529029 1.91897158,5.36990602 1.88020214,5.44346854 L1.89014303,5.32417797 C1.9090307,5.11044903 1.78874604,4.90964323 1.59092251,4.82613983 L1.23702715,4.67305027 L1.0491445,4.45136862 L1.0988489,4.27640912 L10.2772643,4.00502307 L10.5436799,4.80327581 C10.6112779,5.0040816 10.7991605,5.14027167 11.0118954,5.14225985 L20.8831902,5.20190513 C20.8911429,5.22278098 20.9010838,5.24465092 20.9130128,5.26453268 L21.1903634,5.76555308 C21.2708845,5.91068995 21.4180096,6.0061224 21.5830282,6.02003964 L22.0552201,6.05980316 C22.2957894,6.07570857 22.5214474,5.92659535 22.5820867,5.68702012 L22.8186797,4.74959505 C22.8723605,4.53785428 22.7828925,4.31816082 22.5950099,4.2028466 L22.5542523,4.17799439 L22.5651872,4.05572156 L22.5761222,4.04578068 L23.6268733,4.21477565 L23.5970507,4.57364146 C23.5831335,4.73965417 23.6527196,4.90069644 23.7839393,5.0040816 L24.141811,5.2883908 L27.2990348,11.9040471 L27.2493304,11.9229348 C27.1230812,11.9736332 27.0206901,12.0760243 26.9719798,12.2032676 C26.9212813,12.3295168 26.9262517,12.4726655 26.9839088,12.5969265 L29.7415092,18.4690049 C29.7405151,18.469999 29.7405151,18.469999 29.739521,18.470993 C29.5963724,18.6131476 29.5526325,18.8248884 29.6271891,19.011777 L29.7594028,19.3408201 C29.8309771,19.5157796 29.9920194,19.6340761 30.1799021,19.6499815 L30.2912399,19.6589283 L30.6063659,20.0317114 L30.5974191,20.1430492 C30.58549,20.2752629 30.6272417,20.4035003 30.7127333,20.5039032 L30.8837164,20.7057031 L30.8598583,22.7525305 C30.8588642,22.8638683 30.8956455,22.973218 30.9662257,23.06368 L30.2256301,26.5877223 C30.1928252,26.7398178 30.2325887,26.8939015 30.3329916,27.013192 Z M31.2485468,26.5549174 L31.9891424,23.0318692 C32.0209532,22.8817619 31.9821838,22.7266842 31.8817809,22.6063995 L31.8559346,22.5765769 L31.8797927,20.5317377 C31.8807868,20.4124471 31.8390351,20.2961388 31.7614962,20.2066709 L31.6044303,20.0207764 L31.6133771,19.9084444 C31.6243121,19.7772248 31.5815663,19.6450111 31.4980629,19.5465964 L31.047741,19.0147592 C31.0467469,18.9451731 31.0308415,18.8745928 31.0000247,18.8109712 L28.4690765,13.4210255 C28.5814084,13.392197 28.6837995,13.3226108 28.7543797,13.2222079 C28.8537885,13.0750829 28.8686999,12.885212 28.7931492,12.7261579 L24.9897681,4.75655367 C24.9589514,4.68895568 24.9122292,4.63030448 24.8496017,4.57960598 L24.7869741,4.52990158 C24.8774362,4.44441 24.9340992,4.32909578 24.9440401,4.20582886 L24.9698864,3.88871476 C24.9907622,3.63124594 24.80785,3.39763524 24.5533634,3.35687763 L22.5025597,3.02684038 C22.3613992,3.01192906 22.2142742,3.0497044 22.1079067,3.14016642 L21.7659404,3.42845197 C21.6655375,3.51294946 21.6019159,3.63721047 21.5909809,3.7684301 L21.5522115,4.24360421 C21.4955485,4.22173427 21.4368973,4.2107993 21.377252,4.2107993 L11.3737435,4.15015993 L11.1033515,3.33997813 C11.0377417,3.14116051 10.8419063,3.00198818 10.6172424,3 L0.707178191,3.29425008 C0.490466986,3.30021461 0.304572512,3.44435738 0.243933138,3.65311588 L0.0192692286,4.43148686 C-0.0264588238,4.59153504 0.0103224358,4.76351228 0.11768395,4.88976147 L0.553094536,5.4046991 C0.603793029,5.46434439 0.669402844,5.51206062 0.737000834,5.53989509 L0.870208639,5.5975522 L0.847344613,5.87192051 C0.840385996,5.94945938 0.852315053,6.02898643 0.881143608,6.09956668 L1.01236324,6.42960393 C1.02528638,6.46042066 1.04119179,6.49024331 1.05908538,6.51907186 L0.996457827,6.62046885 C0.88511996,6.80437514 0.904007634,7.03798585 1.04317997,7.20101629 L1.18931092,7.37299353 C1.27877885,7.47836687 1.40999848,7.54099442 1.56408213,7.54695895 C1.70623673,7.5429826 1.82950365,7.49228411 1.92095976,7.39983391 L2.74903514,6.5578413 C2.82259766,6.75467074 3.02042119,6.86302634 3.23017378,6.88688446 L4.66861925,6.84712093 C4.8147502,6.84314458 4.95193436,6.7745525 5.04438455,6.65824419 L5.26208985,6.38387588 L5.27004255,6.38288179 C5.24419626,6.59760482 5.36050457,6.80536923 5.55733401,6.89384307 L7.70754656,7.86904349 C7.81391399,7.91974199 7.92922821,7.92769469 8.03758381,7.90085431 C8.06044784,7.99728086 8.11214042,8.08774288 8.19166747,8.15732904 L9.19470236,9.04803198 L9.17581468,9.27667224 C9.16487971,9.40988004 9.20663141,9.53811741 9.29212299,9.63951439 C9.37761457,9.73991729 9.50187558,9.80353893 9.63011294,9.81248572 L10.0834171,9.84827289 C10.1758673,9.86517239 10.2722939,9.84628472 10.3726967,9.79956258 L11.2534588,9.34526432 C11.31211,9.40689778 11.3876607,9.45361992 11.4711641,9.47747803 C11.617295,9.51823565 11.7773432,9.49139527 11.9016042,9.40292143 L12.9394322,8.65238491 L13.3698724,8.68618391 C13.5995067,8.73191196 13.8271529,8.57981648 13.9036977,8.34819396 C13.9543962,8.19212213 13.9245735,8.0271035 13.8331174,7.9018484 L14.0756749,7.78951645 L14.618447,7.83425041 L15.1284142,8.14639407 C15.1950181,8.18516351 15.2695747,8.20802754 15.3431372,8.21399206 L15.5866888,8.23287974 L16.164254,9.05797286 C16.2248934,9.1464467 16.311379,9.21106242 16.4117819,9.24386733 L16.7497719,9.35918155 L16.8084231,9.71108874 C16.8223403,9.80155075 16.8611098,9.88505415 16.9187669,9.95165806 L17.2080465,10.2946184 C17.2597391,10.3542637 17.3243548,10.40198 17.3919528,10.4298144 L17.6981319,10.5620281 L17.8939673,10.9179117 C17.9267722,10.9735806 17.969518,11.0242791 18.0192224,11.0640426 L18.4685502,11.4189321 C18.5460891,11.4805655 18.6385393,11.5163527 18.7349658,11.5243054 L19.3503063,11.5769921 L19.5024018,12.0710539 C19.5302363,12.1654922 19.5868993,12.2489956 19.6684145,12.3165936 L19.9089839,12.5064645 L19.8791612,12.873283 C19.8722026,12.9508218 19.8841317,13.0303489 19.9129602,13.1009291 L20.001434,13.3226108 L19.8871139,14.6934583 L19.5481299,15.3734145 C19.4586619,15.5503622 19.4835142,15.7640912 19.6137397,15.9181748 L19.7429711,16.0702703 L19.5481299,16.9222038 C19.5073723,17.0991515 19.5660235,17.2840519 19.7022135,17.4043365 L20.2966782,17.9331914 C20.3940988,18.018683 20.520348,18.0703755 20.6595204,18.0554642 L20.4269038,18.4381881 C20.328489,18.6002245 20.3294831,18.8000362 20.429886,18.9600844 L22.1208299,21.653069 C22.2043333,21.7862768 22.347482,21.8717684 22.5005715,21.8836975 L22.956858,21.9204787 C22.9648107,21.9214728 22.9727634,21.9224669 22.9807161,21.923461 L23.0642195,22.645169 C23.0821131,22.8012408 23.1695928,22.9344486 23.3018065,23.0149697 C23.3534991,23.0457865 23.409168,23.0656682 23.4678192,23.0766032 C23.5046005,23.1253135 23.5503286,23.1670652 23.6030152,23.198876 L23.9072062,23.3837764 C23.9469697,23.4076345 23.9907096,23.4265222 24.0354435,23.4374572 L24.6487959,25.1214424 C24.694524,25.2457034 24.7899564,25.3471004 24.9082529,25.4007812 L26.2820826,26.0350094 C26.2800945,26.1294477 26.3069348,26.2258743 26.3576333,26.3093777 L27.1310339,27.5360824 C27.1161226,27.5778341 27.1061817,27.6225681 27.1022053,27.667302 L27.0634359,28.1424761 C27.0525009,28.2736958 27.0952467,28.4049154 27.1787501,28.5033301 L27.4690238,28.8462905 C27.5634622,28.9586225 27.7026345,29.0222441 27.8487655,29.0222441 L28.7096458,28.9268116 C28.8498122,28.9109062 28.9730791,28.8383378 29.0545943,28.727994 L29.2921814,28.8085152 C29.4840404,28.8790954 29.6957812,28.8254146 29.8309771,28.6703369 L30.1928252,28.2627608 L30.404566,28.2786662 C30.5844959,28.3084888 30.7564732,28.2289618 30.8648288,28.0748781 L31.4056127,27.3233475 C31.5398146,27.1374531 31.5298737,26.8859488 31.3807605,26.7109893 L31.2485468,26.5549174 Z"/>
</svg>
