<svg xmlns="http://www.w3.org/2000/svg" width="32" height="32" viewBox="0 0 32 32">
  <path fill-rule="evenodd" d="M12.5726077,21.4377245 C12.4761839,21.5301721 12.4215107,21.6584058 12.4195225,21.7926039 L12.4135582,22.3781051 C12.3121641,22.2866516 12.1650432,22.2240258 12.0507264,22.2548417 L11.796247,22.2717407 C11.6083697,22.2836694 11.4413677,22.4029566 11.3697954,22.575923 L11.2684013,22.8204617 L11.013922,22.8373607 C10.9324091,22.774735 10.832009,22.7379547 10.7276328,22.7319904 L9.56259467,22.6822874 L9.55663031,22.6822874 C9.37372331,22.6822874 9.2057272,22.7777171 9.11725588,22.9327905 L9.06954101,23.0182796 L8.52082,22.9019746 C8.35978232,22.8602241 8.18582185,22.9129093 8.06653467,23.0262321 L7.78422169,22.1514595 C7.71066127,21.9347544 7.5367008,21.8035385 7.35279974,21.8035385 C7.32794824,21.8035385 7.30309675,21.8065207 7.27824525,21.811491 L7.10030855,21.8234197 L7.05756398,21.7866395 L7.10130261,21.5411067 C7.11919569,21.4397126 7.10428479,21.3333482 7.06054616,21.2409007 L5.86469222,18.7577393 C5.79809021,18.6185709 5.67283868,18.520159 5.50583663,18.4843729 C5.3607039,18.4634976 5.20563057,18.5012719 5.09330181,18.5976957 L4.45113918,19.1503929 L4.38553124,19.0947256 L4.3716144,18.8919374 L4.41435897,18.8750384 C4.63404619,18.785573 4.76029178,18.5519689 4.71357097,18.3193589 L4.58334914,17.6473745 C4.66883828,17.5807725 4.72947593,17.4873309 4.7573096,17.3819605 L5.162886,15.8153223 C5.20264839,15.660249 5.16487412,15.494241 5.06348002,15.3749538 C4.94717502,15.2328033 4.78116704,15.1642131 4.64796302,15.1970171 L4.36565004,15.2149102 C4.33881043,15.1264389 4.28811338,15.0479081 4.21952325,14.9892586 C4.10818855,14.8878645 3.95510334,14.8431318 3.85768548,14.8659952 L3.80698843,14.8689774 L3.6817369,14.7596308 C3.72448147,14.5916347 3.6767666,14.4127039 3.55151507,14.2874524 L1.89342332,12.6343309 C1.88745896,12.5945686 1.8765243,12.5567943 1.86260747,12.5220022 L1.78606486,12.3381011 L1.81688072,12.2655348 C1.87950648,12.1154317 1.86558965,11.9434594 1.77811238,11.8052851 L1.00771604,10.5975024 L1.24330821,8.00300634 L30.4786069,8.62230559 L30.9855774,21.3323542 L21.9654788,21.5977682 L12.9404099,21.3005443 C12.8380217,21.2925918 12.6809603,21.3343423 12.5726077,21.4377245 Z M31.4527855,8.11533509 C31.4408568,7.85290331 31.228128,7.64415075 30.9656962,7.63818639 L0.790016943,7 C0.531561395,7 0.318832598,7.19384166 0.294975163,7.45229721 L0.00172752238,10.6770272 C-0.00721901582,10.7843857 0.018626539,10.8957204 0.0782701269,10.989162 L0.798963481,12.1213961 L0.789022883,12.1442595 C0.739319893,12.2675229 0.739319893,12.402715 0.789022883,12.5239903 L0.802939721,12.5607705 C0.744290192,12.7387072 0.790016943,12.9375192 0.923220956,13.0707232 L2.61411668,14.7566486 C2.55745527,14.9425378 2.61312262,15.1463201 2.76322564,15.2775359 L3.30896447,15.7536906 C3.34176845,15.7825183 3.38153084,15.8093579 3.42626353,15.8302332 C3.44515067,15.9415679 3.50181208,16.0409739 3.58829528,16.1185105 C3.70758245,16.2218928 3.85072707,16.2636433 3.94814493,16.2387918 L4.02667565,16.2338215 L3.84675083,16.9336396 L3.77617258,16.974396 C3.5952537,17.0807604 3.50081802,17.2915011 3.54157447,17.4972715 L3.65986758,18.1086183 C3.46304374,18.1911252 3.34077439,18.3899372 3.35667935,18.6006779 L3.40737639,19.3651098 C3.41532887,19.4953317 3.47795464,19.6195892 3.57736062,19.7080605 L4.12210539,20.1832211 C4.30898863,20.3442587 4.58732538,20.3442587 4.77321456,20.1852092 L5.25036326,19.7736684 L6.09332597,21.5261958 L6.02970615,21.8870396 C5.99889029,22.0590119 6.060522,22.2369486 6.19273195,22.3502714 L6.60129053,22.7071389 C6.72157177,22.8115152 6.85875202,22.8542597 6.958158,22.8274201 L7.16392838,23.4666006 C7.19176205,23.5491075 7.24146504,23.623662 7.30906111,23.6842997 L7.85380588,24.1594603 C7.94426532,24.237991 8.05957626,24.2817296 8.17985749,24.2817296 C8.19278027,24.2817296 8.2464595,24.2767593 8.25938228,24.2747712 C8.40948531,24.2519078 8.53672496,24.1624424 8.61127944,24.0312265 L8.65899431,23.9457374 L9.20870938,24.0640305 C9.41249164,24.1107513 9.64410758,24.0143275 9.75047197,23.8254562 L9.82999676,23.6882759 L10.5109277,23.7180977 L10.5198743,23.7250561 C10.631209,23.8204859 10.7664011,23.8622364 10.8757477,23.8423552 L11.6401797,23.7916581 C11.8210985,23.7797294 11.9841243,23.6674007 12.0586788,23.5033808 L12.3986473,23.9159156 C12.4920889,24.0282444 12.6292692,24.0948464 12.7823544,24.0968345 C12.925499,24.0968345 13.0616852,24.0342087 13.1571149,23.9258562 L13.275408,23.78967 C13.3519506,23.7011987 13.3956893,23.5878759 13.3976774,23.4675946 L13.408612,22.309515 L21.9734313,22.591828 L31.5183935,22.310509 C31.6496094,22.3065328 31.776849,22.2478833 31.8653203,22.1534476 C31.9557798,22.0560297 32.0054828,21.9248138 31.9995184,21.7935979 L31.4527855,8.11533509 Z"/>
</svg>
