<svg xmlns="http://www.w3.org/2000/svg" width="32" height="32" viewBox="0 0 32 32">
  <path fill-rule="evenodd" d="M29.8442367,19.6830343 C29.798239,19.6725803 29.7508474,19.6704895 29.7055466,19.6788527 L24.1356391,20.6315634 L22.2100067,19.4335315 C22.0894368,19.3575655 21.9361111,19.363141 21.8232075,19.4453794 C21.7082132,19.5276178 21.6545492,19.6697926 21.6859113,19.8077858 L21.9723517,21.0378767 L13.0139445,21.1235998 C12.9268276,21.1249936 12.8445892,21.1577496 12.7811681,21.2162922 L10.8611111,22.997659 L8.58840488,23.1934978 C8.52219602,23.1990733 8.46016877,23.2227691 8.40998943,23.2617975 L3.78582325,26.7088398 L1.80931455,26.2349237 L0.902601634,25.4731734 L4.40121718,22.7530346 C4.54199813,22.6436158 4.57754183,22.44708 4.48415249,22.295845 L3.42202299,20.5632637 L4.70995955,5.69972311 L14.3248799,5.78196148 L14.7862511,6.53395475 C14.85246,6.64128279 14.9758175,6.7005223 15.0977812,6.69912843 L31.2931653,6.00289 L30.9042754,19.9367188 L29.8442367,19.6830343 Z M31.8967114,5.39098074 C31.8235331,5.31780253 31.7203867,5.27668334 31.6367545,5.28992511 L15.272712,5.99382984 L14.8176132,5.25159367 C14.754889,5.14914417 14.6447732,5.08781386 14.5242034,5.08641999 L4.39076315,5 C4.20886302,5 4.05902192,5.13659933 4.04368934,5.31849946 L2.71742133,20.6162308 C2.71045198,20.690106 2.7285723,20.7667688 2.76760068,20.83019 L3.72728068,22.3948099 L0.135275793,25.186036 C0.0509466133,25.250851 0.0021611375,25.3491189 7.03313906e-05,25.4550531 C-0.00202047472,25.5609872 0.0425833889,25.6599521 0.123427892,25.7289487 L1.42321235,26.8210464 C1.46433154,26.8565901 1.51520782,26.8816798 1.56747798,26.8942246 L3.77955084,27.4238955 C3.79348954,27.4273802 3.84854744,27.4343495 3.86318308,27.4343495 C3.93914904,27.4343495 4.01372112,27.4092598 4.07156676,27.364656 L8.74660921,23.8792822 L11.0409204,23.6806556 C11.1168864,23.6743832 11.1900646,23.6423242 11.2472133,23.5893571 L13.1561193,21.8191413 L22.4142087,21.7306305 C22.5201429,21.7299335 22.6184108,21.681148 22.6839227,21.5975158 C22.7494346,21.5145805 22.7731304,21.4072525 22.7494346,21.3034091 L22.5556866,20.4691774 L23.8784699,21.293652 C23.9544359,21.3403467 24.0450375,21.3570731 24.1223973,21.3410436 L29.7522412,20.377182 L31.1607476,20.7158926 C31.2652879,20.7409822 31.3712221,20.7158926 31.4527635,20.6531684 C31.5363958,20.5890503 31.5865751,20.4914794 31.5893629,20.3862421 L31.9998578,5.64745296 C32.0026455,5.55057894 31.9643141,5.45579573 31.8967114,5.39098074 Z"/>
</svg>
