<svg xmlns="http://www.w3.org/2000/svg" width="32" height="32" viewBox="0 0 32 32">
  <path fill-rule="evenodd" d="M4.31539388,19.5209431 L4.84842633,16.951176 L6.52029935,15.2094777 C6.61372754,15.1121156 6.66290028,14.9793493 6.65699955,14.8465829 C6.65109882,14.712833 6.58914118,14.5849839 6.48686189,14.496473 L5.58110009,13.7146265 L4.70484194,10.6757514 L4.74319668,10.6521485 C4.91923507,10.5469189 5.01266327,10.3413768 4.97430853,10.1397686 L4.68025557,8.55542306 L4.80023705,8.07844752 C4.82187305,7.99485387 4.8208896,7.9073264 4.79728669,7.82569966 L4.58289356,7.05467116 L4.68123903,6.81765858 C4.73139522,6.69669365 4.73139522,6.56294381 4.68025557,6.44197888 L4.50421718,6.01909335 L4.57502592,5.61095964 L4.86514506,5.43885507 L5.21427148,5.63554601 C5.31261696,5.69061948 5.4266977,5.71028857 5.53389427,5.69160293 L5.59781882,5.88731042 C5.66961102,6.10563737 5.86040123,6.22955266 6.10134764,6.22463539 L6.66978446,6.18234683 C6.90089632,6.16464465 7.08578581,5.99254007 7.12020672,5.76339512 L7.8155092,1.01035849 L15.235675,1.43521093 L28.2831687,1.68795879 L28.0441892,31.0126115 L19.4822325,30.9290178 L3.15885113,24.2149725 L3.43520191,23.638668 L3.83645143,23.7075098 C4.0606791,23.7517653 4.29080751,23.6248997 4.37833498,23.41149 L4.70090812,22.6266931 C4.72942831,22.5568678 4.74221322,22.4821253 4.73729595,22.401482 L4.68123903,21.6432384 C4.66353684,21.4190107 4.497333,21.2351047 4.27408878,21.1957665 L3.72532105,21.1013549 L3.69876777,21.0551325 L3.74105632,19.9212092 L3.87087234,19.9113746 C4.08919929,19.8956394 4.27212187,19.7343528 4.31539388,19.5209431 M28.7886644,0.713355165 L15.268129,0.452739666 L7.43294532,0.00330086128 C7.17724709,-0.0271862349 6.94613524,0.156719797 6.90679705,0.42225257 L6.26853494,4.7887915 C6.21542838,4.66881003 6.11708291,4.57636528 5.98628344,4.52719255 C5.84466596,4.47900327 5.69419739,4.49178818 5.56831518,4.56751419 L5.44833371,4.63832293 L5.10019074,4.44163199 C4.94775526,4.35508797 4.75893195,4.35705488 4.60747993,4.44753272 L3.87677307,4.8822197 C3.75285778,4.95696226 3.66828067,5.0798941 3.64467776,5.21954467 L3.51092792,5.99155662 C3.49519264,6.08400136 3.50502719,6.17939647 3.54141502,6.26495703 L3.69483395,6.63178564 L3.6112403,6.83536076 C3.56796829,6.9366566 3.56108411,7.04975389 3.59157121,7.15498355 L3.81481543,7.96338332 L3.70073468,8.41577249 C3.68204904,8.48559777 3.68008213,8.55935688 3.6938505,8.62918216 L3.94463145,9.9833993 L3.87480616,10.0247044 C3.68204904,10.1387851 3.59157121,10.3689136 3.65352885,10.5842901 L4.67730521,14.1296444 C4.70385849,14.2201222 4.75598159,14.301749 4.82777378,14.3637066 L5.45226753,14.9026398 L4.04101001,16.3729046 C3.97708545,16.440763 3.93282999,16.5243566 3.91512781,16.6128675 L3.42831772,18.9574236 L3.22867642,18.9721754 C2.97887892,18.990861 2.78317143,19.1944362 2.77432034,19.4442337 L2.71039578,21.1652794 C2.70744542,21.2596911 2.73104833,21.3511524 2.77923761,21.4337625 L2.9965811,21.7976408 C3.06935675,21.9215561 3.19228859,22.0061332 3.33488953,22.031703 L3.72827141,22.0995614 L3.74794051,22.35821 L3.61910794,22.6729155 L3.24342824,22.6080075 C3.02411784,22.563752 2.80480743,22.6738989 2.70842887,22.8784575 L2.0475473,24.2592279 C1.98952348,24.3801929 1.9846062,24.5218104 2.03279548,24.6496595 C2.08196822,24.7745582 2.18031369,24.875854 2.30422898,24.9279771 L19.1980141,31.8760847 C19.2550544,31.8987042 19.3150452,31.9105056 19.3779863,31.9114891 L28.5300159,32 L28.5319828,32 C28.6608153,32 28.7837472,31.9508273 28.8761919,31.859366 C28.9686367,31.7688881 29.0227267,31.6420225 29.0237101,31.5122065 L29.2705573,1.20901634 C29.2725242,0.941516659 29.0561641,0.719255893 28.7886644,0.713355165"/>
</svg>
