<svg xmlns="http://www.w3.org/2000/svg" width="32" height="32" viewBox="0 0 32 32">
  <path fill-rule="evenodd" d="M29.3518318,10.0259286 C29.1768673,10.0786168 29.046638,10.2217696 29.0088615,10.4007107 C29.0088615,10.4026989 29.0078674,10.4066754 29.0068733,10.4096577 C28.885591,10.3519989 28.7424382,10.3480225 28.6112148,10.4007107 C28.5992854,10.4056812 28.5883501,10.4106518 28.5764207,10.4166165 C28.5744325,10.2555696 28.4949031,10.1094344 28.3696444,10.0189698 L29.4234083,10.004058 L29.3518318,10.0259286 Z M30.8956953,11.7835272 L30.8698483,11.8173272 L30.7107896,11.790486 C30.6819602,11.7855155 30.6531308,11.7835272 30.6243014,11.7835272 C30.6064073,11.7835272 30.5875191,11.7845213 30.5706191,11.7865096 L30.5159427,11.6642332 C30.4940721,11.6155215 30.4632545,11.5707862 30.4284604,11.5320157 C30.4523192,11.5190921 30.4731957,11.5051745 30.4950662,11.4892686 C30.5477544,11.4912569 30.5994485,11.4872804 30.6521367,11.4733628 L30.7475719,11.5817215 C30.8052307,11.645345 30.875813,11.6920685 30.95236,11.7199037 C30.9314835,11.738792 30.9125953,11.7606625 30.8956953,11.7835272 Z M23.7281127,19.5316741 C23.4964835,19.5475799 23.3085954,19.7175739 23.2718131,19.9452267 L23.1197132,20.8458966 L22.3701491,20.7196437 C22.2468786,20.7007555 22.1086964,20.730579 22.00332,20.8061319 L21.7368967,20.9950141 L21.6146203,21.0139023 L17.8578527,17.1954994 C17.7653998,17.1020524 17.6421293,17.0493642 17.5109059,17.047376 L13.8406264,16.9956819 L13.8247205,16.8058056 C13.8167676,16.6904881 13.7680559,16.5811352 13.6885265,16.4996176 L13.147727,15.9309828 C13.0512976,15.8285887 12.9041683,15.7858417 12.7759273,15.7828594 C12.6924214,15.6476595 12.5423098,15.5601772 12.3414982,15.5442713 L6.43942637,15.6645595 C6.28533825,15.6675418 6.13920307,15.7440888 6.04774432,15.8693475 L5.98511496,15.9548416 L1.70941833,16.0632003 C1.8078359,16.0025592 1.88338878,15.9101063 1.9201711,15.8007535 L2.17068855,15.074054 L2.91428797,14.6406191 L3.50678162,14.7400308 C3.64894033,14.7638896 3.79209316,14.7290955 3.9064166,14.6346544 L5.02280983,13.7240433 L5.41648011,13.7906492 C5.64810934,13.8324021 5.87973857,13.7031669 5.9642385,13.4775024 L6.10739133,13.1027203 C6.28036767,13.0977497 6.44638518,12.998338 6.53287335,12.8382852 L6.56567921,12.77665 C6.63824974,12.8482264 6.73169672,12.8989263 6.83806723,12.9158263 L7.14027875,12.9675204 C7.34606095,13.0102674 7.54488432,12.912844 7.65324306,12.7368853 L7.95247223,12.2447974 L8.31134842,12.2338622 L8.45549537,12.3392385 C8.56484822,12.4207561 8.699054,12.4515738 8.83922447,12.4277149 C8.97343025,12.4038561 9.09371839,12.3233327 9.16628892,12.2080151 L9.76176492,11.2844806 L9.88006483,11.1999806 C10.0043294,11.2019689 10.1097058,11.1741336 10.2031528,11.1055395 C10.3105174,11.0279984 10.3810997,10.913675 10.4009821,10.786428 L10.4884644,10.267499 L27.4043569,10.0318933 C27.3397393,10.1024756 27.2959982,10.1919461 27.2800923,10.2873813 L27.1250101,11.21191 C27.107116,11.3083394 27.1190454,11.4067569 27.1607983,11.5002039 L27.3307923,11.8789624 L27.2781041,12.1940975 C27.2532511,12.3402327 27.2950041,12.4893502 27.3934216,12.6046677 C27.4938274,12.7189912 27.6359861,12.7816206 27.7831154,12.7736676 L28.5813913,12.7488147 C28.6609206,12.7468265 28.7394559,12.7249559 28.8100382,12.6841971 C28.9233675,12.8134323 29.0903791,12.879044 29.2613672,12.8472323 L29.5635787,12.7995147 C29.5615905,12.8601558 29.5705376,12.9207969 29.5894258,12.9784557 C29.4999553,13.0947674 29.4631729,13.2478614 29.497967,13.3989671 C29.5446905,13.593814 29.701761,13.7409433 29.8985961,13.7757374 L30.1978253,13.8254433 L30.033796,14.1336195 L29.9363726,14.2042018 L29.7236316,14.1684136 L29.5854493,13.9725726 C29.582467,13.9685961 29.5784905,13.9636255 29.5755081,13.959649 C29.5794846,13.8990079 29.5715317,13.8373727 29.5526435,13.7767315 C29.4870317,13.5699552 29.2961613,13.4307789 29.0794438,13.4307789 L28.1260858,13.4287906 C27.9570859,13.4287906 27.8010095,13.5132906 27.7085567,13.6564434 C27.6906626,13.6822904 27.677739,13.7101257 27.6658096,13.737961 L26.9639631,13.5470905 C26.7790574,13.500367 26.588187,13.5590199 26.4579577,13.7051551 C26.3346872,13.8502962 26.3058578,14.0560784 26.3824048,14.2310429 L26.6130399,14.7459955 C26.6756693,14.8851718 26.7969515,14.9865718 26.9450749,15.0243482 L27.7691978,15.235101 C27.7204861,15.3046892 27.6876802,15.3872009 27.6797273,15.4766714 C27.6727685,15.5532184 27.6817155,15.6277771 27.7075626,15.6963712 L27.022616,15.1963304 C26.8347279,15.0611305 26.5792399,15.0720658 26.4022871,15.227148 C26.2263284,15.3822303 26.1835814,15.634736 26.2969107,15.8415123 L26.7860162,16.7183233 C26.8466574,16.825688 26.9430867,16.9062114 27.0593984,16.9459761 L27.3357628,17.0414113 L27.1180513,17.1308818 L26.9401043,16.9638702 C26.8049044,16.8356291 26.6130399,16.7938762 26.4400636,16.8545173 C26.2690755,16.9121761 26.1438167,17.0583113 26.1110109,17.23427 C26.0722403,17.2163759 26.0304874,17.2034524 25.9867463,17.1954994 L25.6765818,17.1428112 C25.5006231,17.1159701 25.3355997,17.1766112 25.2232645,17.3038582 C25.1069528,17.4350816 25.0691764,17.6120344 25.1188822,17.7780519 L25.1228587,17.7919695 C25.0731529,17.8565871 25.0393529,17.93214 25.0264294,18.0146517 C25.0105235,18.1031281 25.0194706,18.1906104 25.0502882,18.272128 L24.8464942,18.3775044 C24.7808825,18.4132926 24.7232237,18.4610102 24.6755061,18.5246337 L23.9279302,19.5505623 C23.8643068,19.5286917 23.7957127,19.5207388 23.7281127,19.5316741 Z M31.9792827,12.6006913 L31.7725064,11.9296624 C31.7257829,11.7775625 31.6114595,11.6602567 31.4653243,11.6075685 C31.624383,11.4544745 31.6641477,11.2089277 31.5538007,11.0091102 L30.5765838,9.2534998 C30.4881074,9.09742345 30.3220899,9 30.1342018,9 L10.06,9.27934684 C9.8194237,9.28232919 9.61662386,9.45729376 9.5778533,9.69389357 L9.48142397,10.2635225 C9.47645338,10.2665049 9.4714828,10.2694872 9.46651222,10.2734637 L9.10365956,10.5319341 C9.05097137,10.5707046 9.00723022,10.6174281 8.97740672,10.6661399 L8.59964231,11.2526688 C8.54794823,11.2367629 8.49526004,11.2317924 8.4515189,11.2347747 L7.65125482,11.2596276 C7.48324907,11.2655923 7.33114919,11.3540687 7.24267279,11.4982157 L7.12139053,11.6990273 C7.01700826,11.6194979 6.88479072,11.5797333 6.74064377,11.5996156 L6.25054416,11.6761626 C6.09745016,11.7000214 5.96225027,11.7954566 5.88868562,11.9336389 L5.82207979,12.0579035 C5.62425054,12.0400094 5.39958013,12.1672563 5.32104489,12.3750268 L5.18186853,12.7418559 L4.96713929,12.7050736 C4.82398646,12.6822089 4.68083363,12.7179971 4.56750431,12.8114441 L3.45210519,13.7230492 L2.90335268,13.6305964 C2.78604689,13.6077317 2.66774698,13.6325846 2.56932941,13.6912375 L1.51158907,14.3075899 C1.40919503,14.3672369 1.3306598,14.4616781 1.29188924,14.5750074 L1.15569523,14.9686777 L1.0592659,14.9259306 C0.901201315,14.8563424 0.716295579,14.8742365 0.569166283,14.9756365 L0.388237013,15.1048717 C0.280872392,15.1824128 0.210290095,15.2967362 0.188419524,15.4269655 L0.0074902545,16.5075706 C-0.018356784,16.6546999 0.0233961243,16.8028233 0.121813694,16.9171467 C0.162572485,16.9648643 0.267948873,17.107023 0.509519271,17.0881348 L6.25551475,16.9419996 C6.40761463,16.9380232 6.5537498,16.8624703 6.64421444,16.7382057 L6.70584968,16.6546999 L11.9269515,16.5473352 L11.9368926,16.6089705 C11.9637338,16.7799586 12.0750749,16.9221173 12.2351277,16.9897172 C12.3941864,17.0563231 12.5711392,17.0364407 12.7162802,16.9360349 L12.7272155,16.9290761 L12.8484978,17.0563231 L12.8852801,17.5245521 C12.9041683,17.7820284 13.113927,17.9798576 13.3723974,17.98284 L17.2912061,18.0385105 L21.084756,21.8917075 C21.1772089,21.9871427 21.3064441,22.040825 21.4396557,22.040825 C21.4525792,22.040825 21.5052674,22.0378427 21.5171968,22.0358544 L22.0053082,21.9583133 C22.0818552,21.947378 22.1554199,21.9165604 22.216061,21.8728193 L22.4109079,21.734637 L23.4437953,21.9086075 C23.5760129,21.9324663 23.7052481,21.9006545 23.8146009,21.8231134 C23.9229597,21.7455723 23.9945361,21.6312489 24.0164066,21.5010196 L24.0700889,21.1838963 C24.2689123,21.1421434 24.4230004,20.9840788 24.4558063,20.7802848 L24.5144592,20.4323439 L25.4091644,19.2056037 L26.0026521,18.8994157 C26.0583227,18.8715805 26.1060403,18.833804 26.145805,18.7890688 C26.2014755,18.7662041 26.2521755,18.7324041 26.2959166,18.6896571 L26.8347279,18.1776869 C26.9510396,18.2224221 27.0812689,18.2204339 27.2015571,18.1717222 L28.2712268,17.7303343 L28.4481796,17.8963518 C28.5475913,17.9907929 28.6748383,18.0414929 28.8368793,18.0305576 C28.979038,18.01664 29.1082732,17.9430753 29.191779,17.8287519 L30.0178901,16.6954586 C30.1471253,16.5185058 30.144143,16.2739531 30.0089431,16.0979944 C29.8737432,15.9250181 29.6361493,15.8594064 29.4353377,15.9399298 L28.9462322,16.1317944 L28.9432498,16.1278179 L28.953191,16.1178767 C29.0565791,16.0194592 29.1132438,15.882271 29.1092673,15.7411065 C29.2285614,15.6665477 29.3120672,15.5442713 29.3369201,15.4001244 L29.3826495,15.1187893 L29.9721608,15.218201 C30.1004018,15.2410657 30.2336135,15.2112422 30.3459487,15.1327069 L30.7068131,14.8752307 C30.7684484,14.8314895 30.8191483,14.7728366 30.8569248,14.7042426 L31.1601304,14.1336195 C31.2784303,14.1813371 31.4146243,14.1843194 31.5349125,14.1336195 C31.6949653,14.0680078 31.8102829,13.9228667 31.8361299,13.7558551 L31.9922062,12.8313264 C32.0061239,12.7577617 32.0011533,12.6792265 31.9792827,12.6006913 Z"/>
</svg>
