<svg xmlns="http://www.w3.org/2000/svg" width="32" height="32" viewBox="0 0 32 32">
  <path fill-rule="evenodd" d="M23.2726981,23.694315 C23.1722942,23.7320907 23.0848137,23.8026716 23.0281501,23.8941286 L22.7875785,24.274868 C22.6732573,24.4567878 22.6881687,24.6894066 22.823366,24.8554209 L22.8700886,24.9120845 L22.8144191,24.957813 C22.711033,25.0413172 22.6474107,25.161603 22.6344875,25.2928239 L22.5748416,25.8902765 L22.5132076,25.9409755 C22.3670752,26.0612613 22.3024589,26.2511339 22.344211,26.4350419 L22.4446148,26.8794035 L22.0290821,27.6796521 C21.936631,27.8566014 21.9585011,28.0703324 22.0847515,28.2254116 L22.2199488,28.3894377 L20.9982029,28.7145076 C20.8530647,28.7532774 20.7347671,28.8536813 20.6741271,28.9918608 L20.4136736,29.5724138 C20.3540277,29.7056229 20.3550218,29.8577198 20.4176499,29.9889407 L20.5717351,30.3150047 L19.6442421,29.8040385 C19.5855903,29.7712333 19.520974,29.7503573 19.4523812,29.7433986 L18.8429994,29.6837527 C18.6968671,29.6678472 18.5477525,29.727493 18.4473486,29.8318733 L17.6928286,30.6052811 C17.6321886,30.5794346 17.5655841,30.5665113 17.4989795,30.5665113 C17.4542452,30.5665113 17.4095108,30.5724759 17.3647764,30.5844051 C17.3578177,30.5704877 17.350859,30.5575645 17.3429062,30.5456353 L16.9363203,29.8736253 L17.1709274,29.1031998 C17.2196381,28.9441441 17.1858388,28.7711712 17.0804645,28.6429326 L16.8488398,28.3606089 L16.9074915,27.7651445 C16.9273735,27.5792482 16.8369106,27.3943461 16.6788491,27.2949363 L16.0277152,26.8833799 L15.7483738,26.3594905 C15.6708342,26.2123641 15.5256959,26.1149425 15.3586875,26.0980429 L13.0513871,24.3086673 L13.8337419,21.6275862 L13.9361339,21.544082 C14.1468826,21.3701149 14.1776996,21.0569742 14.0047267,20.8442373 L13.4629435,20.1841566 C13.3794393,20.0817645 13.2601476,20.0181423 13.1279326,20.0042249 L12.3048199,19.923703 C12.1755872,19.9157502 12.0523191,19.9594905 11.9608621,20.0350419 L11.6934499,20.2547375 L11.4558606,19.4316247 L11.5065595,18.9256291 C11.5155064,18.8282075 11.4966186,18.730786 11.449896,18.6423113 L11.1079264,18.0001243 C11.0671684,17.9245728 11.0075226,17.8599565 10.9349535,17.8152221 L9.93190903,17.1829761 L9.83051108,16.9185461 C9.80565864,16.8519416 9.76788294,16.7932898 9.72016625,16.7445791 L8.70121627,15.7097235 L8.03417682,13.5227089 L8.67238744,12.361603 C8.72606871,12.2651755 8.74595066,12.1548307 8.7300451,12.0484623 L8.65946417,11.5732836 L9.63268567,11.0553588 C9.7808062,10.9778192 9.87822776,10.8316869 9.89413332,10.6666667 L9.95377918,10.0682199 L10.6764881,9.47573781 C10.8226204,9.3564461 10.8872368,9.16657347 10.8454847,8.98167133 L10.7043228,8.36234856 C10.6884173,8.28779124 10.6546179,8.21721031 10.603919,8.15458217 L10.0770473,7.51140106 L10.380247,6.83243243 L13.0931392,5.97353215 C13.284006,5.9138863 13.4182091,5.74687791 13.4380911,5.5500466 L13.4977369,4.95159988 L13.9997562,4.54004349 C14.1190479,4.44262193 14.1856524,4.29748369 14.181676,4.14339857 L14.1399239,2.51904318 C14.1359476,2.32817645 14.0196381,2.15520348 13.8466652,2.07865797 L13.009635,1.70388319 L13.0344875,1.457347 C13.0484048,1.30624418 12.9947236,1.16011184 12.8863669,1.0547375 L12.8346739,1.00403852 L23.2190168,0.995091643 L23.1534064,1.65219012 C23.1404831,1.783411 23.180247,1.91264368 23.2637512,2.01503573 L23.3701197,2.1452625 L23.485435,2.65225225 C23.5102874,2.75961479 23.5699333,2.85703635 23.6544316,2.92662317 L24.0500824,3.25069897 L24.117681,4.25871389 C24.1236456,4.36309413 24.1634095,4.46051569 24.2290199,4.54103759 L24.6604583,5.06691519 L24.7688149,17.8281454 L24.5113436,18.0388941 C24.3652113,18.1581858 24.300595,18.3480584 24.3423471,18.5329605 L24.3880755,18.7337683 L24.3691877,18.741721 C24.2280258,18.7944082 24.1216574,18.9077353 24.0739407,19.0518795 C24.0272181,19.1950295 24.0480942,19.3501087 24.1306043,19.4763591 L24.7588739,20.4446101 L24.8065906,21.5430879 L24.4656152,21.9586207 C24.402987,22.0351662 24.3652113,22.1266232 24.3552703,22.2240447 L24.31153,22.675365 L23.5689392,23.5809879 L23.2726981,23.694315 Z M25.7470069,20.2656726 C25.7430305,20.1771979 25.7151958,20.0907114 25.666485,20.0161541 L25.2837574,19.4276483 C25.4249193,19.3103448 25.4945061,19.1194781 25.4517599,18.934576 L25.3791908,18.6124884 L25.5829808,18.44548 C25.6992902,18.3500466 25.7658947,18.2078906 25.7649006,18.0577819 L25.6525676,4.88300715 C25.6515735,4.77067412 25.6118096,4.66032929 25.5402346,4.57185461 L25.0988553,4.03404784 L25.0282744,2.96837527 C25.0183334,2.83317801 24.9527229,2.70493942 24.8473486,2.61845294 L24.4169044,2.26554831 L24.3135182,1.81223983 C24.2976127,1.73768251 24.2628193,1.66610749 24.2131144,1.60546754 L24.1634095,1.54482759 L24.2618252,0.547747748 C24.2767366,0.407579994 24.2310081,0.26741224 24.1355748,0.163031998 C24.0421296,0.0596458527 23.9079264,0 23.7677587,0 L11.6159103,0.010935073 C11.4121203,0.010935073 11.2311945,0.133209071 11.1556431,0.32009941 C11.0781035,0.508977943 11.1228379,0.722708916 11.2679761,0.863870767 L12.020508,1.59850885 L11.9847205,1.96334265 C11.9648385,2.17607953 12.082142,2.37788133 12.2769851,2.46536191 L13.1537792,2.85803044 L13.1816139,3.92569121 L12.7084235,4.31338925 C12.6060314,4.39689345 12.5424092,4.51618515 12.5284918,4.64840012 L12.4817692,5.12556695 L9.86828679,5.95166201 C9.73110133,5.9944082 9.6207565,6.09282386 9.56409294,6.22205654 L9.04417992,7.38515067 C8.96564622,7.55812364 8.99248685,7.75694315 9.11277265,7.90406959 L9.76092425,8.69437714 L9.80864093,8.90214352 L9.16446573,9.43000932 C9.06207368,9.51351351 8.99845144,9.63181112 8.98353997,9.76502019 L8.9308528,10.302827 L7.88307399,10.8605157 C7.69817185,10.9589313 7.5947857,11.1647095 7.62460863,11.3724759 L7.72103609,12.0285803 L7.06194942,13.2254737 C6.99733308,13.3417832 6.98242161,13.482945 7.02119142,13.6101895 L7.78565243,16.1163094 C7.80851667,16.1928549 7.85026877,16.2624418 7.90693233,16.3200994 L8.93880558,17.3678782 L9.06207368,17.6899658 C9.09885529,17.7913638 9.17043031,17.8778503 9.26089319,17.9355079 L10.2927664,18.5856477 L10.5015269,18.9773221 L10.4577866,19.4266542 C10.4508279,19.4902765 10.4557984,19.5538987 10.4736922,19.6155328 L10.7749037,20.657347 C10.7937916,20.7229574 10.8256027,20.7826033 10.8683489,20.8362846 L11.2302004,21.2766698 C11.4041675,21.4874185 11.7173082,21.5182355 11.9300451,21.3462566 L12.4320644,20.9347002 L12.8237388,20.97347 L12.9509833,21.1275551 C12.9390541,21.1514135 12.9301072,21.1762659 12.9231485,21.2021125 L12.0036083,24.3494253 C11.9459507,24.5452625 12.0115611,24.7530289 12.1716108,24.8792793 L14.8009988,26.9629077 C14.8586565,27.0076421 14.9242669,27.0404473 14.9938537,27.0563529 L15.2125552,27.4689034 C15.2543073,27.5454489 15.3139531,27.6090711 15.3855282,27.6547996 L15.8885415,27.9719167 L15.8398307,28.4669773 C15.8259134,28.5991923 15.8646832,28.728425 15.9491815,28.8318111 L16.1420364,29.0674122 L15.9203526,29.7960857 C15.8795946,29.931283 15.8974884,30.0774153 15.9700575,30.1977011 L16.4074604,30.9184219 L16.3836021,31.154023 C16.3627261,31.3667599 16.4800296,31.5695558 16.6748727,31.6570363 L17.2554257,31.9164958 C17.370741,31.969183 17.4989795,31.9751476 17.615289,31.9363778 C17.6888522,31.9781299 17.7733505,32 17.8608311,32 C17.9751523,32 18.0864912,31.9602361 18.17596,31.887667 L18.3966496,31.7077353 C18.4970535,31.6252252 18.5626639,31.5029512 18.5765813,31.3707363 C18.58354,31.2951848 18.573599,31.2206275 18.5477525,31.1510407 L18.99112,30.6967381 L19.2535617,30.7225847 L20.5071187,31.4134824 C20.5677587,31.4472818 20.6333691,31.4681578 20.6979855,31.4731283 L20.9166869,31.4949984 C20.989256,31.4920162 21.0638133,31.4860516 21.1244533,31.4631873 L21.5449566,31.3031376 C21.6751833,31.2544268 21.7785695,31.1530289 21.8302626,31.0237962 C21.8819556,30.8955576 21.8779792,30.7504194 21.8193275,30.6261572 L21.4147298,29.7702392 L21.4843166,29.6141659 L22.9197935,29.2324324 C23.118613,29.1787512 23.2657394,29.0057782 23.2856214,28.8009941 L23.3253853,28.4003728 C23.3383085,28.2681578 23.2995387,28.1389251 23.2150404,28.035539 L23.0619494,27.8476546 L23.4108777,27.1766387 C23.4645589,27.0722585 23.4804645,26.9519727 23.4546179,26.8376514 L23.3810547,26.5145697 C23.4735058,26.4320596 23.5311635,26.3197266 23.5440867,26.1944703 L23.6037326,25.5970177 L23.8850622,25.365393 C23.9874542,25.2818888 24.0510765,25.1635912 24.0649938,25.029388 C24.0779171,24.897173 24.0381532,24.7689345 23.954649,24.6655483 L23.8492747,24.5383038 L24.0441178,24.4627524 C24.1246397,24.4339236 24.1982029,24.3812364 24.2538724,24.3136378 L25.1763949,23.1883194 C25.239023,23.1117738 25.2767987,23.0183287 25.2847515,22.9238894 L25.33048,22.4725691 L25.6963079,22.0262193 C25.7738475,21.9317801 25.8136114,21.8124884 25.8086409,21.6892203 L25.7470069,20.2656726 Z"/>
</svg>
