<svg xmlns="http://www.w3.org/2000/svg" width="32" height="32" viewBox="0 0 32 32">
  <path fill-rule="evenodd" d="M30.1171965,13.2573847 C30.0664979,13.2474438 30.0157992,13.2444616 29.9651006,13.249432 L29.1618757,13.3309474 C28.9938744,13.347847 28.8477431,13.447256 28.76921,13.5983577 L28.6598601,13.8100989 C28.5485219,13.733554 28.4093493,13.7057195 28.2662003,13.7375304 L27.7771079,13.8508566 C27.6270002,13.8856498 27.4997567,13.9910234 27.4361349,14.1341724 L27.3774836,14.2653923 L27.3754954,14.2653923 C27.150831,14.2653923 26.9599656,14.4035709 26.8963438,14.6182944 L26.7810294,15.0010191 L26.5464241,14.9791492 C26.4012869,14.9721905 26.2700669,15.0179187 26.1666816,15.1133513 L25.1069813,16.1134062 L24.5284207,16.0577371 C24.4141003,16.0527667 24.3047504,16.0825894 24.2162764,16.1432289 L23.1963397,16.8400862 C23.0959366,16.9086784 23.023368,17.0100757 22.9955335,17.123402 L22.8851894,17.5339613 L22.7748454,17.4951917 C22.615791,17.4405168 22.428902,17.4713336 22.2946998,17.5806835 L22.1217281,17.7228384 C22.021325,17.8053479 21.9567091,17.927621 21.9427918,18.0588409 L21.8801641,18.7218992 L1.8422857,19.1354407 C1.84626207,19.0648603 1.83532707,18.9942799 1.80848663,18.9266818 L1.62457993,18.4465362 L1.84029752,17.8968042 C2.00233424,17.8898456 2.10870191,17.8192652 2.17232369,17.7576316 C2.27869135,17.6542462 2.33336632,17.5110972 2.32143723,17.3679482 L2.27869135,16.7436595 L2.8075474,16.4921546 C2.94672004,16.4255506 3.04612907,16.3012893 3.07893405,16.1511816 C3.0839045,16.1273235 3.08788087,16.1044594 3.08986905,16.0806012 C3.23600032,16.0418317 3.35230889,15.9404345 3.41493658,15.7903268 C3.49844016,15.5865383 3.43978884,15.3559094 3.2688053,15.2157426 L3.17337263,15.1382036 L3.22307715,15.1193159 C3.35727934,15.0676232 3.46265291,14.9602614 3.51036925,14.8290415 C3.55510331,14.7097507 3.55212104,14.5795248 3.50241653,14.460234 C3.56902058,14.3628132 3.5978492,14.2435223 3.58492602,14.1272138 C3.60381374,14.1132965 3.62270145,14.097391 3.63960099,14.0804915 C3.74696274,13.9781002 3.79964953,13.8339571 3.78871454,13.689814 L3.77777954,13.5287714 C3.79467908,13.5178364 3.8125727,13.5059073 3.82847815,13.4929841 L8.615023,13.4601792 C8.75717792,13.4601792 8.89138011,13.3995396 8.98283642,13.2971483 C9.077275,13.193763 9.12399724,13.0535962 9.11007998,12.9124354 L9.08423363,12.6579483 L24.1158732,12.7195819 C24.2311877,12.7195819 24.3435199,12.6798183 24.431994,12.6062556 L24.6536761,12.4243371 L30.9522323,12.0316714 L30.9363269,12.1937081 C30.9323505,12.1976845 30.9273801,12.2006667 30.9234037,12.2046431 L30.5784544,12.4889529 C30.5297439,12.5287165 30.4899803,12.5764329 30.4571753,12.6350842 L30.1171965,13.2573847 Z M31.8608309,11.1558778 C31.7534691,11.0435456 31.598391,10.9839002 31.4711475,11.003782 L24.4290117,11.4421758 C24.3246322,11.4491345 24.2262173,11.487904 24.1447019,11.554508 L23.9379311,11.7244975 L8.5335076,11.6628639 C8.39433495,11.6628639 8.26013276,11.7215152 8.163706,11.8268888 C8.07026151,11.9302742 8.02453336,12.0694468 8.03845062,12.2096135 L8.06429697,12.4660888 L3.68433505,12.4700652 C3.66644143,12.4700652 3.64755371,12.4700652 3.62966009,12.4720534 L3.60977828,12.4481952 C3.47060564,12.2791999 3.24196486,12.2205485 3.04215271,12.3020639 C2.84035238,12.3825853 2.71609109,12.5823974 2.73100244,12.7991091 L2.76181924,13.2464497 C2.70217382,13.2752784 2.64749886,13.3160361 2.60375888,13.3667347 C2.51031439,13.4721082 2.4685626,13.612275 2.48347396,13.7494594 C2.43575762,13.7832585 2.39400583,13.8269985 2.36120085,13.8776971 C2.26079773,14.0297929 2.25085682,14.2246346 2.33634859,14.3866713 L2.36120085,14.4333936 C2.31845496,14.4761395 2.28465589,14.525844 2.26079773,14.581513 L2.05700921,15.0397887 C2.01326924,15.1411859 2.00332833,15.2505358 2.0271865,15.3539212 C2.00631061,15.4026316 1.99239334,15.4533302 1.9864288,15.5070111 L1.95859427,15.7962914 L1.54704088,15.9911331 C1.36313417,16.078613 1.24980788,16.2734547 1.26571332,16.474261 L1.29553603,16.9265721 C1.18419792,16.9792589 1.09572388,17.0707152 1.04999573,17.190006 L0.629495523,18.2606413 C0.581779188,18.3759557 0.581779188,18.5051875 0.626513252,18.6224901 L0.628501433,18.6264665 C0.55692693,18.6662301 0.495293331,18.7238874 0.450559267,18.7954619 L0.0747931288,19.3958924 C-0.0206395411,19.5509705 -0.0256099927,19.7448181 0.0648522257,19.9058607 C0.153326264,20.0609388 0.318345255,20.1563715 0.496287421,20.1563715 L0.506228324,20.1563715 L22.3424161,19.7070427 C22.593921,19.7020722 22.8026799,19.5092187 22.8275322,19.2577139 L22.891154,18.5906793 L23.0601493,18.6503247 C23.1923633,18.698041 23.3384946,18.6861119 23.4587795,18.6214961 C23.5820467,18.5558861 23.672509,18.4425598 23.706308,18.3103458 L23.9081084,17.5588135 L24.6288238,17.0657447 L25.2531126,17.1263842 C25.3773738,17.1303606 25.5244992,17.0856265 25.6249023,16.9911879 L26.6855967,15.9911331 L27.1060969,16.0318908 C27.3615781,16.0318908 27.5494612,15.9006709 27.6140771,15.6789887 L27.7323738,15.2873171 C27.9152864,15.2704176 28.0673822,15.1630559 28.141939,14.9940605 L28.1727558,14.922486 C28.2502949,14.9930664 28.3497039,15.0378005 28.4590538,15.0477414 L28.7851154,15.0785582 C28.9630576,15.0894932 29.1698284,14.988096 29.264267,14.8101538 L29.5296891,14.2922327 L29.8955143,14.2544573 L30.0535747,14.3538663 C30.1718714,14.427429 30.3110441,14.4473108 30.4402758,14.4125177 C30.5714957,14.3777245 30.684822,14.2902446 30.7524202,14.1689655 L31.2842585,13.1957511 L31.399573,13.1003185 C31.5148874,13.0973362 31.6252315,13.0585667 31.7127114,12.9869922 C31.8131145,12.9044827 31.8777304,12.7822096 31.8916477,12.6509896 L31.9980153,11.5465553 C32.0109385,11.4024122 31.9602399,11.2592632 31.8608309,11.1558778 Z"/>
</svg>
