<svg xmlns="http://www.w3.org/2000/svg" width="32" height="32" viewBox="0 0 32 32">
  <path fill-rule="evenodd" d="M6.27392631,11.0909683 C6.27989086,10.9100436 6.18644625,10.7400539 6.03136795,10.6476034 L5.62776673,10.4070332 C5.5601685,10.3672695 5.48759981,10.3453995 5.41105475,10.339435 L5.05019947,10.3125945 L4.88319207,10.0173493 L4.90207982,9.75093271 C4.91400892,9.59883668 4.8563516,9.45270521 4.74501333,9.34832559 L4.07996601,8.73198875 L4.44976811,8.20810245 L4.75197197,8.08384099 C4.97663669,7.98940228 5.10189224,7.73988527 5.04224674,7.50229736 L4.87921571,6.85912006 C4.84541659,6.73187632 4.76489517,6.62451442 4.65156872,6.5559221 L4.24995568,6.31535192 C4.11277103,6.2338364 3.95073409,6.22389548 3.80559671,6.28254689 L3.64952432,6.34815694 L2.69121995,5.55089543 L2.70314905,5.38985258 C2.71110179,5.29044341 2.69022586,5.19202834 2.64151537,5.10653645 L2.2677369,4.44645959 C2.23493188,4.38979636 2.19218594,4.34108587 2.14148726,4.3023163 L1.66730554,3.93350829 L1.38200123,3.03385533 L8.05832085,3.33009465 L18.7815876,3.30325417 L19.7667325,4.28342855 L19.3859954,5.19699879 C19.3412612,5.30634888 19.3352967,5.43061033 19.3730722,5.54691906 L20.2329615,8.1295692 C20.2578138,8.20611426 20.3015538,8.27470659 20.3592111,8.33037572 L21.4606647,9.39504789 L21.5988434,9.73105088 C21.6405953,9.83145413 21.714158,9.91694602 21.8046204,9.96963288 L22.8991153,10.6207629 L23.1307387,11.0323169 L23.0969396,11.5045104 C23.090975,11.5681323 23.0989277,11.6337423 23.1178155,11.6943819 L23.4577948,12.7680009 C23.4776767,12.8306287 23.5104817,12.8922624 23.5562099,12.9449492 L23.9429116,13.3932846 C24.0303916,13.495676 24.1526649,13.5563156 24.2858732,13.5652624 C24.4170933,13.5791797 24.5463252,13.5324574 24.6437462,13.4459714 L25.1616679,12.9996243 L25.5861451,13.0304411 L25.8505735,13.3376154 L24.8375941,16.5624488 C24.7739722,16.7622612 24.8445527,16.9819555 25.0125542,17.1101933 L27.7989931,19.2047444 C27.8606268,19.2504727 27.9312073,19.2812895 28.0027819,19.2952068 L28.2453403,19.7246544 C28.2870921,19.7982172 28.3477317,19.8608449 28.4232827,19.9065732 L28.9640686,20.2286589 L28.925299,20.7585097 C28.9153581,20.8887357 28.958104,21.0209499 29.0435959,21.119365 L29.2583197,21.3678879 L29.0426018,22.1412912 C29.0058204,22.2774818 29.0286845,22.4226192 29.1032414,22.5409161 L29.5794113,23.2825084 L29.5615177,23.5350077 C29.5456122,23.7487374 29.6668914,23.9485499 29.8637215,24.0300654 L30.4750879,24.2845528 C30.5933848,24.3342574 30.7265931,24.3362456 30.84489,24.2915115 C30.8458841,24.2915115 30.8458841,24.2925056 30.8468782,24.2925056 L30.7613863,24.5529576 C30.7246049,24.66529 30.7285813,24.7875632 30.7733154,24.8969133 L30.8727246,25.1394717 L30.692794,25.5709075 L30.6082962,25.5062915 C30.4840347,25.4108587 30.3180214,25.3790478 30.1599608,25.4237819 C30.0058766,25.4705042 29.8836033,25.5907893 29.8329047,25.7438794 L29.7255428,26.0699415 C29.587364,25.9635737 29.4014689,25.9387214 29.2284969,26.0073137 C29.0296786,26.0918115 28.9093935,26.2936121 28.9282813,26.50933 L28.9928972,27.2230878 C28.8974644,27.2489342 28.8079962,27.3046033 28.7423861,27.3841307 C28.6399947,27.5054098 28.6022192,27.6704291 28.6409888,27.8255074 L28.6509297,27.8632828 C28.5704083,27.9030465 28.4988337,27.9666684 28.448135,28.0471898 C28.3497199,28.2022681 28.3437554,28.3971101 28.4342177,28.5581529 L28.534621,28.7341071 C28.4521114,28.7877881 28.3855072,28.8663213 28.3477317,28.9577778 L28.2105471,29.2848339 L26.4052766,29.4090954 L27.3784924,28.2917363 C27.450067,28.2092267 27.4908247,28.1088235 27.4987774,28.0014616 L27.5286002,27.5849372 C27.5385411,27.4547112 27.4957952,27.3234911 27.4103033,27.2240819 L26.8287597,26.5500878 C26.7333269,26.4407377 26.5961422,26.379104 26.4549812,26.379104 L5.76395729,26.2906298 L6.27392631,11.0909683 Z M31.9165208,23.6125469 C31.8310289,23.4843091 31.6938443,23.4047817 31.5397601,23.3928526 L31.3280185,23.3769472 L31.0745252,23.0836901 C30.942311,22.9315941 30.7345458,22.8749309 30.5397038,22.9365646 C30.5387098,22.9375586 30.5367216,22.9385527 30.5347334,22.9385527 C30.5257866,22.9206591 30.5168397,22.9037595 30.5059047,22.8858659 L30.0605517,22.1909958 L30.2862105,21.3768347 C30.3319387,21.2157919 30.2931691,21.043814 30.1848131,20.9195526 L29.9313197,20.6262955 L29.9780421,19.9950473 C29.9909652,19.8081581 29.9005029,19.6302157 29.7374719,19.5318006 L29.04459,19.1202466 L28.7394038,18.5774726 C28.6568942,18.4323352 28.5077805,18.3388906 28.3437554,18.3269615 L28.2801335,18.321991 L25.8903371,16.5256674 L26.8814465,13.3734027 C26.9341334,13.2073894 26.8983461,13.029447 26.7850196,12.8982269 L26.2044701,12.2252269 C26.11699,12.1248236 25.9967049,12.064184 25.8644907,12.0552372 L25.0592765,11.9975799 C24.9151332,11.9697453 24.7859013,12.0105031 24.6685985,12.1119004 L24.3733533,12.3663879 L24.0950076,11.4866168 L24.1327831,10.9567659 C24.1407358,10.8583508 24.1188658,10.7599357 24.0701553,10.6744439 L23.6993591,10.0173493 C23.6576073,9.94378649 23.5969677,9.88016463 23.5214167,9.83443641 L22.4557504,9.20120002 L22.3404358,8.91788389 C22.3135953,8.85426203 22.2748257,8.7975988 22.2271093,8.75187059 L21.1375849,7.7011157 L20.3751166,5.40874032 L20.813511,4.35897952 C20.8920442,4.17209029 20.8492983,3.95836058 20.705155,3.81421729 L19.3343026,2.45231171 C19.2398639,2.35986118 19.1156024,2.30916251 18.9833882,2.30916251 L8.07223813,2.33600298 L0.528076491,2 C0.269612658,2 0.0519065838,2.2027947 0.0330188421,2.46026444 L0.00120790885,2.87977112 C-0.0117152828,3.06765445 0.0797411504,3.24460276 0.242772183,3.34301784 L0.482348275,3.48616704 L0.766658491,4.38084954 C0.797475332,4.47727643 0.85612674,4.56078013 0.935654074,4.62241381 L1.45158765,5.02601503 L1.70110466,5.46540354 L1.68221691,5.7328142 C1.67028781,5.89186887 1.73689196,6.04794126 1.85916523,6.15132679 L3.24492901,7.30447312 C3.38708412,7.41978776 3.57794972,7.44861641 3.75290985,7.38201227 L3.95471046,7.29850857 L3.97260411,7.32932541 L3.93482863,7.3432427 C3.85033083,7.38002409 3.77676805,7.4386755 3.72209301,7.51522056 L3.01827611,8.51428268 C2.87512691,8.7150892 2.90395557,8.99641714 3.08587434,9.16541272 L3.89407087,9.91495783 L3.88114768,10.0929002 C3.87319494,10.1923094 3.89407087,10.2897304 3.94278136,10.3752223 L4.31457164,11.0323169 C4.39708125,11.1784483 4.546195,11.271893 4.71121422,11.282828 L5.22018915,11.3215975 L5.26989373,11.3514203 L4.75296607,26.769782 C4.7489897,26.9049785 4.79869428,27.0332163 4.89313299,27.1326255 C4.9875717,27.2280583 5.11680362,27.2827333 5.24802372,27.2827333 L26.2233578,27.3722016 L26.5225794,27.7181455 L25.2531244,29.2182298 C25.1825439,29.2987512 25.1397979,29.4021367 25.1318452,29.5085045 L25.1000343,29.9240349 C25.0890993,30.0691722 25.140792,30.2103333 25.2431835,30.3137188 C25.3376222,30.4081575 25.4628777,30.4598503 25.596086,30.4598503 C25.6010565,30.4598503 25.6249147,30.4588562 25.6308792,30.4578621 L28.5833315,30.2560615 C28.7702207,30.2441324 28.9372281,30.1248414 29.0088027,29.9528635 L29.1847569,29.5313687 L29.4302976,29.4299713 C29.5605236,29.3762904 29.6619209,29.2679344 29.7086432,29.1327379 C29.7553655,28.9985355 29.7414482,28.8504159 29.6718618,28.7261544 L29.6489977,28.6844026 C29.6549623,28.6774439 29.6609268,28.6714794 29.6668914,28.6635266 C29.7682887,28.5422474 29.8060642,28.3772282 29.7672946,28.2221499 L29.7563596,28.1813922 C29.8070583,28.1565399 29.8537806,28.1227408 29.8955324,28.0809889 C29.9979239,27.9756152 30.0486226,27.8334601 30.0347053,27.6883227 L30.0058766,27.3692193 C30.0525989,27.3493374 30.096339,27.3234911 30.1351085,27.2896919 L30.3597733,27.0968382 C30.4293597,27.0371927 30.4810524,26.9596535 30.5068988,26.8751557 L30.5566034,26.7250479 L30.5963671,26.7558647 C30.7126758,26.845333 30.8677541,26.8771439 31.0287969,26.8443389 C31.1789048,26.8035811 31.3021722,26.694231 31.3588354,26.5560523 L31.8697985,25.3323255 C31.9204972,25.2090581 31.9204972,25.0738616 31.8707926,24.9525824 L31.7634307,24.6891482 L31.9751722,24.0439827 C32.0228886,23.8988453 32.0010186,23.7368083 31.9165208,23.6125469 Z"/>
</svg>
