<svg xmlns="http://www.w3.org/2000/svg" width="32" height="32" viewBox="0 0 32 32">
  <path fill-rule="evenodd" d="M23.7838866,28.095385 L23.5597697,28.8852727 L23.2021787,28.783673 C23.1254809,28.7597672 23.0467909,28.756779 22.9661088,28.7727162 L22.0029041,28.954998 C21.8983162,28.9749195 21.8016969,29.0287075 21.7279873,29.1093896 L21.2727809,29.6084233 L21.1512597,29.5725646 C20.9709701,29.5197726 20.7727511,29.5735607 20.6432614,29.7159995 L19.473869,30.9979483 L9.08181598,30.6792042 L8.04390557,29.3195615 L8.2799754,28.4898308 L8.64155072,28.2866315 C8.75609937,28.2228827 8.84275792,28.1143105 8.87662447,27.9898011 L9.23521156,26.7208012 C9.25612914,26.6470916 9.26011344,26.5703938 9.24517232,26.4927 L9.0967571,25.7087887 L9.90457413,24.2983462 C9.99123268,24.1469428 9.99322483,23.9656571 9.90756236,23.8072811 L9.68244935,23.4048667 L9.93146816,21.1627013 L10.2502122,20.9834078 C10.3647609,20.919659 10.4514194,20.8110868 10.485286,20.6865773 L10.8129948,19.5311301 L11.3927105,18.8936419 C11.4474947,18.8348735 11.4863416,18.7641521 11.5052671,18.6934308 L11.928599,17.200314 L12.2891783,16.9981107 C12.4196641,16.9263933 12.5122991,16.7959074 12.537201,16.6514765 L13.2832614,12.448039 L13.6408524,12.0545893 L14.1847095,12.209977 C14.3480658,12.2577886 14.5173986,12.2199377 14.6478845,12.1113655 L17.0544023,10.0544702 C17.1311,9.98972527 17.1858842,9.9040628 17.2107861,9.8114278 L17.39506,9.16298281 L17.7566353,8.95978346 C17.9717876,8.84025443 18.0674108,8.57629449 17.9787601,8.34719718 L17.2994368,6.58514007 L18.414045,5.36195967 C18.5216211,5.24541887 18.5664445,5.0830586 18.5345701,4.93265124 L18.3801784,4.11686561 L19.6342371,1.15254568 L19.7577505,1.08381648 L20.652226,1.69142238 C20.796657,1.79102991 20.982923,1.80298281 21.1353225,1.73226147 L21.882379,23.608066 C21.8863633,23.7425362 21.9451317,23.8710299 22.0447392,23.9606767 L23.2689157,25.077277 L22.994995,26.0454622 C22.942203,26.2297361 22.9979833,26.4229747 23.1384299,26.5504723 L24.2201676,27.5375829 L23.8934549,27.8971661 C23.8406629,27.9559345 23.801816,28.0266558 23.7838866,28.095385 M25.2600701,27.1381567 L24.0358937,26.0215564 L24.3098144,25.0523752 C24.3626063,24.8690973 24.3068261,24.6748626 24.1673756,24.547365 L22.8704856,23.3660198 L22.0915548,0.534979023 C22.0835862,0.332775748 21.9550925,0.156470429 21.7718146,0.0897333874 C21.5805682,0.0110434429 21.3584434,0.0648315062 21.2259654,0.218227094 L20.8554254,0.624625795 L20.0615534,0.0847530112 C19.9041735,-0.0198348897 19.7079467,-0.0278034917 19.53961,0.0618432805 L18.9977451,0.365646231 C18.9021218,0.419434294 18.824428,0.505096765 18.7825928,0.605700365 L17.4030286,3.8718311 C17.3651777,3.96347002 17.355217,4.06307755 17.3741424,4.15571255 L17.5116008,4.87487887 L16.3581457,6.14089051 C16.2296519,6.2783489 16.190805,6.48154825 16.2585381,6.65685749 L16.8930381,8.3023738 L16.7286856,8.39600487 C16.614137,8.45975369 16.5274784,8.56832589 16.4936119,8.6928353 L16.2943968,9.39506834 L14.204631,11.1800352 L13.621927,11.0156828 C13.4396452,10.9638869 13.2394341,11.0166788 13.1129325,11.1561294 L12.4505425,11.8822682 C12.3867936,11.9529896 12.3439624,12.0396481 12.3280252,12.131287 L11.597902,16.2450778 L11.2612286,16.433336 C11.1456839,16.4970849 11.0600214,16.6066531 11.0251588,16.7311625 L10.5789171,18.3079497 L9.99920128,18.9454378 C9.94342106,19.0042063 9.90457413,19.0749276 9.88664478,19.146645 L9.58284182,20.2164298 L9.22226259,20.4186331 C9.0808199,20.496327 8.9881849,20.6387657 8.97025555,20.7991338 L8.67641335,23.4526783 C8.66446045,23.5562701 8.68438195,23.659862 8.73617786,23.7515009 L8.90152636,24.0473352 L8.14052487,25.3751035 C8.08175643,25.4767032 8.06183492,25.5972283 8.0827525,25.7137691 L8.24411669,26.5624252 L7.9741803,27.5196535 L7.61360106,27.7228529 C7.49805633,27.7866017 7.41139779,27.89617 7.37753123,28.0206794 L7.01894414,29.2886832 C6.9761129,29.4380945 7.00699124,29.6004547 7.10062231,29.7259602 L8.43237491,31.471084 C8.52401384,31.5916091 8.66346437,31.6633266 8.81387173,31.6673109 L19.6800566,32 L19.6880252,32 C19.8294679,32 19.963938,31.9392394 20.055577,31.8376397 L21.1711812,30.6134633 L21.2917064,30.6483259 C21.472992,30.7041061 21.6751953,30.6463337 21.8007008,30.5068832 L22.3525265,29.9022655 L23.0378263,29.7727757 L23.7639651,29.9779672 C23.8914627,30.0158181 24.0259329,29.9998809 24.1474541,29.9341399 C24.2620027,29.869395 24.3486613,29.7608228 24.3835239,29.6363134 L24.7102366,28.4808662 L25.2939367,27.8403898 C25.3825874,27.7427744 25.4284069,27.6152768 25.4234265,27.4837948 C25.41745,27.3503207 25.3586816,27.2268074 25.2600701,27.1381567"/>
</svg>
