<svg xmlns="http://www.w3.org/2000/svg" width="32" height="32" viewBox="0 0 32 32">
  <path fill-rule="evenodd" d="M13.1699712,28.540775 C13.1699712,28.540775 13.1709652,28.541769 13.1709652,28.541769 L6.38173911,28.5010138 C6.10937484,28.5010138 5.88671208,28.7226825 5.88472402,28.9940528 L5.86484342,30.9900653 L3.00203651,30.8976205 L3.43245158,1.22184369 L28.8468211,1.00017497 L28.9621286,2.73376359 C28.7504001,2.79738152 28.6022896,2.99618756 28.6102419,3.22680256 L29.4601377,27.1203059 L13.6182788,27.4374015 C13.4840847,27.4403836 13.3548608,27.4990314 13.2614219,27.5994284 C13.1699712,27.6988314 13.1232518,27.8340195 13.1331921,27.9672196 L13.1699712,28.540775 Z M29.6211706,3.6631818 C29.7156034,3.63733702 29.800096,3.58564745 29.865702,3.50910713 C29.9531766,3.40970411 29.9959199,3.28147422 29.9859796,3.15026223 L29.8060602,0.466380762 C29.7981079,0.327216538 29.7255437,0.191034404 29.6142124,0.102565718 C29.5118272,0.0210552437 29.3845914,-0.0107537219 29.307057,0.00316270057 L2.93941261,0.231789641 C2.67102447,0.232783671 2.45034977,0.45345837 2.44637365,0.721846517 L2.0000541,31.3707789 C1.99607798,31.6401611 2.21178253,31.8658059 2.4811647,31.8747522 L6.34893611,32 L6.35688835,32 C6.48412422,32 6.6053959,31.9522866 6.69982877,31.8618298 C6.79724372,31.769385 6.85191538,31.6441372 6.85390344,31.5079551 L6.87279002,29.498026 L14.2803029,29.5427574 C14.4870612,29.5427574 14.6739388,29.4135335 14.744515,29.2226797 C14.8180732,29.0288438 14.7634015,28.8071751 14.6063448,28.6709929 L14.316088,28.4175152 L29.9849856,28.1053898 C30.1161976,28.1024077 30.2444275,28.045748 30.3368723,27.949327 C30.426335,27.8519121 30.4750425,27.7256702 30.4710664,27.5904821 L29.6211706,3.6631818 Z"/>
</svg>
