<svg xmlns="http://www.w3.org/2000/svg" width="32" height="32" viewBox="0 0 32 32">
  <path fill-rule="evenodd" d="M29.5008113,19.4099181 C29.4560787,19.284667 29.3656196,19.1832733 29.2443448,19.1266121 L29.0495098,19.0351589 C28.8805203,18.9506642 28.6737566,18.9735275 28.5276304,19.0918201 L28.325837,19.248881 L28.1697702,19.214089 C27.9848758,19.1633922 27.7890467,19.2329761 27.6657838,19.3840726 C27.5464971,19.5311929 27.5216457,19.7290101 27.6001761,19.9029699 L27.9083335,20.579922 C27.7741359,20.5709755 27.6717481,20.6117318 27.5763188,20.6892682 C27.4282044,20.8085549 27.3616026,20.9984196 27.4023589,21.1862962 L27.4441093,21.3682085 L26.6299774,22.0063925 L26.0723119,22.0998337 C25.9898053,22.1127565 25.913263,22.1465544 25.8486493,22.1962572 C25.8307563,22.1833345 25.8098811,22.1714058 25.79,22.1604712 C25.6428797,22.0849229 25.469914,22.0898932 25.3237877,22.1674296 L25.2154356,22.0640477 C25.0613569,21.9149393 24.8257657,21.8841236 24.6279485,21.9894935 C24.5643289,22.0242855 24.5106499,22.0729942 24.4698936,22.1296554 C24.4619411,22.1296554 24.4539887,22.1306495 24.4450422,22.1326376 C24.3207852,22.1415841 24.2074628,22.1952631 24.1209799,22.2867163 L24.0255505,22.3871159 C23.9022876,22.5173373 23.8605372,22.7022317 23.909246,22.8682391 C23.7571554,22.9328527 23.643833,23.0730146 23.6159994,23.2380279 L23.5702729,23.4925063 C23.5593382,23.4994647 23.5493977,23.5064231 23.5384631,23.5133814 L22.9589284,23.9189563 C22.8883504,23.9686591 22.8306952,24.0362549 22.7949091,24.1137913 L22.7004738,24.3116085 C22.6636937,24.3871567 22.6477889,24.4696634 22.6517651,24.551176 L22.5245259,24.5382532 C22.3088157,24.5153899 22.1139808,24.6287123 22.0225276,24.8215592 L21.9290863,25.0213645 C21.817752,25.2589439 21.9121874,25.5432439 22.1428084,25.6675009 L22.4579241,25.8394726 L22.4290965,25.917009 C22.3714413,25.9259555 22.3157741,25.9438485 22.2650773,25.9716821 L22.154737,25.8673062 C21.9937,25.7142215 21.7481681,25.6843999 21.5573094,25.7997104 C21.3664506,25.9130328 21.2740034,26.1426597 21.3316586,26.3593639 L21.373409,26.5064842 C21.284938,26.6943608 21.320724,26.9259759 21.479773,27.0760783 L21.5761964,27.1705137 C21.6477685,27.2391035 21.7402157,27.2868182 21.8366391,27.3027231 L22.0066227,27.3335389 C21.958908,27.4120693 21.9350507,27.5035224 21.9360447,27.5989518 L21.9479734,28.1904152 C21.9519496,28.3236187 22.0066227,28.4458876 22.1020521,28.5373407 C22.1378381,28.5721327 22.1785944,28.6009603 22.2223329,28.6228295 L22.2352556,28.6944016 L22.2113982,28.7460925 C22.1438024,28.8872485 22.1477787,29.0552439 22.2213388,29.1914296 L22.4807874,29.6844814 C22.4290965,29.6636062 22.3644829,29.6506835 22.2819762,29.6506835 L21.0811565,29.677523 L20.7213082,29.4031636 C20.6557005,29.3514726 20.575182,29.3166807 20.4886991,29.304752 L20.0542966,29.2421265 L19.7670144,28.967767 C19.6626385,28.8673673 19.5572686,28.8464922 19.4131305,28.8305873 L19.1805213,28.8355575 C19.1328067,28.7361519 19.0532822,28.6536453 18.9508944,28.6029484 L18.7968157,28.0432949 C18.7789227,27.9717228 18.7431367,27.904127 18.6924398,27.8454777 L18.305752,27.4041168 L18.2987936,27.0929773 C18.2968055,26.9925776 18.2649957,26.8961542 18.2093286,26.8186178 L18.1685723,26.7599685 C18.1914356,26.6824321 18.1964059,26.5989314 18.180501,26.5223891 L18.0691667,25.9319198 C18.0423272,25.7977223 17.9608146,25.6794296 17.8464981,25.6078575 L17.0522473,25.1028771 L16.5999518,24.3334777 C16.5582015,24.2619057 16.5035284,24.2052445 16.4379207,24.1654822 L16.2460679,24.0442074 L15.2400832,22.2230967 L15.2321307,21.8533078 C15.2281545,21.6873005 15.1416716,21.5352099 15.0015097,21.4457449 L14.9209912,21.395048 C14.8961398,21.2459396 14.8026985,21.1147242 14.6675069,21.0421581 L14.2152114,20.7976203 C14.173461,20.6117318 14.0293229,20.4636175 13.8394582,20.4208731 L13.8136127,20.4149087 C13.7927375,20.3184853 13.7430347,20.2300143 13.6694746,20.1594363 C13.5819977,20.0769297 13.4895505,20.0461139 13.4090319,20.0321972 L13.2460067,19.7747366 C13.1585298,19.6365628 13.0064392,19.55008 12.8414259,19.5441156 L11.1733999,19.4894426 L10.8712068,19.3462985 C10.6425739,19.2409285 10.3731847,19.3174709 10.2389872,19.5282107 L10.1674151,19.6405391 L9.70120284,19.7180754 C9.56203499,19.7409387 9.43877204,19.8234454 9.36322378,19.9427321 L8.98448843,20.5391657 C8.94969647,20.5928448 8.92583912,20.6534822 8.91391045,20.7200839 L8.85029086,21.0829144 L8.3472985,21.6843183 L8.09779043,21.46662 C8.00832538,21.3821253 7.89897922,21.3363987 7.74291242,21.3294403 L7.59976835,21.3334165 L7.44867183,21.1415637 C7.37312357,21.0461343 7.26576551,20.9815207 7.14647879,20.9606455 L6.80054728,20.899014 L6.30550737,20.4258434 C6.24884617,20.3731584 6.18125036,20.3333961 6.10868427,20.3115269 L5.92378985,20.2538717 L5.78760417,20.1226563 L5.4724884,19.3154827 L5.51225064,19.1862555 C5.55499505,19.0500698 5.5380961,18.9019554 5.46354189,18.7816746 L5.12357472,18.2160568 L5.12059256,18.0510434 C5.11661633,17.9287746 5.06890164,17.813464 4.98639499,17.7259871 L4.18021553,16.8591702 C4.11162566,16.784616 4.02216062,16.7339192 3.92673124,16.7140381 L3.6901459,16.659365 L3.41081615,16.340273 L3.41081615,16.32238 C3.40683992,16.1722775 3.337256,16.0331097 3.22095144,15.9426506 L1.70302785,14.7507774 L1.70004568,14.5917284 C1.69805757,14.5082277 1.67519428,14.4287032 1.63543204,14.3571312 L8.84532058,14.5340731 C8.98647654,14.5380494 9.10576327,14.4853644 9.2021867,14.3939112 C9.29662203,14.3024581 9.35129511,14.1742248 9.35328322,14.0420154 L9.46064128,2.04475291 L15.2629464,1.99803228 L15.3712986,6.8152279 C15.3752748,6.9464433 15.4299479,7.06970625 15.5233891,7.16016535 C15.6327353,7.26553529 15.7728972,7.31424404 15.8802553,7.29833914 L15.9687262,7.29635103 L16.4220158,7.72975947 C16.5383204,7.8420878 16.6973693,7.88781438 16.8743113,7.85600458 L17.2609991,7.77051576 C17.2729278,8.00312488 17.4458935,8.19597175 17.6785027,8.23275183 L18.7560594,8.40372947 C18.8415482,8.41864031 18.9320073,8.41168192 19.0085496,8.38186024 L19.0125259,8.37987212 L19.0920504,8.45641444 C19.2620339,8.61844558 19.5254588,8.63932075 19.7212878,8.50412913 L19.8763606,8.39478296 C19.9360039,8.5160578 20.0423679,8.60949907 20.1755715,8.65025537 L20.2759711,8.68107111 L20.3843232,8.88684071 C20.4539071,9.02103828 20.5851225,9.11746171 20.7292607,9.14330717 C20.8863215,9.17511696 21.0354299,9.13237255 21.1507404,9.02998478 L21.3097894,8.89181099 C21.3704268,8.91765645 21.4410048,8.93356134 21.5195352,8.94051974 L21.5662559,8.93952568 L21.7372335,9.04787779 C21.8585083,9.12442011 22.0076168,9.14430123 22.1428084,9.10553304 C22.2163685,9.27949285 22.3873462,9.39778552 22.5772109,9.40673202 C22.7621053,9.39778552 22.9430235,9.31826104 23.0364648,9.1472834 L23.1726504,8.89678127 L23.2283176,8.92958512 C23.3535686,8.99916904 23.5046652,9.01308583 23.6418449,8.96537114 L23.6468152,8.96338303 C23.7094407,9.01507394 23.7820068,9.05185401 23.8575551,9.06875297 L24.6428593,9.246689 C24.902308,9.31130264 25.1557923,9.16219424 25.2343227,8.909704 L26.1279791,8.65323754 L26.4023386,8.71486901 C26.5136728,8.74270258 26.6419061,8.72779174 26.7482701,8.67113055 L26.9540397,8.56178438 L27.261203,8.65721376 L27.7900408,9.07670542 C27.8407377,9.11746171 27.900381,9.1472834 27.9669828,9.16716452 L28.9580567,9.43953587 C29.0733672,9.46935756 29.1876836,9.459417 29.2890773,9.41468447 L29.3119406,10.4286216 C29.3149228,10.5429381 29.3556791,10.6512902 29.4272511,10.736779 L29.5733774,13.2934912 C29.5803358,13.4038314 29.6250683,13.5092013 29.6986284,13.5946902 L30.1817397,14.1314804 L30.1857159,14.3422203 C30.1896921,14.4744298 30.2443652,14.5976927 30.3397946,14.6881518 L30.4083844,14.7537595 C30.4322418,14.8392483 30.4779684,14.9167847 30.5435761,14.9784162 L30.595267,15.028119 L30.5972551,15.1155959 C30.5982491,15.2468113 30.6549103,15.3740505 30.7503397,15.4664977 L30.9034244,15.612624 L30.9054125,15.7030831 C30.9064065,15.7348928 30.9103827,15.7657086 30.9173411,15.7975184 L30.5664394,17.563956 C30.5435761,17.6762843 30.560475,17.794577 30.614154,17.8949766 L30.7036191,18.0639662 L30.2453592,19.0351589 C30.2294544,19.0689568 30.2185197,19.1037488 30.2105673,19.1405289 L29.5286448,19.5391454 C29.5246686,19.4954069 29.5167162,19.4516684 29.5008113,19.4099181 M31.9998682,15.7756491 C31.9978801,15.6762435 31.9660703,15.5808142 31.9104031,15.5012897 L31.8925101,15.3820029 C31.8885339,15.2487994 31.8348549,15.1255365 31.7394255,15.0360714 L31.5873349,14.8899452 L31.5853468,14.8034623 C31.5833587,14.6722469 31.5266975,14.5440137 31.4312681,14.4525605 L31.3626783,14.3869528 C31.339815,14.301464 31.2930943,14.2239276 31.2274866,14.1622962 L31.1757957,14.1125934 L31.1718195,13.9276989 C31.1698314,13.8104003 31.1250989,13.6960839 31.0445803,13.6046307 L30.5555047,13.059888 L30.4024201,10.3858772 C30.3964558,10.2844835 30.3596757,10.1890541 30.2990383,10.1105237 L30.2721988,8.93157323 C30.2682225,8.79737567 30.2135495,8.67311866 30.117126,8.58265956 L30.0147382,8.48623612 C29.9193089,8.39776513 29.7672183,8.32022876 29.6628424,8.3510445 L29.1717787,8.36197911 C29.1002067,8.36396723 29.0306228,8.38086618 28.9679972,8.41168192 L28.3278251,8.23473994 L27.8049516,7.81823045 C27.7562429,7.78045633 27.7015698,7.7516287 27.6439146,7.73472975 L27.0504631,7.55182343 C26.9272002,7.5140493 26.7949907,7.52498392 26.6707337,7.5866154 L26.446077,7.70689618 L26.2353371,7.65918149 C26.1587948,7.64029442 26.0723119,7.64029442 25.9987518,7.6611696 L24.7273541,7.98423782 C24.6100555,8.0140595 24.5096558,8.08463748 24.44206,8.18205497 L24.2124331,8.12937 L24.1090512,8.03095845 C23.9718715,7.90272522 23.7750484,7.86296298 23.6000945,7.92459445 L23.5225582,7.95242802 L23.2243414,7.78244444 C23.1060487,7.71484863 22.9668808,7.69894373 22.8406357,7.7357238 C22.7223431,7.77051576 22.6189612,7.84904619 22.5543476,7.95342208 C22.4231322,7.90868956 22.2849584,7.91863012 22.1587133,7.98423782 L22.0255098,8.0548158 L21.9698426,8.01902978 C21.9350507,7.99716054 21.9002587,7.98125565 21.8654667,7.97032103 C21.8078115,7.82121262 21.6825604,7.70987835 21.5304698,7.6701161 C21.3694328,7.62637764 21.2004432,7.66713394 21.0761862,7.77548604 L20.9449708,7.89079655 C20.9042145,7.85600458 20.8574939,7.82717696 20.806797,7.80630178 C20.771011,7.56772833 20.5612652,7.38382796 20.3038047,7.38382796 L19.7153235,7.39675069 C19.635799,7.3987388 19.5582626,7.41961398 19.4876847,7.45838216 L19.4797322,7.45042972 C19.3455346,7.32120243 19.1467234,7.28044613 18.9677933,7.34108355 L18.7938335,7.40271503 L18.2292097,7.31324998 C18.2053524,7.22875522 18.1596258,7.15022479 18.0940181,7.08759926 L17.6924194,6.70389362 C17.5751208,6.59057123 17.4120956,6.54484465 17.259011,6.57367228 C17.1108966,6.60051179 16.9836575,6.69395306 16.9130795,6.8241744 L16.5055165,6.43549849 C16.460784,6.39275408 16.4130693,6.36094428 16.35442,6.33808099 L16.2450738,1.48609341 C16.2391095,1.21769828 16.0164409,1 15.7440696,1 L8.96361325,1.05467308 C8.69323,1.05666119 8.47254956,1.27734164 8.47056145,1.54673083 L8.3632034,13.5280884 L0.487297302,13.3362356 C0.439582611,13.3392178 0.270593082,13.3590989 0.14534202,13.4823618 C0.0489185831,13.5787853 -0.00376638763,13.7119888 0.000209836574,13.8441982 L0.00716822893,14.1394329 C0.0111444531,14.2984819 0.0926570493,14.4475903 0.224866504,14.5380494 L0.711953969,14.8700641 L0.714936137,15.0082379 C0.718912362,15.1563522 0.787502229,15.294526 0.904800843,15.3879673 L2.42371849,16.5808345 C2.43365905,16.6812342 2.4754094,16.7776576 2.54300522,16.8571821 L3.0499738,17.4377109 C3.11955773,17.5162413 3.21101088,17.5699203 3.3124046,17.5927836 L3.55694239,17.6494448 L4.13051273,18.2647655 L4.13250084,18.3711295 C4.13448895,18.4566183 4.16033441,18.5411131 4.20506693,18.6156673 L4.49831347,19.1037488 L4.47246801,19.1842673 C4.43867011,19.2916254 4.44165227,19.4099181 4.48240857,19.515288 L4.90090617,20.5888685 C4.92774568,20.6574584 4.96850198,20.7171018 5.02019289,20.7658105 L5.32337999,21.0550808 C5.37904713,21.1077658 5.447637,21.147528 5.52020309,21.1693973 L5.70509751,21.2270525 L6.22300072,21.7220924 C6.29457275,21.7906823 6.38304374,21.8344208 6.47847312,21.8513197 L6.78464239,21.9059928 L6.97152492,22.1415841 C7.06496619,22.2608708 7.21208649,22.3324429 7.37411762,22.3324429 L7.56100016,22.3284666 L7.71408479,22.4745929 C7.77074599,22.5282719 7.8383418,22.5680341 7.91090789,22.5899034 L8.49740096,22.7698275 C8.64750343,22.8225125 8.82146323,22.7916968 8.95168458,22.6932852 C9.0779297,22.5978558 9.15148984,22.4447712 9.14751362,22.2847282 L9.6952385,21.6206987 C9.7518997,21.555091 9.78967383,21.4745725 9.80557873,21.3861015 L9.87516265,20.9894731 L10.0839144,20.6624287 L10.5501267,20.5848923 C10.661461,20.5660053 10.7608666,20.5103381 10.8364149,20.4288255 L10.8413851,20.4308136 C10.9010285,20.4596413 10.9676302,20.4765402 11.0401963,20.4795224 L12.5461913,20.5292252 L12.7121986,20.79265 C12.7489787,20.8503053 12.7966934,20.899014 12.8523605,20.9367882 C12.897093,21.1167123 13.0392431,21.2588623 13.2251315,21.3006127 L13.285769,21.3145295 C13.3295074,21.4089648 13.4040616,21.4884893 13.4975029,21.5391861 L13.9497984,21.7837239 C13.978626,21.9119571 14.0571565,22.0232914 14.1684907,22.0948635 L14.2430449,22.1425782 L14.2490093,22.3682289 C14.2509974,22.4487474 14.2718726,22.5252897 14.3116348,22.5978558 L15.4388944,24.6366648 C15.4796507,24.7092309 15.5373059,24.7698683 15.6058958,24.8146008 L15.8037129,24.9398519 L16.2550144,25.7102453 C16.2967647,25.7808233 16.3514378,25.8384786 16.4170455,25.8772467 L17.1327659,26.3325244 L17.1745162,26.5492286 L17.1496648,26.5989314 C17.0721285,26.7599685 17.0890274,26.9518213 17.1914152,27.0989416 L17.3087138,27.264949 L17.3156722,27.6049162 C17.3176603,27.7192326 17.3604047,27.8315609 17.4379411,27.92202 L17.8693614,28.4140778 L18.0512737,29.0860597 C18.0830835,29.1963999 18.1496852,29.2918293 18.2401443,29.357437 C18.2480968,29.6218559 18.4707653,29.8385601 18.749101,29.8405482 L19.2302241,29.8296136 L19.4837084,30.0711692 C19.5592567,30.1437353 19.653692,30.1894619 19.7560798,30.2033787 L20.220304,30.2699804 L20.6159383,30.5721735 C20.7223023,30.6556742 20.8366187,30.687484 20.93006,30.6755553 L22.100064,30.6497098 L22.3545423,30.8922595 C22.42015,30.953891 22.5016626,30.9976295 22.5871514,31.0155225 L22.9768214,31.1039935 C22.9957085,31.1089637 23.0702627,31.1179102 23.0911378,31.1179102 C23.2263295,31.1179102 23.3555568,31.0622431 23.4499921,30.9648256 L23.6418449,30.7630322 C23.7024823,30.6994126 23.7462208,30.6208822 23.76809,30.5294291 L23.8575551,30.1337947 C23.9082519,29.9041678 23.7959236,29.6745409 23.5841897,29.5751352 L23.5344868,29.552272 L23.2153949,28.9468918 C23.2511809,28.8574268 23.2611214,28.7590152 23.2422344,28.6675621 L23.1309001,28.0830571 C23.1070427,27.956812 23.0354707,27.8454777 22.9360651,27.7729116 C22.9817917,27.7053158 23.0126074,27.6277794 23.0205599,27.548255 L23.1000844,26.9011245 C23.128912,26.8623563 23.1517753,26.8196119 23.1706623,26.7728912 L23.5414452,25.7828114 C23.5752431,25.6923523 23.5802134,25.597917 23.5613264,25.5084519 C23.6070529,25.4726659 23.6478092,25.4299215 23.6806131,25.3782306 L24.0523901,24.7937256 C24.2372845,24.746011 24.3853988,24.5919323 24.4201908,24.3980913 L24.4370897,24.2976917 C24.5514062,24.3135966 24.6706929,24.2917273 24.7750688,24.2271137 L25.2591741,23.9209444 C25.4062944,23.8284972 25.4947654,23.6624899 25.4907892,23.48853 L25.4858189,23.2936951 C25.5206108,23.2996594 25.5603731,23.3026416 25.6001353,23.2966772 L26.0713179,23.2857426 C26.2472658,23.2807723 26.4033326,23.186337 26.4888214,23.0382227 L26.9192477,22.9666506 C27.0007603,22.9527338 27.0782967,22.9189359 27.1448984,22.867245 L28.3039678,21.9566897 C28.450094,21.8423732 28.520672,21.6515145 28.484886,21.4676141 L28.9520923,20.880127 C29.0107416,20.8065668 29.0455336,20.721078 29.0574623,20.632607 L29.6996225,20.5471182 C29.7662242,20.5381717 29.8278557,20.5163025 29.8845169,20.4834986 L30.6459638,20.0371674 L30.9103827,20.0312031 C31.0952772,20.0272269 31.2612845,19.922851 31.3427971,19.7598258 C31.4262978,19.5958065 31.4123811,19.3999775 31.3070111,19.249875 L31.269237,19.195202 L31.7096038,18.2627774 C31.7752115,18.1226155 31.7702412,17.9566081 31.6986692,17.8204224 L31.5764003,17.5878133 L31.8666647,16.1245628 C31.9551357,16.0291334 32.0028503,15.9058705 31.9998682,15.7756491"/>
</svg>
