<svg xmlns="http://www.w3.org/2000/svg" width="32" height="32" viewBox="0 0 32 32">
  <path fill-rule="evenodd" d="M11.5032899,29.946 L11.5752899,30.144 L11.1592899,30.581 L10.9522899,30.557 C10.7812899,30.532 10.6042899,30.603 10.4952899,30.742 C10.4452899,30.805 10.4122899,30.876 10.3962899,30.951 L9.68928991,30.054 L9.92928991,29.423 C10.0002899,29.234 9.95228991,29.022 9.80628991,28.883 L8.96328991,28.081 C8.83328991,27.957 8.64328991,27.913 8.47028991,27.967 C8.29628991,28.021 8.16528991,28.165 8.12928991,28.344 L7.74028991,30.256 C7.66628991,30.196 7.57628991,30.157 7.48228991,30.147 L7.03228991,30.093 L9.05228991,1.316 C9.06028991,1.204 9.03028991,1.096 8.97028991,1.006 L21.3522899,1 L25.0462899,18.142 C25.0742899,18.269 25.1522899,18.382 25.2602899,18.453 L25.1172899,18.566 C25.0122899,18.648 24.9442899,18.771 24.9302899,18.901 L24.8172899,19.849 L24.4642899,20.128 C24.3592899,20.21 24.2912899,20.332 24.2772899,20.462 L24.1412899,21.615 C24.1272899,21.727 24.1522899,21.842 24.2122899,21.94 L24.8922899,23.03 L24.4322899,25.113 C24.3992899,25.259 24.4342899,25.411 24.5272899,25.529 L25.0652899,26.211 L25.0652899,26.212 L11.1742899,26.138 C10.9572899,26.138 10.7662899,26.277 10.6982899,26.483 L10.3312899,27.611 C10.2792899,27.77 10.3102899,27.944 10.4142899,28.075 L11.0252899,28.85 C11.0742899,28.912 11.1372899,28.962 11.2052899,28.992 L11.5442899,29.152 L11.4782899,29.716 C11.4682899,29.793 11.4772899,29.872 11.5032899,29.946 Z M25.5992899,20.507 C25.7032899,20.425 25.7722899,20.302 25.7862899,20.172 L25.8992899,19.224 L26.5102899,18.74 C26.6472899,18.633 26.7172899,18.465 26.6972899,18.291 C26.6762899,18.117 26.5702899,17.97 26.4132899,17.896 L25.9722899,17.689 L22.2442899,0.395 C22.1952899,0.166 21.9892899,0 21.7552899,0 L7.94228991,0.006 C7.77928991,0.006 7.62628991,0.086 7.53328991,0.219 C7.43928991,0.352 7.41728991,0.523 7.47228991,0.676 L7.64928991,1.164 C7.68528991,1.265 7.75428991,1.354 7.84428991,1.413 L8.03328991,1.537 L6.00128991,30.499 C5.98228991,30.765 6.17528991,30.999 6.44128991,31.03 L7.15828991,31.115 L7.43728991,31.468 C7.52028991,31.573 7.63828991,31.64 7.77228991,31.655 L7.99228991,31.681 C8.25328991,31.724 8.49828991,31.55 8.55128991,31.286 L8.72328991,30.443 C8.72528991,30.446 8.72728991,30.448 8.72928991,30.451 L9.94928991,31.999 C10.0452899,32.12 10.1882899,32.19 10.3422899,32.19 C10.3592899,32.19 10.4272899,32.183 10.4442899,32.179 L11.1642899,32.03 C11.3062899,32.001 11.4282899,31.912 11.4992899,31.785 C11.5382899,31.715 11.5602899,31.637 11.5622899,31.558 C11.6172899,31.532 11.6672899,31.497 11.7112899,31.452 L12.5122899,30.61 C12.6432899,30.472 12.6852899,30.276 12.6212899,30.095 L12.4842899,29.717 L12.5792899,28.911 C12.6052899,28.697 12.4902899,28.491 12.2952899,28.401 L11.7372899,28.138 L11.3652899,27.666 L11.5362899,27.14 L25.6802899,27.215 C25.8312899,27.215 25.9722899,27.148 26.0662899,27.031 C26.1632899,26.914 26.2002899,26.761 26.1692899,26.613 L26.0212899,25.893 C26.0052899,25.818 25.9712899,25.745 25.9232899,25.685 L25.4592899,25.096 L25.9122899,23.047 C25.9412899,22.92 25.9182899,22.788 25.8492899,22.674 L25.1542899,21.56 L25.2462899,20.785 L25.5992899,20.507 Z"/>
</svg>
