<svg xmlns="http://www.w3.org/2000/svg" width="32" height="32" viewBox="0 0 32 32">
  <path fill-rule="evenodd" d="M30.99182,26.8372827 L1.01327067,26.6772407 L1.75483171,6.00796634 L17.2987861,6.44336009 L30.4271998,6.04076998 L30.99182,26.8372827 Z M31.4073328,5.51392367 C31.4033566,5.38171507 31.3476898,5.25944696 31.252261,5.16700034 C31.1488799,5.07057753 31.0285998,5.03081554 30.8944031,5.03081554 L17.2888456,5.44931044 L1.26874143,5 C0.999353976,5.01689884 0.7896095,5.22167307 0.778674954,5.48012598 L0.000334077809,27.1543845 C-0.00463617044,27.2875872 0.0460603617,27.4197958 0.138506979,27.5152246 C0.230953597,27.6126414 0.36216815,27.6693023 0.494376754,27.6693023 L31.5007734,27.8333205 L31.5027615,27.8333205 C31.6349701,27.8333205 31.7641966,27.7786477 31.8586313,27.683219 C31.952072,27.5867961 32.0037625,27.4555816 31.9997864,27.3223789 L31.4073328,5.51392367 Z"/>
</svg>
