<svg xmlns="http://www.w3.org/2000/svg" width="32" height="32" viewBox="0 0 32 32">
  <path fill-rule="evenodd" d="M13.747197,10.843616 C13.7849727,11.1090401 14.0165974,11.2859894 14.3108503,11.2651134 L14.6011268,11.2233613 L14.3923663,12.3814849 L14.2601513,12.4729419 C14.0881724,12.5932277 14.0096387,12.809941 14.0643141,13.0127369 L14.3058798,13.8935073 L14.2074641,13.9442063 C14.0165974,14.0396396 13.9082408,14.2464119 13.9380637,14.4591488 L14.0792256,15.4323703 C14.0991075,15.5635912 14.1677002,15.6789065 14.2730746,15.7584343 L15.0166596,16.3151289 C15.2164732,16.4632495 15.4908441,16.4423734 15.6658052,16.2674122 L16.3646558,15.5655794 L17.7255754,17.9215906 L17.6738823,18.4315626 C17.6559885,18.6045356 17.7305459,18.7765144 17.8697195,18.8808947 L18.4274082,19.2974216 C18.5317885,19.3759553 18.6640034,19.4067723 18.7962184,19.3918608 L18.8986105,19.3769494 L19.2634443,20.2676608 C19.2972436,20.3501709 19.352913,20.42274 19.4254822,20.4774153 L20.168073,21.03411 C20.2853765,21.1196024 20.4354853,21.1514135 20.5845999,21.1176142 C20.7297381,21.0818267 20.8500239,20.983411 20.9136462,20.8482137 L21.0120618,20.6424355 L21.8311982,20.7537745 C22.0439351,20.7845915 22.2576661,20.6742467 22.3501171,20.4754272 L22.4743793,20.2159677 L23.4814002,20.1831625 L23.5261345,20.2159677 C23.6334971,20.2974837 23.7716766,20.3302889 23.8949447,20.310407 L24.8691603,20.1702392 C25.0560507,20.1424045 25.2101358,20.0141659 25.2697816,19.8342342 L25.3353921,19.6354147 L25.8423818,20.1652687 L26.4448049,30.7931656 L6.4892908,30.9999379 L6.75471485,22.1972041 L6.93862289,21.951662 C7.10264899,21.7319664 7.0579146,21.4198198 6.83821904,21.2557937 L6.46642656,20.9784405 C6.39485154,20.9237651 6.30836505,20.8909599 6.21989037,20.882013 L6.0031771,20.8601429 L6.01311808,20.4416278 L8.56794877,15.6987884 C8.63256511,15.5755203 8.64449428,15.429388 8.5977717,15.2981671 L8.31843029,14.5088537 C8.27966048,14.4024852 8.20510317,14.3110283 8.1106639,14.2533706 L7.1772063,13.6797763 L7.00820972,13.1489282 C7.07680245,13.0465362 7.10563128,12.9232681 7.08773753,12.7990059 L7.04002084,12.4729419 C7.02908577,12.3973905 7.00025694,12.3258155 6.95651665,12.2631873 L6.62945856,11.7929792 L6.78752007,1.00105623 L8.94471174,1.02789686 L8.88904228,4.67822305 C8.88705408,4.78757378 8.9218475,4.89593041 8.98845203,4.98440509 L10.0630715,6.41988195 L10.0302663,6.5202858 C9.98851416,6.64653619 9.99845514,6.78173346 10.058101,6.90102516 L10.1048236,6.99447033 C10.1018413,7.00540541 10.0978649,7.01534638 10.0948826,7.02628145 C10.0402072,7.21317179 10.1008472,7.41497359 10.2489677,7.54221808 L12.6407664,9.59105312 L12.6308254,9.62187015 C12.5642209,9.82566014 12.6338077,10.048338 12.8047925,10.1765766 L13.5463893,10.731283 C13.605041,10.7760174 13.6736338,10.8058403 13.7442147,10.8207518 L13.747197,10.843616 Z M26.8235561,19.9256912 C26.8165974,19.8073936 26.7688807,19.6950606 26.6873647,19.6095682 L25.712155,18.5916123 C25.6018102,18.4753029 25.4437487,18.4206275 25.2807167,18.4434918 L24.9566409,18.4902144 C24.7687565,18.5180491 24.6166596,18.6462877 24.5570137,18.8262193 L24.4228105,19.230817 L23.9575729,19.2974216 L23.9357027,19.2805219 C23.8512044,19.2188879 23.7468242,19.1850885 23.622562,19.1831003 L22.1383744,19.2318111 C21.951484,19.2377757 21.7864638,19.3471264 21.706936,19.5151289 L21.6095145,19.7209071 L20.7943545,19.6105623 C20.5826117,19.5757689 20.3768335,19.6811432 20.2784179,19.8739981 L20.1312914,19.7646474 L19.6710243,18.6413172 C19.5875201,18.435539 19.3747832,18.3122709 19.1401762,18.3371233 L18.8578525,18.3788754 L18.6918382,18.2536191 L18.730608,17.8619447 C18.7415431,17.7575645 18.7196729,17.6541783 18.6669857,17.5627213 L16.9014685,14.5078596 C16.824923,14.3746505 16.6877375,14.2821994 16.5286819,14.2613234 C16.376585,14.2424355 16.2264763,14.298105 16.1181196,14.4044734 L15.266178,15.2593973 L15.0335592,15.0864244 L14.9739134,14.6718857 L15.1170634,14.5993166 C15.3278121,14.4939422 15.4351746,14.2513824 15.3735406,14.0247282 L15.1170634,13.0892824 L15.1299867,13.0803355 C15.2383433,13.00379 15.3109124,12.8904629 15.3347708,12.7612302 L15.7015928,10.7203479 C15.7304216,10.5632805 15.6807167,10.4012426 15.5693778,10.2869214 C15.459033,10.1716061 15.2969951,10.1149425 15.1419158,10.139795 L14.6597785,10.2103759 C14.6180264,9.94196956 14.368508,9.75408512 14.0981134,9.79484312 L13.9778276,9.81174278 L13.686557,9.59502951 L13.6895393,9.58608263 C13.7531616,9.39422181 13.6945098,9.18446723 13.5404247,9.05324635 L11.2261656,7.07002175 C11.2192069,7.01733458 11.2023073,6.9666356 11.1784489,6.91693072 L11.0382812,6.63858341 L11.0889801,6.48648649 C11.1396791,6.33240137 11.1128385,6.16241069 11.0154169,6.03218391 L9.88612212,4.52413793 L9.94676207,0.545759553 C9.94875026,0.412550482 9.89805129,0.287294191 9.80560022,0.190866729 C9.71215505,0.0964274619 9.58888695,0.0427461945 9.45667198,0.0407579994 L6.29742998,0 C6.02703544,0 5.80435759,0.219695558 5.8003812,0.49009009 L5.63337282,11.9371233 C5.63138462,12.0395154 5.66319574,12.1429015 5.72284159,12.2283939 L6.07375803,12.7343896 L6.07475213,12.738366 L6.05884657,12.759242 C5.9634132,12.8874806 5.93557847,13.0554831 5.98329515,13.20758 L6.2864949,14.1579372 C6.32228241,14.2712644 6.39882793,14.3676918 6.49923178,14.4293259 L7.44064215,15.0078906 L7.58776859,15.4224293 L5.08065458,20.0757999 C5.04387297,20.1443927 5.02399102,20.2219323 5.02200283,20.300466 L5.00013268,21.2975458 C4.99416809,21.554023 5.19000531,21.7767008 5.44648248,21.8015533 L5.8023694,21.8383349 C5.77950515,21.8930103 5.76757598,21.9506679 5.76558779,22.0103138 L5.48028179,31.4890339 C5.4763054,31.623237 5.52799848,31.755452 5.62144365,31.8508854 C5.71488881,31.9463187 5.8441215,32 5.97733057,32 L5.98130696,32 L26.975653,31.7812985 C27.1098562,31.7803044 27.2410771,31.7226468 27.3345222,31.623237 C27.4269733,31.5248214 27.4756841,31.3906182 27.4677313,31.256415 L26.8235561,19.9256912 Z"/>
</svg>
