<svg xmlns="http://www.w3.org/2000/svg" width="32" height="32" viewBox="0 0 32 32">
  <path fill-rule="evenodd" d="M6.17662075,21.4562903 C6.03546001,21.4582785 5.9012579,21.519912 5.80980165,21.6242915 C5.7173513,21.7286709 5.67261726,21.8688375 5.6885227,22.0099983 L5.73425083,22.405646 L1.89805859,22.4603209 L2.18932688,21.7793695 C2.24101954,21.6570964 2.24201363,21.5219002 2.19330323,21.4006213 L2.10681743,21.1858979 L2.2937063,20.633184 C2.34341078,20.489041 2.32352899,20.3270044 2.23903136,20.1977727 C2.21219094,20.1590032 2.18137416,20.1242101 2.14558693,20.0943874 L2.49848878,19.7206096 L2.71520034,19.7385033 L3.87729123,20.3548389 C3.9379307,20.3856557 4.00155244,20.4035493 4.06815645,20.4095138 L4.24212215,20.4244252 C4.32164933,20.4363542 4.40117651,20.4254193 4.4797096,20.3926143 L4.86740459,20.2365422 C4.99464807,20.1858436 5.09604522,20.0824583 5.14574971,19.9532266 C5.1954542,19.823995 5.18849557,19.679852 5.12686201,19.5565848 L4.74811382,18.7871594 L4.79682422,18.6748273 L6.09808767,18.3050259 C6.29690561,18.2483628 6.44104862,18.073403 6.45794814,17.8686205 L6.48777084,17.497825 C6.49870582,17.3666052 6.45695406,17.2343912 6.37245643,17.1359764 L6.24421885,16.9838806 L6.3943264,16.6806833 L6.60606751,16.6985769 C6.73927554,16.7174646 6.86651902,16.6767069 6.96891026,16.5941975 C7.07428377,16.5087057 7.14088778,16.3824564 7.15182277,16.245272 L7.15679322,16.179662 C7.22936177,16.1955675 7.30193032,16.1925852 7.37251069,16.178668 C7.4391147,16.2929883 7.54945866,16.3764918 7.67869032,16.4083027 C7.83376832,16.4500545 8.00077539,16.4083027 8.12205434,16.3039233 L8.32186637,16.1339339 C8.35566543,16.1041112 8.38548812,16.0723004 8.41034036,16.035519 C8.42127535,16.0305486 8.43221033,16.0255781 8.44215123,16.0196136 L8.80002353,15.8207957 L9.37063103,16.1070935 L9.6449998,16.4291786 C9.75534375,16.5594043 9.92334492,16.6061265 10.0436298,16.6061265 C10.1957255,16.600162 10.3388744,16.522623 10.4283425,16.3983618 L10.954216,15.6667118 L11.1251994,15.6259541 L11.8230504,16.1269753 C11.9324002,16.2045143 12.0666024,16.2333429 12.2087572,16.2084906 C12.3449475,16.1806561 12.4642382,16.0971526 12.5358127,15.9788559 L13.2276992,14.8396291 L14.1512085,15.4002957 C14.3023101,15.4947342 14.4931754,15.4997047 14.6532238,15.4122248 L15.2397368,15.0871574 C15.3669802,15.0165771 15.4564483,14.8952981 15.4852769,14.7541374 L15.7039767,13.7113373 C15.7576575,13.708355 15.8113383,13.6964259 15.8620369,13.6765441 L16.2487378,13.5224602 C16.4246917,13.4508858 16.5439825,13.2898432 16.5588938,13.1009662 L16.5807638,12.8385265 C16.6980664,12.8176506 16.8103985,12.7530348 16.8849552,12.6566081 L17.3014788,12.1327228 C17.3829942,12.0313256 17.4217637,11.8981176 17.4068524,11.7668978 L17.3521774,11.2937111 L17.4605332,11.2768115 L17.6593511,11.3980905 C17.8064764,11.4865645 17.9844185,11.4945172 18.1355201,11.4179723 L18.9864609,10.9984664 L19.3910554,11.0322655 C19.5212812,11.0501591 19.6515069,11.0133778 19.7548923,10.9288801 C19.862254,10.8433884 19.9298521,10.7151508 19.9407871,10.5789606 L19.9875093,10.0222703 C20.0024206,9.83339326 19.9109644,9.65445711 19.7489277,9.55604223 L19.6564774,9.5003732 L19.6614478,9.43675146 C19.6684065,9.35921246 19.6574715,9.28266755 19.6276488,9.21109309 L19.6067729,9.15641816 L19.6246665,9.14051272 L19.8284549,9.30155526 C20.0143497,9.45464507 20.2817598,9.44967463 20.4616901,9.29459663 L20.48356,9.27570892 L20.5024477,9.2975789 C20.5879395,9.39897605 20.7122007,9.46259779 20.8414323,9.4715446 L20.9060482,9.47651505 L21.2549737,10.3493258 C21.3046782,10.472593 21.4020989,10.572996 21.5223838,10.6227005 L22.0611804,10.8533293 C22.1347431,10.8851402 22.2122821,10.9030338 22.3146733,10.8901106 L23.0274356,10.8085953 L23.7252866,11.4666827 C23.8415951,11.5770266 23.9827559,11.6247429 24.1020466,11.6008848 C24.2402251,11.5909439 24.3694568,11.5233458 24.4559426,11.4139959 L24.7074473,11.0968813 L24.9788338,11.1197454 L25.1865985,11.3642914 C25.2720902,11.4656886 25.3923751,11.5283162 25.524589,11.5382571 C25.6538207,11.5452158 25.7850405,11.5074404 25.8864377,11.4219486 L25.9301776,11.3851673 L26.2631977,11.4120077 C26.4500866,11.4428245 26.6439341,11.3473919 26.7463253,11.1764085 L26.9023974,10.9219215 L27.0415699,10.8334475 L27.1449553,11.1704439 C27.1916775,11.3245278 27.3099742,11.4458068 27.4600817,11.4955113 L27.9700497,11.669477 L28.2811998,12.444867 L28.0933169,12.9965868 C28.0376478,13.1606116 28.072441,13.3455122 28.1847731,13.4797144 L30.5686003,16.2910001 C30.5944466,16.3208228 30.6232752,16.3466691 30.6550861,16.3705273 L29.7524526,17.3506997 L28.4810119,17.9451654 C28.3209634,18.0207162 28.2116135,18.1777824 28.1976963,18.3547304 L28.1688677,18.7046499 L27.9233275,18.9134088 C27.8219304,18.9989005 27.7602968,19.1191854 27.7503559,19.2513993 L27.7473736,19.2861924 L27.1111562,19.4820281 C26.9709896,19.524774 26.8576633,19.6261711 26.8000061,19.7613673 L26.6389636,20.1371332 L24.3714449,21.2882891 L6.17662075,21.4562903 Z M31.5447964,15.5185924 L31.1938827,15.4897638 L29.125182,13.0502676 L29.2822482,12.5900041 C29.3200236,12.4766778 29.3160472,12.3534107 29.2723073,12.246049 L28.8090615,11.0889286 C28.7553806,10.9547265 28.6460308,10.849353 28.5068582,10.8026307 L28.0207483,10.6376118 L27.8010545,9.92286133 C27.7563205,9.77573605 27.6439883,9.65644529 27.5018335,9.60276444 C27.3557023,9.54510724 27.1956538,9.56300085 27.0604576,9.64650439 L26.2741327,10.1415611 C26.2105109,10.1813247 26.1548419,10.2379878 26.1130901,10.3045918 L26.0574211,10.3980362 L25.8297746,10.3801426 C25.7731115,10.3711958 25.7174424,10.3711958 25.6597852,10.3851131 L25.6031221,10.3195031 C25.5176304,10.2191001 25.3943633,10.1564724 25.2661257,10.1465315 L24.5444166,10.0868861 C24.3774095,10.0610398 24.2044379,10.1306261 24.0940939,10.2717868 L24.0135726,10.373184 L23.54138,9.92683769 C23.4389888,9.8294169 23.3067749,9.77673014 23.14275,9.79561785 L22.3315728,9.88806819 L22.1019381,9.78965331 L21.713249,8.82240401 C21.6436627,8.64645013 21.4816261,8.52715936 21.2937432,8.51224802 L21.1277302,8.49833076 L20.9209595,8.25477878 C20.8354678,8.15238754 20.7112066,8.08975988 20.604839,8.08280126 C20.4696428,8.05695492 20.3304702,8.10069487 20.2201263,8.19612749 L20.1296641,8.27267239 L19.9258757,8.11162986 C19.740975,7.95953413 19.474559,7.96351049 19.2926406,8.11958258 L18.6902222,8.6295506 C18.5271915,8.76772908 18.4705284,8.99537562 18.5510496,9.19319948 L18.6623877,9.47055051 L18.6415118,9.72503748 C18.6315709,9.83438735 18.6584113,9.93876677 18.7130862,10.0282348 C18.6981749,10.0332053 18.6842576,10.0391698 18.6703404,10.0451344 L17.9406785,10.4049948 L17.8154232,10.329444 C17.7170083,10.2717868 17.6046762,10.251905 17.480415,10.2648282 L16.7219245,10.3900835 C16.4604789,10.4338235 16.2795546,10.6743932 16.3093773,10.9378269 L16.3958631,11.6754415 L16.2716019,11.8315136 L16.1801456,11.8255491 C16.0548903,11.7987086 15.9226764,11.8424486 15.818297,11.9269462 C15.7099412,12.013432 15.641349,12.1416696 15.630414,12.2778599 L15.5946268,12.7083007 L15.3560453,12.6904071 C15.109511,12.6546199 14.8749058,12.8265974 14.8202309,13.0810844 L14.5597794,14.3276729 L14.4235891,14.4022296 L13.7446258,13.9896824 L13.6521755,13.7590536 C13.5815951,13.5830997 13.4205526,13.4638089 13.2445987,13.4488976 C13.0577098,13.4319981 12.8668446,13.5184839 12.7654474,13.6854909 L11.9642111,15.004648 L11.5178648,14.683557 C11.4005622,14.6000535 11.253437,14.5712249 11.110288,14.6040298 L10.5376924,14.7451906 C10.422378,14.7740192 10.3209808,14.8436055 10.2543768,14.938044 L9.98597257,15.3108276 C9.96112033,15.292934 9.93427991,15.2760345 9.90644539,15.2631113 L9.00878237,14.8137828 C8.86364527,14.7412142 8.69266184,14.7461847 8.54752474,14.8247178 L8.43419851,14.8873454 C8.32683682,14.7521492 8.15088294,14.683557 7.97393497,14.7074152 C7.78108157,14.7342556 7.62799175,14.8694518 7.57232272,15.0483879 C7.53454731,15.0543525 7.49677191,15.0632993 7.46098468,15.0772165 L7.265149,15.1557496 L6.91522942,15.0066362 C6.76512187,14.9420203 6.59513253,14.9519612 6.46291859,15.0364589 C6.32474012,15.1189683 6.23527205,15.2631113 6.22234888,15.4221657 L6.20246709,15.6686999 L6.1527626,15.6647236 C5.94499785,15.6368891 5.75015626,15.7482271 5.65571774,15.9371042 L5.20837736,16.832779 C5.11890929,17.009727 5.14376153,17.2224622 5.2729932,17.375552 L5.36246127,17.4809255 L4.29679709,17.7841229 C4.15265408,17.8248805 4.03535149,17.9272718 3.97570611,18.0654503 L3.74507729,18.6062351 C3.68841418,18.7404372 3.69139645,18.8915388 3.75601228,19.0217646 L3.83852173,19.1887716 L3.08897808,18.8120116 C3.0283386,18.7811949 2.96571095,18.7623071 2.89910694,18.7563426 L2.36031031,18.7126027 C2.20920867,18.6867563 2.05015431,18.7464017 1.94080445,18.8646984 L1.12167451,19.7305505 C0.998407388,19.8617704 0.958643799,20.0436888 1.01133055,20.2136781 C0.951685171,20.3289925 0.937767915,20.4651828 0.979519684,20.5954086 C1.01331873,20.6987939 1.07892866,20.7862738 1.171379,20.8489015 L1.10576908,21.0407608 C1.06799367,21.154087 1.07197003,21.2773541 1.11570998,21.3847158 L1.19424306,21.5795574 L1.06799367,21.873808 L1.05109414,21.8598907 C0.923850659,21.7624699 0.762808124,21.7286709 0.601765589,21.774399 C0.447681682,21.8211212 0.325408646,21.9394179 0.272721891,22.0925077 L0.0261876396,22.8181932 C-0.025505026,22.9692949 0.000341306791,23.1382901 0.0947798304,23.270504 C0.188224264,23.3977475 0.338331812,23.4742924 0.497386168,23.4742924 L0.503350706,23.4742924 L6.2978997,23.391783 C6.43707226,23.3897948 6.57028028,23.3291553 6.66471881,23.2227877 C6.75617506,23.1184083 6.8009091,22.9782417 6.78500366,22.8390691 L6.73927554,22.4444155 L24.4947121,22.2803907 C24.5722511,22.2803907 24.6468078,22.2624971 24.7173882,22.2257157 L27.2503288,20.9413518 C27.3547082,20.8886651 27.4372177,20.8011852 27.4829458,20.6928294 L27.6231124,20.3647798 L28.360727,20.1391214 C28.5565627,20.0774879 28.692753,19.9065044 28.7096525,19.7037101 L28.7235698,19.5386912 L28.9681158,19.3299324 C29.069513,19.2444407 29.1311465,19.1241558 29.1420815,18.9919419 L29.1649456,18.7235376 L30.2624206,18.2105874 C30.3230601,18.1827528 30.3757469,18.1439833 30.4174986,18.096267 L31.8539583,16.5355462 C31.928515,16.4540308 31.9742431,16.3486573 31.9821959,16.2403015 L31.9981013,16.0554008 C32.0219595,15.7830202 31.8181711,15.5424505 31.5447964,15.5185924 Z"/>
</svg>
