<svg xmlns="http://www.w3.org/2000/svg" width="32" height="32" viewBox="0 0 32 32">
  <path fill-rule="evenodd" d="M1.03189346,5.84273321 L11.8538512,5.92126846 L29.4397812,5.02059845 L30.9717155,26.5591376 L0.994117011,27.3305724 L1.03189346,5.84273321 Z M30.3971158,4.46588115 C30.3881688,4.32571066 30.3235512,4.19448721 30.2181748,4.10799903 C30.117769,4.0244932 29.9875396,3.98969911 29.8771926,4.00262263 L11.8240277,4.92715145 L0.534834952,4.84463974 C0.40559974,4.84463974 0.278352763,4.89732794 0.185899881,4.98779258 C0.090464648,5.08123958 0.0377764464,5.20649833 0.0377764464,5.34169824 L0,27.8415486 C0,27.9747602 0.0546764356,28.1039954 0.149117552,28.1964483 C0.242564551,28.2879071 0.36583506,28.3386071 0.497058506,28.3386071 L0.510976144,28.3386071 L31.5174857,27.539337 C31.6536797,27.5353605 31.782915,27.4767076 31.8723855,27.3763018 C31.9638443,27.2749019 32.0085795,27.1446725 31.9986384,27.0074844 L30.3971158,4.46588115 Z"/>
</svg>
