<svg xmlns="http://www.w3.org/2000/svg" width="32" height="32" viewBox="0 0 32 32">
  <path fill-rule="evenodd" d="M27.6722751,26.5277263 C27.6136258,26.5992982 27.5758517,26.6867751 27.5639231,26.7831984 L27.4118326,28.0864048 C27.1752475,28.1380957 27.0092403,28.3538056 27.023157,28.5973491 L27.076836,29.6450833 C27.0818063,29.7415066 27.1136161,29.8339538 27.1692832,29.9085079 L27.3203795,30.1202417 C27.3780347,30.198772 27.454577,30.2584153 27.5430479,30.2932073 C27.4535829,30.3120943 27.3690882,30.3588149 27.2905579,30.4393334 L21.4743411,30.9671767 C21.4484956,30.9045512 21.4107215,30.8488841 21.3600247,30.8001754 L21.113499,30.5645843 L21.1333801,30.3260111 C21.1413326,30.2415164 21.1274158,30.1560277 21.0906358,30.0765032 L20.5429114,28.8746905 C20.5111016,28.8070948 20.4663691,28.7474515 20.4087139,28.6987428 L18.6412838,27.2245589 C18.5736881,27.1698859 18.4931696,27.1321118 18.4027106,27.117201 L18.0359042,27.0575577 C18.031928,27.0575577 18.0269577,27.0565636 18.0229815,27.0565636 L18.0229815,27.0515933 C18.0279518,26.9114316 17.9722847,26.774252 17.869897,26.6748464 L17.4523938,26.2742422 C17.3400656,26.1668842 17.1869811,26.1181755 17.0279323,26.1420329 L16.4692733,26.23448 L15.635261,25.9332813 L15.4056342,25.5525581 C15.3628899,25.4799921 15.3012584,25.4203488 15.2306805,25.3805866 L14.4513413,24.919345 C14.3012389,24.8308741 14.1163447,24.8268979 13.9672364,24.9084104 L13.7902946,25.0018516 L13.708782,24.9879348 L13.5368105,24.864672 C13.4334288,24.7891238 13.3071838,24.7622843 13.168016,24.7771951 L13.1242776,24.7841535 C13.0159256,24.6628788 12.8499184,24.6022414 12.6719825,24.6231166 L12.2256517,24.6966766 L12.2226696,24.6897183 C12.1928479,24.6350452 12.1530857,24.5853425 12.1063651,24.5455803 L11.960239,22.9322287 C11.9413519,22.7304355 11.8051664,22.5624402 11.6133137,22.5037909 L11.4930331,22.4660168 C11.5079439,22.4023973 11.5109261,22.3348015 11.4999915,22.2681998 L11.4443244,21.9242568 C11.4145027,21.7373744 11.2832874,21.5852839 11.1013753,21.5286228 L10.825028,21.4431341 L10.7276106,21.2154954 C10.6699554,21.081298 10.5576271,20.9808984 10.4184594,20.938154 L10.2166662,20.8745345 L10.2097078,20.8337782 C10.193803,20.7373549 10.1510586,20.648884 10.0834628,20.577312 L9.90155073,20.379495 L9.85085392,20.072332 C9.82103226,19.8864437 9.68584076,19.731371 9.50989299,19.6776921 L9.38066582,19.4411069 C9.35283228,19.3754993 9.31108196,19.31685 9.25740298,19.2671473 L8.83592359,18.8864241 L8.76932189,18.4828377 L8.98304375,18.2850208 C9.07449683,18.2005261 9.13016392,18.0852157 9.13911041,17.9619528 L9.17887262,17.4858004 C9.18881317,17.3685019 9.15600935,17.2502093 9.08642549,17.153786 L8.78323866,16.7333006 C8.69874397,16.6160021 8.56554058,16.541448 8.42140258,16.5295193 L8.13809685,16.5066561 L7.56452702,15.8903419 L7.57645568,15.7471979 L7.71661746,15.8485915 C7.93829176,16.0046582 8.24943103,15.9539614 8.40947392,15.7332811 L8.50390916,15.6020659 C8.5983444,15.4718446 8.62319578,15.3038493 8.57249896,15.153747 C8.52677243,15.0185555 8.4253788,14.9092094 8.29416352,14.8525483 L8.21265099,14.3535326 C8.19276989,14.2312638 8.13014441,14.1229118 8.03372106,14.0443814 C8.06056055,14.0324527 8.08640598,14.0165479 8.11125736,13.9986549 L8.14604929,13.9738035 L8.9065015,14.1258939 C9.02976434,14.1497512 9.16097963,14.1239058 9.26734353,14.0573041 L9.38861826,14.1119771 C9.47510106,14.1497512 9.57152441,14.1616799 9.66993588,14.1497512 L9.78624033,14.1308642 C9.98604542,14.0970663 10.1441002,13.9499462 10.1898267,13.7541173 C10.2365473,13.5572944 10.1600051,13.3535131 9.99598597,13.2362145 L9.59637579,12.9489326 C9.52380977,12.8972417 9.43832102,12.866426 9.34885605,12.8584736 L8.62418983,12.7978362 L8.60629684,12.7729848 C8.52876054,12.6656269 8.41345014,12.5930608 8.27627052,12.5711916 C8.1480374,12.5542927 8.01582807,12.5861025 7.91244633,12.6606566 L7.78321916,12.7550918 L7.5426578,12.5811322 C7.39156142,12.4717861 7.19275038,12.4588634 7.02077884,12.5443521 L6.6957228,12.7143356 C6.61918055,12.7550918 6.55754913,12.811753 6.51182259,12.8803428 C6.50685231,12.8733844 6.50088798,12.865432 6.49492365,12.8584736 L5.98994362,12.236195 L5.93626464,11.9091509 C5.92135382,11.8097454 5.87363917,11.7163042 5.80504936,11.6437382 L4.57440906,10.3604129 C4.60621882,10.2580252 4.60423071,10.144703 4.5644685,10.037345 L4.21754325,9.11187962 L4.39547912,8.66256669 C4.429277,8.57906605 4.4382235,8.48860703 4.42430672,8.40013612 L4.2563114,7.37128902 C4.24239463,7.28480622 4.20660864,7.20329369 4.15193561,7.13768605 L3.05946897,5.78974723 L3.00877216,5.48357824 L3.15489827,5.11776594 L3.2473454,5.05116424 C3.3338282,4.98853876 3.39943584,4.89708569 3.43124561,4.79668612 L3.44615643,4.74499525 L3.58830632,4.67044111 C3.74039676,4.59091669 3.84179039,4.43485003 3.85371905,4.26387254 C3.86266555,4.13762754 3.82091523,4.01237658 3.73443243,3.90899485 L3.86266555,1.43777368 C3.87061799,1.29562379 3.81793307,1.16043229 3.71952161,1.06202083 L3.72647999,1.04611595 C3.73045621,1.03617539 3.73443243,1.02623484 3.73840865,1.01629429 L13.1063846,1.39105309 L12.9135379,10.4429195 C12.9105557,10.5860634 12.969205,10.7232431 13.0745748,10.8196664 L27.2189859,23.8040151 L27.9148245,25.3507649 C27.9496165,25.4292953 28.0052836,25.4978851 28.0778496,25.5515641 L28.3174169,25.7225416 L27.6722751,26.5277263 Z M28.356185,28.5744859 L28.535115,27.0416528 L29.4208181,25.9362634 C29.5053128,25.8308936 29.544081,25.6927199 29.5251939,25.5575284 C29.5073009,25.424325 29.4327468,25.3020562 29.3234007,25.2225318 L28.7677239,24.8209335 L28.085802,23.3049994 C28.0589625,23.244362 28.0201944,23.1906831 27.9665154,23.1399862 L13.9125634,10.2391382 L14.1113744,0.923847159 C14.1173387,0.655452262 13.9026228,0.427813627 13.6332339,0.415884965 L3.23541674,0.0003699024 C3.08929063,-0.00559442864 2.93918829,0.061007268 2.84574711,0.168365227 C2.74634159,0.281687517 2.70359722,0.430795793 2.72745454,0.577915958 L2.75926431,0.772750772 L2.64892418,1.01530023 C2.55051272,1.23101021 2.61910253,1.48747644 2.81095518,1.62465606 L2.85668172,1.65745988 L2.73739509,4.00343009 C2.65389446,4.06406745 2.59126898,4.15253836 2.55846516,4.25393199 L2.53063162,4.3424029 L2.45508342,4.39707594 C2.37854118,4.45274303 2.31989192,4.52729716 2.28410593,4.61576807 L2.03459809,5.24401094 C2.00179427,5.32751158 1.99185371,5.41896465 2.00676454,5.50743556 L2.09921167,6.07802323 C2.11312845,6.16550009 2.14990849,6.24701261 2.20358747,6.3116262 L3.29704816,7.66055907 L3.42130505,8.42299939 L3.22149996,8.9240032 C3.17676748,9.03831954 3.17577343,9.1655586 3.21951185,9.280869 L3.5067938,10.0472855 C3.44317427,10.1238278 3.40341206,10.2192571 3.39446556,10.3206507 C3.38154285,10.4637947 3.43124561,10.6049505 3.53065112,10.7083322 L4.97998357,12.2202902 L5.02968632,12.524471 C5.0436031,12.6119479 5.07938908,12.6934604 5.13406212,12.758074 L5.24241413,12.8922715 C5.22949141,12.9539029 5.2275033,13.0155343 5.23744386,13.0781598 L5.2742239,13.3057984 C5.29012878,13.4042099 5.33386721,13.4946689 5.40245701,13.5672349 L5.97105657,14.1765907 C6.05853343,14.27202 6.17881411,14.3276871 6.31102344,14.3326574 L6.35575593,14.3654612 L6.33388671,14.4350451 C6.28716612,14.5831593 6.31400561,14.7471784 6.40545869,14.8734234 L6.4362744,14.9161678 L6.41142302,15.0742226 C6.39551813,15.1686578 6.4074468,15.2660752 6.44522089,15.3505699 L6.58438862,15.6756259 L6.55556102,16.0275215 C6.54462641,16.1676832 6.59234106,16.306851 6.6867763,16.4062565 L7.54066969,17.3237694 C7.62516438,17.4152225 7.74047478,17.4718836 7.86373763,17.4808301 L8.11125736,17.5017053 L8.17288878,17.587194 L8.16493634,17.6885877 L8.10926925,17.7412726 C7.9929648,17.7681121 7.89157117,17.8367019 7.82198731,17.9331252 C7.744451,18.0394891 7.71264124,18.1746806 7.7335164,18.3049019 L7.88262467,19.2174445 C7.90051767,19.3287787 7.95618476,19.4311664 8.04067945,19.5077086 L8.51086754,19.9331642 L8.65699365,20.271143 C8.70769047,20.3894356 8.80311976,20.4838708 8.91942422,20.5325795 L8.9442756,20.6876521 C8.96018048,20.7860636 9.00391891,20.8745345 9.07151466,20.9471005 L9.25342676,21.1439234 L9.28523652,21.3377642 C9.31605223,21.5236525 9.45024968,21.6777311 9.62818556,21.7314101 L9.9045329,21.8178929 L10.0029444,22.0465255 C10.0596055,22.1787349 10.1709397,22.2811226 10.3120955,22.325855 L10.3965902,22.3517005 C10.2902263,22.522678 10.2971847,22.7403761 10.4154773,22.9043952 L10.5675677,23.1141408 C10.6301932,23.2016177 10.7216462,23.2672253 10.8220458,23.297047 L10.9999817,23.3537081 L11.1003813,24.4561153 L11.0178747,24.5704316 C10.9174751,24.7095994 10.8956059,24.8934996 10.9612135,25.0525484 C11.0268212,25.2115972 11.167977,25.3229314 11.3399486,25.3527531 L11.4572471,25.3716401 L11.5119201,25.4750218 C11.6083435,25.6619042 11.8111307,25.7623038 12.032805,25.7364584 L12.5328148,25.6539518 C12.644149,25.7801968 12.8091621,25.838846 12.9831218,25.8149887 L13.1242776,25.7921254 L13.2246772,25.8646915 C13.2863086,25.9084299 13.3548984,25.9362634 13.4344228,25.9511743 L13.7962589,26.0098235 C13.9036169,26.0247344 14.0169392,26.0068414 14.1064041,25.9581327 L14.1849345,25.9163823 L14.6173485,26.1728486 L14.8738147,26.5963161 C14.932464,26.6947275 15.023917,26.7702757 15.1322691,26.8090439 L16.2515752,27.2116362 C16.3231472,27.2394698 16.4036656,27.2474222 16.5030711,27.2364876 L16.9434376,27.1639216 L17.0219679,27.2384757 L17.0080512,27.6072702 C17.0000987,27.8309326 17.1442367,28.0337199 17.3569645,28.0983334 L17.6005081,28.1748757 C17.7506104,28.2235844 17.9126414,28.1997271 18.0438567,28.1042978 L18.086601,28.0744761 L19.6850418,29.3896111 L20.1333606,30.3697495 L20.103539,30.7166748 C20.0916103,30.865783 20.1452893,31.0119092 20.2546354,31.117279 L20.5528519,31.4035669 L20.5826736,31.5824968 C20.6214417,31.8240522 20.8282052,32 21.0727428,32 C21.0797012,32 21.1095228,31.9990059 21.1174753,31.9980119 L27.5947388,31.4095312 C27.6921562,31.3995907 27.7826152,31.3628106 27.8611456,31.298197 L28.0708912,31.315096 C28.3084704,31.3498879 28.5251744,31.1958094 28.5957523,30.9691648 L28.7498309,30.4731313 C28.7717001,30.3995712 28.7776644,30.3210408 28.7647417,30.2474807 L28.6911816,29.7902153 C28.6544016,29.5625767 28.4695073,29.3915992 28.2408746,29.3737062 L28.0569744,29.3587954 L28.0380874,28.9810544 C28.2080708,28.9154468 28.3343158,28.7593801 28.356185,28.5744859 Z"/>
</svg>
