<svg xmlns="http://www.w3.org/2000/svg" width="32" height="32" viewBox="0 0 32 32">
  <path fill-rule="evenodd" d="M1.02070401,22.3600705 L1.45810157,20.6790722 C1.45909566,20.6790722 1.46008974,20.6790722 1.46108383,20.6780781 C1.63604285,20.6581964 1.789132,20.5458648 1.86170023,20.3828348 L1.95116791,20.1770591 C2.11320382,20.2138402 2.27921608,20.1710946 2.39651815,20.0617452 C2.52574925,19.9454372 2.58440028,19.7744545 2.55358364,19.6034718 L2.45516919,19.0607012 C2.43528748,18.9503578 2.37862462,18.8529374 2.29909779,18.7803692 L2.39751224,18.5238951 L2.6102465,18.3638474 C2.71661364,18.2843206 2.78818778,18.1650303 2.80508724,18.0377874 C2.82397486,17.9075622 2.79017595,17.7713725 2.71164321,17.6679876 L2.58141803,17.4930286 L2.81701626,15.1489753 L3.03969138,14.8268917 C3.11524187,14.7185364 3.14506443,14.586323 3.12120638,14.4560978 L3.07746662,14.2085706 L3.2762837,13.5296103 C3.31902937,13.3814916 3.28821272,13.2184616 3.19576278,13.095195 L3.07547845,12.9341531 L3.60234369,9.63975426 L3.61626089,9.636772 C3.76935004,9.6099317 3.89758705,9.51549359 3.97015528,9.37731572 C4.03974125,9.2431142 4.04471168,9.08107828 3.9820843,8.94389451 L3.78624949,8.50848512 L3.92243918,8.31165622 C4.04471168,8.13570311 4.04073534,7.90209305 3.91249833,7.72912219 L3.73555113,7.49551213 L3.66397699,7.08992531 L3.84291235,6.83146311 C3.89460479,6.75889488 3.92442735,6.67240945 3.93138595,6.58492994 C3.98109022,6.58294177 4.03079449,6.57300092 4.07950467,6.55709555 C4.20277125,6.51236171 4.30416796,6.41991177 4.36083083,6.3026097 C4.45029851,6.31453872 4.54473662,6.29962744 4.6272457,6.26284629 L4.89863101,6.14057379 L4.95827613,6.24694092 C5.07657229,6.46265744 5.34099899,6.55808964 5.56069186,6.47558055 L6.37385368,6.18530763 L6.72178356,6.42687037 L7.1263763,7.07401994 L7.22976118,8.61087591 C7.24367837,8.83454512 7.40670837,9.02143316 7.62739532,9.066167 L9.57381446,9.46479523 C9.68515202,9.48567103 9.80046592,9.46777749 9.89291586,9.41906731 L11.4774879,8.61485225 L13.1604744,8.76396505 L13.3105813,9.04230896 C13.4368302,9.27194267 13.7191504,9.36638078 13.9517664,9.25603731 L14.3871758,9.06020249 C14.494537,9.12680621 14.6257563,9.15066426 14.7539933,9.12680621 L21.6022473,7.70625823 C21.6946973,7.68637652 21.7791945,7.64164268 21.8438101,7.57802122 L22.1817991,7.25494348 L29.3958766,7.16050537 L29.4187405,7.28675421 C29.4445867,7.43288476 29.5340544,7.5591336 29.6632855,7.63369 L30.7597617,8.25598744 L30.9585787,8.75899463 L28.3162999,14.1031975 C28.2805128,14.1767598 28.2626193,14.2552926 28.2646074,14.3288549 L28.2795187,15.4491891 C28.283495,15.7076513 28.4882766,15.9223737 28.7437566,15.937285 L29.2318525,15.9710839 C29.1901009,16.0456403 29.1662428,16.1311317 29.1662428,16.2186112 L29.2119708,26.3632523 L1.70960517,26.2220922 L1.45511931,25.882115 L1.30401834,23.0668652 C1.30103608,23.006226 1.2861248,22.9485691 1.26027858,22.8919062 L1.02070401,22.3600705 Z M31.9645931,8.59994097 L31.6206396,7.72812811 C31.578888,7.62275506 31.5023434,7.53428146 31.4019408,7.47662451 L30.3571571,6.88414964 L30.3004942,6.57001866 C30.2577486,6.33243226 30.0519729,6.16045549 29.8054397,6.16045549 L21.9720471,6.26284629 C21.8438101,6.26483446 21.7235257,6.31354464 21.6350521,6.40003007 L21.2592879,6.76187714 L14.7609519,8.10985689 L14.7261589,8.08599884 C14.5790343,7.9796317 14.3881699,7.96670859 14.2360748,8.03828274 L13.9646895,8.16055524 L13.9060385,8.05319402 C13.8265116,7.90905164 13.679387,7.81262536 13.5133747,7.79771408 L11.4337482,7.61380829 C11.3412982,7.60386744 11.2369193,7.62076689 11.1544102,7.66550073 L9.59767251,8.45480451 L8.19601215,8.16751384 L8.10952672,6.88912006 C8.10555038,6.80760506 8.08069825,6.72708415 8.03497032,6.65252775 L7.51108734,5.8135197 C7.47530026,5.75685684 7.42857825,5.70715257 7.37290947,5.66937733 L6.72973624,5.223033 C6.59951106,5.13356532 6.43051655,5.11169544 6.28040966,5.16338788 L5.62729558,5.39699794 L5.55273917,5.25981416 C5.4284785,5.03216861 5.14914052,4.93574233 4.91155412,5.04509172 L4.38767113,5.28068995 L4.16996644,5.21706849 C4.04073534,5.17730507 3.90852199,5.19221635 3.792214,5.2568319 C3.75543284,5.27571952 3.72163394,5.30057166 3.69181138,5.32840605 L3.55760985,5.23496202 C3.39060351,5.11765995 3.1738929,5.11467769 3.00291022,5.22502117 C2.83391571,5.33337647 2.74743028,5.53119946 2.78222327,5.73001653 L2.90847211,6.43382897 L2.73053083,6.69129708 C2.65498035,6.80064647 2.62515778,6.93186573 2.64901583,7.06209092 L2.77924102,7.78578506 C2.79216413,7.86332372 2.82298077,7.93489786 2.86970278,7.99752524 L2.9025076,8.04027091 L2.81105175,8.17248426 C2.71064913,8.31364439 2.69374967,8.50152652 2.76532382,8.66058018 L2.84385656,8.8355392 C2.75538297,8.91108969 2.69573785,9.01546865 2.67585614,9.13475889 L2.0605173,12.9828633 C2.03864742,13.1160708 2.07443449,13.2542486 2.15396132,13.3586276 L2.2503876,13.4898469 L2.08934578,14.0425583 C2.06846998,14.1151266 2.06449364,14.1936593 2.07741675,14.2682157 L2.10624523,14.4282634 L1.92730986,14.6867256 C1.87959376,14.7553175 1.85076529,14.8338503 1.83983035,14.9203357 L1.57242139,17.5864726 C1.56347462,17.683893 1.58236224,17.7813134 1.626102,17.8658106 C1.57937998,17.9135267 1.54259883,17.9711837 1.51973486,18.033811 L1.13999426,19.0378373 C1.10023084,19.1432103 1.09724858,19.255542 1.12905932,19.3589268 C1.10718944,19.3599209 1.08432547,19.3629032 1.06344968,19.3678736 C0.874573464,19.4046548 0.72546066,19.5438267 0.676750477,19.7307148 L0.0146896262,22.2825319 C-0.0121506785,22.3908872 -0.00220982489,22.5071952 0.0445121871,22.6085919 L0.316891576,23.214984 L0.469980722,26.0868966 C0.475945234,26.185311 0.510738221,26.2777609 0.569389258,26.3562937 L1.06046743,27.0133841 C1.15391145,27.139633 1.30203017,27.2141894 1.45710749,27.2141894 L29.7100075,27.3593258 L29.7110016,27.3593258 C29.8442091,27.3593258 29.9684697,27.3086275 30.0629078,27.2141894 C30.1553578,27.1217394 30.2080443,26.9925083 30.2080443,26.860295 L30.1603282,16.3717003 L30.367098,16.0744688 C30.4436425,15.9641253 30.472471,15.8329061 30.449607,15.7016868 C30.4247549,15.5704675 30.3521867,15.4571418 30.2428373,15.3815913 L29.8183628,15.086348 C29.7448005,15.0336614 29.657321,15.0038389 29.5658652,14.9978744 L29.2676396,14.9769986 L29.260681,14.435222 L31.9457055,9.0055278 C32.0113151,8.87828487 32.0172797,8.73016615 31.9645931,8.59994097 Z"/>
</svg>
