<svg xmlns="http://www.w3.org/2000/svg" width="32" height="32" viewBox="0 0 32 32">
  <path fill-rule="evenodd" d="M15.6311138,18.2919347 C15.122178,18.2919347 14.708206,17.8779627 14.708206,17.3686751 C14.708206,16.8597393 15.122178,16.4457673 15.6311138,16.4457673 C16.1400497,16.4457673 16.5543734,16.8597393 16.5543734,17.3686751 C16.5543734,17.8779627 16.1400497,18.2919347 15.6311138,18.2919347 M30.2889583,5.39781495 L29.4430767,4.55158163 L26.4576949,7.53696336 C28.8205359,10.1365105 30.2622277,13.5872151 30.2622277,17.3685344 C30.2622277,25.4362401 23.6988195,32 15.6311138,32 C7.56340815,32 1,25.4362401 1,17.3685344 C1,9.53683146 7.18531138,3.12360687 14.927678,2.7553582 L14.927678,0 L16.3345497,0 L16.3345497,2.7553582 C19.8394188,2.9220725 23.0256314,4.32683388 25.4630366,6.54230507 L28.4480667,3.55692335 L27.602185,2.71104174 L28.5968433,1.71603174 L31.2836165,4.40315667 L30.2889583,5.39781495 Z M15.6311138,30.5931283 C22.9229298,30.5931283 28.855356,24.6607021 28.855356,17.3685344 C28.855356,10.0767185 22.9229298,4.14429228 15.6311138,4.14429228 C8.33929788,4.14429228 2.40687169,10.0767185 2.40687169,17.3685344 C2.40687169,24.6607021 8.33929788,30.5931283 15.6311138,30.5931283 Z M16.334198,15.1479282 C17.2764503,15.4468884 17.9612451,16.3289969 17.9612451,17.3686751 C17.9612451,18.6535007 16.9159394,19.6988064 15.6311138,19.6988064 C14.34664,19.6988064 13.3013343,18.6535007 13.3013343,17.3686751 C13.3013343,16.3293487 13.9857774,15.4472401 14.9273263,15.1482799 L14.9273263,6.86919171 L16.334198,6.86919171 L16.334198,15.1479282 Z"/>
</svg>
