<svg xmlns="http://www.w3.org/2000/svg" width="32" height="32" viewBox="0 0 32 32">
  <path fill-rule="evenodd" d="M27.1685473,8.55335514 C26.7774383,8.17336305 26.2040327,7.58804192 25.8354622,7.19338347 L26.8331216,6.17740464 L28.1668696,7.536043 L27.1685473,8.55335514 Z M29.427036,6.912056 C29.6179502,7.10471865 29.7008123,7.3807129 29.6537466,7.66670694 C29.6232534,7.86470282 29.5198415,8.0653653 29.3647237,8.22402867 L27.4124932,10.2166538 L27.0326535,10.1213225 C26.6183431,10.0139914 24.3777526,7.65337389 24.291576,7.34338035 L24.188827,6.97005479 L24.4599518,6.68672736 L26.1470236,4.9680965 C26.2948496,4.81343305 26.4950443,4.7054353 26.7058455,4.67010271 C27.0001715,4.62277036 27.2739478,4.71210183 27.4648621,4.91343097 L29.427036,6.912056 Z M18.3732351,6.27653591 C24.1629741,7.50651028 28.5254966,12.7437345 28.5254966,19.0009375 C28.5254966,26.1681215 22.8000587,32 15.7627483,32 C8.72543797,32 3,26.1681215 3,19.0009375 C3,12.785067 7.30683924,7.57717548 13.040232,6.30253536 L13.040232,5.3632216 L11.7071469,5.3632216 L11.7071469,1.34063874 C11.7071469,0.601987459 12.3050796,0 13.040232,0 L18.3732351,0 C19.1077246,0 19.7056573,0.601987459 19.7056573,1.34063874 L19.7056573,5.3632216 L18.3732351,5.3632216 L18.3732351,6.27653591 Z M15.7627483,30.6586946 C22.0655692,30.6586946 27.1924116,25.4288036 27.1924116,19.0009375 C27.1924116,12.5724047 22.0655692,7.3425137 15.7627483,7.3425137 C9.4599274,7.3425137 4.33308507,12.5724047 4.33308507,19.0009375 C4.33308507,25.4288036 9.4599274,30.6586946 15.7627483,30.6586946 Z M14.6777854,19.0567363 L21.1920704,12.3175434 L22.1479673,13.2521906 L15.6330194,19.9907169 L14.6777854,19.0567363 Z M13.040232,4.02191621 L14.373317,4.02191621 L14.373317,6.08053999 C14.8300528,6.02987438 15.2934175,6.00187496 15.7627483,6.00187496 C16.1936311,6.00187496 16.6192107,6.02454116 17.0394872,6.06720693 L17.0394872,4.02191621 L18.3732351,4.02191621 L18.3732351,1.34063874 L13.040232,1.34063874 L13.040232,4.02191621 Z"/>
</svg>
