<svg xmlns="http://www.w3.org/2000/svg" width="32" height="32" viewBox="0 0 32 32">
  <path fill-rule="evenodd" d="M20.7145838,17.557458 L21.5425353,18.7351166 L21.5425353,0.709041133 C21.5425353,0.505105132 21.4703678,0.436169019 21.2581738,0.436169019 L1.87240536,0.436169019 C1.69108902,0.436169019 1.43616902,0.520902991 1.43616902,0.709041133 L1.43616902,24.5612952 C1.43616902,24.7400983 1.66272468,24.8510423 1.87240536,24.8510423 L20.3444113,24.8510423 C20.205821,24.5566277 19.9121244,24.0277585 19.5577497,23.4148733 L2.87233804,23.4148733 L2.87233804,1.87269708 L20.1063663,1.87269708 L20.1063663,16.9230303 C20.342257,17.081727 20.5505015,17.2924848 20.7145838,17.557458 Z M17.2415681,17.6694792 C17.5367009,17.1348652 18.0752642,16.7560757 18.6701972,16.6386689 L18.6701972,3.3088661 L4.30850706,3.3088661 L4.30850706,21.9787043 L18.7114871,21.9787043 C18.0759823,20.9166573 17.4749456,19.9389853 17.3306106,19.7170971 L17.3291744,19.7181743 C17.3291744,19.7181743 17.3288154,19.7181743 17.3288154,19.7181743 C17.3284563,19.7174562 17.3280973,19.7167381 17.3277383,19.7163791 C16.9245338,19.0467653 16.8932971,18.3010345 17.2415681,17.6694792 Z M28.3697238,27.7004017 C29.1398694,28.6436057 30.3609721,29.988937 32,31.6990553 L30.9627269,32.6928842 C29.297848,30.9551197 28.0512533,29.581065 27.2577699,28.6087786 C25.6284361,26.6132217 25.6833696,24.8061621 25.7530238,22.5179858 C25.7770796,21.7349146 25.8040078,20.8473622 25.7673855,19.8528151 C25.6815744,17.5093463 24.1053789,15.5708772 22.9787043,14.4761574 L22.9787043,20.778426 L23.4447412,21.4412181 L22.2692368,22.2670152 L19.4992258,18.3229361 C19.3789467,18.1243857 19.229226,18.0382156 19.0439602,18.033189 C18.8278168,18.0374975 18.6041335,18.1732154 18.4992931,18.3631488 C18.4009156,18.5415928 18.4206629,18.7476831 18.5585351,18.9760339 L18.5509952,18.9807015 C18.8034019,19.3304086 19.2166596,20.0233602 20.053228,21.4254202 C21.6355272,24.0769472 21.7489846,24.4607634 21.7970962,24.6244867 C22.4279335,26.7658147 24.1179454,29.7045755 25.4248592,31.7924063 L24.2077059,32.554653 C23.0878532,30.7655454 21.6954873,28.3642708 20.8632273,26.2872114 L1.87240536,26.2872114 C0.822565806,26.2872114 0,25.5292732 0,24.5612952 L0,0.709041133 C0,-0.249242645 0.822565806,-1 1.87240536,-1 L21.2581738,-1 C22.271032,-1 22.9787043,-0.297354307 22.9787043,0.709041133 L22.9787043,12.561026 C23.9807912,13.3469695 27.0653233,16.0616879 27.2028364,19.8000359 C27.241254,20.8426946 27.2132487,21.7560981 27.1884747,22.5617889 C27.1213338,24.7810291 27.080044,26.1206158 28.3697238,27.7004017 Z M13.6998676,9.05311133 L16.4232031,9.05311133 L16.4232031,7.61694231 L13.6998676,7.61694231 L13.6998676,9.05311133 Z M13.6998676,6.18077329 L16.4232031,6.18077329 L16.4232031,4.74460427 L13.6998676,4.74460427 L13.6998676,6.18077329 Z M13.6998676,11.9254494 L16.4232031,11.9254494 L16.4232031,10.4892803 L13.6998676,10.4892803 L13.6998676,11.9254494 Z M6.46265287,14.7981464 L16.515836,14.7981464 L16.515836,13.3619774 L6.46265287,13.3619774 L6.46265287,14.7981464 Z M6.46265287,17.6704845 L15.0613558,17.6704845 L15.0613558,16.2343155 L6.46265287,16.2343155 L6.46265287,17.6704845 Z M7.18073738,10.4892803 L7.18073738,6.18077329 L10.0530754,6.18077329 L10.0530754,10.4892803 L7.18073738,10.4892803 Z M5.74456836,11.9254494 L11.4892444,11.9254494 L11.4892444,4.74460427 L5.74456836,4.74460427 L5.74456836,11.9254494 Z"/>
</svg>
