<svg xmlns="http://www.w3.org/2000/svg" width="32" height="32" viewBox="0 0 32 32">
  <path fill-rule="evenodd" d="M26.253293,16.5882421 L26.0525669,16.9269035 C24.9797902,18.7288752 22.789258,22.409484 23.2437447,27.437405 L13.3974265,30.3320262 C13.3336507,29.9600321 13.332308,29.5947045 13.3309654,29.2160437 C13.3282801,28.2120595 13.3249235,27.0740774 12.1386929,25.785431 C12.0030853,25.6394333 11.8929881,25.508102 11.7949747,25.3927705 C11.2397892,24.7374474 10.8524349,24.4527852 9.98776878,24.4527852 C9.6420366,24.4527852 9.21977342,24.4981179 8.68069975,24.5841165 C7.91941763,24.699448 7.22795327,24.5461171 6.7815224,24.1647898 C6.44787406,23.8801276 6.27870026,23.4948003 6.27870026,23.0201411 C6.27870026,21.7854938 6.1981413,21.4561657 5.8027311,21.0615052 C5.73425599,20.9935063 5.71075963,20.9535069 5.70606036,20.9528402 C5.72015818,20.8708415 5.8571084,20.6515116 5.94035265,20.5195137 L6.42907697,19.7388593 L5.53285861,19.5081963 C5.30997883,19.4508638 5.2737273,19.396198 5.26768538,19.3495321 C5.28245452,19.2542003 5.322734,19.0548701 5.36771275,18.824207 C5.45431363,18.3882139 5.5516557,17.893555 5.58119398,17.6248925 L5.64698379,17.0202354 L5.04883356,16.8922374 C4.71719919,16.8209052 4.38690748,16.8202385 4.09488127,16.8202385 C3.48598984,16.8202385 3.41348678,16.7829058 3.37253598,16.6855739 C3.32420061,16.5662425 3.48263322,16.3242463 3.84246321,15.9655853 C5.6362426,14.1856132 6.14175004,9.74501633 6.14913461,9.68101734 C6.46465718,5.80174495 9.30838827,1.57714466 16.3425276,1.35781478 C21.30026,1.20915044 26.9266316,3.52911399 27.5986275,8.14637478 C28.3135883,13.0642975 28.1189041,13.3976256 26.253293,16.5882421 M28.9453047,7.95304449 C29.7280692,13.3362932 29.3769665,13.9362838 27.4294537,17.2668981 L27.2240284,17.614226 C26.1875032,19.3548653 24.0318798,22.9774751 24.6562117,27.8393987 L24.7287148,28.4093897 L12.51732,32 L12.2917549,31.4166758 C11.9748897,30.5953554 11.9728757,29.8647002 11.9708617,29.2200437 C11.9681764,28.3147246 11.9654911,27.6007358 11.1350626,26.69875 C10.9860285,26.5360858 10.8625048,26.3914215 10.7537502,26.2620902 C10.2945641,25.7200987 10.2771097,25.6994323 8.89015303,25.9187622 C7.73211806,26.0940928 6.64188688,25.8274303 5.89470258,25.1894403 C5.26432876,24.6521154 4.91792525,23.8814609 4.91792525,23.0201411 C4.91792525,22.3341519 4.88570167,22.1134887 4.86690458,22.0428231 C4.85817736,22.0341566 4.84877882,22.0254901 4.83938027,22.0161569 C4.2727823,21.4514991 4.28150952,20.9081743 4.44262742,20.4601813 C4.0955526,20.183519 3.90556773,19.7928585 3.90556773,19.3235325 C3.90556773,19.2162009 3.92503614,19.1108692 4.03311941,18.5648778 C4.05661577,18.4435463 4.08414008,18.3068818 4.10965041,18.1715506 C3.4765913,18.166884 2.51726841,18.1788838 2.11313099,17.1948993 C1.69959503,16.1855818 2.52666696,15.3622614 2.87978371,15.0109336 C3.95524575,13.9429504 4.62522772,11.0969951 4.79440152,9.553686 C5.34690169,2.7604594 11.3378026,0.162500223 16.2995629,0.00716933013 C21.8494035,-0.158828062 28.1598549,2.55979589 28.9453047,7.95304449 Z M18.2744656,11.9874478 C17.4198694,11.9874478 16.7250484,11.296792 16.7250484,10.4481386 C16.7250484,9.60015194 17.4198694,8.90949613 18.2744656,8.90949613 C19.1290619,8.90949613 19.8245542,9.60015194 19.8245542,10.4481386 C19.8245542,11.296792 19.1290619,11.9874478 18.2744656,11.9874478 Z M18.2744656,7.55885068 C16.6699998,7.55885068 15.3642734,8.85483032 15.3642734,10.4481386 C15.3642734,12.0421136 16.6699998,13.3387599 18.2744656,13.3387599 C19.8796028,13.3387599 21.1846579,12.0421136 21.1846579,10.4481386 C21.1846579,8.85483032 19.8796028,7.55885068 18.2744656,7.55885068 Z M23.610288,10.6749351 L22.0541575,10.8769319 L21.9454029,11.3282581 C21.8527601,11.7069188 21.7023834,12.0682465 21.4969581,12.4022412 L21.2525959,12.798235 L22.2092335,14.0342156 C22.1065208,14.1448805 21.9991089,14.2515455 21.8869977,14.3542106 L20.6430332,13.4042255 L20.2442663,13.6468884 C19.9079327,13.8515518 19.5440747,14.0015495 19.162091,14.0928814 L18.7082756,14.202213 L18.5041929,15.7468554 C18.3524735,15.7541886 18.2014255,15.7541886 18.0490348,15.7468554 L17.8456235,14.202213 L17.3904654,14.093548 C17.0084817,14.0028828 16.6439524,13.8528851 16.3069474,13.6482217 L15.9081806,13.4062255 L14.6642161,14.3555439 C14.5527762,14.2535455 14.4453643,14.1468805 14.3426516,14.0362156 L15.2986179,12.8009017 L15.0535844,12.4042412 C14.8474877,12.0702465 14.6957683,11.7082522 14.6037969,11.3275915 L14.494371,10.8762652 L12.9395831,10.6749351 C12.9335412,10.5236041 12.9335412,10.3729398 12.9395831,10.2229422 L14.494371,10.0209453 L14.6037969,9.56895243 C14.6957683,9.1889584 14.8474877,8.82696409 15.0535844,8.49296934 L15.2986179,8.0963089 L14.3426516,6.86166163 C14.4453643,6.75099671 14.5527762,6.64366506 14.6642161,6.54166666 L15.9081806,7.49165174 L16.3076188,7.24898888 C16.6439524,7.04432543 17.0084817,6.89499444 17.3904654,6.80366255 L17.8456235,6.69499759 L18.0490348,5.15035519 C18.2014255,5.14368863 18.3518022,5.14302197 18.5041929,5.15035519 L18.7076043,6.69566424 L19.162091,6.8043292 C19.5440747,6.89632776 19.9079327,7.0463254 20.243595,7.25032219 L20.6430332,7.4936517 L21.8869977,6.54366663 C21.9991089,6.64566503 22.1065208,6.75233002 22.2092335,6.8636616 L21.2525959,8.09964218 L21.4969581,8.49563596 C21.7023834,8.82896406 21.8527601,9.18962506 21.9454029,9.56895243 L22.0541575,10.0202787 L23.610288,10.2222755 C23.6170012,10.3736065 23.6170012,10.5236041 23.610288,10.6749351 Z M24.8394833,9.01962773 L23.1349901,8.79829787 C23.0651724,8.59563439 22.9819281,8.39697084 22.8866,8.20497386 L23.9352091,6.85032848 L23.6230431,6.43966826 C23.248444,5.94900931 22.8087264,5.51101619 22.3139601,5.13968869 L21.9004242,4.8290269 L20.5369639,5.86967722 C20.342951,5.77501204 20.1428963,5.69301333 19.9388136,5.62301443 L19.7152625,3.9297077 L19.2016992,3.85904214 C18.5793813,3.77304349 17.9738465,3.77371015 17.3521999,3.85837549 L16.8379652,3.92904104 L16.6150854,5.62168112 C16.4096601,5.69101336 16.2096054,5.77367873 16.0149212,5.86901056 L14.6507896,4.82769359 L14.2372536,5.13768872 C13.749872,5.50368297 13.2973992,5.95300924 12.9288419,6.43633498 L12.6160047,6.8469952 L13.6639424,8.20164058 C13.567943,8.39497088 13.4846987,8.59430108 13.4142096,8.79829787 L11.7090451,9.02029438 L11.6378847,9.53095303 C11.5532978,10.1402768 11.5532978,10.7582671 11.638556,11.3669242 L11.7090451,11.8769162 L13.4142096,12.0989127 C13.4846987,12.3029095 13.567943,12.5022397 13.6639424,12.69557 L12.6160047,14.0495487 L12.9288419,14.4608756 C13.2973992,14.9442013 13.749872,15.3935276 14.2372536,15.7588552 L14.6507896,16.069517 L16.0149212,15.0288666 C16.2096054,15.1235318 16.4096601,15.2061972 16.6150854,15.2755294 L16.8379652,16.9681695 L17.3521999,17.0388351 C17.6630232,17.0815011 17.9691472,17.1028341 18.2752712,17.1028341 C18.5827379,17.1028341 18.8902046,17.0808344 19.2016992,17.0381684 L19.7152625,16.9675029 L19.9388136,15.2741961 C20.1428963,15.2041972 20.342951,15.1221985 20.5369639,15.0275333 L21.9010955,16.0681837 L22.3146315,15.7575219 C22.8087264,15.3861944 23.248444,14.9488679 23.6230431,14.4575423 L23.9352091,14.0468821 L22.8866,12.6922367 C22.9819281,12.4995731 23.0651724,12.3015762 23.1349901,12.0995793 L24.8401547,11.8775828 L24.9106438,11.3675908 C24.9965733,10.7482672 24.9965733,10.14761 24.9106438,9.53028637 L24.8394833,9.01962773 Z"/>
</svg>
