<svg xmlns="http://www.w3.org/2000/svg" width="32" height="32" viewBox="0 0 32 32">
  <path fill-rule="evenodd" d="M14.8276667,5.16073333 C20.798,5.16073333 25.655,10.0177333 25.655,15.9884 C25.655,21.9587333 20.798,26.8160667 14.8276667,26.8160667 C8.85733333,26.8160667 4,21.9587333 4,15.9884 C4,10.0177333 8.85733333,5.16073333 14.8276667,5.16073333 Z M14.8276667,25.4827333 C20.0626667,25.4827333 24.3216667,21.2237333 24.3216667,15.9884 C24.3216667,10.7534 20.0626667,6.49373333 14.8276667,6.49373333 C9.59233333,6.49373333 5.33333333,10.7534 5.33333333,15.9884 C5.33333333,21.2237333 9.59233333,25.4827333 14.8276667,25.4827333 Z M14.8244,8.73566667 L14.8244,16 L19.4254,16 L19.4254,17.3333333 L13.4910667,17.3333333 L13.4910667,8.73566667 L14.8244,8.73566667 Z M20.119,30.6666667 L20.852,26.8676667 L22.1613333,27.12 L21.22,32 L8.251,32 L7.31033333,27.0856667 L8.61966667,26.835 L9.35333333,30.6666667 L20.119,30.6666667 Z M9.3563,1.33333333 L8.6203,5.28333333 L7.30963333,5.039 L8.2483,0 L21.2243,0 L22.1623,5.07233333 L20.8509667,5.315 L20.1146333,1.33333333 L9.3563,1.33333333 Z M27.4543,13.3333333 L29.4909667,13.3333333 L29.4909667,20 L27.4543,20 L27.4543,18.6666667 L28.1576333,18.6666667 L28.1576333,14.6666667 L27.4543,14.6666667 L27.4543,13.3333333 Z"/>
</svg>
