<svg xmlns="http://www.w3.org/2000/svg" width="32" height="32" viewBox="0 0 32 32">
  <path fill-rule="evenodd" d="M29.1906934,10.0635189 C29.0600278,10.1848513 28.9860284,10.3548498 28.9860284,10.5328484 L28.9860284,11.4068411 C28.9860284,11.5808397 29.0566945,11.7448383 29.1780268,11.8641707 L28.4353663,12.2215011 C28.2800342,12.2955005 28.1620352,12.4288327 28.1067023,12.591498 L27.7400387,13.6654891 L27.5807067,13.6654891 C27.2993757,13.6654891 27.0507111,13.8494876 26.9687117,14.1188187 L26.5093822,15.6281396 C26.4493827,15.8261379 26.4880491,16.0401362 26.6147147,16.2041348 L27.4067081,17.2354596 L25.2527259,20.370767 C25.1793932,20.4774328 25.1400602,20.6040984 25.1400602,20.7334307 L25.1400602,21.785422 C25.1400602,21.899421 25.1707266,22.0120868 25.2293928,22.1107526 L26.4820491,24.2267351 L26.4820491,24.8147302 L26.4493827,24.8433967 L25.5660567,23.8140719 L25.5660567,23.1067444 C25.5660567,22.9427457 25.5027239,22.7854137 25.3900581,22.666748 L24.1387352,21.3447589 C23.9587366,21.1547605 23.6807389,21.0934277 23.4374076,21.1900936 C23.1940763,21.2874261 23.0340776,21.5227575 23.0340776,21.785422 L23.0340776,21.818755 L22.9007454,21.7180892 C22.789413,21.6334232 22.6534141,21.5880903 22.5140819,21.5880903 L20.8520957,21.5880903 C20.4987653,21.5880903 20.212101,21.8747546 20.212101,22.228085 L20.212101,22.2494181 L18.0727853,21.6147567 C17.9054534,21.5654238 17.7254549,21.5860903 17.5734561,21.6720896 L15.2141423,23.0174118 C15.014144,23.1314108 14.8908116,23.3434091 14.8908116,23.5734072 L14.8908116,24.7127311 L14.7241464,24.6287318 L14.0681518,23.2914095 C14.0634852,23.2820763 14.0581519,23.2720763 14.0528186,23.2620764 L13.3041581,21.9167542 C13.2101589,21.7480889 13.0454936,21.6314232 12.8561618,21.5980902 C12.6654967,21.5647571 12.4714983,21.6187567 12.3254995,21.744089 L11.7588376,22.2354182 L11.3908406,21.8727546 L10.8935114,20.5134325 C10.8008455,20.2607679 10.5608475,20.093436 10.292183,20.093436 L9.01019362,20.093436 C8.82286183,20.093436 8.64486331,20.1754353 8.52353098,20.3174341 L8.25953316,20.6274315 L3.87490276,18.9881118 L3.5602387,18.2934509 C3.50157251,18.1634519 3.40090668,18.0574528 3.27490772,17.9907867 L2.01158484,17.3267922 L1.69425413,15.7508052 L1.69425413,13.8354877 C1.69425413,13.7548217 1.67825426,13.6741557 1.64825451,13.598823 L1.34092372,12.8268294 L1.62758801,12.2488342 C1.67158765,12.1608349 1.69425413,12.0635024 1.69425413,11.9648365 L1.69425413,10.6515141 L2.47624766,8.62686414 C2.50491409,8.55353141 2.51958064,8.47553206 2.51958064,8.39686604 L2.51958064,8.22886743 C2.67157938,8.38419948 2.89291088,8.45219891 3.10757577,8.40819928 C3.32290733,8.36353298 3.50023919,8.21086758 3.57690522,8.00486928 L3.81023663,7.3782078 L9.32752433,8.51886503 C9.3555241,8.52419832 9.38352386,8.52819829 9.41219029,8.53019827 L16.4761319,9.02352752 L17.1721261,9.46352388 C17.2741253,9.52819002 17.392791,9.5628564 17.5134566,9.5628564 L18.0887852,9.5628564 L17.7767878,10.2761838 C17.6754553,10.5081819 17.7201216,10.7788463 17.8921202,10.9655115 C18.0634521,11.1515099 18.3281165,11.2195094 18.5687812,11.1388434 L20.0714355,10.6301809 L19.8154376,11.102177 C19.7447715,11.2321759 19.7214384,11.383508 19.7501048,11.5295068 L20.2241009,13.9581534 C20.2701005,14.1934848 20.444099,14.3841499 20.6747638,14.450816 C20.9054286,14.5168154 21.1534265,14.4494826 21.3180918,14.2741508 L22.2947504,13.236826 C22.4067495,13.1181603 22.468749,12.961495 22.468749,12.798163 L22.468749,12.0948355 L22.7687465,12.2395009 L22.6307476,12.4728323 C22.4947488,12.7041637 22.5167486,12.9954947 22.6867472,13.2028263 L23.1787431,13.805488 C23.2887422,13.9394869 23.4487409,14.0241528 23.6220728,14.0381527 C23.794738,14.0534859 23.9674032,13.9948197 24.0974022,13.880154 L25.5447235,12.6048312 L26.3867166,12.6048312 C26.5267154,12.6048312 26.6627143,12.5588316 26.7740467,12.4741656 L27.5087073,11.9168369 C27.6740392,11.7915046 27.7680385,11.5935063 27.7613719,11.3861746 C27.7547052,11.1795097 27.6480395,10.9881779 27.4753742,10.8735122 L27.2833758,10.7461799 L27.5473736,10.3615165 L29.4640244,9.50685686 C29.6213565,9.43685744 29.7440221,9.30619185 29.803355,9.14485985 L29.9380205,8.78286285 C29.9886868,8.84952896 30.0526862,8.90752848 30.1286856,8.95086146 L30.2886843,9.04352736 L29.1906934,10.0635189 Z M21.2334259,11.1721764 C21.2040928,11.2461758 21.1887596,11.3261751 21.1887596,11.4068411 L21.1887596,12.2195011 L21.0507607,11.509507 L21.2334259,11.1721764 Z M21.3427583,10.9701781 L21.3760913,10.9475116 L21.3247584,11.0121777 C21.3187585,11.0201777 21.3127585,11.0281776 21.3067586,11.0361775 L21.3427583,10.9701781 Z M31.7953385,9.39152448 C31.9440039,9.25352562 32.01867,9.05219395 31.9960035,8.85086228 C31.9726704,8.64886395 31.8560047,8.4695321 31.6793395,8.36819961 L31.088011,8.0268691 L31.088011,7.7815378 C31.088011,7.42820738 30.8020134,7.14154309 30.4480163,7.14154309 L29.6260231,7.14154309 C29.3580253,7.14154309 29.118694,7.30820838 29.0260281,7.55953963 L28.6966975,8.44753229 L26.8613793,9.26552552 C26.7533802,9.31352512 26.661381,9.39085782 26.5940482,9.48819035 L25.8593876,10.5575148 C25.7620551,10.6995137 25.7260554,10.8735122 25.7587218,11.0421775 C25.7793883,11.1468433 25.8253879,11.2435092 25.8907207,11.3248418 L25.3027255,11.3248418 C25.1467268,11.3248418 24.9960614,11.381508 24.8793957,11.4841738 L24.314067,11.9828364 C24.316067,11.9141703 24.3067338,11.8455042 24.2867339,11.7788381 C24.2340677,11.6068395 24.1127354,11.4655073 23.9514034,11.387508 L23.7154053,11.2741756 C23.7900714,11.1615098 23.8287377,11.025511 23.8214044,10.8868454 C23.8100712,10.6708472 23.6907389,10.4748489 23.5034071,10.3668497 L22.8354126,9.97885295 C22.7200802,9.91218684 22.590748,9.88418707 22.4674156,9.89418699 C22.4727489,9.81618763 22.4640823,9.73618829 22.4394159,9.65818894 C22.3554166,9.39152448 22.1080853,9.21019265 21.8287543,9.21019265 L20.3780996,9.21019265 C20.3081002,9.21019265 20.2387674,9.22152588 20.172768,9.24419236 L19.5294399,9.46219056 L19.6534389,9.17885957 C19.7401049,8.98086121 19.7207717,8.75286309 19.602106,8.57219792 C19.484107,8.39153275 19.2827753,8.28286698 19.0667771,8.28286698 L17.6987884,8.28286698 L17.0234607,7.85553718 C16.9334614,7.79887099 16.8314623,7.76553793 16.7261298,7.75820465 L9.5441892,7.25620881 L3.5309056,6.01355242 C3.22157483,5.94888629 2.91224406,6.12088486 2.80224497,6.41754908 L2.73224554,6.6042142 L2.34024879,6.19688424 C2.15958361,6.00888579 1.88291924,5.94955295 1.64025458,6.04688548 C1.39825658,6.144218 1.23892456,6.37954939 1.23892456,6.6402139 L1.23892456,8.27686703 L0.45693103,10.301517 C0.428264601,10.3755163 0.413598055,10.4535157 0.413598055,10.5328484 L0.413598055,11.8141711 L0.0669342559,12.5134987 C-0.0143984047,12.6768306 -0.0217316774,12.8661624 0.045601099,13.0354943 L0.413598055,13.95882 L0.413598055,15.814138 C0.413598055,15.8568043 0.418264683,15.8994707 0.426931278,15.9408036 L0.817594714,17.878121 C0.855594399,18.0667861 0.976260068,18.2287847 1.14692532,18.3181173 L2.48491426,19.0214448 L2.81891149,19.7587721 C2.88891091,19.9141041 3.01824318,20.0347698 3.17757519,20.0941026 L8.23153339,21.9834203 C8.48353131,22.0774196 8.76752896,22.0040868 8.94219418,21.7994219 L9.30552451,21.3734254 L9.84485338,21.3734254 L10.2388501,22.4480832 C10.2715165,22.5367491 10.3228494,22.6174151 10.3901822,22.6840812 L11.2815082,23.5627406 C11.5195062,23.7967387 11.8981697,23.8087386 12.1501676,23.5907404 L12.5688309,23.2280767 L12.9261612,23.8700714 L13.6694884,25.3847255 C13.7308212,25.5100578 13.8308204,25.612057 13.955486,25.6747231 L15.2428087,26.3247178 C15.4408071,26.4240503 15.6768051,26.414717 15.8668036,26.2980513 C16.0554687,26.1813856 16.1708011,25.9753873 16.1708011,25.7533891 L16.1708011,23.9454041 L17.9701195,22.9194126 L20.6700972,23.7200726 C20.8640956,23.7774055 21.0734272,23.7400725 21.2347592,23.6194068 C21.3967578,23.4987411 21.4920904,23.3087427 21.4920904,23.1067444 L21.4920904,22.8680797 L22.299417,22.8680797 L23.2880755,23.6167402 C23.4814073,23.7634056 23.7414051,23.7880721 23.9587366,23.680073 C24.1027355,23.6080736 24.2114012,23.4874079 24.2687341,23.3434091 L24.2854006,23.3614089 L24.2854006,24.0514032 C24.2854006,24.2040686 24.3407335,24.3527341 24.440066,24.4687331 L25.9013872,26.1700524 C26.0133863,26.3000513 26.1727183,26.3800506 26.3433836,26.3913839 C26.3580501,26.3927172 26.3727167,26.3933839 26.3867166,26.3933839 C26.5427153,26.3933839 26.6940474,26.336051 26.8113797,26.2320519 L27.5460403,25.5827239 C27.6833725,25.4613916 27.7613719,25.2860597 27.7613719,25.1033945 L27.7613719,24.0514032 C27.7613719,23.9367375 27.7313721,23.8240718 27.6727059,23.7254059 L26.4200496,21.6100901 L26.4200496,20.9320957 L28.7253639,17.5767901 C28.8826959,17.3481253 28.874696,17.0441279 28.7053641,16.8241297 L27.830038,15.6854724 L28.0553694,14.9454785 L28.1980349,14.9454785 C28.471366,14.9454785 28.715364,14.77148 28.8033632,14.5121488 L29.2313597,13.2588258 L30.7253473,12.5414984 C30.9320123,12.4421659 31.0693445,12.2401676 31.0866777,12.0115028 C31.1033442,11.7835047 30.9966784,11.5635065 30.8073467,11.4348409 L30.2660178,11.0675106 L30.2660178,10.8115127 L31.7953385,9.39152448 Z"/>
</svg>
