<svg xmlns="http://www.w3.org/2000/svg" width="32" height="32" viewBox="0 0 32 32">
  <path fill-rule="evenodd" d="M9.62289196,14.7895993 C9.62322253,14.7899299 9.62322253,14.7899299 9.62355311,14.7899299 C9.62322253,14.7899299 9.62322253,14.7899299 9.62289196,14.7895993 L9.62289196,14.7895993 Z M21.9801197,14.7895993 C21.9797891,14.7899299 21.9797891,14.7899299 21.9794585,14.7899299 C21.9797891,14.7899299 21.9797891,14.7899299 21.9801197,14.7895993 L21.9801197,14.7895993 Z M9.62388368,14.7899299 C9.62421426,14.7902604 9.62454483,14.7902604 9.62487541,14.7902604 C9.62454483,14.7902604 9.62421426,14.7902604 9.62388368,14.7899299 L9.62388368,14.7899299 Z M21.9791279,14.7899299 C21.9787974,14.7902604 21.9784668,14.7902604 21.9781362,14.7902604 C21.9784668,14.7902604 21.9787974,14.7902604 21.9791279,14.7899299 L21.9791279,14.7899299 Z M1.50826504,30.6776996 L30.4914367,30.6776996 L29.9026825,28.3226826 C29.6273134,27.2205452 28.8190573,26.347827 27.7410519,25.9881613 L22.129209,24.0291733 C22.1166472,24.0248758 22.1047465,24.0202477 22.0928458,24.0152891 C19.8042744,23.0619105 19.0413071,19.5125257 19.0413071,18.6444355 C19.0413071,18.4470822 19.12924,18.2603072 19.2813046,18.1346887 C20.0303877,17.5158521 20.4958375,16.4950362 20.4958375,15.4712451 C20.4958375,14.4831562 20.9040977,13.9350627 21.29054,13.6762224 C21.4806207,13.1585418 21.7840886,12.2173944 21.8154933,11.6035165 C21.7989645,11.5658309 21.7778077,11.5268231 21.7592955,11.5016994 C21.6055781,11.4878152 21.4607862,11.4207085 21.3507047,11.310627 C21.226739,11.1866613 21.1569877,11.0183986 21.1569877,10.8431938 L21.1569877,6.8762926 C21.1569877,4.93085815 20.5318702,4.53350689 20.2647655,4.36392186 C20.104106,4.26177416 19.8350179,4.09086683 19.7950183,3.7275648 C19.7874151,3.65748288 19.7867539,3.55202942 19.8237783,3.43335296 C19.7242752,2.76294666 18.911391,1.32230039 16.0000162,1.32230039 C14.1600352,1.32230039 10.5785846,3.28261072 10.5785846,6.8762926 C10.5785846,8.10636254 10.5256925,9.09941013 10.4873458,9.82436132 C10.4642056,10.2560924 10.4463545,10.5965847 10.4463545,10.8431938 C10.4463545,11.1883142 10.1812333,11.4719476 9.84371612,11.5016994 C9.82553449,11.5264925 9.80470826,11.5651698 9.78784893,11.6045082 C9.81958414,12.220039 10.1223909,13.1595335 10.312141,13.6758918 C10.6989139,13.9347321 11.1075047,14.4828256 11.1075047,15.4712451 C11.1075047,16.3274346 12.0797261,17.5208107 12.9831878,18.2672493 C13.1352524,18.3925373 13.2231853,18.5796428 13.2231853,18.7769961 C13.2231853,19.6169874 12.4598874,23.0619105 10.1716466,24.0152891 C10.1567707,24.02157 10.1415643,24.0268592 10.1263578,24.0321484 L4.25831928,25.9881613 C3.18064446,26.347827 2.37238835,27.2205452 2.09701929,28.3226826 L1.50826504,30.6776996 Z M31.3383701,32 L0.661331642,32 C0.457697382,32 0.265302676,31.9057861 0.140014714,31.7454572 C0.0147267518,31.5851283 -0.0295703113,31.3758742 0.0196853782,31.1781903 L0.814387912,28.0016942 C1.19983848,26.4592308 2.33106646,25.2374252 3.84014178,24.7336288 L9.68371777,22.7858803 C11.0880008,22.181589 11.7319611,19.9158273 11.8711332,19.0526957 C11.2050244,18.4484045 9.78520433,16.9846179 9.78520433,15.4712451 C9.78520433,15.0157126 9.65363544,14.8210039 9.57925604,14.7770374 C9.39413399,14.7162116 9.2440529,14.5767089 9.17132637,14.394562 C9.09893043,14.2130763 8.46290394,12.5922666 8.46290394,11.504344 C8.46290394,11.4501296 8.46951544,11.3965765 8.48240787,11.344015 C8.55546497,11.0511255 8.76141325,10.6203862 9.13595484,10.3741077 C9.14355807,10.190308 9.15446704,9.98469024 9.1670289,9.7542794 C9.20438388,9.04420409 9.25628417,8.07132158 9.25628417,6.8762926 C9.25628417,4.0726852 11.8830339,0 16.0000162,0 C19.9619587,0 21.0260799,2.26080309 21.145087,3.36360162 C21.7992951,3.83467113 22.4792881,4.69912501 22.4792881,6.8762926 L22.4792881,10.3820415 C22.8458959,10.6296423 23.0482078,11.0541007 23.1206038,11.344015 C23.1338268,11.3962459 23.1404383,11.4501296 23.1404383,11.504344 C23.1404383,12.5922666 22.5044118,14.2130763 22.4320158,14.394562 C22.3589587,14.5767089 22.2092082,14.7162116 22.0240862,14.7770374 C21.9493762,14.8210039 21.8181379,15.0157126 21.8181379,15.4712451 C21.8181379,16.7763556 21.2898789,18.0374996 20.390384,18.9145153 C20.5242669,19.800126 21.1685578,22.1812585 22.5844109,22.7875332 L28.1681549,24.736604 C29.6686353,25.2374252 30.7998633,26.4592308 31.1856444,28.0016942 L31.9800164,31.1781903 C32.0292721,31.3758742 31.984975,31.5851283 31.859687,31.7454572 C31.7343991,31.9057861 31.5420044,32 31.3383701,32 L31.3383701,32 Z"/>
</svg>
