<svg xmlns="http://www.w3.org/2000/svg" width="32" height="32" viewBox="0 0 32 32">
  <path fill-rule="evenodd" d="M26.2374851,25.4805012 C24.8921474,24.550932 22.2114721,22.3504832 22.2381388,20.6747156 C22.2474722,20.0757492 22.6281401,19.562445 23.4008093,19.1060258 L23.9821445,18.7627076 L23.6401434,18.1784644 C22.6434735,16.4745889 21.3161358,13.3258323 21.9974714,12.1305764 C22.0688049,12.0040907 22.288139,11.6199491 23.2388087,11.6186106 L24.2561454,11.6152644 L23.8581441,10.673649 C23.7768105,10.4815782 21.9748046,6.05056498 26.2368185,1.83705352 C30.4988323,6.05056498 28.6968264,10.4815782 28.6161595,10.6723106 L28.2094915,11.6179414 L29.2354949,11.6186106 C30.1854979,11.6199491 30.404832,12.0040907 30.4761656,12.1305764 C31.1561678,13.3224861 29.8294968,16.4739197 28.8334936,18.1791336 L28.4921591,18.7633769 L29.0728277,19.1060258 C29.8454968,19.562445 30.2254981,20.0757492 30.2354981,20.6747156 C30.2628315,22.361191 27.6274896,24.5248318 26.2374851,25.4805012 M30.3068317,18.307627 C31.141501,18.95344 31.5715024,19.7397926 31.5848358,20.6539693 C31.626836,23.259306 28.0708244,25.8753506 26.912154,26.6590262 L26.912154,31.2948258 L25.5621496,31.2948258 L25.5621496,26.6590262 C24.4028125,25.8753506 20.8474676,23.259306 20.8888011,20.6533001 C20.9021345,19.7397926 21.3328026,18.95344 22.1674719,18.307627 C21.4154695,16.8928615 19.7501308,13.3459094 20.8248009,11.4579939 C21.0614683,11.041729 21.5094698,10.5645635 22.3474725,10.3624542 C22.1888053,9.73404133 22.0294715,8.79510286 22.082805,7.66944748 C22.1694719,5.79157055 22.8841409,3.00620926 25.7874837,0.403549462 L26.2368185,0 L26.6868199,0.403549462 C29.589496,3.00620926 30.304165,5.79157055 30.3908319,7.66944748 C30.4441655,8.79510286 30.2848316,9.73471057 30.1268311,10.3624542 C30.9648338,10.5645635 31.4121686,11.041729 31.648836,11.4579939 C32.7235062,13.3459094 31.0581674,16.8928615 30.3068317,18.307627 Z M25.5620163,21.753926 L26.911354,21.753926 L26.911354,12.371903 L25.5620163,12.371903 L25.5620163,21.753926 Z M13.2953765,21.8008395 C16.0087186,23.4110219 18.6407272,27.0898136 18.6407272,31.3220637 L18.6407272,32 L0,32 L0,31.3220637 C0,27.0904828 2.63267521,23.4110219 5.34601735,21.8008395 L5.34601735,20.4811056 C5.34601735,20.1076717 5.04934972,19.8038385 4.68468187,19.8038385 L4.00934634,19.8038385 L4.00934634,14.3830248 L14.6320475,14.3830248 L14.6320475,19.8038385 L13.956712,19.8038385 C13.5920441,19.8038385 13.2953765,20.1076717 13.2953765,20.4811056 L13.2953765,21.8008395 Z M1.37667113,30.6447966 L17.2647227,30.6447966 C16.9873885,27.0851289 14.580714,23.9905805 12.3073733,22.79934 L11.9460388,22.6092769 L11.9460388,20.4811056 C11.9460388,19.5997214 12.5033739,18.8474999 13.2813764,18.5664207 L13.2813764,15.7382282 L5.35935072,15.7382282 L5.35935072,18.5664207 C6.13801992,18.8474999 6.69602173,19.5997214 6.69602173,20.4811056 L6.69602173,22.6092769 L6.33335388,22.79934 C4.06067984,23.9905805 1.65400537,27.0857982 1.37667113,30.6447966 Z"/>
</svg>
